G04 #@! TF.GenerationSoftware,KiCad,Pcbnew,(5.99.0-2267-g4486b0b6d)*
G04 #@! TF.CreationDate,2020-07-12T23:07:06+02:00*
G04 #@! TF.ProjectId,TDR,5444522e-6b69-4636-9164-5f7063625858,A*
G04 #@! TF.SameCoordinates,Original*
G04 #@! TF.FileFunction,Paste,Bot*
G04 #@! TF.FilePolarity,Positive*
%FSLAX46Y46*%
G04 Gerber Fmt 4.6, Leading zero omitted, Abs format (unit mm)*
G04 Created by KiCad (PCBNEW (5.99.0-2267-g4486b0b6d)) date 2020-07-12 23:07:06*
%MOMM*%
%LPD*%
G01*
G04 APERTURE LIST*
%ADD10R,0.650000X1.060000*%
%ADD11R,1.290000X0.890000*%
%ADD12R,1.060000X0.650000*%
%ADD13R,0.730000X0.660000*%
%ADD14R,0.450000X0.630000*%
G04 APERTURE END LIST*
D10*
X138805000Y-81785000D03*
X136905000Y-81785000D03*
X136905000Y-83985000D03*
X137855000Y-83985000D03*
X138805000Y-83985000D03*
G36*
G01*
X137405000Y-79528750D02*
X137405000Y-80441250D01*
G75*
G02*
X137161250Y-80685000I-243750J0D01*
G01*
X136673750Y-80685000D01*
G75*
G02*
X136430000Y-80441250I0J243750D01*
G01*
X136430000Y-79528750D01*
G75*
G02*
X136673750Y-79285000I243750J0D01*
G01*
X137161250Y-79285000D01*
G75*
G02*
X137405000Y-79528750I0J-243750D01*
G01*
G37*
G36*
G01*
X139280000Y-79528750D02*
X139280000Y-80441250D01*
G75*
G02*
X139036250Y-80685000I-243750J0D01*
G01*
X138548750Y-80685000D01*
G75*
G02*
X138305000Y-80441250I0J243750D01*
G01*
X138305000Y-79528750D01*
G75*
G02*
X138548750Y-79285000I243750J0D01*
G01*
X139036250Y-79285000D01*
G75*
G02*
X139280000Y-79528750I0J-243750D01*
G01*
G37*
G36*
G01*
X137405000Y-85328750D02*
X137405000Y-86241250D01*
G75*
G02*
X137161250Y-86485000I-243750J0D01*
G01*
X136673750Y-86485000D01*
G75*
G02*
X136430000Y-86241250I0J243750D01*
G01*
X136430000Y-85328750D01*
G75*
G02*
X136673750Y-85085000I243750J0D01*
G01*
X137161250Y-85085000D01*
G75*
G02*
X137405000Y-85328750I0J-243750D01*
G01*
G37*
G36*
G01*
X139280000Y-85328750D02*
X139280000Y-86241250D01*
G75*
G02*
X139036250Y-86485000I-243750J0D01*
G01*
X138548750Y-86485000D01*
G75*
G02*
X138305000Y-86241250I0J243750D01*
G01*
X138305000Y-85328750D01*
G75*
G02*
X138548750Y-85085000I243750J0D01*
G01*
X139036250Y-85085000D01*
G75*
G02*
X139280000Y-85328750I0J-243750D01*
G01*
G37*
G36*
G01*
X146745000Y-72257500D02*
X146745000Y-71912500D01*
G75*
G02*
X146892500Y-71765000I147500J0D01*
G01*
X147187500Y-71765000D01*
G75*
G02*
X147335000Y-71912500I0J-147500D01*
G01*
X147335000Y-72257500D01*
G75*
G02*
X147187500Y-72405000I-147500J0D01*
G01*
X146892500Y-72405000D01*
G75*
G02*
X146745000Y-72257500I0J147500D01*
G01*
G37*
G36*
G01*
X145775000Y-72257500D02*
X145775000Y-71912500D01*
G75*
G02*
X145922500Y-71765000I147500J0D01*
G01*
X146217500Y-71765000D01*
G75*
G02*
X146365000Y-71912500I0J-147500D01*
G01*
X146365000Y-72257500D01*
G75*
G02*
X146217500Y-72405000I-147500J0D01*
G01*
X145922500Y-72405000D01*
G75*
G02*
X145775000Y-72257500I0J147500D01*
G01*
G37*
G36*
G01*
X157227500Y-66095000D02*
X156882500Y-66095000D01*
G75*
G02*
X156735000Y-65947500I0J147500D01*
G01*
X156735000Y-65652500D01*
G75*
G02*
X156882500Y-65505000I147500J0D01*
G01*
X157227500Y-65505000D01*
G75*
G02*
X157375000Y-65652500I0J-147500D01*
G01*
X157375000Y-65947500D01*
G75*
G02*
X157227500Y-66095000I-147500J0D01*
G01*
G37*
G36*
G01*
X157227500Y-67065000D02*
X156882500Y-67065000D01*
G75*
G02*
X156735000Y-66917500I0J147500D01*
G01*
X156735000Y-66622500D01*
G75*
G02*
X156882500Y-66475000I147500J0D01*
G01*
X157227500Y-66475000D01*
G75*
G02*
X157375000Y-66622500I0J-147500D01*
G01*
X157375000Y-66917500D01*
G75*
G02*
X157227500Y-67065000I-147500J0D01*
G01*
G37*
G36*
G01*
X151182500Y-81475000D02*
X151527500Y-81475000D01*
G75*
G02*
X151675000Y-81622500I0J-147500D01*
G01*
X151675000Y-81917500D01*
G75*
G02*
X151527500Y-82065000I-147500J0D01*
G01*
X151182500Y-82065000D01*
G75*
G02*
X151035000Y-81917500I0J147500D01*
G01*
X151035000Y-81622500D01*
G75*
G02*
X151182500Y-81475000I147500J0D01*
G01*
G37*
G36*
G01*
X151182500Y-80505000D02*
X151527500Y-80505000D01*
G75*
G02*
X151675000Y-80652500I0J-147500D01*
G01*
X151675000Y-80947500D01*
G75*
G02*
X151527500Y-81095000I-147500J0D01*
G01*
X151182500Y-81095000D01*
G75*
G02*
X151035000Y-80947500I0J147500D01*
G01*
X151035000Y-80652500D01*
G75*
G02*
X151182500Y-80505000I147500J0D01*
G01*
G37*
G36*
G01*
X146282500Y-82175000D02*
X146627500Y-82175000D01*
G75*
G02*
X146775000Y-82322500I0J-147500D01*
G01*
X146775000Y-82617500D01*
G75*
G02*
X146627500Y-82765000I-147500J0D01*
G01*
X146282500Y-82765000D01*
G75*
G02*
X146135000Y-82617500I0J147500D01*
G01*
X146135000Y-82322500D01*
G75*
G02*
X146282500Y-82175000I147500J0D01*
G01*
G37*
G36*
G01*
X146282500Y-81205000D02*
X146627500Y-81205000D01*
G75*
G02*
X146775000Y-81352500I0J-147500D01*
G01*
X146775000Y-81647500D01*
G75*
G02*
X146627500Y-81795000I-147500J0D01*
G01*
X146282500Y-81795000D01*
G75*
G02*
X146135000Y-81647500I0J147500D01*
G01*
X146135000Y-81352500D01*
G75*
G02*
X146282500Y-81205000I147500J0D01*
G01*
G37*
G36*
G01*
X153445000Y-76957500D02*
X153445000Y-76612500D01*
G75*
G02*
X153592500Y-76465000I147500J0D01*
G01*
X153887500Y-76465000D01*
G75*
G02*
X154035000Y-76612500I0J-147500D01*
G01*
X154035000Y-76957500D01*
G75*
G02*
X153887500Y-77105000I-147500J0D01*
G01*
X153592500Y-77105000D01*
G75*
G02*
X153445000Y-76957500I0J147500D01*
G01*
G37*
G36*
G01*
X152475000Y-76957500D02*
X152475000Y-76612500D01*
G75*
G02*
X152622500Y-76465000I147500J0D01*
G01*
X152917500Y-76465000D01*
G75*
G02*
X153065000Y-76612500I0J-147500D01*
G01*
X153065000Y-76957500D01*
G75*
G02*
X152917500Y-77105000I-147500J0D01*
G01*
X152622500Y-77105000D01*
G75*
G02*
X152475000Y-76957500I0J147500D01*
G01*
G37*
D11*
X158500000Y-72950000D03*
X160750000Y-72950000D03*
X158500000Y-71680000D03*
X158500000Y-74220000D03*
X160750000Y-74220000D03*
X160750000Y-71680000D03*
G36*
G01*
X149500000Y-67275000D02*
X149500000Y-67075000D01*
G75*
G02*
X149600000Y-66975000I100000J0D01*
G01*
X151025000Y-66975000D01*
G75*
G02*
X151125000Y-67075000I0J-100000D01*
G01*
X151125000Y-67275000D01*
G75*
G02*
X151025000Y-67375000I-100000J0D01*
G01*
X149600000Y-67375000D01*
G75*
G02*
X149500000Y-67275000I0J100000D01*
G01*
G37*
G36*
G01*
X149500000Y-66625000D02*
X149500000Y-66425000D01*
G75*
G02*
X149600000Y-66325000I100000J0D01*
G01*
X151025000Y-66325000D01*
G75*
G02*
X151125000Y-66425000I0J-100000D01*
G01*
X151125000Y-66625000D01*
G75*
G02*
X151025000Y-66725000I-100000J0D01*
G01*
X149600000Y-66725000D01*
G75*
G02*
X149500000Y-66625000I0J100000D01*
G01*
G37*
G36*
G01*
X149500000Y-65975000D02*
X149500000Y-65775000D01*
G75*
G02*
X149600000Y-65675000I100000J0D01*
G01*
X151025000Y-65675000D01*
G75*
G02*
X151125000Y-65775000I0J-100000D01*
G01*
X151125000Y-65975000D01*
G75*
G02*
X151025000Y-66075000I-100000J0D01*
G01*
X149600000Y-66075000D01*
G75*
G02*
X149500000Y-65975000I0J100000D01*
G01*
G37*
G36*
G01*
X149500000Y-65325000D02*
X149500000Y-65125000D01*
G75*
G02*
X149600000Y-65025000I100000J0D01*
G01*
X151025000Y-65025000D01*
G75*
G02*
X151125000Y-65125000I0J-100000D01*
G01*
X151125000Y-65325000D01*
G75*
G02*
X151025000Y-65425000I-100000J0D01*
G01*
X149600000Y-65425000D01*
G75*
G02*
X149500000Y-65325000I0J100000D01*
G01*
G37*
G36*
G01*
X145275000Y-65325000D02*
X145275000Y-65125000D01*
G75*
G02*
X145375000Y-65025000I100000J0D01*
G01*
X146800000Y-65025000D01*
G75*
G02*
X146900000Y-65125000I0J-100000D01*
G01*
X146900000Y-65325000D01*
G75*
G02*
X146800000Y-65425000I-100000J0D01*
G01*
X145375000Y-65425000D01*
G75*
G02*
X145275000Y-65325000I0J100000D01*
G01*
G37*
G36*
G01*
X145275000Y-65975000D02*
X145275000Y-65775000D01*
G75*
G02*
X145375000Y-65675000I100000J0D01*
G01*
X146800000Y-65675000D01*
G75*
G02*
X146900000Y-65775000I0J-100000D01*
G01*
X146900000Y-65975000D01*
G75*
G02*
X146800000Y-66075000I-100000J0D01*
G01*
X145375000Y-66075000D01*
G75*
G02*
X145275000Y-65975000I0J100000D01*
G01*
G37*
G36*
G01*
X145275000Y-66625000D02*
X145275000Y-66425000D01*
G75*
G02*
X145375000Y-66325000I100000J0D01*
G01*
X146800000Y-66325000D01*
G75*
G02*
X146900000Y-66425000I0J-100000D01*
G01*
X146900000Y-66625000D01*
G75*
G02*
X146800000Y-66725000I-100000J0D01*
G01*
X145375000Y-66725000D01*
G75*
G02*
X145275000Y-66625000I0J100000D01*
G01*
G37*
G36*
G01*
X145275000Y-67275000D02*
X145275000Y-67075000D01*
G75*
G02*
X145375000Y-66975000I100000J0D01*
G01*
X146800000Y-66975000D01*
G75*
G02*
X146900000Y-67075000I0J-100000D01*
G01*
X146900000Y-67275000D01*
G75*
G02*
X146800000Y-67375000I-100000J0D01*
G01*
X145375000Y-67375000D01*
G75*
G02*
X145275000Y-67275000I0J100000D01*
G01*
G37*
D12*
X155600000Y-67150000D03*
X155600000Y-65250000D03*
X153400000Y-65250000D03*
X153400000Y-66200000D03*
X153400000Y-67150000D03*
G36*
G01*
X138500000Y-78450001D02*
X138500000Y-77149999D01*
G75*
G02*
X138749999Y-76900000I249999J0D01*
G01*
X139650001Y-76900000D01*
G75*
G02*
X139900000Y-77149999I0J-249999D01*
G01*
X139900000Y-78450001D01*
G75*
G02*
X139650001Y-78700000I-249999J0D01*
G01*
X138749999Y-78700000D01*
G75*
G02*
X138500000Y-78450001I0J249999D01*
G01*
G37*
G36*
G01*
X134500000Y-78450001D02*
X134500000Y-77149999D01*
G75*
G02*
X134749999Y-76900000I249999J0D01*
G01*
X135650001Y-76900000D01*
G75*
G02*
X135900000Y-77149999I0J-249999D01*
G01*
X135900000Y-78450001D01*
G75*
G02*
X135650001Y-78700000I-249999J0D01*
G01*
X134749999Y-78700000D01*
G75*
G02*
X134500000Y-78450001I0J249999D01*
G01*
G37*
G36*
G01*
X132865000Y-79912500D02*
X132865000Y-80257500D01*
G75*
G02*
X132717500Y-80405000I-147500J0D01*
G01*
X132422500Y-80405000D01*
G75*
G02*
X132275000Y-80257500I0J147500D01*
G01*
X132275000Y-79912500D01*
G75*
G02*
X132422500Y-79765000I147500J0D01*
G01*
X132717500Y-79765000D01*
G75*
G02*
X132865000Y-79912500I0J-147500D01*
G01*
G37*
G36*
G01*
X133835000Y-79912500D02*
X133835000Y-80257500D01*
G75*
G02*
X133687500Y-80405000I-147500J0D01*
G01*
X133392500Y-80405000D01*
G75*
G02*
X133245000Y-80257500I0J147500D01*
G01*
X133245000Y-79912500D01*
G75*
G02*
X133392500Y-79765000I147500J0D01*
G01*
X133687500Y-79765000D01*
G75*
G02*
X133835000Y-79912500I0J-147500D01*
G01*
G37*
G36*
G01*
X126645000Y-85657500D02*
X126645000Y-85312500D01*
G75*
G02*
X126792500Y-85165000I147500J0D01*
G01*
X127087500Y-85165000D01*
G75*
G02*
X127235000Y-85312500I0J-147500D01*
G01*
X127235000Y-85657500D01*
G75*
G02*
X127087500Y-85805000I-147500J0D01*
G01*
X126792500Y-85805000D01*
G75*
G02*
X126645000Y-85657500I0J147500D01*
G01*
G37*
G36*
G01*
X125675000Y-85657500D02*
X125675000Y-85312500D01*
G75*
G02*
X125822500Y-85165000I147500J0D01*
G01*
X126117500Y-85165000D01*
G75*
G02*
X126265000Y-85312500I0J-147500D01*
G01*
X126265000Y-85657500D01*
G75*
G02*
X126117500Y-85805000I-147500J0D01*
G01*
X125822500Y-85805000D01*
G75*
G02*
X125675000Y-85657500I0J147500D01*
G01*
G37*
G36*
G01*
X127482500Y-75275000D02*
X127827500Y-75275000D01*
G75*
G02*
X127975000Y-75422500I0J-147500D01*
G01*
X127975000Y-75717500D01*
G75*
G02*
X127827500Y-75865000I-147500J0D01*
G01*
X127482500Y-75865000D01*
G75*
G02*
X127335000Y-75717500I0J147500D01*
G01*
X127335000Y-75422500D01*
G75*
G02*
X127482500Y-75275000I147500J0D01*
G01*
G37*
G36*
G01*
X127482500Y-74305000D02*
X127827500Y-74305000D01*
G75*
G02*
X127975000Y-74452500I0J-147500D01*
G01*
X127975000Y-74747500D01*
G75*
G02*
X127827500Y-74895000I-147500J0D01*
G01*
X127482500Y-74895000D01*
G75*
G02*
X127335000Y-74747500I0J147500D01*
G01*
X127335000Y-74452500D01*
G75*
G02*
X127482500Y-74305000I147500J0D01*
G01*
G37*
G36*
G01*
X130827500Y-86295000D02*
X130482500Y-86295000D01*
G75*
G02*
X130335000Y-86147500I0J147500D01*
G01*
X130335000Y-85852500D01*
G75*
G02*
X130482500Y-85705000I147500J0D01*
G01*
X130827500Y-85705000D01*
G75*
G02*
X130975000Y-85852500I0J-147500D01*
G01*
X130975000Y-86147500D01*
G75*
G02*
X130827500Y-86295000I-147500J0D01*
G01*
G37*
G36*
G01*
X130827500Y-87265000D02*
X130482500Y-87265000D01*
G75*
G02*
X130335000Y-87117500I0J147500D01*
G01*
X130335000Y-86822500D01*
G75*
G02*
X130482500Y-86675000I147500J0D01*
G01*
X130827500Y-86675000D01*
G75*
G02*
X130975000Y-86822500I0J-147500D01*
G01*
X130975000Y-87117500D01*
G75*
G02*
X130827500Y-87265000I-147500J0D01*
G01*
G37*
G36*
G01*
X124090000Y-82672500D02*
X124090000Y-82327500D01*
G75*
G02*
X124237500Y-82180000I147500J0D01*
G01*
X124532500Y-82180000D01*
G75*
G02*
X124680000Y-82327500I0J-147500D01*
G01*
X124680000Y-82672500D01*
G75*
G02*
X124532500Y-82820000I-147500J0D01*
G01*
X124237500Y-82820000D01*
G75*
G02*
X124090000Y-82672500I0J147500D01*
G01*
G37*
G36*
G01*
X123120000Y-82672500D02*
X123120000Y-82327500D01*
G75*
G02*
X123267500Y-82180000I147500J0D01*
G01*
X123562500Y-82180000D01*
G75*
G02*
X123710000Y-82327500I0J-147500D01*
G01*
X123710000Y-82672500D01*
G75*
G02*
X123562500Y-82820000I-147500J0D01*
G01*
X123267500Y-82820000D01*
G75*
G02*
X123120000Y-82672500I0J147500D01*
G01*
G37*
G36*
G01*
X123482500Y-75275000D02*
X123827500Y-75275000D01*
G75*
G02*
X123975000Y-75422500I0J-147500D01*
G01*
X123975000Y-75717500D01*
G75*
G02*
X123827500Y-75865000I-147500J0D01*
G01*
X123482500Y-75865000D01*
G75*
G02*
X123335000Y-75717500I0J147500D01*
G01*
X123335000Y-75422500D01*
G75*
G02*
X123482500Y-75275000I147500J0D01*
G01*
G37*
G36*
G01*
X123482500Y-74305000D02*
X123827500Y-74305000D01*
G75*
G02*
X123975000Y-74452500I0J-147500D01*
G01*
X123975000Y-74747500D01*
G75*
G02*
X123827500Y-74895000I-147500J0D01*
G01*
X123482500Y-74895000D01*
G75*
G02*
X123335000Y-74747500I0J147500D01*
G01*
X123335000Y-74452500D01*
G75*
G02*
X123482500Y-74305000I147500J0D01*
G01*
G37*
G36*
G01*
X132865000Y-82412500D02*
X132865000Y-82757500D01*
G75*
G02*
X132717500Y-82905000I-147500J0D01*
G01*
X132422500Y-82905000D01*
G75*
G02*
X132275000Y-82757500I0J147500D01*
G01*
X132275000Y-82412500D01*
G75*
G02*
X132422500Y-82265000I147500J0D01*
G01*
X132717500Y-82265000D01*
G75*
G02*
X132865000Y-82412500I0J-147500D01*
G01*
G37*
G36*
G01*
X133835000Y-82412500D02*
X133835000Y-82757500D01*
G75*
G02*
X133687500Y-82905000I-147500J0D01*
G01*
X133392500Y-82905000D01*
G75*
G02*
X133245000Y-82757500I0J147500D01*
G01*
X133245000Y-82412500D01*
G75*
G02*
X133392500Y-82265000I147500J0D01*
G01*
X133687500Y-82265000D01*
G75*
G02*
X133835000Y-82412500I0J-147500D01*
G01*
G37*
G36*
G01*
X124090000Y-81172500D02*
X124090000Y-80827500D01*
G75*
G02*
X124237500Y-80680000I147500J0D01*
G01*
X124532500Y-80680000D01*
G75*
G02*
X124680000Y-80827500I0J-147500D01*
G01*
X124680000Y-81172500D01*
G75*
G02*
X124532500Y-81320000I-147500J0D01*
G01*
X124237500Y-81320000D01*
G75*
G02*
X124090000Y-81172500I0J147500D01*
G01*
G37*
G36*
G01*
X123120000Y-81172500D02*
X123120000Y-80827500D01*
G75*
G02*
X123267500Y-80680000I147500J0D01*
G01*
X123562500Y-80680000D01*
G75*
G02*
X123710000Y-80827500I0J-147500D01*
G01*
X123710000Y-81172500D01*
G75*
G02*
X123562500Y-81320000I-147500J0D01*
G01*
X123267500Y-81320000D01*
G75*
G02*
X123120000Y-81172500I0J147500D01*
G01*
G37*
G36*
G01*
X124145000Y-78700665D02*
X124145000Y-78355665D01*
G75*
G02*
X124292500Y-78208165I147500J0D01*
G01*
X124587500Y-78208165D01*
G75*
G02*
X124735000Y-78355665I0J-147500D01*
G01*
X124735000Y-78700665D01*
G75*
G02*
X124587500Y-78848165I-147500J0D01*
G01*
X124292500Y-78848165D01*
G75*
G02*
X124145000Y-78700665I0J147500D01*
G01*
G37*
G36*
G01*
X123175000Y-78700665D02*
X123175000Y-78355665D01*
G75*
G02*
X123322500Y-78208165I147500J0D01*
G01*
X123617500Y-78208165D01*
G75*
G02*
X123765000Y-78355665I0J-147500D01*
G01*
X123765000Y-78700665D01*
G75*
G02*
X123617500Y-78848165I-147500J0D01*
G01*
X123322500Y-78848165D01*
G75*
G02*
X123175000Y-78700665I0J147500D01*
G01*
G37*
G36*
G01*
X130483274Y-78775610D02*
X131395774Y-78775610D01*
G75*
G02*
X131639524Y-79019360I0J-243750D01*
G01*
X131639524Y-79506860D01*
G75*
G02*
X131395774Y-79750610I-243750J0D01*
G01*
X130483274Y-79750610D01*
G75*
G02*
X130239524Y-79506860I0J243750D01*
G01*
X130239524Y-79019360D01*
G75*
G02*
X130483274Y-78775610I243750J0D01*
G01*
G37*
G36*
G01*
X130483274Y-76900610D02*
X131395774Y-76900610D01*
G75*
G02*
X131639524Y-77144360I0J-243750D01*
G01*
X131639524Y-77631860D01*
G75*
G02*
X131395774Y-77875610I-243750J0D01*
G01*
X130483274Y-77875610D01*
G75*
G02*
X130239524Y-77631860I0J243750D01*
G01*
X130239524Y-77144360D01*
G75*
G02*
X130483274Y-76900610I243750J0D01*
G01*
G37*
G36*
G01*
X127950000Y-78356250D02*
X127950000Y-77443750D01*
G75*
G02*
X128193750Y-77200000I243750J0D01*
G01*
X128681250Y-77200000D01*
G75*
G02*
X128925000Y-77443750I0J-243750D01*
G01*
X128925000Y-78356250D01*
G75*
G02*
X128681250Y-78600000I-243750J0D01*
G01*
X128193750Y-78600000D01*
G75*
G02*
X127950000Y-78356250I0J243750D01*
G01*
G37*
G36*
G01*
X126075000Y-78356250D02*
X126075000Y-77443750D01*
G75*
G02*
X126318750Y-77200000I243750J0D01*
G01*
X126806250Y-77200000D01*
G75*
G02*
X127050000Y-77443750I0J-243750D01*
G01*
X127050000Y-78356250D01*
G75*
G02*
X126806250Y-78600000I-243750J0D01*
G01*
X126318750Y-78600000D01*
G75*
G02*
X126075000Y-78356250I0J243750D01*
G01*
G37*
G36*
G01*
X127950000Y-82156250D02*
X127950000Y-81243750D01*
G75*
G02*
X128193750Y-81000000I243750J0D01*
G01*
X128681250Y-81000000D01*
G75*
G02*
X128925000Y-81243750I0J-243750D01*
G01*
X128925000Y-82156250D01*
G75*
G02*
X128681250Y-82400000I-243750J0D01*
G01*
X128193750Y-82400000D01*
G75*
G02*
X127950000Y-82156250I0J243750D01*
G01*
G37*
G36*
G01*
X126075000Y-82156250D02*
X126075000Y-81243750D01*
G75*
G02*
X126318750Y-81000000I243750J0D01*
G01*
X126806250Y-81000000D01*
G75*
G02*
X127050000Y-81243750I0J-243750D01*
G01*
X127050000Y-82156250D01*
G75*
G02*
X126806250Y-82400000I-243750J0D01*
G01*
X126318750Y-82400000D01*
G75*
G02*
X126075000Y-82156250I0J243750D01*
G01*
G37*
G36*
G01*
X124050000Y-83543750D02*
X124050000Y-84456250D01*
G75*
G02*
X123806250Y-84700000I-243750J0D01*
G01*
X123318750Y-84700000D01*
G75*
G02*
X123075000Y-84456250I0J243750D01*
G01*
X123075000Y-83543750D01*
G75*
G02*
X123318750Y-83300000I243750J0D01*
G01*
X123806250Y-83300000D01*
G75*
G02*
X124050000Y-83543750I0J-243750D01*
G01*
G37*
G36*
G01*
X125925000Y-83543750D02*
X125925000Y-84456250D01*
G75*
G02*
X125681250Y-84700000I-243750J0D01*
G01*
X125193750Y-84700000D01*
G75*
G02*
X124950000Y-84456250I0J243750D01*
G01*
X124950000Y-83543750D01*
G75*
G02*
X125193750Y-83300000I243750J0D01*
G01*
X125681250Y-83300000D01*
G75*
G02*
X125925000Y-83543750I0J-243750D01*
G01*
G37*
G36*
G01*
X127050000Y-79343750D02*
X127050000Y-80256250D01*
G75*
G02*
X126806250Y-80500000I-243750J0D01*
G01*
X126318750Y-80500000D01*
G75*
G02*
X126075000Y-80256250I0J243750D01*
G01*
X126075000Y-79343750D01*
G75*
G02*
X126318750Y-79100000I243750J0D01*
G01*
X126806250Y-79100000D01*
G75*
G02*
X127050000Y-79343750I0J-243750D01*
G01*
G37*
G36*
G01*
X128925000Y-79343750D02*
X128925000Y-80256250D01*
G75*
G02*
X128681250Y-80500000I-243750J0D01*
G01*
X128193750Y-80500000D01*
G75*
G02*
X127950000Y-80256250I0J243750D01*
G01*
X127950000Y-79343750D01*
G75*
G02*
X128193750Y-79100000I243750J0D01*
G01*
X128681250Y-79100000D01*
G75*
G02*
X128925000Y-79343750I0J-243750D01*
G01*
G37*
G36*
G01*
X118750000Y-78856250D02*
X118750000Y-77943750D01*
G75*
G02*
X118993750Y-77700000I243750J0D01*
G01*
X119481250Y-77700000D01*
G75*
G02*
X119725000Y-77943750I0J-243750D01*
G01*
X119725000Y-78856250D01*
G75*
G02*
X119481250Y-79100000I-243750J0D01*
G01*
X118993750Y-79100000D01*
G75*
G02*
X118750000Y-78856250I0J243750D01*
G01*
G37*
G36*
G01*
X116875000Y-78856250D02*
X116875000Y-77943750D01*
G75*
G02*
X117118750Y-77700000I243750J0D01*
G01*
X117606250Y-77700000D01*
G75*
G02*
X117850000Y-77943750I0J-243750D01*
G01*
X117850000Y-78856250D01*
G75*
G02*
X117606250Y-79100000I-243750J0D01*
G01*
X117118750Y-79100000D01*
G75*
G02*
X116875000Y-78856250I0J243750D01*
G01*
G37*
G36*
G01*
X118750000Y-76956250D02*
X118750000Y-76043750D01*
G75*
G02*
X118993750Y-75800000I243750J0D01*
G01*
X119481250Y-75800000D01*
G75*
G02*
X119725000Y-76043750I0J-243750D01*
G01*
X119725000Y-76956250D01*
G75*
G02*
X119481250Y-77200000I-243750J0D01*
G01*
X118993750Y-77200000D01*
G75*
G02*
X118750000Y-76956250I0J243750D01*
G01*
G37*
G36*
G01*
X116875000Y-76956250D02*
X116875000Y-76043750D01*
G75*
G02*
X117118750Y-75800000I243750J0D01*
G01*
X117606250Y-75800000D01*
G75*
G02*
X117850000Y-76043750I0J-243750D01*
G01*
X117850000Y-76956250D01*
G75*
G02*
X117606250Y-77200000I-243750J0D01*
G01*
X117118750Y-77200000D01*
G75*
G02*
X116875000Y-76956250I0J243750D01*
G01*
G37*
G36*
G01*
X152682500Y-82075000D02*
X153027500Y-82075000D01*
G75*
G02*
X153175000Y-82222500I0J-147500D01*
G01*
X153175000Y-82517500D01*
G75*
G02*
X153027500Y-82665000I-147500J0D01*
G01*
X152682500Y-82665000D01*
G75*
G02*
X152535000Y-82517500I0J147500D01*
G01*
X152535000Y-82222500D01*
G75*
G02*
X152682500Y-82075000I147500J0D01*
G01*
G37*
G36*
G01*
X152682500Y-81105000D02*
X153027500Y-81105000D01*
G75*
G02*
X153175000Y-81252500I0J-147500D01*
G01*
X153175000Y-81547500D01*
G75*
G02*
X153027500Y-81695000I-147500J0D01*
G01*
X152682500Y-81695000D01*
G75*
G02*
X152535000Y-81547500I0J147500D01*
G01*
X152535000Y-81252500D01*
G75*
G02*
X152682500Y-81105000I147500J0D01*
G01*
G37*
D13*
X129234000Y-91912500D03*
X129234000Y-92762500D03*
X130100000Y-91912500D03*
X130100000Y-92762500D03*
X130966000Y-92762500D03*
X130966000Y-91912500D03*
D14*
X129150000Y-93677500D03*
X130100000Y-93677500D03*
X131050000Y-93677500D03*
X131050000Y-90997500D03*
X130100000Y-90997500D03*
X129150000Y-90997500D03*
D13*
X131034000Y-66875000D03*
X131034000Y-67725000D03*
X131900000Y-66875000D03*
X131900000Y-67725000D03*
X132766000Y-67725000D03*
X132766000Y-66875000D03*
D14*
X130950000Y-68640000D03*
X131900000Y-68640000D03*
X132850000Y-68640000D03*
X132850000Y-65960000D03*
X131900000Y-65960000D03*
X130950000Y-65960000D03*
G36*
G01*
X132443750Y-96387500D02*
X133356250Y-96387500D01*
G75*
G02*
X133600000Y-96631250I0J-243750D01*
G01*
X133600000Y-97118750D01*
G75*
G02*
X133356250Y-97362500I-243750J0D01*
G01*
X132443750Y-97362500D01*
G75*
G02*
X132200000Y-97118750I0J243750D01*
G01*
X132200000Y-96631250D01*
G75*
G02*
X132443750Y-96387500I243750J0D01*
G01*
G37*
G36*
G01*
X132443750Y-94512500D02*
X133356250Y-94512500D01*
G75*
G02*
X133600000Y-94756250I0J-243750D01*
G01*
X133600000Y-95243750D01*
G75*
G02*
X133356250Y-95487500I-243750J0D01*
G01*
X132443750Y-95487500D01*
G75*
G02*
X132200000Y-95243750I0J243750D01*
G01*
X132200000Y-94756250D01*
G75*
G02*
X132443750Y-94512500I243750J0D01*
G01*
G37*
G36*
G01*
X131456250Y-95487500D02*
X130543750Y-95487500D01*
G75*
G02*
X130300000Y-95243750I0J243750D01*
G01*
X130300000Y-94756250D01*
G75*
G02*
X130543750Y-94512500I243750J0D01*
G01*
X131456250Y-94512500D01*
G75*
G02*
X131700000Y-94756250I0J-243750D01*
G01*
X131700000Y-95243750D01*
G75*
G02*
X131456250Y-95487500I-243750J0D01*
G01*
G37*
G36*
G01*
X131456250Y-97362500D02*
X130543750Y-97362500D01*
G75*
G02*
X130300000Y-97118750I0J243750D01*
G01*
X130300000Y-96631250D01*
G75*
G02*
X130543750Y-96387500I243750J0D01*
G01*
X131456250Y-96387500D01*
G75*
G02*
X131700000Y-96631250I0J-243750D01*
G01*
X131700000Y-97118750D01*
G75*
G02*
X131456250Y-97362500I-243750J0D01*
G01*
G37*
G36*
G01*
X134243750Y-71350000D02*
X135156250Y-71350000D01*
G75*
G02*
X135400000Y-71593750I0J-243750D01*
G01*
X135400000Y-72081250D01*
G75*
G02*
X135156250Y-72325000I-243750J0D01*
G01*
X134243750Y-72325000D01*
G75*
G02*
X134000000Y-72081250I0J243750D01*
G01*
X134000000Y-71593750D01*
G75*
G02*
X134243750Y-71350000I243750J0D01*
G01*
G37*
G36*
G01*
X134243750Y-69475000D02*
X135156250Y-69475000D01*
G75*
G02*
X135400000Y-69718750I0J-243750D01*
G01*
X135400000Y-70206250D01*
G75*
G02*
X135156250Y-70450000I-243750J0D01*
G01*
X134243750Y-70450000D01*
G75*
G02*
X134000000Y-70206250I0J243750D01*
G01*
X134000000Y-69718750D01*
G75*
G02*
X134243750Y-69475000I243750J0D01*
G01*
G37*
G36*
G01*
X133256250Y-70450000D02*
X132343750Y-70450000D01*
G75*
G02*
X132100000Y-70206250I0J243750D01*
G01*
X132100000Y-69718750D01*
G75*
G02*
X132343750Y-69475000I243750J0D01*
G01*
X133256250Y-69475000D01*
G75*
G02*
X133500000Y-69718750I0J-243750D01*
G01*
X133500000Y-70206250D01*
G75*
G02*
X133256250Y-70450000I-243750J0D01*
G01*
G37*
G36*
G01*
X133256250Y-72325000D02*
X132343750Y-72325000D01*
G75*
G02*
X132100000Y-72081250I0J243750D01*
G01*
X132100000Y-71593750D01*
G75*
G02*
X132343750Y-71350000I243750J0D01*
G01*
X133256250Y-71350000D01*
G75*
G02*
X133500000Y-71593750I0J-243750D01*
G01*
X133500000Y-72081250D01*
G75*
G02*
X133256250Y-72325000I-243750J0D01*
G01*
G37*
G36*
G01*
X124943750Y-92787500D02*
X125856250Y-92787500D01*
G75*
G02*
X126100000Y-93031250I0J-243750D01*
G01*
X126100000Y-93518750D01*
G75*
G02*
X125856250Y-93762500I-243750J0D01*
G01*
X124943750Y-93762500D01*
G75*
G02*
X124700000Y-93518750I0J243750D01*
G01*
X124700000Y-93031250D01*
G75*
G02*
X124943750Y-92787500I243750J0D01*
G01*
G37*
G36*
G01*
X124943750Y-90912500D02*
X125856250Y-90912500D01*
G75*
G02*
X126100000Y-91156250I0J-243750D01*
G01*
X126100000Y-91643750D01*
G75*
G02*
X125856250Y-91887500I-243750J0D01*
G01*
X124943750Y-91887500D01*
G75*
G02*
X124700000Y-91643750I0J243750D01*
G01*
X124700000Y-91156250D01*
G75*
G02*
X124943750Y-90912500I243750J0D01*
G01*
G37*
G36*
G01*
X126743750Y-67950000D02*
X127656250Y-67950000D01*
G75*
G02*
X127900000Y-68193750I0J-243750D01*
G01*
X127900000Y-68681250D01*
G75*
G02*
X127656250Y-68925000I-243750J0D01*
G01*
X126743750Y-68925000D01*
G75*
G02*
X126500000Y-68681250I0J243750D01*
G01*
X126500000Y-68193750D01*
G75*
G02*
X126743750Y-67950000I243750J0D01*
G01*
G37*
G36*
G01*
X126743750Y-66075000D02*
X127656250Y-66075000D01*
G75*
G02*
X127900000Y-66318750I0J-243750D01*
G01*
X127900000Y-66806250D01*
G75*
G02*
X127656250Y-67050000I-243750J0D01*
G01*
X126743750Y-67050000D01*
G75*
G02*
X126500000Y-66806250I0J243750D01*
G01*
X126500000Y-66318750D01*
G75*
G02*
X126743750Y-66075000I243750J0D01*
G01*
G37*
G36*
G01*
X127756250Y-91887500D02*
X126843750Y-91887500D01*
G75*
G02*
X126600000Y-91643750I0J243750D01*
G01*
X126600000Y-91156250D01*
G75*
G02*
X126843750Y-90912500I243750J0D01*
G01*
X127756250Y-90912500D01*
G75*
G02*
X128000000Y-91156250I0J-243750D01*
G01*
X128000000Y-91643750D01*
G75*
G02*
X127756250Y-91887500I-243750J0D01*
G01*
G37*
G36*
G01*
X127756250Y-93762500D02*
X126843750Y-93762500D01*
G75*
G02*
X126600000Y-93518750I0J243750D01*
G01*
X126600000Y-93031250D01*
G75*
G02*
X126843750Y-92787500I243750J0D01*
G01*
X127756250Y-92787500D01*
G75*
G02*
X128000000Y-93031250I0J-243750D01*
G01*
X128000000Y-93518750D01*
G75*
G02*
X127756250Y-93762500I-243750J0D01*
G01*
G37*
G36*
G01*
X129556250Y-67050000D02*
X128643750Y-67050000D01*
G75*
G02*
X128400000Y-66806250I0J243750D01*
G01*
X128400000Y-66318750D01*
G75*
G02*
X128643750Y-66075000I243750J0D01*
G01*
X129556250Y-66075000D01*
G75*
G02*
X129800000Y-66318750I0J-243750D01*
G01*
X129800000Y-66806250D01*
G75*
G02*
X129556250Y-67050000I-243750J0D01*
G01*
G37*
G36*
G01*
X129556250Y-68925000D02*
X128643750Y-68925000D01*
G75*
G02*
X128400000Y-68681250I0J243750D01*
G01*
X128400000Y-68193750D01*
G75*
G02*
X128643750Y-67950000I243750J0D01*
G01*
X129556250Y-67950000D01*
G75*
G02*
X129800000Y-68193750I0J-243750D01*
G01*
X129800000Y-68681250D01*
G75*
G02*
X129556250Y-68925000I-243750J0D01*
G01*
G37*
G36*
G01*
X138455000Y-94135001D02*
X138455000Y-92834999D01*
G75*
G02*
X138704999Y-92585000I249999J0D01*
G01*
X139605001Y-92585000D01*
G75*
G02*
X139855000Y-92834999I0J-249999D01*
G01*
X139855000Y-94135001D01*
G75*
G02*
X139605001Y-94385000I-249999J0D01*
G01*
X138704999Y-94385000D01*
G75*
G02*
X138455000Y-94135001I0J249999D01*
G01*
G37*
G36*
G01*
X134455000Y-94135001D02*
X134455000Y-92834999D01*
G75*
G02*
X134704999Y-92585000I249999J0D01*
G01*
X135605001Y-92585000D01*
G75*
G02*
X135855000Y-92834999I0J-249999D01*
G01*
X135855000Y-94135001D01*
G75*
G02*
X135605001Y-94385000I-249999J0D01*
G01*
X134704999Y-94385000D01*
G75*
G02*
X134455000Y-94135001I0J249999D01*
G01*
G37*
G36*
G01*
X139900000Y-66069959D02*
X139900000Y-64769957D01*
G75*
G02*
X140149999Y-64519958I249999J0D01*
G01*
X141050001Y-64519958D01*
G75*
G02*
X141300000Y-64769957I0J-249999D01*
G01*
X141300000Y-66069959D01*
G75*
G02*
X141050001Y-66319958I-249999J0D01*
G01*
X140149999Y-66319958D01*
G75*
G02*
X139900000Y-66069959I0J249999D01*
G01*
G37*
G36*
G01*
X135900000Y-66069959D02*
X135900000Y-64769957D01*
G75*
G02*
X136149999Y-64519958I249999J0D01*
G01*
X137050001Y-64519958D01*
G75*
G02*
X137300000Y-64769957I0J-249999D01*
G01*
X137300000Y-66069959D01*
G75*
G02*
X137050001Y-66319958I-249999J0D01*
G01*
X136149999Y-66319958D01*
G75*
G02*
X135900000Y-66069959I0J249999D01*
G01*
G37*
G36*
G01*
X147882500Y-80275000D02*
X148227500Y-80275000D01*
G75*
G02*
X148375000Y-80422500I0J-147500D01*
G01*
X148375000Y-80717500D01*
G75*
G02*
X148227500Y-80865000I-147500J0D01*
G01*
X147882500Y-80865000D01*
G75*
G02*
X147735000Y-80717500I0J147500D01*
G01*
X147735000Y-80422500D01*
G75*
G02*
X147882500Y-80275000I147500J0D01*
G01*
G37*
G36*
G01*
X147882500Y-79305000D02*
X148227500Y-79305000D01*
G75*
G02*
X148375000Y-79452500I0J-147500D01*
G01*
X148375000Y-79747500D01*
G75*
G02*
X148227500Y-79895000I-147500J0D01*
G01*
X147882500Y-79895000D01*
G75*
G02*
X147735000Y-79747500I0J147500D01*
G01*
X147735000Y-79452500D01*
G75*
G02*
X147882500Y-79305000I147500J0D01*
G01*
G37*
G36*
G01*
X149669632Y-81401127D02*
X149669632Y-81746127D01*
G75*
G02*
X149522132Y-81893627I-147500J0D01*
G01*
X149227132Y-81893627D01*
G75*
G02*
X149079632Y-81746127I0J147500D01*
G01*
X149079632Y-81401127D01*
G75*
G02*
X149227132Y-81253627I147500J0D01*
G01*
X149522132Y-81253627D01*
G75*
G02*
X149669632Y-81401127I0J-147500D01*
G01*
G37*
G36*
G01*
X150639632Y-81401127D02*
X150639632Y-81746127D01*
G75*
G02*
X150492132Y-81893627I-147500J0D01*
G01*
X150197132Y-81893627D01*
G75*
G02*
X150049632Y-81746127I0J147500D01*
G01*
X150049632Y-81401127D01*
G75*
G02*
X150197132Y-81253627I147500J0D01*
G01*
X150492132Y-81253627D01*
G75*
G02*
X150639632Y-81401127I0J-147500D01*
G01*
G37*
G36*
G01*
X146845000Y-76957500D02*
X146845000Y-76612500D01*
G75*
G02*
X146992500Y-76465000I147500J0D01*
G01*
X147287500Y-76465000D01*
G75*
G02*
X147435000Y-76612500I0J-147500D01*
G01*
X147435000Y-76957500D01*
G75*
G02*
X147287500Y-77105000I-147500J0D01*
G01*
X146992500Y-77105000D01*
G75*
G02*
X146845000Y-76957500I0J147500D01*
G01*
G37*
G36*
G01*
X145875000Y-76957500D02*
X145875000Y-76612500D01*
G75*
G02*
X146022500Y-76465000I147500J0D01*
G01*
X146317500Y-76465000D01*
G75*
G02*
X146465000Y-76612500I0J-147500D01*
G01*
X146465000Y-76957500D01*
G75*
G02*
X146317500Y-77105000I-147500J0D01*
G01*
X146022500Y-77105000D01*
G75*
G02*
X145875000Y-76957500I0J147500D01*
G01*
G37*
G36*
G01*
X142665000Y-80612500D02*
X142665000Y-80957500D01*
G75*
G02*
X142517500Y-81105000I-147500J0D01*
G01*
X142222500Y-81105000D01*
G75*
G02*
X142075000Y-80957500I0J147500D01*
G01*
X142075000Y-80612500D01*
G75*
G02*
X142222500Y-80465000I147500J0D01*
G01*
X142517500Y-80465000D01*
G75*
G02*
X142665000Y-80612500I0J-147500D01*
G01*
G37*
G36*
G01*
X143635000Y-80612500D02*
X143635000Y-80957500D01*
G75*
G02*
X143487500Y-81105000I-147500J0D01*
G01*
X143192500Y-81105000D01*
G75*
G02*
X143045000Y-80957500I0J147500D01*
G01*
X143045000Y-80612500D01*
G75*
G02*
X143192500Y-80465000I147500J0D01*
G01*
X143487500Y-80465000D01*
G75*
G02*
X143635000Y-80612500I0J-147500D01*
G01*
G37*
G36*
G01*
X148227500Y-73295000D02*
X147882500Y-73295000D01*
G75*
G02*
X147735000Y-73147500I0J147500D01*
G01*
X147735000Y-72852500D01*
G75*
G02*
X147882500Y-72705000I147500J0D01*
G01*
X148227500Y-72705000D01*
G75*
G02*
X148375000Y-72852500I0J-147500D01*
G01*
X148375000Y-73147500D01*
G75*
G02*
X148227500Y-73295000I-147500J0D01*
G01*
G37*
G36*
G01*
X148227500Y-74265000D02*
X147882500Y-74265000D01*
G75*
G02*
X147735000Y-74117500I0J147500D01*
G01*
X147735000Y-73822500D01*
G75*
G02*
X147882500Y-73675000I147500J0D01*
G01*
X148227500Y-73675000D01*
G75*
G02*
X148375000Y-73822500I0J-147500D01*
G01*
X148375000Y-74117500D01*
G75*
G02*
X148227500Y-74265000I-147500J0D01*
G01*
G37*
G36*
G01*
X155345000Y-76957500D02*
X155345000Y-76612500D01*
G75*
G02*
X155492500Y-76465000I147500J0D01*
G01*
X155787500Y-76465000D01*
G75*
G02*
X155935000Y-76612500I0J-147500D01*
G01*
X155935000Y-76957500D01*
G75*
G02*
X155787500Y-77105000I-147500J0D01*
G01*
X155492500Y-77105000D01*
G75*
G02*
X155345000Y-76957500I0J147500D01*
G01*
G37*
G36*
G01*
X154375000Y-76957500D02*
X154375000Y-76612500D01*
G75*
G02*
X154522500Y-76465000I147500J0D01*
G01*
X154817500Y-76465000D01*
G75*
G02*
X154965000Y-76612500I0J-147500D01*
G01*
X154965000Y-76957500D01*
G75*
G02*
X154817500Y-77105000I-147500J0D01*
G01*
X154522500Y-77105000D01*
G75*
G02*
X154375000Y-76957500I0J147500D01*
G01*
G37*
G36*
G01*
X151545000Y-76957500D02*
X151545000Y-76612500D01*
G75*
G02*
X151692500Y-76465000I147500J0D01*
G01*
X151987500Y-76465000D01*
G75*
G02*
X152135000Y-76612500I0J-147500D01*
G01*
X152135000Y-76957500D01*
G75*
G02*
X151987500Y-77105000I-147500J0D01*
G01*
X151692500Y-77105000D01*
G75*
G02*
X151545000Y-76957500I0J147500D01*
G01*
G37*
G36*
G01*
X150575000Y-76957500D02*
X150575000Y-76612500D01*
G75*
G02*
X150722500Y-76465000I147500J0D01*
G01*
X151017500Y-76465000D01*
G75*
G02*
X151165000Y-76612500I0J-147500D01*
G01*
X151165000Y-76957500D01*
G75*
G02*
X151017500Y-77105000I-147500J0D01*
G01*
X150722500Y-77105000D01*
G75*
G02*
X150575000Y-76957500I0J147500D01*
G01*
G37*
G36*
G01*
X141205000Y-73128750D02*
X141205000Y-74041250D01*
G75*
G02*
X140961250Y-74285000I-243750J0D01*
G01*
X140473750Y-74285000D01*
G75*
G02*
X140230000Y-74041250I0J243750D01*
G01*
X140230000Y-73128750D01*
G75*
G02*
X140473750Y-72885000I243750J0D01*
G01*
X140961250Y-72885000D01*
G75*
G02*
X141205000Y-73128750I0J-243750D01*
G01*
G37*
G36*
G01*
X143080000Y-73128750D02*
X143080000Y-74041250D01*
G75*
G02*
X142836250Y-74285000I-243750J0D01*
G01*
X142348750Y-74285000D01*
G75*
G02*
X142105000Y-74041250I0J243750D01*
G01*
X142105000Y-73128750D01*
G75*
G02*
X142348750Y-72885000I243750J0D01*
G01*
X142836250Y-72885000D01*
G75*
G02*
X143080000Y-73128750I0J-243750D01*
G01*
G37*
G36*
G01*
X149265000Y-76612500D02*
X149265000Y-76957500D01*
G75*
G02*
X149117500Y-77105000I-147500J0D01*
G01*
X148822500Y-77105000D01*
G75*
G02*
X148675000Y-76957500I0J147500D01*
G01*
X148675000Y-76612500D01*
G75*
G02*
X148822500Y-76465000I147500J0D01*
G01*
X149117500Y-76465000D01*
G75*
G02*
X149265000Y-76612500I0J-147500D01*
G01*
G37*
G36*
G01*
X150235000Y-76612500D02*
X150235000Y-76957500D01*
G75*
G02*
X150087500Y-77105000I-147500J0D01*
G01*
X149792500Y-77105000D01*
G75*
G02*
X149645000Y-76957500I0J147500D01*
G01*
X149645000Y-76612500D01*
G75*
G02*
X149792500Y-76465000I147500J0D01*
G01*
X150087500Y-76465000D01*
G75*
G02*
X150235000Y-76612500I0J-147500D01*
G01*
G37*
G36*
G01*
X141205000Y-75028750D02*
X141205000Y-75941250D01*
G75*
G02*
X140961250Y-76185000I-243750J0D01*
G01*
X140473750Y-76185000D01*
G75*
G02*
X140230000Y-75941250I0J243750D01*
G01*
X140230000Y-75028750D01*
G75*
G02*
X140473750Y-74785000I243750J0D01*
G01*
X140961250Y-74785000D01*
G75*
G02*
X141205000Y-75028750I0J-243750D01*
G01*
G37*
G36*
G01*
X143080000Y-75028750D02*
X143080000Y-75941250D01*
G75*
G02*
X142836250Y-76185000I-243750J0D01*
G01*
X142348750Y-76185000D01*
G75*
G02*
X142105000Y-75941250I0J243750D01*
G01*
X142105000Y-75028750D01*
G75*
G02*
X142348750Y-74785000I243750J0D01*
G01*
X142836250Y-74785000D01*
G75*
G02*
X143080000Y-75028750I0J-243750D01*
G01*
G37*
G36*
G01*
X144565000Y-76612500D02*
X144565000Y-76957500D01*
G75*
G02*
X144417500Y-77105000I-147500J0D01*
G01*
X144122500Y-77105000D01*
G75*
G02*
X143975000Y-76957500I0J147500D01*
G01*
X143975000Y-76612500D01*
G75*
G02*
X144122500Y-76465000I147500J0D01*
G01*
X144417500Y-76465000D01*
G75*
G02*
X144565000Y-76612500I0J-147500D01*
G01*
G37*
G36*
G01*
X145535000Y-76612500D02*
X145535000Y-76957500D01*
G75*
G02*
X145387500Y-77105000I-147500J0D01*
G01*
X145092500Y-77105000D01*
G75*
G02*
X144945000Y-76957500I0J147500D01*
G01*
X144945000Y-76612500D01*
G75*
G02*
X145092500Y-76465000I147500J0D01*
G01*
X145387500Y-76465000D01*
G75*
G02*
X145535000Y-76612500I0J-147500D01*
G01*
G37*
G36*
G01*
X151845000Y-78507500D02*
X151845000Y-78162500D01*
G75*
G02*
X151992500Y-78015000I147500J0D01*
G01*
X152287500Y-78015000D01*
G75*
G02*
X152435000Y-78162500I0J-147500D01*
G01*
X152435000Y-78507500D01*
G75*
G02*
X152287500Y-78655000I-147500J0D01*
G01*
X151992500Y-78655000D01*
G75*
G02*
X151845000Y-78507500I0J147500D01*
G01*
G37*
G36*
G01*
X150875000Y-78507500D02*
X150875000Y-78162500D01*
G75*
G02*
X151022500Y-78015000I147500J0D01*
G01*
X151317500Y-78015000D01*
G75*
G02*
X151465000Y-78162500I0J-147500D01*
G01*
X151465000Y-78507500D01*
G75*
G02*
X151317500Y-78655000I-147500J0D01*
G01*
X151022500Y-78655000D01*
G75*
G02*
X150875000Y-78507500I0J147500D01*
G01*
G37*
G36*
G01*
X151782500Y-75460000D02*
X152127500Y-75460000D01*
G75*
G02*
X152275000Y-75607500I0J-147500D01*
G01*
X152275000Y-75902500D01*
G75*
G02*
X152127500Y-76050000I-147500J0D01*
G01*
X151782500Y-76050000D01*
G75*
G02*
X151635000Y-75902500I0J147500D01*
G01*
X151635000Y-75607500D01*
G75*
G02*
X151782500Y-75460000I147500J0D01*
G01*
G37*
G36*
G01*
X151782500Y-74490000D02*
X152127500Y-74490000D01*
G75*
G02*
X152275000Y-74637500I0J-147500D01*
G01*
X152275000Y-74932500D01*
G75*
G02*
X152127500Y-75080000I-147500J0D01*
G01*
X151782500Y-75080000D01*
G75*
G02*
X151635000Y-74932500I0J147500D01*
G01*
X151635000Y-74637500D01*
G75*
G02*
X151782500Y-74490000I147500J0D01*
G01*
G37*
G36*
G01*
X148227500Y-77995000D02*
X147882500Y-77995000D01*
G75*
G02*
X147735000Y-77847500I0J147500D01*
G01*
X147735000Y-77552500D01*
G75*
G02*
X147882500Y-77405000I147500J0D01*
G01*
X148227500Y-77405000D01*
G75*
G02*
X148375000Y-77552500I0J-147500D01*
G01*
X148375000Y-77847500D01*
G75*
G02*
X148227500Y-77995000I-147500J0D01*
G01*
G37*
G36*
G01*
X148227500Y-78965000D02*
X147882500Y-78965000D01*
G75*
G02*
X147735000Y-78817500I0J147500D01*
G01*
X147735000Y-78522500D01*
G75*
G02*
X147882500Y-78375000I147500J0D01*
G01*
X148227500Y-78375000D01*
G75*
G02*
X148375000Y-78522500I0J-147500D01*
G01*
X148375000Y-78817500D01*
G75*
G02*
X148227500Y-78965000I-147500J0D01*
G01*
G37*
G36*
G01*
X147882500Y-75575000D02*
X148227500Y-75575000D01*
G75*
G02*
X148375000Y-75722500I0J-147500D01*
G01*
X148375000Y-76017500D01*
G75*
G02*
X148227500Y-76165000I-147500J0D01*
G01*
X147882500Y-76165000D01*
G75*
G02*
X147735000Y-76017500I0J147500D01*
G01*
X147735000Y-75722500D01*
G75*
G02*
X147882500Y-75575000I147500J0D01*
G01*
G37*
G36*
G01*
X147882500Y-74605000D02*
X148227500Y-74605000D01*
G75*
G02*
X148375000Y-74752500I0J-147500D01*
G01*
X148375000Y-75047500D01*
G75*
G02*
X148227500Y-75195000I-147500J0D01*
G01*
X147882500Y-75195000D01*
G75*
G02*
X147735000Y-75047500I0J147500D01*
G01*
X147735000Y-74752500D01*
G75*
G02*
X147882500Y-74605000I147500J0D01*
G01*
G37*
G36*
G01*
X152745000Y-79457500D02*
X152745000Y-79112500D01*
G75*
G02*
X152892500Y-78965000I147500J0D01*
G01*
X153187500Y-78965000D01*
G75*
G02*
X153335000Y-79112500I0J-147500D01*
G01*
X153335000Y-79457500D01*
G75*
G02*
X153187500Y-79605000I-147500J0D01*
G01*
X152892500Y-79605000D01*
G75*
G02*
X152745000Y-79457500I0J147500D01*
G01*
G37*
G36*
G01*
X151775000Y-79457500D02*
X151775000Y-79112500D01*
G75*
G02*
X151922500Y-78965000I147500J0D01*
G01*
X152217500Y-78965000D01*
G75*
G02*
X152365000Y-79112500I0J-147500D01*
G01*
X152365000Y-79457500D01*
G75*
G02*
X152217500Y-79605000I-147500J0D01*
G01*
X151922500Y-79605000D01*
G75*
G02*
X151775000Y-79457500I0J147500D01*
G01*
G37*
G36*
G01*
X154445000Y-80957500D02*
X154445000Y-80612500D01*
G75*
G02*
X154592500Y-80465000I147500J0D01*
G01*
X154887500Y-80465000D01*
G75*
G02*
X155035000Y-80612500I0J-147500D01*
G01*
X155035000Y-80957500D01*
G75*
G02*
X154887500Y-81105000I-147500J0D01*
G01*
X154592500Y-81105000D01*
G75*
G02*
X154445000Y-80957500I0J147500D01*
G01*
G37*
G36*
G01*
X153475000Y-80957500D02*
X153475000Y-80612500D01*
G75*
G02*
X153622500Y-80465000I147500J0D01*
G01*
X153917500Y-80465000D01*
G75*
G02*
X154065000Y-80612500I0J-147500D01*
G01*
X154065000Y-80957500D01*
G75*
G02*
X153917500Y-81105000I-147500J0D01*
G01*
X153622500Y-81105000D01*
G75*
G02*
X153475000Y-80957500I0J147500D01*
G01*
G37*
G36*
G01*
X152115000Y-83112500D02*
X152115000Y-83457500D01*
G75*
G02*
X151967500Y-83605000I-147500J0D01*
G01*
X151672500Y-83605000D01*
G75*
G02*
X151525000Y-83457500I0J147500D01*
G01*
X151525000Y-83112500D01*
G75*
G02*
X151672500Y-82965000I147500J0D01*
G01*
X151967500Y-82965000D01*
G75*
G02*
X152115000Y-83112500I0J-147500D01*
G01*
G37*
G36*
G01*
X153085000Y-83112500D02*
X153085000Y-83457500D01*
G75*
G02*
X152937500Y-83605000I-147500J0D01*
G01*
X152642500Y-83605000D01*
G75*
G02*
X152495000Y-83457500I0J147500D01*
G01*
X152495000Y-83112500D01*
G75*
G02*
X152642500Y-82965000I147500J0D01*
G01*
X152937500Y-82965000D01*
G75*
G02*
X153085000Y-83112500I0J-147500D01*
G01*
G37*
G36*
G01*
X155405000Y-84541250D02*
X155405000Y-83628750D01*
G75*
G02*
X155648750Y-83385000I243750J0D01*
G01*
X156136250Y-83385000D01*
G75*
G02*
X156380000Y-83628750I0J-243750D01*
G01*
X156380000Y-84541250D01*
G75*
G02*
X156136250Y-84785000I-243750J0D01*
G01*
X155648750Y-84785000D01*
G75*
G02*
X155405000Y-84541250I0J243750D01*
G01*
G37*
G36*
G01*
X153530000Y-84541250D02*
X153530000Y-83628750D01*
G75*
G02*
X153773750Y-83385000I243750J0D01*
G01*
X154261250Y-83385000D01*
G75*
G02*
X154505000Y-83628750I0J-243750D01*
G01*
X154505000Y-84541250D01*
G75*
G02*
X154261250Y-84785000I-243750J0D01*
G01*
X153773750Y-84785000D01*
G75*
G02*
X153530000Y-84541250I0J243750D01*
G01*
G37*
G36*
G01*
X151105000Y-84278750D02*
X151105000Y-85191250D01*
G75*
G02*
X150861250Y-85435000I-243750J0D01*
G01*
X150373750Y-85435000D01*
G75*
G02*
X150130000Y-85191250I0J243750D01*
G01*
X150130000Y-84278750D01*
G75*
G02*
X150373750Y-84035000I243750J0D01*
G01*
X150861250Y-84035000D01*
G75*
G02*
X151105000Y-84278750I0J-243750D01*
G01*
G37*
G36*
G01*
X152980000Y-84278750D02*
X152980000Y-85191250D01*
G75*
G02*
X152736250Y-85435000I-243750J0D01*
G01*
X152248750Y-85435000D01*
G75*
G02*
X152005000Y-85191250I0J243750D01*
G01*
X152005000Y-84278750D01*
G75*
G02*
X152248750Y-84035000I243750J0D01*
G01*
X152736250Y-84035000D01*
G75*
G02*
X152980000Y-84278750I0J-243750D01*
G01*
G37*
G36*
G01*
X155405000Y-86441250D02*
X155405000Y-85528750D01*
G75*
G02*
X155648750Y-85285000I243750J0D01*
G01*
X156136250Y-85285000D01*
G75*
G02*
X156380000Y-85528750I0J-243750D01*
G01*
X156380000Y-86441250D01*
G75*
G02*
X156136250Y-86685000I-243750J0D01*
G01*
X155648750Y-86685000D01*
G75*
G02*
X155405000Y-86441250I0J243750D01*
G01*
G37*
G36*
G01*
X153530000Y-86441250D02*
X153530000Y-85528750D01*
G75*
G02*
X153773750Y-85285000I243750J0D01*
G01*
X154261250Y-85285000D01*
G75*
G02*
X154505000Y-85528750I0J-243750D01*
G01*
X154505000Y-86441250D01*
G75*
G02*
X154261250Y-86685000I-243750J0D01*
G01*
X153773750Y-86685000D01*
G75*
G02*
X153530000Y-86441250I0J243750D01*
G01*
G37*
G36*
G01*
X151105000Y-86228750D02*
X151105000Y-87141250D01*
G75*
G02*
X150861250Y-87385000I-243750J0D01*
G01*
X150373750Y-87385000D01*
G75*
G02*
X150130000Y-87141250I0J243750D01*
G01*
X150130000Y-86228750D01*
G75*
G02*
X150373750Y-85985000I243750J0D01*
G01*
X150861250Y-85985000D01*
G75*
G02*
X151105000Y-86228750I0J-243750D01*
G01*
G37*
G36*
G01*
X152980000Y-86228750D02*
X152980000Y-87141250D01*
G75*
G02*
X152736250Y-87385000I-243750J0D01*
G01*
X152248750Y-87385000D01*
G75*
G02*
X152005000Y-87141250I0J243750D01*
G01*
X152005000Y-86228750D01*
G75*
G02*
X152248750Y-85985000I243750J0D01*
G01*
X152736250Y-85985000D01*
G75*
G02*
X152980000Y-86228750I0J-243750D01*
G01*
G37*
G36*
G01*
X133356250Y-92087500D02*
X132443750Y-92087500D01*
G75*
G02*
X132200000Y-91843750I0J243750D01*
G01*
X132200000Y-91356250D01*
G75*
G02*
X132443750Y-91112500I243750J0D01*
G01*
X133356250Y-91112500D01*
G75*
G02*
X133600000Y-91356250I0J-243750D01*
G01*
X133600000Y-91843750D01*
G75*
G02*
X133356250Y-92087500I-243750J0D01*
G01*
G37*
G36*
G01*
X133356250Y-93962500D02*
X132443750Y-93962500D01*
G75*
G02*
X132200000Y-93718750I0J243750D01*
G01*
X132200000Y-93231250D01*
G75*
G02*
X132443750Y-92987500I243750J0D01*
G01*
X133356250Y-92987500D01*
G75*
G02*
X133600000Y-93231250I0J-243750D01*
G01*
X133600000Y-93718750D01*
G75*
G02*
X133356250Y-93962500I-243750J0D01*
G01*
G37*
G36*
G01*
X135156250Y-67050000D02*
X134243750Y-67050000D01*
G75*
G02*
X134000000Y-66806250I0J243750D01*
G01*
X134000000Y-66318750D01*
G75*
G02*
X134243750Y-66075000I243750J0D01*
G01*
X135156250Y-66075000D01*
G75*
G02*
X135400000Y-66318750I0J-243750D01*
G01*
X135400000Y-66806250D01*
G75*
G02*
X135156250Y-67050000I-243750J0D01*
G01*
G37*
G36*
G01*
X135156250Y-68925000D02*
X134243750Y-68925000D01*
G75*
G02*
X134000000Y-68681250I0J243750D01*
G01*
X134000000Y-68193750D01*
G75*
G02*
X134243750Y-67950000I243750J0D01*
G01*
X135156250Y-67950000D01*
G75*
G02*
X135400000Y-68193750I0J-243750D01*
G01*
X135400000Y-68681250D01*
G75*
G02*
X135156250Y-68925000I-243750J0D01*
G01*
G37*
G36*
G01*
X128643750Y-96387500D02*
X129556250Y-96387500D01*
G75*
G02*
X129800000Y-96631250I0J-243750D01*
G01*
X129800000Y-97118750D01*
G75*
G02*
X129556250Y-97362500I-243750J0D01*
G01*
X128643750Y-97362500D01*
G75*
G02*
X128400000Y-97118750I0J243750D01*
G01*
X128400000Y-96631250D01*
G75*
G02*
X128643750Y-96387500I243750J0D01*
G01*
G37*
G36*
G01*
X128643750Y-94512500D02*
X129556250Y-94512500D01*
G75*
G02*
X129800000Y-94756250I0J-243750D01*
G01*
X129800000Y-95243750D01*
G75*
G02*
X129556250Y-95487500I-243750J0D01*
G01*
X128643750Y-95487500D01*
G75*
G02*
X128400000Y-95243750I0J243750D01*
G01*
X128400000Y-94756250D01*
G75*
G02*
X128643750Y-94512500I243750J0D01*
G01*
G37*
G36*
G01*
X130443750Y-71350000D02*
X131356250Y-71350000D01*
G75*
G02*
X131600000Y-71593750I0J-243750D01*
G01*
X131600000Y-72081250D01*
G75*
G02*
X131356250Y-72325000I-243750J0D01*
G01*
X130443750Y-72325000D01*
G75*
G02*
X130200000Y-72081250I0J243750D01*
G01*
X130200000Y-71593750D01*
G75*
G02*
X130443750Y-71350000I243750J0D01*
G01*
G37*
G36*
G01*
X130443750Y-69475000D02*
X131356250Y-69475000D01*
G75*
G02*
X131600000Y-69718750I0J-243750D01*
G01*
X131600000Y-70206250D01*
G75*
G02*
X131356250Y-70450000I-243750J0D01*
G01*
X130443750Y-70450000D01*
G75*
G02*
X130200000Y-70206250I0J243750D01*
G01*
X130200000Y-69718750D01*
G75*
G02*
X130443750Y-69475000I243750J0D01*
G01*
G37*
G36*
G01*
X109656250Y-79250000D02*
X108743750Y-79250000D01*
G75*
G02*
X108500000Y-79006250I0J243750D01*
G01*
X108500000Y-78518750D01*
G75*
G02*
X108743750Y-78275000I243750J0D01*
G01*
X109656250Y-78275000D01*
G75*
G02*
X109900000Y-78518750I0J-243750D01*
G01*
X109900000Y-79006250D01*
G75*
G02*
X109656250Y-79250000I-243750J0D01*
G01*
G37*
G36*
G01*
X109656250Y-81125000D02*
X108743750Y-81125000D01*
G75*
G02*
X108500000Y-80881250I0J243750D01*
G01*
X108500000Y-80393750D01*
G75*
G02*
X108743750Y-80150000I243750J0D01*
G01*
X109656250Y-80150000D01*
G75*
G02*
X109900000Y-80393750I0J-243750D01*
G01*
X109900000Y-80881250D01*
G75*
G02*
X109656250Y-81125000I-243750J0D01*
G01*
G37*
G36*
G01*
X108743750Y-83750000D02*
X109656250Y-83750000D01*
G75*
G02*
X109900000Y-83993750I0J-243750D01*
G01*
X109900000Y-84481250D01*
G75*
G02*
X109656250Y-84725000I-243750J0D01*
G01*
X108743750Y-84725000D01*
G75*
G02*
X108500000Y-84481250I0J243750D01*
G01*
X108500000Y-83993750D01*
G75*
G02*
X108743750Y-83750000I243750J0D01*
G01*
G37*
G36*
G01*
X108743750Y-81875000D02*
X109656250Y-81875000D01*
G75*
G02*
X109900000Y-82118750I0J-243750D01*
G01*
X109900000Y-82606250D01*
G75*
G02*
X109656250Y-82850000I-243750J0D01*
G01*
X108743750Y-82850000D01*
G75*
G02*
X108500000Y-82606250I0J243750D01*
G01*
X108500000Y-82118750D01*
G75*
G02*
X108743750Y-81875000I243750J0D01*
G01*
G37*
D12*
X118050000Y-81500000D03*
X118050000Y-82450000D03*
X118050000Y-80550000D03*
X115850000Y-80550000D03*
X115850000Y-81500000D03*
X115850000Y-82450000D03*
G36*
G01*
X154465000Y-82112500D02*
X154465000Y-82457500D01*
G75*
G02*
X154317500Y-82605000I-147500J0D01*
G01*
X154022500Y-82605000D01*
G75*
G02*
X153875000Y-82457500I0J147500D01*
G01*
X153875000Y-82112500D01*
G75*
G02*
X154022500Y-81965000I147500J0D01*
G01*
X154317500Y-81965000D01*
G75*
G02*
X154465000Y-82112500I0J-147500D01*
G01*
G37*
G36*
G01*
X155435000Y-82112500D02*
X155435000Y-82457500D01*
G75*
G02*
X155287500Y-82605000I-147500J0D01*
G01*
X154992500Y-82605000D01*
G75*
G02*
X154845000Y-82457500I0J147500D01*
G01*
X154845000Y-82112500D01*
G75*
G02*
X154992500Y-81965000I147500J0D01*
G01*
X155287500Y-81965000D01*
G75*
G02*
X155435000Y-82112500I0J-147500D01*
G01*
G37*
M02*
