G04 #@! TF.GenerationSoftware,KiCad,Pcbnew,(5.99.0-2267-g4486b0b6d)*
G04 #@! TF.CreationDate,2020-07-12T23:07:06+02:00*
G04 #@! TF.ProjectId,TDR,5444522e-6b69-4636-9164-5f7063625858,A*
G04 #@! TF.SameCoordinates,Original*
G04 #@! TF.FileFunction,Copper,L1,Top*
G04 #@! TF.FilePolarity,Positive*
%FSLAX46Y46*%
G04 Gerber Fmt 4.6, Leading zero omitted, Abs format (unit mm)*
G04 Created by KiCad (PCBNEW (5.99.0-2267-g4486b0b6d)) date 2020-07-12 23:07:06*
%MOMM*%
%LPD*%
G01*
G04 APERTURE LIST*
G04 #@! TA.AperFunction,SMDPad,CuDef*
%ADD10C,1.000000*%
G04 #@! TD*
G04 #@! TA.AperFunction,ComponentPad*
%ADD11C,0.500000*%
G04 #@! TD*
G04 #@! TA.AperFunction,SMDPad,CuDef*
%ADD12R,4.850000X0.350000*%
G04 #@! TD*
G04 #@! TA.AperFunction,SMDPad,CuDef*
%ADD13R,2.000000X1.000000*%
G04 #@! TD*
G04 #@! TA.AperFunction,ComponentPad*
%ADD14O,2.100000X1.000000*%
G04 #@! TD*
G04 #@! TA.AperFunction,ComponentPad*
%ADD15O,2.300000X1.000000*%
G04 #@! TD*
G04 #@! TA.AperFunction,SMDPad,CuDef*
%ADD16C,0.400000*%
G04 #@! TD*
G04 #@! TA.AperFunction,SMDPad,CuDef*
%ADD17R,0.400000X0.450000*%
G04 #@! TD*
G04 #@! TA.AperFunction,SMDPad,CuDef*
%ADD18R,1.060000X0.650000*%
G04 #@! TD*
G04 #@! TA.AperFunction,SMDPad,CuDef*
%ADD19R,1.200000X1.400000*%
G04 #@! TD*
G04 #@! TA.AperFunction,SMDPad,CuDef*
%ADD20R,3.400000X4.300000*%
G04 #@! TD*
G04 #@! TA.AperFunction,SMDPad,CuDef*
%ADD21R,2.800000X2.000000*%
G04 #@! TD*
G04 #@! TA.AperFunction,ViaPad*
%ADD22C,0.457200*%
G04 #@! TD*
G04 #@! TA.AperFunction,ViaPad*
%ADD23C,0.685800*%
G04 #@! TD*
G04 #@! TA.AperFunction,ViaPad*
%ADD24C,0.889000*%
G04 #@! TD*
G04 #@! TA.AperFunction,ViaPad*
%ADD25C,0.800000*%
G04 #@! TD*
G04 #@! TA.AperFunction,Conductor*
%ADD26C,0.127000*%
G04 #@! TD*
G04 #@! TA.AperFunction,Conductor*
%ADD27C,0.390000*%
G04 #@! TD*
G04 #@! TA.AperFunction,Conductor*
%ADD28C,0.762000*%
G04 #@! TD*
G04 #@! TA.AperFunction,Conductor*
%ADD29C,0.300000*%
G04 #@! TD*
G04 #@! TA.AperFunction,Conductor*
%ADD30C,0.254000*%
G04 #@! TD*
G04 #@! TA.AperFunction,Conductor*
%ADD31C,0.200000*%
G04 #@! TD*
G04 #@! TA.AperFunction,Conductor*
%ADD32C,0.508000*%
G04 #@! TD*
G04 #@! TA.AperFunction,Conductor*
%ADD33C,0.250000*%
G04 #@! TD*
G04 #@! TA.AperFunction,Conductor*
%ADD34C,0.410000*%
G04 #@! TD*
G04 #@! TA.AperFunction,Conductor*
%ADD35C,0.350000*%
G04 #@! TD*
G04 APERTURE END LIST*
D10*
X158655000Y-86585000D03*
G04 #@! TA.AperFunction,SMDPad,CuDef*
G36*
G01*
X151071666Y-66075000D02*
X151416666Y-66075000D01*
G75*
G02*
X151564166Y-66222500I0J-147500D01*
G01*
X151564166Y-66517500D01*
G75*
G02*
X151416666Y-66665000I-147500J0D01*
G01*
X151071666Y-66665000D01*
G75*
G02*
X150924166Y-66517500I0J147500D01*
G01*
X150924166Y-66222500D01*
G75*
G02*
X151071666Y-66075000I147500J0D01*
G01*
G37*
G04 #@! TD.AperFunction*
G04 #@! TA.AperFunction,SMDPad,CuDef*
G36*
G01*
X151071666Y-65105000D02*
X151416666Y-65105000D01*
G75*
G02*
X151564166Y-65252500I0J-147500D01*
G01*
X151564166Y-65547500D01*
G75*
G02*
X151416666Y-65695000I-147500J0D01*
G01*
X151071666Y-65695000D01*
G75*
G02*
X150924166Y-65547500I0J147500D01*
G01*
X150924166Y-65252500D01*
G75*
G02*
X151071666Y-65105000I147500J0D01*
G01*
G37*
G04 #@! TD.AperFunction*
G04 #@! TA.AperFunction,SMDPad,CuDef*
G36*
G01*
X132405000Y-71628750D02*
X132405000Y-72541250D01*
G75*
G02*
X132161250Y-72785000I-243750J0D01*
G01*
X131673750Y-72785000D01*
G75*
G02*
X131430000Y-72541250I0J243750D01*
G01*
X131430000Y-71628750D01*
G75*
G02*
X131673750Y-71385000I243750J0D01*
G01*
X132161250Y-71385000D01*
G75*
G02*
X132405000Y-71628750I0J-243750D01*
G01*
G37*
G04 #@! TD.AperFunction*
G04 #@! TA.AperFunction,SMDPad,CuDef*
G36*
G01*
X134280000Y-71628750D02*
X134280000Y-72541250D01*
G75*
G02*
X134036250Y-72785000I-243750J0D01*
G01*
X133548750Y-72785000D01*
G75*
G02*
X133305000Y-72541250I0J243750D01*
G01*
X133305000Y-71628750D01*
G75*
G02*
X133548750Y-71385000I243750J0D01*
G01*
X134036250Y-71385000D01*
G75*
G02*
X134280000Y-71628750I0J-243750D01*
G01*
G37*
G04 #@! TD.AperFunction*
G04 #@! TA.AperFunction,SMDPad,CuDef*
G36*
G01*
X132405000Y-69728750D02*
X132405000Y-70641250D01*
G75*
G02*
X132161250Y-70885000I-243750J0D01*
G01*
X131673750Y-70885000D01*
G75*
G02*
X131430000Y-70641250I0J243750D01*
G01*
X131430000Y-69728750D01*
G75*
G02*
X131673750Y-69485000I243750J0D01*
G01*
X132161250Y-69485000D01*
G75*
G02*
X132405000Y-69728750I0J-243750D01*
G01*
G37*
G04 #@! TD.AperFunction*
G04 #@! TA.AperFunction,SMDPad,CuDef*
G36*
G01*
X134280000Y-69728750D02*
X134280000Y-70641250D01*
G75*
G02*
X134036250Y-70885000I-243750J0D01*
G01*
X133548750Y-70885000D01*
G75*
G02*
X133305000Y-70641250I0J243750D01*
G01*
X133305000Y-69728750D01*
G75*
G02*
X133548750Y-69485000I243750J0D01*
G01*
X134036250Y-69485000D01*
G75*
G02*
X134280000Y-69728750I0J-243750D01*
G01*
G37*
G04 #@! TD.AperFunction*
G04 #@! TA.AperFunction,SMDPad,CuDef*
G36*
G01*
X132405000Y-67828750D02*
X132405000Y-68741250D01*
G75*
G02*
X132161250Y-68985000I-243750J0D01*
G01*
X131673750Y-68985000D01*
G75*
G02*
X131430000Y-68741250I0J243750D01*
G01*
X131430000Y-67828750D01*
G75*
G02*
X131673750Y-67585000I243750J0D01*
G01*
X132161250Y-67585000D01*
G75*
G02*
X132405000Y-67828750I0J-243750D01*
G01*
G37*
G04 #@! TD.AperFunction*
G04 #@! TA.AperFunction,SMDPad,CuDef*
G36*
G01*
X134280000Y-67828750D02*
X134280000Y-68741250D01*
G75*
G02*
X134036250Y-68985000I-243750J0D01*
G01*
X133548750Y-68985000D01*
G75*
G02*
X133305000Y-68741250I0J243750D01*
G01*
X133305000Y-67828750D01*
G75*
G02*
X133548750Y-67585000I243750J0D01*
G01*
X134036250Y-67585000D01*
G75*
G02*
X134280000Y-67828750I0J-243750D01*
G01*
G37*
G04 #@! TD.AperFunction*
G04 #@! TA.AperFunction,SMDPad,CuDef*
G36*
G01*
X132405000Y-65928750D02*
X132405000Y-66841250D01*
G75*
G02*
X132161250Y-67085000I-243750J0D01*
G01*
X131673750Y-67085000D01*
G75*
G02*
X131430000Y-66841250I0J243750D01*
G01*
X131430000Y-65928750D01*
G75*
G02*
X131673750Y-65685000I243750J0D01*
G01*
X132161250Y-65685000D01*
G75*
G02*
X132405000Y-65928750I0J-243750D01*
G01*
G37*
G04 #@! TD.AperFunction*
G04 #@! TA.AperFunction,SMDPad,CuDef*
G36*
G01*
X134280000Y-65928750D02*
X134280000Y-66841250D01*
G75*
G02*
X134036250Y-67085000I-243750J0D01*
G01*
X133548750Y-67085000D01*
G75*
G02*
X133305000Y-66841250I0J243750D01*
G01*
X133305000Y-65928750D01*
G75*
G02*
X133548750Y-65685000I243750J0D01*
G01*
X134036250Y-65685000D01*
G75*
G02*
X134280000Y-65928750I0J-243750D01*
G01*
G37*
G04 #@! TD.AperFunction*
G04 #@! TA.AperFunction,SMDPad,CuDef*
G36*
G01*
X136955000Y-74185000D02*
X136955000Y-73385000D01*
G75*
G02*
X137205000Y-73135000I250000J0D01*
G01*
X138030000Y-73135000D01*
G75*
G02*
X138280000Y-73385000I0J-250000D01*
G01*
X138280000Y-74185000D01*
G75*
G02*
X138030000Y-74435000I-250000J0D01*
G01*
X137205000Y-74435000D01*
G75*
G02*
X136955000Y-74185000I0J250000D01*
G01*
G37*
G04 #@! TD.AperFunction*
G04 #@! TA.AperFunction,SMDPad,CuDef*
G36*
G01*
X135030000Y-74185000D02*
X135030000Y-73385000D01*
G75*
G02*
X135280000Y-73135000I250000J0D01*
G01*
X136105000Y-73135000D01*
G75*
G02*
X136355000Y-73385000I0J-250000D01*
G01*
X136355000Y-74185000D01*
G75*
G02*
X136105000Y-74435000I-250000J0D01*
G01*
X135280000Y-74435000D01*
G75*
G02*
X135030000Y-74185000I0J250000D01*
G01*
G37*
G04 #@! TD.AperFunction*
G04 #@! TA.AperFunction,SMDPad,CuDef*
G36*
G01*
X136955000Y-72385000D02*
X136955000Y-71585000D01*
G75*
G02*
X137205000Y-71335000I250000J0D01*
G01*
X138030000Y-71335000D01*
G75*
G02*
X138280000Y-71585000I0J-250000D01*
G01*
X138280000Y-72385000D01*
G75*
G02*
X138030000Y-72635000I-250000J0D01*
G01*
X137205000Y-72635000D01*
G75*
G02*
X136955000Y-72385000I0J250000D01*
G01*
G37*
G04 #@! TD.AperFunction*
G04 #@! TA.AperFunction,SMDPad,CuDef*
G36*
G01*
X135030000Y-72385000D02*
X135030000Y-71585000D01*
G75*
G02*
X135280000Y-71335000I250000J0D01*
G01*
X136105000Y-71335000D01*
G75*
G02*
X136355000Y-71585000I0J-250000D01*
G01*
X136355000Y-72385000D01*
G75*
G02*
X136105000Y-72635000I-250000J0D01*
G01*
X135280000Y-72635000D01*
G75*
G02*
X135030000Y-72385000I0J250000D01*
G01*
G37*
G04 #@! TD.AperFunction*
G04 #@! TA.AperFunction,SMDPad,CuDef*
G36*
G01*
X136955000Y-70585000D02*
X136955000Y-69785000D01*
G75*
G02*
X137205000Y-69535000I250000J0D01*
G01*
X138030000Y-69535000D01*
G75*
G02*
X138280000Y-69785000I0J-250000D01*
G01*
X138280000Y-70585000D01*
G75*
G02*
X138030000Y-70835000I-250000J0D01*
G01*
X137205000Y-70835000D01*
G75*
G02*
X136955000Y-70585000I0J250000D01*
G01*
G37*
G04 #@! TD.AperFunction*
G04 #@! TA.AperFunction,SMDPad,CuDef*
G36*
G01*
X135030000Y-70585000D02*
X135030000Y-69785000D01*
G75*
G02*
X135280000Y-69535000I250000J0D01*
G01*
X136105000Y-69535000D01*
G75*
G02*
X136355000Y-69785000I0J-250000D01*
G01*
X136355000Y-70585000D01*
G75*
G02*
X136105000Y-70835000I-250000J0D01*
G01*
X135280000Y-70835000D01*
G75*
G02*
X135030000Y-70585000I0J250000D01*
G01*
G37*
G04 #@! TD.AperFunction*
G04 #@! TA.AperFunction,SMDPad,CuDef*
G36*
G01*
X136955000Y-68785000D02*
X136955000Y-67985000D01*
G75*
G02*
X137205000Y-67735000I250000J0D01*
G01*
X138030000Y-67735000D01*
G75*
G02*
X138280000Y-67985000I0J-250000D01*
G01*
X138280000Y-68785000D01*
G75*
G02*
X138030000Y-69035000I-250000J0D01*
G01*
X137205000Y-69035000D01*
G75*
G02*
X136955000Y-68785000I0J250000D01*
G01*
G37*
G04 #@! TD.AperFunction*
G04 #@! TA.AperFunction,SMDPad,CuDef*
G36*
G01*
X135030000Y-68785000D02*
X135030000Y-67985000D01*
G75*
G02*
X135280000Y-67735000I250000J0D01*
G01*
X136105000Y-67735000D01*
G75*
G02*
X136355000Y-67985000I0J-250000D01*
G01*
X136355000Y-68785000D01*
G75*
G02*
X136105000Y-69035000I-250000J0D01*
G01*
X135280000Y-69035000D01*
G75*
G02*
X135030000Y-68785000I0J250000D01*
G01*
G37*
G04 #@! TD.AperFunction*
D11*
X166600000Y-85000000D03*
X163000000Y-85000000D03*
X165250000Y-85000000D03*
X166000000Y-85000000D03*
X162250000Y-85000000D03*
X166600000Y-85750000D03*
X166000000Y-85750000D03*
X162250000Y-85750000D03*
X166600000Y-82750000D03*
X162250000Y-82750000D03*
X166000000Y-82750000D03*
X165250000Y-82750000D03*
X164500000Y-82750000D03*
X163750000Y-82750000D03*
X163000000Y-82750000D03*
X166600000Y-83500000D03*
X163000000Y-83500000D03*
X163750000Y-83500000D03*
X164500000Y-83500000D03*
X165250000Y-83500000D03*
X166000000Y-83500000D03*
X166600000Y-86500000D03*
X166000000Y-86500000D03*
X162250000Y-86500000D03*
X166600000Y-87250000D03*
X166000000Y-87250000D03*
X162250000Y-87250000D03*
X166600000Y-88000000D03*
X163000000Y-88000000D03*
X163750000Y-88000000D03*
X164500000Y-88000000D03*
X165250000Y-88000000D03*
X166000000Y-88000000D03*
X162250000Y-88000000D03*
X162250000Y-83500000D03*
X166600000Y-84250000D03*
X163000000Y-84250000D03*
X163750000Y-84250000D03*
X164500000Y-84250000D03*
X165250000Y-84250000D03*
X166000000Y-84250000D03*
X162250000Y-84250000D03*
X162250000Y-75000000D03*
X166000000Y-75000000D03*
X165250000Y-75000000D03*
X164500000Y-75000000D03*
X163750000Y-75000000D03*
X163000000Y-75000000D03*
X166600000Y-75000000D03*
X162250000Y-75750000D03*
X166000000Y-75750000D03*
X166600000Y-75750000D03*
X162250000Y-76500000D03*
X166000000Y-76500000D03*
X166600000Y-76500000D03*
X162250000Y-77250000D03*
X166000000Y-77250000D03*
X166600000Y-77250000D03*
X162250000Y-78000000D03*
X166000000Y-78000000D03*
X165250000Y-78000000D03*
X163000000Y-78000000D03*
X166600000Y-78000000D03*
X162250000Y-78750000D03*
X166000000Y-78750000D03*
X165250000Y-78750000D03*
X164500000Y-78750000D03*
X163750000Y-78750000D03*
X163000000Y-78750000D03*
X166600000Y-78750000D03*
X162250000Y-79500000D03*
X166000000Y-79500000D03*
X165250000Y-79500000D03*
X164500000Y-79500000D03*
X163750000Y-79500000D03*
X163000000Y-79500000D03*
X166600000Y-79500000D03*
X163000000Y-80250000D03*
X163750000Y-80250000D03*
X164500000Y-80250000D03*
X165250000Y-80250000D03*
X166000000Y-80250000D03*
X162250000Y-80250000D03*
X166600000Y-80250000D03*
G04 #@! TA.AperFunction,ComponentPad*
G36*
X166850000Y-82500001D02*
G01*
X166849999Y-88500000D01*
X162000000Y-88499999D01*
X162000001Y-82500000D01*
X166850000Y-82500001D01*
G37*
G04 #@! TD.AperFunction*
G04 #@! TA.AperFunction,ComponentPad*
G36*
X166850000Y-74500001D02*
G01*
X166849999Y-80500000D01*
X162000000Y-80499999D01*
X162000001Y-74500000D01*
X166850000Y-74500001D01*
G37*
G04 #@! TD.AperFunction*
D12*
X164425000Y-81500000D03*
D13*
X108955000Y-82885000D03*
X108955000Y-80085000D03*
G04 #@! TA.AperFunction,SMDPad,CuDef*
G36*
G01*
X112707000Y-84325000D02*
X113603000Y-84325000D01*
G75*
G02*
X113655000Y-84377000I0J-52000D01*
G01*
X113655000Y-84793000D01*
G75*
G02*
X113603000Y-84845000I-52000J0D01*
G01*
X112707000Y-84845000D01*
G75*
G02*
X112655000Y-84793000I0J52000D01*
G01*
X112655000Y-84377000D01*
G75*
G02*
X112707000Y-84325000I52000J0D01*
G01*
G37*
G04 #@! TD.AperFunction*
G04 #@! TA.AperFunction,SMDPad,CuDef*
G36*
G01*
X112707000Y-83575000D02*
X113603000Y-83575000D01*
G75*
G02*
X113655000Y-83627000I0J-52000D01*
G01*
X113655000Y-84043000D01*
G75*
G02*
X113603000Y-84095000I-52000J0D01*
G01*
X112707000Y-84095000D01*
G75*
G02*
X112655000Y-84043000I0J52000D01*
G01*
X112655000Y-83627000D01*
G75*
G02*
X112707000Y-83575000I52000J0D01*
G01*
G37*
G04 #@! TD.AperFunction*
G04 #@! TA.AperFunction,SMDPad,CuDef*
G36*
G01*
X112707000Y-78875000D02*
X113603000Y-78875000D01*
G75*
G02*
X113655000Y-78927000I0J-52000D01*
G01*
X113655000Y-79343000D01*
G75*
G02*
X113603000Y-79395000I-52000J0D01*
G01*
X112707000Y-79395000D01*
G75*
G02*
X112655000Y-79343000I0J52000D01*
G01*
X112655000Y-78927000D01*
G75*
G02*
X112707000Y-78875000I52000J0D01*
G01*
G37*
G04 #@! TD.AperFunction*
G04 #@! TA.AperFunction,SMDPad,CuDef*
G36*
G01*
X112707000Y-78125000D02*
X113603000Y-78125000D01*
G75*
G02*
X113655000Y-78177000I0J-52000D01*
G01*
X113655000Y-78593000D01*
G75*
G02*
X113603000Y-78645000I-52000J0D01*
G01*
X112707000Y-78645000D01*
G75*
G02*
X112655000Y-78593000I0J52000D01*
G01*
X112655000Y-78177000D01*
G75*
G02*
X112707000Y-78125000I52000J0D01*
G01*
G37*
G04 #@! TD.AperFunction*
G04 #@! TA.AperFunction,SMDPad,CuDef*
G36*
G01*
X112707000Y-78125000D02*
X113603000Y-78125000D01*
G75*
G02*
X113655000Y-78177000I0J-52000D01*
G01*
X113655000Y-78593000D01*
G75*
G02*
X113603000Y-78645000I-52000J0D01*
G01*
X112707000Y-78645000D01*
G75*
G02*
X112655000Y-78593000I0J52000D01*
G01*
X112655000Y-78177000D01*
G75*
G02*
X112707000Y-78125000I52000J0D01*
G01*
G37*
G04 #@! TD.AperFunction*
G04 #@! TA.AperFunction,SMDPad,CuDef*
G36*
G01*
X112707000Y-78875000D02*
X113603000Y-78875000D01*
G75*
G02*
X113655000Y-78927000I0J-52000D01*
G01*
X113655000Y-79343000D01*
G75*
G02*
X113603000Y-79395000I-52000J0D01*
G01*
X112707000Y-79395000D01*
G75*
G02*
X112655000Y-79343000I0J52000D01*
G01*
X112655000Y-78927000D01*
G75*
G02*
X112707000Y-78875000I52000J0D01*
G01*
G37*
G04 #@! TD.AperFunction*
G04 #@! TA.AperFunction,SMDPad,CuDef*
G36*
G01*
X112707000Y-83575000D02*
X113603000Y-83575000D01*
G75*
G02*
X113655000Y-83627000I0J-52000D01*
G01*
X113655000Y-84043000D01*
G75*
G02*
X113603000Y-84095000I-52000J0D01*
G01*
X112707000Y-84095000D01*
G75*
G02*
X112655000Y-84043000I0J52000D01*
G01*
X112655000Y-83627000D01*
G75*
G02*
X112707000Y-83575000I52000J0D01*
G01*
G37*
G04 #@! TD.AperFunction*
G04 #@! TA.AperFunction,SMDPad,CuDef*
G36*
G01*
X112707000Y-84325000D02*
X113603000Y-84325000D01*
G75*
G02*
X113655000Y-84377000I0J-52000D01*
G01*
X113655000Y-84793000D01*
G75*
G02*
X113603000Y-84845000I-52000J0D01*
G01*
X112707000Y-84845000D01*
G75*
G02*
X112655000Y-84793000I0J52000D01*
G01*
X112655000Y-84377000D01*
G75*
G02*
X112707000Y-84325000I52000J0D01*
G01*
G37*
G04 #@! TD.AperFunction*
G04 #@! TA.AperFunction,SMDPad,CuDef*
G36*
G01*
X112682000Y-79600000D02*
X113628000Y-79600000D01*
G75*
G02*
X113655000Y-79627000I0J-27000D01*
G01*
X113655000Y-79843000D01*
G75*
G02*
X113628000Y-79870000I-27000J0D01*
G01*
X112682000Y-79870000D01*
G75*
G02*
X112655000Y-79843000I0J27000D01*
G01*
X112655000Y-79627000D01*
G75*
G02*
X112682000Y-79600000I27000J0D01*
G01*
G37*
G04 #@! TD.AperFunction*
G04 #@! TA.AperFunction,SMDPad,CuDef*
G36*
G01*
X112682000Y-80100000D02*
X113628000Y-80100000D01*
G75*
G02*
X113655000Y-80127000I0J-27000D01*
G01*
X113655000Y-80343000D01*
G75*
G02*
X113628000Y-80370000I-27000J0D01*
G01*
X112682000Y-80370000D01*
G75*
G02*
X112655000Y-80343000I0J27000D01*
G01*
X112655000Y-80127000D01*
G75*
G02*
X112682000Y-80100000I27000J0D01*
G01*
G37*
G04 #@! TD.AperFunction*
G04 #@! TA.AperFunction,SMDPad,CuDef*
G36*
G01*
X112682000Y-80600000D02*
X113628000Y-80600000D01*
G75*
G02*
X113655000Y-80627000I0J-27000D01*
G01*
X113655000Y-80843000D01*
G75*
G02*
X113628000Y-80870000I-27000J0D01*
G01*
X112682000Y-80870000D01*
G75*
G02*
X112655000Y-80843000I0J27000D01*
G01*
X112655000Y-80627000D01*
G75*
G02*
X112682000Y-80600000I27000J0D01*
G01*
G37*
G04 #@! TD.AperFunction*
G04 #@! TA.AperFunction,SMDPad,CuDef*
G36*
G01*
X112682000Y-81600000D02*
X113628000Y-81600000D01*
G75*
G02*
X113655000Y-81627000I0J-27000D01*
G01*
X113655000Y-81843000D01*
G75*
G02*
X113628000Y-81870000I-27000J0D01*
G01*
X112682000Y-81870000D01*
G75*
G02*
X112655000Y-81843000I0J27000D01*
G01*
X112655000Y-81627000D01*
G75*
G02*
X112682000Y-81600000I27000J0D01*
G01*
G37*
G04 #@! TD.AperFunction*
G04 #@! TA.AperFunction,SMDPad,CuDef*
G36*
G01*
X112682000Y-82100000D02*
X113628000Y-82100000D01*
G75*
G02*
X113655000Y-82127000I0J-27000D01*
G01*
X113655000Y-82343000D01*
G75*
G02*
X113628000Y-82370000I-27000J0D01*
G01*
X112682000Y-82370000D01*
G75*
G02*
X112655000Y-82343000I0J27000D01*
G01*
X112655000Y-82127000D01*
G75*
G02*
X112682000Y-82100000I27000J0D01*
G01*
G37*
G04 #@! TD.AperFunction*
G04 #@! TA.AperFunction,SMDPad,CuDef*
G36*
G01*
X112682000Y-82600000D02*
X113628000Y-82600000D01*
G75*
G02*
X113655000Y-82627000I0J-27000D01*
G01*
X113655000Y-82843000D01*
G75*
G02*
X113628000Y-82870000I-27000J0D01*
G01*
X112682000Y-82870000D01*
G75*
G02*
X112655000Y-82843000I0J27000D01*
G01*
X112655000Y-82627000D01*
G75*
G02*
X112682000Y-82600000I27000J0D01*
G01*
G37*
G04 #@! TD.AperFunction*
G04 #@! TA.AperFunction,SMDPad,CuDef*
G36*
G01*
X112682000Y-83100000D02*
X113628000Y-83100000D01*
G75*
G02*
X113655000Y-83127000I0J-27000D01*
G01*
X113655000Y-83343000D01*
G75*
G02*
X113628000Y-83370000I-27000J0D01*
G01*
X112682000Y-83370000D01*
G75*
G02*
X112655000Y-83343000I0J27000D01*
G01*
X112655000Y-83127000D01*
G75*
G02*
X112682000Y-83100000I27000J0D01*
G01*
G37*
G04 #@! TD.AperFunction*
G04 #@! TA.AperFunction,SMDPad,CuDef*
G36*
G01*
X112682000Y-81100000D02*
X113628000Y-81100000D01*
G75*
G02*
X113655000Y-81127000I0J-27000D01*
G01*
X113655000Y-81343000D01*
G75*
G02*
X113628000Y-81370000I-27000J0D01*
G01*
X112682000Y-81370000D01*
G75*
G02*
X112655000Y-81343000I0J27000D01*
G01*
X112655000Y-81127000D01*
G75*
G02*
X112682000Y-81100000I27000J0D01*
G01*
G37*
G04 #@! TD.AperFunction*
D14*
X112780000Y-85805000D03*
X112780000Y-77165000D03*
D15*
X108955000Y-77165000D03*
X108955000Y-85805000D03*
D16*
X155655000Y-69985000D03*
X155655000Y-71585000D03*
X155655000Y-72385000D03*
X155655000Y-73185000D03*
X155655000Y-73985000D03*
X155655000Y-75585000D03*
X155655000Y-76385000D03*
X155655000Y-78785000D03*
X155655000Y-79585000D03*
X155655000Y-80385000D03*
X155655000Y-81185000D03*
X155655000Y-82785000D03*
X155655000Y-83585000D03*
X154855000Y-69185000D03*
X154855000Y-69985000D03*
X154855000Y-70785000D03*
X154855000Y-71585000D03*
X154855000Y-72385000D03*
X154855000Y-73185000D03*
X154855000Y-73985000D03*
X154855000Y-74785000D03*
X154855000Y-75585000D03*
X154855000Y-76385000D03*
X154855000Y-77185000D03*
X154855000Y-77985000D03*
X154855000Y-78785000D03*
X154855000Y-79585000D03*
X154855000Y-80385000D03*
X154855000Y-81185000D03*
X154855000Y-81985000D03*
X154855000Y-82785000D03*
X154855000Y-83585000D03*
X154855000Y-84385000D03*
X154055000Y-69185000D03*
X154055000Y-69985000D03*
X154055000Y-70785000D03*
X154055000Y-71585000D03*
X154055000Y-72385000D03*
X154055000Y-73185000D03*
X154055000Y-73985000D03*
X154055000Y-74785000D03*
X154055000Y-75585000D03*
X154055000Y-76385000D03*
X154055000Y-77185000D03*
X154055000Y-77985000D03*
X154055000Y-78785000D03*
X154055000Y-79585000D03*
X154055000Y-80385000D03*
X154055000Y-81185000D03*
X154055000Y-81985000D03*
X154055000Y-82785000D03*
X154055000Y-83585000D03*
X154055000Y-84385000D03*
X153255000Y-69185000D03*
X153255000Y-69985000D03*
X153255000Y-70785000D03*
X153255000Y-71585000D03*
X153255000Y-72385000D03*
X153255000Y-73185000D03*
X153255000Y-73985000D03*
X153255000Y-74785000D03*
X153255000Y-75585000D03*
X153255000Y-76385000D03*
X153255000Y-77185000D03*
X153255000Y-77985000D03*
X153255000Y-78785000D03*
X153255000Y-79585000D03*
X153255000Y-80385000D03*
X153255000Y-81185000D03*
X153255000Y-81985000D03*
X153255000Y-82785000D03*
X153255000Y-83585000D03*
X153255000Y-84385000D03*
X152455000Y-69185000D03*
X152455000Y-69985000D03*
X152455000Y-70785000D03*
X152455000Y-71585000D03*
X152455000Y-72385000D03*
X152455000Y-73185000D03*
X152455000Y-73985000D03*
X152455000Y-74785000D03*
X152455000Y-75585000D03*
X152455000Y-76385000D03*
X152455000Y-77185000D03*
X152455000Y-77985000D03*
X152455000Y-78785000D03*
X152455000Y-79585000D03*
X152455000Y-80385000D03*
X152455000Y-81185000D03*
X152455000Y-81985000D03*
X152455000Y-82785000D03*
X152455000Y-83585000D03*
X152455000Y-84385000D03*
X151655000Y-69185000D03*
X151655000Y-69985000D03*
X151655000Y-70785000D03*
X151655000Y-71585000D03*
X151655000Y-72385000D03*
X151655000Y-81185000D03*
X151655000Y-81985000D03*
X151655000Y-82785000D03*
X151655000Y-83585000D03*
X151655000Y-84385000D03*
X150855000Y-69185000D03*
X150855000Y-69985000D03*
X150855000Y-70785000D03*
X150855000Y-71585000D03*
X150855000Y-72385000D03*
X150855000Y-73185000D03*
X150855000Y-73985000D03*
X150855000Y-74785000D03*
X150855000Y-75585000D03*
X150855000Y-76385000D03*
X150855000Y-77185000D03*
X150855000Y-77985000D03*
X150855000Y-78785000D03*
X150855000Y-79585000D03*
X150855000Y-80385000D03*
X150855000Y-81185000D03*
X150855000Y-81985000D03*
X150855000Y-82785000D03*
X150855000Y-83585000D03*
X150855000Y-84385000D03*
X150055000Y-69185000D03*
X150055000Y-69985000D03*
X150055000Y-70785000D03*
X150055000Y-71585000D03*
X150055000Y-72385000D03*
X150055000Y-73185000D03*
X150055000Y-73985000D03*
X150055000Y-74785000D03*
X150055000Y-75585000D03*
X150055000Y-76385000D03*
X150055000Y-77185000D03*
X150055000Y-77985000D03*
X150055000Y-78785000D03*
X150055000Y-79585000D03*
X150055000Y-80385000D03*
X150055000Y-81185000D03*
X150055000Y-81985000D03*
X150055000Y-82785000D03*
X150055000Y-83585000D03*
X150055000Y-84385000D03*
X149255000Y-69185000D03*
X149255000Y-69985000D03*
X149255000Y-70785000D03*
X149255000Y-71585000D03*
X149255000Y-72385000D03*
X149255000Y-73185000D03*
X149255000Y-73985000D03*
X149255000Y-74785000D03*
X149255000Y-75585000D03*
X149255000Y-76385000D03*
X149255000Y-77185000D03*
X149255000Y-77985000D03*
X149255000Y-78785000D03*
X149255000Y-79585000D03*
X149255000Y-80385000D03*
X149255000Y-81185000D03*
X149255000Y-81985000D03*
X149255000Y-82785000D03*
X149255000Y-83585000D03*
X149255000Y-84385000D03*
X148455000Y-69185000D03*
X148455000Y-69985000D03*
X148455000Y-70785000D03*
X148455000Y-71585000D03*
X148455000Y-72385000D03*
X148455000Y-73185000D03*
X148455000Y-73985000D03*
X148455000Y-74785000D03*
X148455000Y-75585000D03*
X148455000Y-76385000D03*
X148455000Y-77185000D03*
X148455000Y-77985000D03*
X148455000Y-78785000D03*
X148455000Y-79585000D03*
X148455000Y-80385000D03*
X148455000Y-81185000D03*
X148455000Y-81985000D03*
X148455000Y-82785000D03*
X148455000Y-83585000D03*
X148455000Y-84385000D03*
X147655000Y-69185000D03*
X147655000Y-69985000D03*
X147655000Y-70785000D03*
X147655000Y-71585000D03*
X147655000Y-72385000D03*
X147655000Y-73185000D03*
X147655000Y-73985000D03*
X147655000Y-74785000D03*
X147655000Y-75585000D03*
X147655000Y-76385000D03*
X147655000Y-77185000D03*
X147655000Y-77985000D03*
X147655000Y-78785000D03*
X147655000Y-79585000D03*
X147655000Y-80385000D03*
X147655000Y-81185000D03*
X147655000Y-81985000D03*
X147655000Y-82785000D03*
X147655000Y-83585000D03*
X147655000Y-84385000D03*
X146855000Y-69185000D03*
X146855000Y-69985000D03*
X146855000Y-70785000D03*
X146855000Y-71585000D03*
X146855000Y-72385000D03*
X146855000Y-73185000D03*
X146855000Y-73985000D03*
X146855000Y-74785000D03*
X146855000Y-75585000D03*
X146855000Y-76385000D03*
X146855000Y-77185000D03*
X146855000Y-77985000D03*
X146855000Y-78785000D03*
X146855000Y-79585000D03*
X146855000Y-80385000D03*
X146855000Y-81185000D03*
X146855000Y-81985000D03*
X146855000Y-82785000D03*
X146855000Y-83585000D03*
X146855000Y-84385000D03*
X146055000Y-69185000D03*
X146055000Y-69985000D03*
X146055000Y-70785000D03*
X146055000Y-71585000D03*
X146055000Y-72385000D03*
X146055000Y-73185000D03*
X146055000Y-73985000D03*
X146055000Y-74785000D03*
X146055000Y-75585000D03*
X146055000Y-76385000D03*
X146055000Y-77185000D03*
X146055000Y-77985000D03*
X146055000Y-78785000D03*
X146055000Y-79585000D03*
X146055000Y-80385000D03*
X146055000Y-81185000D03*
X146055000Y-81985000D03*
X146055000Y-82785000D03*
X146055000Y-83585000D03*
X146055000Y-84385000D03*
X145255000Y-69185000D03*
X145255000Y-69985000D03*
X145255000Y-70785000D03*
X145255000Y-71585000D03*
X145255000Y-72385000D03*
X145255000Y-73185000D03*
X145255000Y-73985000D03*
X145255000Y-74785000D03*
X145255000Y-75585000D03*
X145255000Y-76385000D03*
X145255000Y-77185000D03*
X145255000Y-77985000D03*
X145255000Y-78785000D03*
X145255000Y-79585000D03*
X145255000Y-80385000D03*
X145255000Y-81185000D03*
X145255000Y-81985000D03*
X145255000Y-82785000D03*
X145255000Y-83585000D03*
X145255000Y-84385000D03*
X144455000Y-69185000D03*
X144455000Y-69985000D03*
X144455000Y-70785000D03*
X144455000Y-71585000D03*
X144455000Y-72385000D03*
X144455000Y-73185000D03*
X144455000Y-73985000D03*
X144455000Y-74785000D03*
X144455000Y-75585000D03*
X144455000Y-76385000D03*
X144455000Y-77185000D03*
X144455000Y-77985000D03*
X144455000Y-78785000D03*
X144455000Y-79585000D03*
X144455000Y-80385000D03*
X144455000Y-81185000D03*
X144455000Y-81985000D03*
X144455000Y-82785000D03*
X144455000Y-83585000D03*
X144455000Y-84385000D03*
X143655000Y-69185000D03*
X143655000Y-69985000D03*
X143655000Y-70785000D03*
X143655000Y-71585000D03*
X143655000Y-72385000D03*
X143655000Y-73185000D03*
X143655000Y-73985000D03*
X143655000Y-74785000D03*
X143655000Y-75585000D03*
X143655000Y-76385000D03*
X143655000Y-77185000D03*
X143655000Y-77985000D03*
X143655000Y-78785000D03*
X143655000Y-79585000D03*
X143655000Y-80385000D03*
X143655000Y-81185000D03*
X143655000Y-81985000D03*
X143655000Y-82785000D03*
X143655000Y-83585000D03*
X143655000Y-84385000D03*
X142855000Y-69185000D03*
X142855000Y-69985000D03*
X142855000Y-70785000D03*
X142855000Y-71585000D03*
X142855000Y-72385000D03*
X142855000Y-73185000D03*
X142855000Y-73985000D03*
X142855000Y-74785000D03*
X142855000Y-75585000D03*
X142855000Y-76385000D03*
X142855000Y-77185000D03*
X142855000Y-77985000D03*
X142855000Y-78785000D03*
X142855000Y-79585000D03*
X142855000Y-80385000D03*
X142855000Y-81185000D03*
X142855000Y-81985000D03*
X142855000Y-82785000D03*
X142855000Y-83585000D03*
X142855000Y-84385000D03*
X142055000Y-69185000D03*
X142055000Y-69985000D03*
X142055000Y-70785000D03*
X142055000Y-71585000D03*
X142055000Y-72385000D03*
X142055000Y-73185000D03*
X142055000Y-73985000D03*
X142055000Y-74785000D03*
X142055000Y-75585000D03*
X142055000Y-76385000D03*
X142055000Y-77185000D03*
X142055000Y-77985000D03*
X142055000Y-78785000D03*
X142055000Y-79585000D03*
X142055000Y-80385000D03*
X142055000Y-81185000D03*
X142055000Y-81985000D03*
X142055000Y-82785000D03*
X142055000Y-83585000D03*
X142055000Y-84385000D03*
X141255000Y-69185000D03*
X141255000Y-69985000D03*
X141255000Y-70785000D03*
X141255000Y-71585000D03*
X141255000Y-72385000D03*
X141255000Y-73185000D03*
X141255000Y-73985000D03*
X141255000Y-74785000D03*
X141255000Y-75585000D03*
X141255000Y-76385000D03*
X141255000Y-77185000D03*
X141255000Y-77985000D03*
X141255000Y-78785000D03*
X141255000Y-79585000D03*
X141255000Y-80385000D03*
X141255000Y-81185000D03*
X141255000Y-81985000D03*
X141255000Y-82785000D03*
X141255000Y-83585000D03*
X141255000Y-84385000D03*
X140455000Y-69985000D03*
X140455000Y-70785000D03*
X140455000Y-71585000D03*
X140455000Y-72385000D03*
X140455000Y-73185000D03*
X140455000Y-73985000D03*
X140455000Y-74785000D03*
X140455000Y-75585000D03*
X140455000Y-76385000D03*
X140455000Y-77185000D03*
X140455000Y-77985000D03*
X140455000Y-78785000D03*
X140455000Y-79585000D03*
X140455000Y-80385000D03*
X140455000Y-81185000D03*
X140455000Y-81985000D03*
X140455000Y-82785000D03*
X140455000Y-83585000D03*
G04 #@! TA.AperFunction,SMDPad,CuDef*
G36*
G01*
X158690000Y-80972500D02*
X158690000Y-80627500D01*
G75*
G02*
X158837500Y-80480000I147500J0D01*
G01*
X159132500Y-80480000D01*
G75*
G02*
X159280000Y-80627500I0J-147500D01*
G01*
X159280000Y-80972500D01*
G75*
G02*
X159132500Y-81120000I-147500J0D01*
G01*
X158837500Y-81120000D01*
G75*
G02*
X158690000Y-80972500I0J147500D01*
G01*
G37*
G04 #@! TD.AperFunction*
G04 #@! TA.AperFunction,SMDPad,CuDef*
G36*
G01*
X157720000Y-80972500D02*
X157720000Y-80627500D01*
G75*
G02*
X157867500Y-80480000I147500J0D01*
G01*
X158162500Y-80480000D01*
G75*
G02*
X158310000Y-80627500I0J-147500D01*
G01*
X158310000Y-80972500D01*
G75*
G02*
X158162500Y-81120000I-147500J0D01*
G01*
X157867500Y-81120000D01*
G75*
G02*
X157720000Y-80972500I0J147500D01*
G01*
G37*
G04 #@! TD.AperFunction*
G04 #@! TA.AperFunction,SMDPad,CuDef*
G36*
G01*
X158911250Y-65135000D02*
X157998750Y-65135000D01*
G75*
G02*
X157755000Y-64891250I0J243750D01*
G01*
X157755000Y-64403750D01*
G75*
G02*
X157998750Y-64160000I243750J0D01*
G01*
X158911250Y-64160000D01*
G75*
G02*
X159155000Y-64403750I0J-243750D01*
G01*
X159155000Y-64891250D01*
G75*
G02*
X158911250Y-65135000I-243750J0D01*
G01*
G37*
G04 #@! TD.AperFunction*
G04 #@! TA.AperFunction,SMDPad,CuDef*
G36*
G01*
X158911250Y-67010000D02*
X157998750Y-67010000D01*
G75*
G02*
X157755000Y-66766250I0J243750D01*
G01*
X157755000Y-66278750D01*
G75*
G02*
X157998750Y-66035000I243750J0D01*
G01*
X158911250Y-66035000D01*
G75*
G02*
X159155000Y-66278750I0J-243750D01*
G01*
X159155000Y-66766250D01*
G75*
G02*
X158911250Y-67010000I-243750J0D01*
G01*
G37*
G04 #@! TD.AperFunction*
G04 #@! TA.AperFunction,SMDPad,CuDef*
G36*
G01*
X157011250Y-65135000D02*
X156098750Y-65135000D01*
G75*
G02*
X155855000Y-64891250I0J243750D01*
G01*
X155855000Y-64403750D01*
G75*
G02*
X156098750Y-64160000I243750J0D01*
G01*
X157011250Y-64160000D01*
G75*
G02*
X157255000Y-64403750I0J-243750D01*
G01*
X157255000Y-64891250D01*
G75*
G02*
X157011250Y-65135000I-243750J0D01*
G01*
G37*
G04 #@! TD.AperFunction*
G04 #@! TA.AperFunction,SMDPad,CuDef*
G36*
G01*
X157011250Y-67010000D02*
X156098750Y-67010000D01*
G75*
G02*
X155855000Y-66766250I0J243750D01*
G01*
X155855000Y-66278750D01*
G75*
G02*
X156098750Y-66035000I243750J0D01*
G01*
X157011250Y-66035000D01*
G75*
G02*
X157255000Y-66278750I0J-243750D01*
G01*
X157255000Y-66766250D01*
G75*
G02*
X157011250Y-67010000I-243750J0D01*
G01*
G37*
G04 #@! TD.AperFunction*
G04 #@! TA.AperFunction,SMDPad,CuDef*
G36*
G01*
X153211250Y-65135000D02*
X152298750Y-65135000D01*
G75*
G02*
X152055000Y-64891250I0J243750D01*
G01*
X152055000Y-64403750D01*
G75*
G02*
X152298750Y-64160000I243750J0D01*
G01*
X153211250Y-64160000D01*
G75*
G02*
X153455000Y-64403750I0J-243750D01*
G01*
X153455000Y-64891250D01*
G75*
G02*
X153211250Y-65135000I-243750J0D01*
G01*
G37*
G04 #@! TD.AperFunction*
G04 #@! TA.AperFunction,SMDPad,CuDef*
G36*
G01*
X153211250Y-67010000D02*
X152298750Y-67010000D01*
G75*
G02*
X152055000Y-66766250I0J243750D01*
G01*
X152055000Y-66278750D01*
G75*
G02*
X152298750Y-66035000I243750J0D01*
G01*
X153211250Y-66035000D01*
G75*
G02*
X153455000Y-66278750I0J-243750D01*
G01*
X153455000Y-66766250D01*
G75*
G02*
X153211250Y-67010000I-243750J0D01*
G01*
G37*
G04 #@! TD.AperFunction*
G04 #@! TA.AperFunction,SMDPad,CuDef*
G36*
G01*
X155111250Y-65135000D02*
X154198750Y-65135000D01*
G75*
G02*
X153955000Y-64891250I0J243750D01*
G01*
X153955000Y-64403750D01*
G75*
G02*
X154198750Y-64160000I243750J0D01*
G01*
X155111250Y-64160000D01*
G75*
G02*
X155355000Y-64403750I0J-243750D01*
G01*
X155355000Y-64891250D01*
G75*
G02*
X155111250Y-65135000I-243750J0D01*
G01*
G37*
G04 #@! TD.AperFunction*
G04 #@! TA.AperFunction,SMDPad,CuDef*
G36*
G01*
X155111250Y-67010000D02*
X154198750Y-67010000D01*
G75*
G02*
X153955000Y-66766250I0J243750D01*
G01*
X153955000Y-66278750D01*
G75*
G02*
X154198750Y-66035000I243750J0D01*
G01*
X155111250Y-66035000D01*
G75*
G02*
X155355000Y-66278750I0J-243750D01*
G01*
X155355000Y-66766250D01*
G75*
G02*
X155111250Y-67010000I-243750J0D01*
G01*
G37*
G04 #@! TD.AperFunction*
G04 #@! TA.AperFunction,SMDPad,CuDef*
G36*
G01*
X140155000Y-65434999D02*
X140155000Y-66735001D01*
G75*
G02*
X139905001Y-66985000I-249999J0D01*
G01*
X139004999Y-66985000D01*
G75*
G02*
X138755000Y-66735001I0J249999D01*
G01*
X138755000Y-65434999D01*
G75*
G02*
X139004999Y-65185000I249999J0D01*
G01*
X139905001Y-65185000D01*
G75*
G02*
X140155000Y-65434999I0J-249999D01*
G01*
G37*
G04 #@! TD.AperFunction*
G04 #@! TA.AperFunction,SMDPad,CuDef*
G36*
G01*
X144155000Y-65434999D02*
X144155000Y-66735001D01*
G75*
G02*
X143905001Y-66985000I-249999J0D01*
G01*
X143004999Y-66985000D01*
G75*
G02*
X142755000Y-66735001I0J249999D01*
G01*
X142755000Y-65434999D01*
G75*
G02*
X143004999Y-65185000I249999J0D01*
G01*
X143905001Y-65185000D01*
G75*
G02*
X144155000Y-65434999I0J-249999D01*
G01*
G37*
G04 #@! TD.AperFunction*
G04 #@! TA.AperFunction,SMDPad,CuDef*
G36*
G01*
X148345000Y-66957500D02*
X148345000Y-66612500D01*
G75*
G02*
X148492500Y-66465000I147500J0D01*
G01*
X148787500Y-66465000D01*
G75*
G02*
X148935000Y-66612500I0J-147500D01*
G01*
X148935000Y-66957500D01*
G75*
G02*
X148787500Y-67105000I-147500J0D01*
G01*
X148492500Y-67105000D01*
G75*
G02*
X148345000Y-66957500I0J147500D01*
G01*
G37*
G04 #@! TD.AperFunction*
G04 #@! TA.AperFunction,SMDPad,CuDef*
G36*
G01*
X147375000Y-66957500D02*
X147375000Y-66612500D01*
G75*
G02*
X147522500Y-66465000I147500J0D01*
G01*
X147817500Y-66465000D01*
G75*
G02*
X147965000Y-66612500I0J-147500D01*
G01*
X147965000Y-66957500D01*
G75*
G02*
X147817500Y-67105000I-147500J0D01*
G01*
X147522500Y-67105000D01*
G75*
G02*
X147375000Y-66957500I0J147500D01*
G01*
G37*
G04 #@! TD.AperFunction*
G04 #@! TA.AperFunction,SMDPad,CuDef*
G36*
X160920000Y-80968773D02*
G01*
X160670000Y-80968772D01*
X160669999Y-82018772D01*
X160919999Y-82018772D01*
X160919999Y-82693772D01*
X160320000Y-82693772D01*
X160320000Y-81643771D01*
X160070000Y-81643771D01*
X160070000Y-81343772D01*
X160320001Y-81343772D01*
X160320001Y-80293772D01*
X160920000Y-80293772D01*
X160920000Y-80968773D01*
G37*
G04 #@! TD.AperFunction*
D17*
X159870000Y-82143772D03*
X159870000Y-80843772D03*
X161120000Y-81493772D03*
G04 #@! TA.AperFunction,SMDPad,CuDef*
G36*
G01*
X113010000Y-71427500D02*
X113010000Y-71772500D01*
G75*
G02*
X112862500Y-71920000I-147500J0D01*
G01*
X112567500Y-71920000D01*
G75*
G02*
X112420000Y-71772500I0J147500D01*
G01*
X112420000Y-71427500D01*
G75*
G02*
X112567500Y-71280000I147500J0D01*
G01*
X112862500Y-71280000D01*
G75*
G02*
X113010000Y-71427500I0J-147500D01*
G01*
G37*
G04 #@! TD.AperFunction*
G04 #@! TA.AperFunction,SMDPad,CuDef*
G36*
G01*
X113980000Y-71427500D02*
X113980000Y-71772500D01*
G75*
G02*
X113832500Y-71920000I-147500J0D01*
G01*
X113537500Y-71920000D01*
G75*
G02*
X113390000Y-71772500I0J147500D01*
G01*
X113390000Y-71427500D01*
G75*
G02*
X113537500Y-71280000I147500J0D01*
G01*
X113832500Y-71280000D01*
G75*
G02*
X113980000Y-71427500I0J-147500D01*
G01*
G37*
G04 #@! TD.AperFunction*
G04 #@! TA.AperFunction,SMDPad,CuDef*
G36*
G01*
X159815000Y-73122500D02*
X159815000Y-72777500D01*
G75*
G02*
X159962500Y-72630000I147500J0D01*
G01*
X160257500Y-72630000D01*
G75*
G02*
X160405000Y-72777500I0J-147500D01*
G01*
X160405000Y-73122500D01*
G75*
G02*
X160257500Y-73270000I-147500J0D01*
G01*
X159962500Y-73270000D01*
G75*
G02*
X159815000Y-73122500I0J147500D01*
G01*
G37*
G04 #@! TD.AperFunction*
G04 #@! TA.AperFunction,SMDPad,CuDef*
G36*
G01*
X158845000Y-73122500D02*
X158845000Y-72777500D01*
G75*
G02*
X158992500Y-72630000I147500J0D01*
G01*
X159287500Y-72630000D01*
G75*
G02*
X159435000Y-72777500I0J-147500D01*
G01*
X159435000Y-73122500D01*
G75*
G02*
X159287500Y-73270000I-147500J0D01*
G01*
X158992500Y-73270000D01*
G75*
G02*
X158845000Y-73122500I0J147500D01*
G01*
G37*
G04 #@! TD.AperFunction*
G04 #@! TA.AperFunction,SMDPad,CuDef*
G36*
G01*
X116760000Y-80612500D02*
X116760000Y-80957500D01*
G75*
G02*
X116612500Y-81105000I-147500J0D01*
G01*
X116317500Y-81105000D01*
G75*
G02*
X116170000Y-80957500I0J147500D01*
G01*
X116170000Y-80612500D01*
G75*
G02*
X116317500Y-80465000I147500J0D01*
G01*
X116612500Y-80465000D01*
G75*
G02*
X116760000Y-80612500I0J-147500D01*
G01*
G37*
G04 #@! TD.AperFunction*
G04 #@! TA.AperFunction,SMDPad,CuDef*
G36*
G01*
X117730000Y-80612500D02*
X117730000Y-80957500D01*
G75*
G02*
X117582500Y-81105000I-147500J0D01*
G01*
X117287500Y-81105000D01*
G75*
G02*
X117140000Y-80957500I0J147500D01*
G01*
X117140000Y-80612500D01*
G75*
G02*
X117287500Y-80465000I147500J0D01*
G01*
X117582500Y-80465000D01*
G75*
G02*
X117730000Y-80612500I0J-147500D01*
G01*
G37*
G04 #@! TD.AperFunction*
D18*
X113100000Y-88200000D03*
X113100000Y-90100000D03*
X110900000Y-90100000D03*
X110900000Y-89150000D03*
X110900000Y-88200000D03*
X113000000Y-74350000D03*
X113000000Y-73400000D03*
X113000000Y-75300000D03*
X110800000Y-75300000D03*
X110800000Y-74350000D03*
X110800000Y-73400000D03*
G04 #@! TA.AperFunction,SMDPad,CuDef*
G36*
G01*
X120005001Y-86685000D02*
X118704999Y-86685000D01*
G75*
G02*
X118455000Y-86435001I0J249999D01*
G01*
X118455000Y-85534999D01*
G75*
G02*
X118704999Y-85285000I249999J0D01*
G01*
X120005001Y-85285000D01*
G75*
G02*
X120255000Y-85534999I0J-249999D01*
G01*
X120255000Y-86435001D01*
G75*
G02*
X120005001Y-86685000I-249999J0D01*
G01*
G37*
G04 #@! TD.AperFunction*
G04 #@! TA.AperFunction,SMDPad,CuDef*
G36*
G01*
X120005001Y-90685000D02*
X118704999Y-90685000D01*
G75*
G02*
X118455000Y-90435001I0J249999D01*
G01*
X118455000Y-89534999D01*
G75*
G02*
X118704999Y-89285000I249999J0D01*
G01*
X120005001Y-89285000D01*
G75*
G02*
X120255000Y-89534999I0J-249999D01*
G01*
X120255000Y-90435001D01*
G75*
G02*
X120005001Y-90685000I-249999J0D01*
G01*
G37*
G04 #@! TD.AperFunction*
G04 #@! TA.AperFunction,SMDPad,CuDef*
G36*
G01*
X117666170Y-86685000D02*
X116366168Y-86685000D01*
G75*
G02*
X116116169Y-86435001I0J249999D01*
G01*
X116116169Y-85534999D01*
G75*
G02*
X116366168Y-85285000I249999J0D01*
G01*
X117666170Y-85285000D01*
G75*
G02*
X117916169Y-85534999I0J-249999D01*
G01*
X117916169Y-86435001D01*
G75*
G02*
X117666170Y-86685000I-249999J0D01*
G01*
G37*
G04 #@! TD.AperFunction*
G04 #@! TA.AperFunction,SMDPad,CuDef*
G36*
G01*
X117666170Y-90685000D02*
X116366168Y-90685000D01*
G75*
G02*
X116116169Y-90435001I0J249999D01*
G01*
X116116169Y-89534999D01*
G75*
G02*
X116366168Y-89285000I249999J0D01*
G01*
X117666170Y-89285000D01*
G75*
G02*
X117916169Y-89534999I0J-249999D01*
G01*
X117916169Y-90435001D01*
G75*
G02*
X117666170Y-90685000I-249999J0D01*
G01*
G37*
G04 #@! TD.AperFunction*
G04 #@! TA.AperFunction,SMDPad,CuDef*
G36*
G01*
X114443750Y-89650000D02*
X115356250Y-89650000D01*
G75*
G02*
X115600000Y-89893750I0J-243750D01*
G01*
X115600000Y-90381250D01*
G75*
G02*
X115356250Y-90625000I-243750J0D01*
G01*
X114443750Y-90625000D01*
G75*
G02*
X114200000Y-90381250I0J243750D01*
G01*
X114200000Y-89893750D01*
G75*
G02*
X114443750Y-89650000I243750J0D01*
G01*
G37*
G04 #@! TD.AperFunction*
G04 #@! TA.AperFunction,SMDPad,CuDef*
G36*
G01*
X114443750Y-87775000D02*
X115356250Y-87775000D01*
G75*
G02*
X115600000Y-88018750I0J-243750D01*
G01*
X115600000Y-88506250D01*
G75*
G02*
X115356250Y-88750000I-243750J0D01*
G01*
X114443750Y-88750000D01*
G75*
G02*
X114200000Y-88506250I0J243750D01*
G01*
X114200000Y-88018750D01*
G75*
G02*
X114443750Y-87775000I243750J0D01*
G01*
G37*
G04 #@! TD.AperFunction*
G04 #@! TA.AperFunction,SMDPad,CuDef*
G36*
G01*
X108643750Y-89650000D02*
X109556250Y-89650000D01*
G75*
G02*
X109800000Y-89893750I0J-243750D01*
G01*
X109800000Y-90381250D01*
G75*
G02*
X109556250Y-90625000I-243750J0D01*
G01*
X108643750Y-90625000D01*
G75*
G02*
X108400000Y-90381250I0J243750D01*
G01*
X108400000Y-89893750D01*
G75*
G02*
X108643750Y-89650000I243750J0D01*
G01*
G37*
G04 #@! TD.AperFunction*
G04 #@! TA.AperFunction,SMDPad,CuDef*
G36*
G01*
X108643750Y-87775000D02*
X109556250Y-87775000D01*
G75*
G02*
X109800000Y-88018750I0J-243750D01*
G01*
X109800000Y-88506250D01*
G75*
G02*
X109556250Y-88750000I-243750J0D01*
G01*
X108643750Y-88750000D01*
G75*
G02*
X108400000Y-88506250I0J243750D01*
G01*
X108400000Y-88018750D01*
G75*
G02*
X108643750Y-87775000I243750J0D01*
G01*
G37*
G04 #@! TD.AperFunction*
D19*
X116805000Y-79300000D03*
X116805000Y-77100000D03*
X118505000Y-77100000D03*
X118505000Y-79300000D03*
G04 #@! TA.AperFunction,SMDPad,CuDef*
G36*
G01*
X141111250Y-88335000D02*
X140198750Y-88335000D01*
G75*
G02*
X139955000Y-88091250I0J243750D01*
G01*
X139955000Y-87603750D01*
G75*
G02*
X140198750Y-87360000I243750J0D01*
G01*
X141111250Y-87360000D01*
G75*
G02*
X141355000Y-87603750I0J-243750D01*
G01*
X141355000Y-88091250D01*
G75*
G02*
X141111250Y-88335000I-243750J0D01*
G01*
G37*
G04 #@! TD.AperFunction*
G04 #@! TA.AperFunction,SMDPad,CuDef*
G36*
G01*
X141111250Y-90210000D02*
X140198750Y-90210000D01*
G75*
G02*
X139955000Y-89966250I0J243750D01*
G01*
X139955000Y-89478750D01*
G75*
G02*
X140198750Y-89235000I243750J0D01*
G01*
X141111250Y-89235000D01*
G75*
G02*
X141355000Y-89478750I0J-243750D01*
G01*
X141355000Y-89966250D01*
G75*
G02*
X141111250Y-90210000I-243750J0D01*
G01*
G37*
G04 #@! TD.AperFunction*
G04 #@! TA.AperFunction,SMDPad,CuDef*
G36*
G01*
X143998750Y-89235000D02*
X144911250Y-89235000D01*
G75*
G02*
X145155000Y-89478750I0J-243750D01*
G01*
X145155000Y-89966250D01*
G75*
G02*
X144911250Y-90210000I-243750J0D01*
G01*
X143998750Y-90210000D01*
G75*
G02*
X143755000Y-89966250I0J243750D01*
G01*
X143755000Y-89478750D01*
G75*
G02*
X143998750Y-89235000I243750J0D01*
G01*
G37*
G04 #@! TD.AperFunction*
G04 #@! TA.AperFunction,SMDPad,CuDef*
G36*
G01*
X143998750Y-87360000D02*
X144911250Y-87360000D01*
G75*
G02*
X145155000Y-87603750I0J-243750D01*
G01*
X145155000Y-88091250D01*
G75*
G02*
X144911250Y-88335000I-243750J0D01*
G01*
X143998750Y-88335000D01*
G75*
G02*
X143755000Y-88091250I0J243750D01*
G01*
X143755000Y-87603750D01*
G75*
G02*
X143998750Y-87360000I243750J0D01*
G01*
G37*
G04 #@! TD.AperFunction*
G04 #@! TA.AperFunction,SMDPad,CuDef*
G36*
G01*
X142098750Y-89235000D02*
X143011250Y-89235000D01*
G75*
G02*
X143255000Y-89478750I0J-243750D01*
G01*
X143255000Y-89966250D01*
G75*
G02*
X143011250Y-90210000I-243750J0D01*
G01*
X142098750Y-90210000D01*
G75*
G02*
X141855000Y-89966250I0J243750D01*
G01*
X141855000Y-89478750D01*
G75*
G02*
X142098750Y-89235000I243750J0D01*
G01*
G37*
G04 #@! TD.AperFunction*
G04 #@! TA.AperFunction,SMDPad,CuDef*
G36*
G01*
X142098750Y-87360000D02*
X143011250Y-87360000D01*
G75*
G02*
X143255000Y-87603750I0J-243750D01*
G01*
X143255000Y-88091250D01*
G75*
G02*
X143011250Y-88335000I-243750J0D01*
G01*
X142098750Y-88335000D01*
G75*
G02*
X141855000Y-88091250I0J243750D01*
G01*
X141855000Y-87603750D01*
G75*
G02*
X142098750Y-87360000I243750J0D01*
G01*
G37*
G04 #@! TD.AperFunction*
G04 #@! TA.AperFunction,SMDPad,CuDef*
G36*
G01*
X145898750Y-89235000D02*
X146811250Y-89235000D01*
G75*
G02*
X147055000Y-89478750I0J-243750D01*
G01*
X147055000Y-89966250D01*
G75*
G02*
X146811250Y-90210000I-243750J0D01*
G01*
X145898750Y-90210000D01*
G75*
G02*
X145655000Y-89966250I0J243750D01*
G01*
X145655000Y-89478750D01*
G75*
G02*
X145898750Y-89235000I243750J0D01*
G01*
G37*
G04 #@! TD.AperFunction*
G04 #@! TA.AperFunction,SMDPad,CuDef*
G36*
G01*
X145898750Y-87360000D02*
X146811250Y-87360000D01*
G75*
G02*
X147055000Y-87603750I0J-243750D01*
G01*
X147055000Y-88091250D01*
G75*
G02*
X146811250Y-88335000I-243750J0D01*
G01*
X145898750Y-88335000D01*
G75*
G02*
X145655000Y-88091250I0J243750D01*
G01*
X145655000Y-87603750D01*
G75*
G02*
X145898750Y-87360000I243750J0D01*
G01*
G37*
G04 #@! TD.AperFunction*
G04 #@! TA.AperFunction,SMDPad,CuDef*
G36*
G01*
X116243750Y-74850000D02*
X117156250Y-74850000D01*
G75*
G02*
X117400000Y-75093750I0J-243750D01*
G01*
X117400000Y-75581250D01*
G75*
G02*
X117156250Y-75825000I-243750J0D01*
G01*
X116243750Y-75825000D01*
G75*
G02*
X116000000Y-75581250I0J243750D01*
G01*
X116000000Y-75093750D01*
G75*
G02*
X116243750Y-74850000I243750J0D01*
G01*
G37*
G04 #@! TD.AperFunction*
G04 #@! TA.AperFunction,SMDPad,CuDef*
G36*
G01*
X116243750Y-72975000D02*
X117156250Y-72975000D01*
G75*
G02*
X117400000Y-73218750I0J-243750D01*
G01*
X117400000Y-73706250D01*
G75*
G02*
X117156250Y-73950000I-243750J0D01*
G01*
X116243750Y-73950000D01*
G75*
G02*
X116000000Y-73706250I0J243750D01*
G01*
X116000000Y-73218750D01*
G75*
G02*
X116243750Y-72975000I243750J0D01*
G01*
G37*
G04 #@! TD.AperFunction*
G04 #@! TA.AperFunction,SMDPad,CuDef*
G36*
G01*
X114343750Y-74850000D02*
X115256250Y-74850000D01*
G75*
G02*
X115500000Y-75093750I0J-243750D01*
G01*
X115500000Y-75581250D01*
G75*
G02*
X115256250Y-75825000I-243750J0D01*
G01*
X114343750Y-75825000D01*
G75*
G02*
X114100000Y-75581250I0J243750D01*
G01*
X114100000Y-75093750D01*
G75*
G02*
X114343750Y-74850000I243750J0D01*
G01*
G37*
G04 #@! TD.AperFunction*
G04 #@! TA.AperFunction,SMDPad,CuDef*
G36*
G01*
X114343750Y-72975000D02*
X115256250Y-72975000D01*
G75*
G02*
X115500000Y-73218750I0J-243750D01*
G01*
X115500000Y-73706250D01*
G75*
G02*
X115256250Y-73950000I-243750J0D01*
G01*
X114343750Y-73950000D01*
G75*
G02*
X114100000Y-73706250I0J243750D01*
G01*
X114100000Y-73218750D01*
G75*
G02*
X114343750Y-72975000I243750J0D01*
G01*
G37*
G04 #@! TD.AperFunction*
G04 #@! TA.AperFunction,SMDPad,CuDef*
G36*
G01*
X108543750Y-74850000D02*
X109456250Y-74850000D01*
G75*
G02*
X109700000Y-75093750I0J-243750D01*
G01*
X109700000Y-75581250D01*
G75*
G02*
X109456250Y-75825000I-243750J0D01*
G01*
X108543750Y-75825000D01*
G75*
G02*
X108300000Y-75581250I0J243750D01*
G01*
X108300000Y-75093750D01*
G75*
G02*
X108543750Y-74850000I243750J0D01*
G01*
G37*
G04 #@! TD.AperFunction*
G04 #@! TA.AperFunction,SMDPad,CuDef*
G36*
G01*
X108543750Y-72975000D02*
X109456250Y-72975000D01*
G75*
G02*
X109700000Y-73218750I0J-243750D01*
G01*
X109700000Y-73706250D01*
G75*
G02*
X109456250Y-73950000I-243750J0D01*
G01*
X108543750Y-73950000D01*
G75*
G02*
X108300000Y-73706250I0J243750D01*
G01*
X108300000Y-73218750D01*
G75*
G02*
X108543750Y-72975000I243750J0D01*
G01*
G37*
G04 #@! TD.AperFunction*
G04 #@! TA.AperFunction,SMDPad,CuDef*
G36*
G01*
X109350000Y-71143750D02*
X109350000Y-72056250D01*
G75*
G02*
X109106250Y-72300000I-243750J0D01*
G01*
X108618750Y-72300000D01*
G75*
G02*
X108375000Y-72056250I0J243750D01*
G01*
X108375000Y-71143750D01*
G75*
G02*
X108618750Y-70900000I243750J0D01*
G01*
X109106250Y-70900000D01*
G75*
G02*
X109350000Y-71143750I0J-243750D01*
G01*
G37*
G04 #@! TD.AperFunction*
G04 #@! TA.AperFunction,SMDPad,CuDef*
G36*
G01*
X111225000Y-71143750D02*
X111225000Y-72056250D01*
G75*
G02*
X110981250Y-72300000I-243750J0D01*
G01*
X110493750Y-72300000D01*
G75*
G02*
X110250000Y-72056250I0J243750D01*
G01*
X110250000Y-71143750D01*
G75*
G02*
X110493750Y-70900000I243750J0D01*
G01*
X110981250Y-70900000D01*
G75*
G02*
X111225000Y-71143750I0J-243750D01*
G01*
G37*
G04 #@! TD.AperFunction*
G04 #@! TA.AperFunction,SMDPad,CuDef*
G36*
G01*
X123500000Y-75825000D02*
X123500000Y-74425000D01*
G75*
G02*
X123575000Y-74350000I75000J0D01*
G01*
X123725000Y-74350000D01*
G75*
G02*
X123800000Y-74425000I0J-75000D01*
G01*
X123800000Y-75825000D01*
G75*
G02*
X123725000Y-75900000I-75000J0D01*
G01*
X123575000Y-75900000D01*
G75*
G02*
X123500000Y-75825000I0J75000D01*
G01*
G37*
G04 #@! TD.AperFunction*
G04 #@! TA.AperFunction,SMDPad,CuDef*
G36*
G01*
X124000000Y-75825000D02*
X124000000Y-74425000D01*
G75*
G02*
X124075000Y-74350000I75000J0D01*
G01*
X124225000Y-74350000D01*
G75*
G02*
X124300000Y-74425000I0J-75000D01*
G01*
X124300000Y-75825000D01*
G75*
G02*
X124225000Y-75900000I-75000J0D01*
G01*
X124075000Y-75900000D01*
G75*
G02*
X124000000Y-75825000I0J75000D01*
G01*
G37*
G04 #@! TD.AperFunction*
G04 #@! TA.AperFunction,SMDPad,CuDef*
G36*
G01*
X124500000Y-75825000D02*
X124500000Y-74425000D01*
G75*
G02*
X124575000Y-74350000I75000J0D01*
G01*
X124725000Y-74350000D01*
G75*
G02*
X124800000Y-74425000I0J-75000D01*
G01*
X124800000Y-75825000D01*
G75*
G02*
X124725000Y-75900000I-75000J0D01*
G01*
X124575000Y-75900000D01*
G75*
G02*
X124500000Y-75825000I0J75000D01*
G01*
G37*
G04 #@! TD.AperFunction*
G04 #@! TA.AperFunction,SMDPad,CuDef*
G36*
G01*
X125000000Y-75825000D02*
X125000000Y-74425000D01*
G75*
G02*
X125075000Y-74350000I75000J0D01*
G01*
X125225000Y-74350000D01*
G75*
G02*
X125300000Y-74425000I0J-75000D01*
G01*
X125300000Y-75825000D01*
G75*
G02*
X125225000Y-75900000I-75000J0D01*
G01*
X125075000Y-75900000D01*
G75*
G02*
X125000000Y-75825000I0J75000D01*
G01*
G37*
G04 #@! TD.AperFunction*
G04 #@! TA.AperFunction,SMDPad,CuDef*
G36*
G01*
X125500000Y-75825000D02*
X125500000Y-74425000D01*
G75*
G02*
X125575000Y-74350000I75000J0D01*
G01*
X125725000Y-74350000D01*
G75*
G02*
X125800000Y-74425000I0J-75000D01*
G01*
X125800000Y-75825000D01*
G75*
G02*
X125725000Y-75900000I-75000J0D01*
G01*
X125575000Y-75900000D01*
G75*
G02*
X125500000Y-75825000I0J75000D01*
G01*
G37*
G04 #@! TD.AperFunction*
G04 #@! TA.AperFunction,SMDPad,CuDef*
G36*
G01*
X126000000Y-75825000D02*
X126000000Y-74425000D01*
G75*
G02*
X126075000Y-74350000I75000J0D01*
G01*
X126225000Y-74350000D01*
G75*
G02*
X126300000Y-74425000I0J-75000D01*
G01*
X126300000Y-75825000D01*
G75*
G02*
X126225000Y-75900000I-75000J0D01*
G01*
X126075000Y-75900000D01*
G75*
G02*
X126000000Y-75825000I0J75000D01*
G01*
G37*
G04 #@! TD.AperFunction*
G04 #@! TA.AperFunction,SMDPad,CuDef*
G36*
G01*
X126500000Y-75825000D02*
X126500000Y-74425000D01*
G75*
G02*
X126575000Y-74350000I75000J0D01*
G01*
X126725000Y-74350000D01*
G75*
G02*
X126800000Y-74425000I0J-75000D01*
G01*
X126800000Y-75825000D01*
G75*
G02*
X126725000Y-75900000I-75000J0D01*
G01*
X126575000Y-75900000D01*
G75*
G02*
X126500000Y-75825000I0J75000D01*
G01*
G37*
G04 #@! TD.AperFunction*
G04 #@! TA.AperFunction,SMDPad,CuDef*
G36*
G01*
X127000000Y-75825000D02*
X127000000Y-74425000D01*
G75*
G02*
X127075000Y-74350000I75000J0D01*
G01*
X127225000Y-74350000D01*
G75*
G02*
X127300000Y-74425000I0J-75000D01*
G01*
X127300000Y-75825000D01*
G75*
G02*
X127225000Y-75900000I-75000J0D01*
G01*
X127075000Y-75900000D01*
G75*
G02*
X127000000Y-75825000I0J75000D01*
G01*
G37*
G04 #@! TD.AperFunction*
G04 #@! TA.AperFunction,SMDPad,CuDef*
G36*
G01*
X127500000Y-75825000D02*
X127500000Y-74425000D01*
G75*
G02*
X127575000Y-74350000I75000J0D01*
G01*
X127725000Y-74350000D01*
G75*
G02*
X127800000Y-74425000I0J-75000D01*
G01*
X127800000Y-75825000D01*
G75*
G02*
X127725000Y-75900000I-75000J0D01*
G01*
X127575000Y-75900000D01*
G75*
G02*
X127500000Y-75825000I0J75000D01*
G01*
G37*
G04 #@! TD.AperFunction*
G04 #@! TA.AperFunction,SMDPad,CuDef*
G36*
G01*
X128000000Y-75825000D02*
X128000000Y-74425000D01*
G75*
G02*
X128075000Y-74350000I75000J0D01*
G01*
X128225000Y-74350000D01*
G75*
G02*
X128300000Y-74425000I0J-75000D01*
G01*
X128300000Y-75825000D01*
G75*
G02*
X128225000Y-75900000I-75000J0D01*
G01*
X128075000Y-75900000D01*
G75*
G02*
X128000000Y-75825000I0J75000D01*
G01*
G37*
G04 #@! TD.AperFunction*
G04 #@! TA.AperFunction,SMDPad,CuDef*
G36*
G01*
X128500000Y-75825000D02*
X128500000Y-74425000D01*
G75*
G02*
X128575000Y-74350000I75000J0D01*
G01*
X128725000Y-74350000D01*
G75*
G02*
X128800000Y-74425000I0J-75000D01*
G01*
X128800000Y-75825000D01*
G75*
G02*
X128725000Y-75900000I-75000J0D01*
G01*
X128575000Y-75900000D01*
G75*
G02*
X128500000Y-75825000I0J75000D01*
G01*
G37*
G04 #@! TD.AperFunction*
G04 #@! TA.AperFunction,SMDPad,CuDef*
G36*
G01*
X129000000Y-75825000D02*
X129000000Y-74425000D01*
G75*
G02*
X129075000Y-74350000I75000J0D01*
G01*
X129225000Y-74350000D01*
G75*
G02*
X129300000Y-74425000I0J-75000D01*
G01*
X129300000Y-75825000D01*
G75*
G02*
X129225000Y-75900000I-75000J0D01*
G01*
X129075000Y-75900000D01*
G75*
G02*
X129000000Y-75825000I0J75000D01*
G01*
G37*
G04 #@! TD.AperFunction*
G04 #@! TA.AperFunction,SMDPad,CuDef*
G36*
G01*
X129500000Y-75825000D02*
X129500000Y-74425000D01*
G75*
G02*
X129575000Y-74350000I75000J0D01*
G01*
X129725000Y-74350000D01*
G75*
G02*
X129800000Y-74425000I0J-75000D01*
G01*
X129800000Y-75825000D01*
G75*
G02*
X129725000Y-75900000I-75000J0D01*
G01*
X129575000Y-75900000D01*
G75*
G02*
X129500000Y-75825000I0J75000D01*
G01*
G37*
G04 #@! TD.AperFunction*
G04 #@! TA.AperFunction,SMDPad,CuDef*
G36*
G01*
X130000000Y-75825000D02*
X130000000Y-74425000D01*
G75*
G02*
X130075000Y-74350000I75000J0D01*
G01*
X130225000Y-74350000D01*
G75*
G02*
X130300000Y-74425000I0J-75000D01*
G01*
X130300000Y-75825000D01*
G75*
G02*
X130225000Y-75900000I-75000J0D01*
G01*
X130075000Y-75900000D01*
G75*
G02*
X130000000Y-75825000I0J75000D01*
G01*
G37*
G04 #@! TD.AperFunction*
G04 #@! TA.AperFunction,SMDPad,CuDef*
G36*
G01*
X130500000Y-75825000D02*
X130500000Y-74425000D01*
G75*
G02*
X130575000Y-74350000I75000J0D01*
G01*
X130725000Y-74350000D01*
G75*
G02*
X130800000Y-74425000I0J-75000D01*
G01*
X130800000Y-75825000D01*
G75*
G02*
X130725000Y-75900000I-75000J0D01*
G01*
X130575000Y-75900000D01*
G75*
G02*
X130500000Y-75825000I0J75000D01*
G01*
G37*
G04 #@! TD.AperFunction*
G04 #@! TA.AperFunction,SMDPad,CuDef*
G36*
G01*
X131000000Y-75825000D02*
X131000000Y-74425000D01*
G75*
G02*
X131075000Y-74350000I75000J0D01*
G01*
X131225000Y-74350000D01*
G75*
G02*
X131300000Y-74425000I0J-75000D01*
G01*
X131300000Y-75825000D01*
G75*
G02*
X131225000Y-75900000I-75000J0D01*
G01*
X131075000Y-75900000D01*
G75*
G02*
X131000000Y-75825000I0J75000D01*
G01*
G37*
G04 #@! TD.AperFunction*
G04 #@! TA.AperFunction,SMDPad,CuDef*
G36*
G01*
X132300000Y-77125000D02*
X132300000Y-76975000D01*
G75*
G02*
X132375000Y-76900000I75000J0D01*
G01*
X133775000Y-76900000D01*
G75*
G02*
X133850000Y-76975000I0J-75000D01*
G01*
X133850000Y-77125000D01*
G75*
G02*
X133775000Y-77200000I-75000J0D01*
G01*
X132375000Y-77200000D01*
G75*
G02*
X132300000Y-77125000I0J75000D01*
G01*
G37*
G04 #@! TD.AperFunction*
G04 #@! TA.AperFunction,SMDPad,CuDef*
G36*
G01*
X132300000Y-77625000D02*
X132300000Y-77475000D01*
G75*
G02*
X132375000Y-77400000I75000J0D01*
G01*
X133775000Y-77400000D01*
G75*
G02*
X133850000Y-77475000I0J-75000D01*
G01*
X133850000Y-77625000D01*
G75*
G02*
X133775000Y-77700000I-75000J0D01*
G01*
X132375000Y-77700000D01*
G75*
G02*
X132300000Y-77625000I0J75000D01*
G01*
G37*
G04 #@! TD.AperFunction*
G04 #@! TA.AperFunction,SMDPad,CuDef*
G36*
G01*
X132300000Y-78125000D02*
X132300000Y-77975000D01*
G75*
G02*
X132375000Y-77900000I75000J0D01*
G01*
X133775000Y-77900000D01*
G75*
G02*
X133850000Y-77975000I0J-75000D01*
G01*
X133850000Y-78125000D01*
G75*
G02*
X133775000Y-78200000I-75000J0D01*
G01*
X132375000Y-78200000D01*
G75*
G02*
X132300000Y-78125000I0J75000D01*
G01*
G37*
G04 #@! TD.AperFunction*
G04 #@! TA.AperFunction,SMDPad,CuDef*
G36*
G01*
X132300000Y-78625000D02*
X132300000Y-78475000D01*
G75*
G02*
X132375000Y-78400000I75000J0D01*
G01*
X133775000Y-78400000D01*
G75*
G02*
X133850000Y-78475000I0J-75000D01*
G01*
X133850000Y-78625000D01*
G75*
G02*
X133775000Y-78700000I-75000J0D01*
G01*
X132375000Y-78700000D01*
G75*
G02*
X132300000Y-78625000I0J75000D01*
G01*
G37*
G04 #@! TD.AperFunction*
G04 #@! TA.AperFunction,SMDPad,CuDef*
G36*
G01*
X132300000Y-79125000D02*
X132300000Y-78975000D01*
G75*
G02*
X132375000Y-78900000I75000J0D01*
G01*
X133775000Y-78900000D01*
G75*
G02*
X133850000Y-78975000I0J-75000D01*
G01*
X133850000Y-79125000D01*
G75*
G02*
X133775000Y-79200000I-75000J0D01*
G01*
X132375000Y-79200000D01*
G75*
G02*
X132300000Y-79125000I0J75000D01*
G01*
G37*
G04 #@! TD.AperFunction*
G04 #@! TA.AperFunction,SMDPad,CuDef*
G36*
G01*
X132300000Y-79625000D02*
X132300000Y-79475000D01*
G75*
G02*
X132375000Y-79400000I75000J0D01*
G01*
X133775000Y-79400000D01*
G75*
G02*
X133850000Y-79475000I0J-75000D01*
G01*
X133850000Y-79625000D01*
G75*
G02*
X133775000Y-79700000I-75000J0D01*
G01*
X132375000Y-79700000D01*
G75*
G02*
X132300000Y-79625000I0J75000D01*
G01*
G37*
G04 #@! TD.AperFunction*
G04 #@! TA.AperFunction,SMDPad,CuDef*
G36*
G01*
X132300000Y-80125000D02*
X132300000Y-79975000D01*
G75*
G02*
X132375000Y-79900000I75000J0D01*
G01*
X133775000Y-79900000D01*
G75*
G02*
X133850000Y-79975000I0J-75000D01*
G01*
X133850000Y-80125000D01*
G75*
G02*
X133775000Y-80200000I-75000J0D01*
G01*
X132375000Y-80200000D01*
G75*
G02*
X132300000Y-80125000I0J75000D01*
G01*
G37*
G04 #@! TD.AperFunction*
G04 #@! TA.AperFunction,SMDPad,CuDef*
G36*
G01*
X132300000Y-80625000D02*
X132300000Y-80475000D01*
G75*
G02*
X132375000Y-80400000I75000J0D01*
G01*
X133775000Y-80400000D01*
G75*
G02*
X133850000Y-80475000I0J-75000D01*
G01*
X133850000Y-80625000D01*
G75*
G02*
X133775000Y-80700000I-75000J0D01*
G01*
X132375000Y-80700000D01*
G75*
G02*
X132300000Y-80625000I0J75000D01*
G01*
G37*
G04 #@! TD.AperFunction*
G04 #@! TA.AperFunction,SMDPad,CuDef*
G36*
G01*
X132300000Y-81125000D02*
X132300000Y-80975000D01*
G75*
G02*
X132375000Y-80900000I75000J0D01*
G01*
X133775000Y-80900000D01*
G75*
G02*
X133850000Y-80975000I0J-75000D01*
G01*
X133850000Y-81125000D01*
G75*
G02*
X133775000Y-81200000I-75000J0D01*
G01*
X132375000Y-81200000D01*
G75*
G02*
X132300000Y-81125000I0J75000D01*
G01*
G37*
G04 #@! TD.AperFunction*
G04 #@! TA.AperFunction,SMDPad,CuDef*
G36*
G01*
X132300000Y-81625000D02*
X132300000Y-81475000D01*
G75*
G02*
X132375000Y-81400000I75000J0D01*
G01*
X133775000Y-81400000D01*
G75*
G02*
X133850000Y-81475000I0J-75000D01*
G01*
X133850000Y-81625000D01*
G75*
G02*
X133775000Y-81700000I-75000J0D01*
G01*
X132375000Y-81700000D01*
G75*
G02*
X132300000Y-81625000I0J75000D01*
G01*
G37*
G04 #@! TD.AperFunction*
G04 #@! TA.AperFunction,SMDPad,CuDef*
G36*
G01*
X132300000Y-82125000D02*
X132300000Y-81975000D01*
G75*
G02*
X132375000Y-81900000I75000J0D01*
G01*
X133775000Y-81900000D01*
G75*
G02*
X133850000Y-81975000I0J-75000D01*
G01*
X133850000Y-82125000D01*
G75*
G02*
X133775000Y-82200000I-75000J0D01*
G01*
X132375000Y-82200000D01*
G75*
G02*
X132300000Y-82125000I0J75000D01*
G01*
G37*
G04 #@! TD.AperFunction*
G04 #@! TA.AperFunction,SMDPad,CuDef*
G36*
G01*
X132300000Y-82625000D02*
X132300000Y-82475000D01*
G75*
G02*
X132375000Y-82400000I75000J0D01*
G01*
X133775000Y-82400000D01*
G75*
G02*
X133850000Y-82475000I0J-75000D01*
G01*
X133850000Y-82625000D01*
G75*
G02*
X133775000Y-82700000I-75000J0D01*
G01*
X132375000Y-82700000D01*
G75*
G02*
X132300000Y-82625000I0J75000D01*
G01*
G37*
G04 #@! TD.AperFunction*
G04 #@! TA.AperFunction,SMDPad,CuDef*
G36*
G01*
X132300000Y-83125000D02*
X132300000Y-82975000D01*
G75*
G02*
X132375000Y-82900000I75000J0D01*
G01*
X133775000Y-82900000D01*
G75*
G02*
X133850000Y-82975000I0J-75000D01*
G01*
X133850000Y-83125000D01*
G75*
G02*
X133775000Y-83200000I-75000J0D01*
G01*
X132375000Y-83200000D01*
G75*
G02*
X132300000Y-83125000I0J75000D01*
G01*
G37*
G04 #@! TD.AperFunction*
G04 #@! TA.AperFunction,SMDPad,CuDef*
G36*
G01*
X132300000Y-83625000D02*
X132300000Y-83475000D01*
G75*
G02*
X132375000Y-83400000I75000J0D01*
G01*
X133775000Y-83400000D01*
G75*
G02*
X133850000Y-83475000I0J-75000D01*
G01*
X133850000Y-83625000D01*
G75*
G02*
X133775000Y-83700000I-75000J0D01*
G01*
X132375000Y-83700000D01*
G75*
G02*
X132300000Y-83625000I0J75000D01*
G01*
G37*
G04 #@! TD.AperFunction*
G04 #@! TA.AperFunction,SMDPad,CuDef*
G36*
G01*
X132300000Y-84125000D02*
X132300000Y-83975000D01*
G75*
G02*
X132375000Y-83900000I75000J0D01*
G01*
X133775000Y-83900000D01*
G75*
G02*
X133850000Y-83975000I0J-75000D01*
G01*
X133850000Y-84125000D01*
G75*
G02*
X133775000Y-84200000I-75000J0D01*
G01*
X132375000Y-84200000D01*
G75*
G02*
X132300000Y-84125000I0J75000D01*
G01*
G37*
G04 #@! TD.AperFunction*
G04 #@! TA.AperFunction,SMDPad,CuDef*
G36*
G01*
X132300000Y-84625000D02*
X132300000Y-84475000D01*
G75*
G02*
X132375000Y-84400000I75000J0D01*
G01*
X133775000Y-84400000D01*
G75*
G02*
X133850000Y-84475000I0J-75000D01*
G01*
X133850000Y-84625000D01*
G75*
G02*
X133775000Y-84700000I-75000J0D01*
G01*
X132375000Y-84700000D01*
G75*
G02*
X132300000Y-84625000I0J75000D01*
G01*
G37*
G04 #@! TD.AperFunction*
G04 #@! TA.AperFunction,SMDPad,CuDef*
G36*
G01*
X131000000Y-87175000D02*
X131000000Y-85775000D01*
G75*
G02*
X131075000Y-85700000I75000J0D01*
G01*
X131225000Y-85700000D01*
G75*
G02*
X131300000Y-85775000I0J-75000D01*
G01*
X131300000Y-87175000D01*
G75*
G02*
X131225000Y-87250000I-75000J0D01*
G01*
X131075000Y-87250000D01*
G75*
G02*
X131000000Y-87175000I0J75000D01*
G01*
G37*
G04 #@! TD.AperFunction*
G04 #@! TA.AperFunction,SMDPad,CuDef*
G36*
G01*
X130500000Y-87175000D02*
X130500000Y-85775000D01*
G75*
G02*
X130575000Y-85700000I75000J0D01*
G01*
X130725000Y-85700000D01*
G75*
G02*
X130800000Y-85775000I0J-75000D01*
G01*
X130800000Y-87175000D01*
G75*
G02*
X130725000Y-87250000I-75000J0D01*
G01*
X130575000Y-87250000D01*
G75*
G02*
X130500000Y-87175000I0J75000D01*
G01*
G37*
G04 #@! TD.AperFunction*
G04 #@! TA.AperFunction,SMDPad,CuDef*
G36*
G01*
X130000000Y-87175000D02*
X130000000Y-85775000D01*
G75*
G02*
X130075000Y-85700000I75000J0D01*
G01*
X130225000Y-85700000D01*
G75*
G02*
X130300000Y-85775000I0J-75000D01*
G01*
X130300000Y-87175000D01*
G75*
G02*
X130225000Y-87250000I-75000J0D01*
G01*
X130075000Y-87250000D01*
G75*
G02*
X130000000Y-87175000I0J75000D01*
G01*
G37*
G04 #@! TD.AperFunction*
G04 #@! TA.AperFunction,SMDPad,CuDef*
G36*
G01*
X129500000Y-87175000D02*
X129500000Y-85775000D01*
G75*
G02*
X129575000Y-85700000I75000J0D01*
G01*
X129725000Y-85700000D01*
G75*
G02*
X129800000Y-85775000I0J-75000D01*
G01*
X129800000Y-87175000D01*
G75*
G02*
X129725000Y-87250000I-75000J0D01*
G01*
X129575000Y-87250000D01*
G75*
G02*
X129500000Y-87175000I0J75000D01*
G01*
G37*
G04 #@! TD.AperFunction*
G04 #@! TA.AperFunction,SMDPad,CuDef*
G36*
G01*
X129000000Y-87175000D02*
X129000000Y-85775000D01*
G75*
G02*
X129075000Y-85700000I75000J0D01*
G01*
X129225000Y-85700000D01*
G75*
G02*
X129300000Y-85775000I0J-75000D01*
G01*
X129300000Y-87175000D01*
G75*
G02*
X129225000Y-87250000I-75000J0D01*
G01*
X129075000Y-87250000D01*
G75*
G02*
X129000000Y-87175000I0J75000D01*
G01*
G37*
G04 #@! TD.AperFunction*
G04 #@! TA.AperFunction,SMDPad,CuDef*
G36*
G01*
X128500000Y-87175000D02*
X128500000Y-85775000D01*
G75*
G02*
X128575000Y-85700000I75000J0D01*
G01*
X128725000Y-85700000D01*
G75*
G02*
X128800000Y-85775000I0J-75000D01*
G01*
X128800000Y-87175000D01*
G75*
G02*
X128725000Y-87250000I-75000J0D01*
G01*
X128575000Y-87250000D01*
G75*
G02*
X128500000Y-87175000I0J75000D01*
G01*
G37*
G04 #@! TD.AperFunction*
G04 #@! TA.AperFunction,SMDPad,CuDef*
G36*
G01*
X128000000Y-87175000D02*
X128000000Y-85775000D01*
G75*
G02*
X128075000Y-85700000I75000J0D01*
G01*
X128225000Y-85700000D01*
G75*
G02*
X128300000Y-85775000I0J-75000D01*
G01*
X128300000Y-87175000D01*
G75*
G02*
X128225000Y-87250000I-75000J0D01*
G01*
X128075000Y-87250000D01*
G75*
G02*
X128000000Y-87175000I0J75000D01*
G01*
G37*
G04 #@! TD.AperFunction*
G04 #@! TA.AperFunction,SMDPad,CuDef*
G36*
G01*
X127500000Y-87175000D02*
X127500000Y-85775000D01*
G75*
G02*
X127575000Y-85700000I75000J0D01*
G01*
X127725000Y-85700000D01*
G75*
G02*
X127800000Y-85775000I0J-75000D01*
G01*
X127800000Y-87175000D01*
G75*
G02*
X127725000Y-87250000I-75000J0D01*
G01*
X127575000Y-87250000D01*
G75*
G02*
X127500000Y-87175000I0J75000D01*
G01*
G37*
G04 #@! TD.AperFunction*
G04 #@! TA.AperFunction,SMDPad,CuDef*
G36*
G01*
X127000000Y-87175000D02*
X127000000Y-85775000D01*
G75*
G02*
X127075000Y-85700000I75000J0D01*
G01*
X127225000Y-85700000D01*
G75*
G02*
X127300000Y-85775000I0J-75000D01*
G01*
X127300000Y-87175000D01*
G75*
G02*
X127225000Y-87250000I-75000J0D01*
G01*
X127075000Y-87250000D01*
G75*
G02*
X127000000Y-87175000I0J75000D01*
G01*
G37*
G04 #@! TD.AperFunction*
G04 #@! TA.AperFunction,SMDPad,CuDef*
G36*
G01*
X126500000Y-87175000D02*
X126500000Y-85775000D01*
G75*
G02*
X126575000Y-85700000I75000J0D01*
G01*
X126725000Y-85700000D01*
G75*
G02*
X126800000Y-85775000I0J-75000D01*
G01*
X126800000Y-87175000D01*
G75*
G02*
X126725000Y-87250000I-75000J0D01*
G01*
X126575000Y-87250000D01*
G75*
G02*
X126500000Y-87175000I0J75000D01*
G01*
G37*
G04 #@! TD.AperFunction*
G04 #@! TA.AperFunction,SMDPad,CuDef*
G36*
G01*
X126000000Y-87175000D02*
X126000000Y-85775000D01*
G75*
G02*
X126075000Y-85700000I75000J0D01*
G01*
X126225000Y-85700000D01*
G75*
G02*
X126300000Y-85775000I0J-75000D01*
G01*
X126300000Y-87175000D01*
G75*
G02*
X126225000Y-87250000I-75000J0D01*
G01*
X126075000Y-87250000D01*
G75*
G02*
X126000000Y-87175000I0J75000D01*
G01*
G37*
G04 #@! TD.AperFunction*
G04 #@! TA.AperFunction,SMDPad,CuDef*
G36*
G01*
X125500000Y-87175000D02*
X125500000Y-85775000D01*
G75*
G02*
X125575000Y-85700000I75000J0D01*
G01*
X125725000Y-85700000D01*
G75*
G02*
X125800000Y-85775000I0J-75000D01*
G01*
X125800000Y-87175000D01*
G75*
G02*
X125725000Y-87250000I-75000J0D01*
G01*
X125575000Y-87250000D01*
G75*
G02*
X125500000Y-87175000I0J75000D01*
G01*
G37*
G04 #@! TD.AperFunction*
G04 #@! TA.AperFunction,SMDPad,CuDef*
G36*
G01*
X125000000Y-87175000D02*
X125000000Y-85775000D01*
G75*
G02*
X125075000Y-85700000I75000J0D01*
G01*
X125225000Y-85700000D01*
G75*
G02*
X125300000Y-85775000I0J-75000D01*
G01*
X125300000Y-87175000D01*
G75*
G02*
X125225000Y-87250000I-75000J0D01*
G01*
X125075000Y-87250000D01*
G75*
G02*
X125000000Y-87175000I0J75000D01*
G01*
G37*
G04 #@! TD.AperFunction*
G04 #@! TA.AperFunction,SMDPad,CuDef*
G36*
G01*
X124500000Y-87175000D02*
X124500000Y-85775000D01*
G75*
G02*
X124575000Y-85700000I75000J0D01*
G01*
X124725000Y-85700000D01*
G75*
G02*
X124800000Y-85775000I0J-75000D01*
G01*
X124800000Y-87175000D01*
G75*
G02*
X124725000Y-87250000I-75000J0D01*
G01*
X124575000Y-87250000D01*
G75*
G02*
X124500000Y-87175000I0J75000D01*
G01*
G37*
G04 #@! TD.AperFunction*
G04 #@! TA.AperFunction,SMDPad,CuDef*
G36*
G01*
X124000000Y-87175000D02*
X124000000Y-85775000D01*
G75*
G02*
X124075000Y-85700000I75000J0D01*
G01*
X124225000Y-85700000D01*
G75*
G02*
X124300000Y-85775000I0J-75000D01*
G01*
X124300000Y-87175000D01*
G75*
G02*
X124225000Y-87250000I-75000J0D01*
G01*
X124075000Y-87250000D01*
G75*
G02*
X124000000Y-87175000I0J75000D01*
G01*
G37*
G04 #@! TD.AperFunction*
G04 #@! TA.AperFunction,SMDPad,CuDef*
G36*
G01*
X123500000Y-87175000D02*
X123500000Y-85775000D01*
G75*
G02*
X123575000Y-85700000I75000J0D01*
G01*
X123725000Y-85700000D01*
G75*
G02*
X123800000Y-85775000I0J-75000D01*
G01*
X123800000Y-87175000D01*
G75*
G02*
X123725000Y-87250000I-75000J0D01*
G01*
X123575000Y-87250000D01*
G75*
G02*
X123500000Y-87175000I0J75000D01*
G01*
G37*
G04 #@! TD.AperFunction*
G04 #@! TA.AperFunction,SMDPad,CuDef*
G36*
G01*
X120950000Y-84625000D02*
X120950000Y-84475000D01*
G75*
G02*
X121025000Y-84400000I75000J0D01*
G01*
X122425000Y-84400000D01*
G75*
G02*
X122500000Y-84475000I0J-75000D01*
G01*
X122500000Y-84625000D01*
G75*
G02*
X122425000Y-84700000I-75000J0D01*
G01*
X121025000Y-84700000D01*
G75*
G02*
X120950000Y-84625000I0J75000D01*
G01*
G37*
G04 #@! TD.AperFunction*
G04 #@! TA.AperFunction,SMDPad,CuDef*
G36*
G01*
X120950000Y-84125000D02*
X120950000Y-83975000D01*
G75*
G02*
X121025000Y-83900000I75000J0D01*
G01*
X122425000Y-83900000D01*
G75*
G02*
X122500000Y-83975000I0J-75000D01*
G01*
X122500000Y-84125000D01*
G75*
G02*
X122425000Y-84200000I-75000J0D01*
G01*
X121025000Y-84200000D01*
G75*
G02*
X120950000Y-84125000I0J75000D01*
G01*
G37*
G04 #@! TD.AperFunction*
G04 #@! TA.AperFunction,SMDPad,CuDef*
G36*
G01*
X120950000Y-83625000D02*
X120950000Y-83475000D01*
G75*
G02*
X121025000Y-83400000I75000J0D01*
G01*
X122425000Y-83400000D01*
G75*
G02*
X122500000Y-83475000I0J-75000D01*
G01*
X122500000Y-83625000D01*
G75*
G02*
X122425000Y-83700000I-75000J0D01*
G01*
X121025000Y-83700000D01*
G75*
G02*
X120950000Y-83625000I0J75000D01*
G01*
G37*
G04 #@! TD.AperFunction*
G04 #@! TA.AperFunction,SMDPad,CuDef*
G36*
G01*
X120950000Y-83125000D02*
X120950000Y-82975000D01*
G75*
G02*
X121025000Y-82900000I75000J0D01*
G01*
X122425000Y-82900000D01*
G75*
G02*
X122500000Y-82975000I0J-75000D01*
G01*
X122500000Y-83125000D01*
G75*
G02*
X122425000Y-83200000I-75000J0D01*
G01*
X121025000Y-83200000D01*
G75*
G02*
X120950000Y-83125000I0J75000D01*
G01*
G37*
G04 #@! TD.AperFunction*
G04 #@! TA.AperFunction,SMDPad,CuDef*
G36*
G01*
X120950000Y-82625000D02*
X120950000Y-82475000D01*
G75*
G02*
X121025000Y-82400000I75000J0D01*
G01*
X122425000Y-82400000D01*
G75*
G02*
X122500000Y-82475000I0J-75000D01*
G01*
X122500000Y-82625000D01*
G75*
G02*
X122425000Y-82700000I-75000J0D01*
G01*
X121025000Y-82700000D01*
G75*
G02*
X120950000Y-82625000I0J75000D01*
G01*
G37*
G04 #@! TD.AperFunction*
G04 #@! TA.AperFunction,SMDPad,CuDef*
G36*
G01*
X120950000Y-82125000D02*
X120950000Y-81975000D01*
G75*
G02*
X121025000Y-81900000I75000J0D01*
G01*
X122425000Y-81900000D01*
G75*
G02*
X122500000Y-81975000I0J-75000D01*
G01*
X122500000Y-82125000D01*
G75*
G02*
X122425000Y-82200000I-75000J0D01*
G01*
X121025000Y-82200000D01*
G75*
G02*
X120950000Y-82125000I0J75000D01*
G01*
G37*
G04 #@! TD.AperFunction*
G04 #@! TA.AperFunction,SMDPad,CuDef*
G36*
G01*
X120950000Y-81625000D02*
X120950000Y-81475000D01*
G75*
G02*
X121025000Y-81400000I75000J0D01*
G01*
X122425000Y-81400000D01*
G75*
G02*
X122500000Y-81475000I0J-75000D01*
G01*
X122500000Y-81625000D01*
G75*
G02*
X122425000Y-81700000I-75000J0D01*
G01*
X121025000Y-81700000D01*
G75*
G02*
X120950000Y-81625000I0J75000D01*
G01*
G37*
G04 #@! TD.AperFunction*
G04 #@! TA.AperFunction,SMDPad,CuDef*
G36*
G01*
X120950000Y-81125000D02*
X120950000Y-80975000D01*
G75*
G02*
X121025000Y-80900000I75000J0D01*
G01*
X122425000Y-80900000D01*
G75*
G02*
X122500000Y-80975000I0J-75000D01*
G01*
X122500000Y-81125000D01*
G75*
G02*
X122425000Y-81200000I-75000J0D01*
G01*
X121025000Y-81200000D01*
G75*
G02*
X120950000Y-81125000I0J75000D01*
G01*
G37*
G04 #@! TD.AperFunction*
G04 #@! TA.AperFunction,SMDPad,CuDef*
G36*
G01*
X120950000Y-80625000D02*
X120950000Y-80475000D01*
G75*
G02*
X121025000Y-80400000I75000J0D01*
G01*
X122425000Y-80400000D01*
G75*
G02*
X122500000Y-80475000I0J-75000D01*
G01*
X122500000Y-80625000D01*
G75*
G02*
X122425000Y-80700000I-75000J0D01*
G01*
X121025000Y-80700000D01*
G75*
G02*
X120950000Y-80625000I0J75000D01*
G01*
G37*
G04 #@! TD.AperFunction*
G04 #@! TA.AperFunction,SMDPad,CuDef*
G36*
G01*
X120950000Y-80125000D02*
X120950000Y-79975000D01*
G75*
G02*
X121025000Y-79900000I75000J0D01*
G01*
X122425000Y-79900000D01*
G75*
G02*
X122500000Y-79975000I0J-75000D01*
G01*
X122500000Y-80125000D01*
G75*
G02*
X122425000Y-80200000I-75000J0D01*
G01*
X121025000Y-80200000D01*
G75*
G02*
X120950000Y-80125000I0J75000D01*
G01*
G37*
G04 #@! TD.AperFunction*
G04 #@! TA.AperFunction,SMDPad,CuDef*
G36*
G01*
X120950000Y-79625000D02*
X120950000Y-79475000D01*
G75*
G02*
X121025000Y-79400000I75000J0D01*
G01*
X122425000Y-79400000D01*
G75*
G02*
X122500000Y-79475000I0J-75000D01*
G01*
X122500000Y-79625000D01*
G75*
G02*
X122425000Y-79700000I-75000J0D01*
G01*
X121025000Y-79700000D01*
G75*
G02*
X120950000Y-79625000I0J75000D01*
G01*
G37*
G04 #@! TD.AperFunction*
G04 #@! TA.AperFunction,SMDPad,CuDef*
G36*
G01*
X120950000Y-79125000D02*
X120950000Y-78975000D01*
G75*
G02*
X121025000Y-78900000I75000J0D01*
G01*
X122425000Y-78900000D01*
G75*
G02*
X122500000Y-78975000I0J-75000D01*
G01*
X122500000Y-79125000D01*
G75*
G02*
X122425000Y-79200000I-75000J0D01*
G01*
X121025000Y-79200000D01*
G75*
G02*
X120950000Y-79125000I0J75000D01*
G01*
G37*
G04 #@! TD.AperFunction*
G04 #@! TA.AperFunction,SMDPad,CuDef*
G36*
G01*
X120950000Y-78625000D02*
X120950000Y-78475000D01*
G75*
G02*
X121025000Y-78400000I75000J0D01*
G01*
X122425000Y-78400000D01*
G75*
G02*
X122500000Y-78475000I0J-75000D01*
G01*
X122500000Y-78625000D01*
G75*
G02*
X122425000Y-78700000I-75000J0D01*
G01*
X121025000Y-78700000D01*
G75*
G02*
X120950000Y-78625000I0J75000D01*
G01*
G37*
G04 #@! TD.AperFunction*
G04 #@! TA.AperFunction,SMDPad,CuDef*
G36*
G01*
X120950000Y-78125000D02*
X120950000Y-77975000D01*
G75*
G02*
X121025000Y-77900000I75000J0D01*
G01*
X122425000Y-77900000D01*
G75*
G02*
X122500000Y-77975000I0J-75000D01*
G01*
X122500000Y-78125000D01*
G75*
G02*
X122425000Y-78200000I-75000J0D01*
G01*
X121025000Y-78200000D01*
G75*
G02*
X120950000Y-78125000I0J75000D01*
G01*
G37*
G04 #@! TD.AperFunction*
G04 #@! TA.AperFunction,SMDPad,CuDef*
G36*
G01*
X120950000Y-77625000D02*
X120950000Y-77475000D01*
G75*
G02*
X121025000Y-77400000I75000J0D01*
G01*
X122425000Y-77400000D01*
G75*
G02*
X122500000Y-77475000I0J-75000D01*
G01*
X122500000Y-77625000D01*
G75*
G02*
X122425000Y-77700000I-75000J0D01*
G01*
X121025000Y-77700000D01*
G75*
G02*
X120950000Y-77625000I0J75000D01*
G01*
G37*
G04 #@! TD.AperFunction*
G04 #@! TA.AperFunction,SMDPad,CuDef*
G36*
G01*
X120950000Y-77125000D02*
X120950000Y-76975000D01*
G75*
G02*
X121025000Y-76900000I75000J0D01*
G01*
X122425000Y-76900000D01*
G75*
G02*
X122500000Y-76975000I0J-75000D01*
G01*
X122500000Y-77125000D01*
G75*
G02*
X122425000Y-77200000I-75000J0D01*
G01*
X121025000Y-77200000D01*
G75*
G02*
X120950000Y-77125000I0J75000D01*
G01*
G37*
G04 #@! TD.AperFunction*
D20*
X153455000Y-89085000D03*
G04 #@! TA.AperFunction,SMDPad,CuDef*
G36*
G01*
X151130000Y-90865000D02*
X151130000Y-91115000D01*
G75*
G02*
X151005000Y-91240000I-125000J0D01*
G01*
X150505000Y-91240000D01*
G75*
G02*
X150380000Y-91115000I0J125000D01*
G01*
X150380000Y-90865000D01*
G75*
G02*
X150505000Y-90740000I125000J0D01*
G01*
X151005000Y-90740000D01*
G75*
G02*
X151130000Y-90865000I0J-125000D01*
G01*
G37*
G04 #@! TD.AperFunction*
G04 #@! TA.AperFunction,SMDPad,CuDef*
G36*
G01*
X151130000Y-89595000D02*
X151130000Y-89845000D01*
G75*
G02*
X151005000Y-89970000I-125000J0D01*
G01*
X150505000Y-89970000D01*
G75*
G02*
X150380000Y-89845000I0J125000D01*
G01*
X150380000Y-89595000D01*
G75*
G02*
X150505000Y-89470000I125000J0D01*
G01*
X151005000Y-89470000D01*
G75*
G02*
X151130000Y-89595000I0J-125000D01*
G01*
G37*
G04 #@! TD.AperFunction*
G04 #@! TA.AperFunction,SMDPad,CuDef*
G36*
G01*
X151130000Y-88325000D02*
X151130000Y-88575000D01*
G75*
G02*
X151005000Y-88700000I-125000J0D01*
G01*
X150505000Y-88700000D01*
G75*
G02*
X150380000Y-88575000I0J125000D01*
G01*
X150380000Y-88325000D01*
G75*
G02*
X150505000Y-88200000I125000J0D01*
G01*
X151005000Y-88200000D01*
G75*
G02*
X151130000Y-88325000I0J-125000D01*
G01*
G37*
G04 #@! TD.AperFunction*
G04 #@! TA.AperFunction,SMDPad,CuDef*
G36*
G01*
X151130000Y-87055000D02*
X151130000Y-87305000D01*
G75*
G02*
X151005000Y-87430000I-125000J0D01*
G01*
X150505000Y-87430000D01*
G75*
G02*
X150380000Y-87305000I0J125000D01*
G01*
X150380000Y-87055000D01*
G75*
G02*
X150505000Y-86930000I125000J0D01*
G01*
X151005000Y-86930000D01*
G75*
G02*
X151130000Y-87055000I0J-125000D01*
G01*
G37*
G04 #@! TD.AperFunction*
G04 #@! TA.AperFunction,SMDPad,CuDef*
G36*
G01*
X156530000Y-87055000D02*
X156530000Y-87305000D01*
G75*
G02*
X156405000Y-87430000I-125000J0D01*
G01*
X155905000Y-87430000D01*
G75*
G02*
X155780000Y-87305000I0J125000D01*
G01*
X155780000Y-87055000D01*
G75*
G02*
X155905000Y-86930000I125000J0D01*
G01*
X156405000Y-86930000D01*
G75*
G02*
X156530000Y-87055000I0J-125000D01*
G01*
G37*
G04 #@! TD.AperFunction*
G04 #@! TA.AperFunction,SMDPad,CuDef*
G36*
G01*
X156530000Y-88325000D02*
X156530000Y-88575000D01*
G75*
G02*
X156405000Y-88700000I-125000J0D01*
G01*
X155905000Y-88700000D01*
G75*
G02*
X155780000Y-88575000I0J125000D01*
G01*
X155780000Y-88325000D01*
G75*
G02*
X155905000Y-88200000I125000J0D01*
G01*
X156405000Y-88200000D01*
G75*
G02*
X156530000Y-88325000I0J-125000D01*
G01*
G37*
G04 #@! TD.AperFunction*
G04 #@! TA.AperFunction,SMDPad,CuDef*
G36*
G01*
X156530000Y-89595000D02*
X156530000Y-89845000D01*
G75*
G02*
X156405000Y-89970000I-125000J0D01*
G01*
X155905000Y-89970000D01*
G75*
G02*
X155780000Y-89845000I0J125000D01*
G01*
X155780000Y-89595000D01*
G75*
G02*
X155905000Y-89470000I125000J0D01*
G01*
X156405000Y-89470000D01*
G75*
G02*
X156530000Y-89595000I0J-125000D01*
G01*
G37*
G04 #@! TD.AperFunction*
G04 #@! TA.AperFunction,SMDPad,CuDef*
G36*
G01*
X156530000Y-90865000D02*
X156530000Y-91115000D01*
G75*
G02*
X156405000Y-91240000I-125000J0D01*
G01*
X155905000Y-91240000D01*
G75*
G02*
X155780000Y-91115000I0J125000D01*
G01*
X155780000Y-90865000D01*
G75*
G02*
X155905000Y-90740000I125000J0D01*
G01*
X156405000Y-90740000D01*
G75*
G02*
X156530000Y-90865000I0J-125000D01*
G01*
G37*
G04 #@! TD.AperFunction*
G04 #@! TA.AperFunction,SMDPad,CuDef*
G36*
G01*
X149627500Y-90295000D02*
X149282500Y-90295000D01*
G75*
G02*
X149135000Y-90147500I0J147500D01*
G01*
X149135000Y-89852500D01*
G75*
G02*
X149282500Y-89705000I147500J0D01*
G01*
X149627500Y-89705000D01*
G75*
G02*
X149775000Y-89852500I0J-147500D01*
G01*
X149775000Y-90147500D01*
G75*
G02*
X149627500Y-90295000I-147500J0D01*
G01*
G37*
G04 #@! TD.AperFunction*
G04 #@! TA.AperFunction,SMDPad,CuDef*
G36*
G01*
X149627500Y-91265000D02*
X149282500Y-91265000D01*
G75*
G02*
X149135000Y-91117500I0J147500D01*
G01*
X149135000Y-90822500D01*
G75*
G02*
X149282500Y-90675000I147500J0D01*
G01*
X149627500Y-90675000D01*
G75*
G02*
X149775000Y-90822500I0J-147500D01*
G01*
X149775000Y-91117500D01*
G75*
G02*
X149627500Y-91265000I-147500J0D01*
G01*
G37*
G04 #@! TD.AperFunction*
D18*
X148655000Y-95135000D03*
X148655000Y-97035000D03*
X146455000Y-97035000D03*
X146455000Y-96085000D03*
X146455000Y-95135000D03*
G04 #@! TA.AperFunction,SMDPad,CuDef*
G36*
G01*
X149998750Y-96535000D02*
X150911250Y-96535000D01*
G75*
G02*
X151155000Y-96778750I0J-243750D01*
G01*
X151155000Y-97266250D01*
G75*
G02*
X150911250Y-97510000I-243750J0D01*
G01*
X149998750Y-97510000D01*
G75*
G02*
X149755000Y-97266250I0J243750D01*
G01*
X149755000Y-96778750D01*
G75*
G02*
X149998750Y-96535000I243750J0D01*
G01*
G37*
G04 #@! TD.AperFunction*
G04 #@! TA.AperFunction,SMDPad,CuDef*
G36*
G01*
X149998750Y-94660000D02*
X150911250Y-94660000D01*
G75*
G02*
X151155000Y-94903750I0J-243750D01*
G01*
X151155000Y-95391250D01*
G75*
G02*
X150911250Y-95635000I-243750J0D01*
G01*
X149998750Y-95635000D01*
G75*
G02*
X149755000Y-95391250I0J243750D01*
G01*
X149755000Y-94903750D01*
G75*
G02*
X149998750Y-94660000I243750J0D01*
G01*
G37*
G04 #@! TD.AperFunction*
G04 #@! TA.AperFunction,SMDPad,CuDef*
G36*
G01*
X144198750Y-96535000D02*
X145111250Y-96535000D01*
G75*
G02*
X145355000Y-96778750I0J-243750D01*
G01*
X145355000Y-97266250D01*
G75*
G02*
X145111250Y-97510000I-243750J0D01*
G01*
X144198750Y-97510000D01*
G75*
G02*
X143955000Y-97266250I0J243750D01*
G01*
X143955000Y-96778750D01*
G75*
G02*
X144198750Y-96535000I243750J0D01*
G01*
G37*
G04 #@! TD.AperFunction*
G04 #@! TA.AperFunction,SMDPad,CuDef*
G36*
G01*
X144198750Y-94660000D02*
X145111250Y-94660000D01*
G75*
G02*
X145355000Y-94903750I0J-243750D01*
G01*
X145355000Y-95391250D01*
G75*
G02*
X145111250Y-95635000I-243750J0D01*
G01*
X144198750Y-95635000D01*
G75*
G02*
X143955000Y-95391250I0J243750D01*
G01*
X143955000Y-94903750D01*
G75*
G02*
X144198750Y-94660000I243750J0D01*
G01*
G37*
G04 #@! TD.AperFunction*
X123700000Y-92800000D03*
X123700000Y-91850000D03*
X123700000Y-93750000D03*
X121500000Y-93750000D03*
X121500000Y-92800000D03*
X121500000Y-91850000D03*
G04 #@! TA.AperFunction,SMDPad,CuDef*
G36*
G01*
X125822240Y-88846870D02*
X124909740Y-88846870D01*
G75*
G02*
X124665990Y-88603120I0J243750D01*
G01*
X124665990Y-88115620D01*
G75*
G02*
X124909740Y-87871870I243750J0D01*
G01*
X125822240Y-87871870D01*
G75*
G02*
X126065990Y-88115620I0J-243750D01*
G01*
X126065990Y-88603120D01*
G75*
G02*
X125822240Y-88846870I-243750J0D01*
G01*
G37*
G04 #@! TD.AperFunction*
G04 #@! TA.AperFunction,SMDPad,CuDef*
G36*
G01*
X125822240Y-90721870D02*
X124909740Y-90721870D01*
G75*
G02*
X124665990Y-90478120I0J243750D01*
G01*
X124665990Y-89990620D01*
G75*
G02*
X124909740Y-89746870I243750J0D01*
G01*
X125822240Y-89746870D01*
G75*
G02*
X126065990Y-89990620I0J-243750D01*
G01*
X126065990Y-90478120D01*
G75*
G02*
X125822240Y-90721870I-243750J0D01*
G01*
G37*
G04 #@! TD.AperFunction*
G04 #@! TA.AperFunction,SMDPad,CuDef*
G36*
G01*
X121106250Y-89750000D02*
X122018750Y-89750000D01*
G75*
G02*
X122262500Y-89993750I0J-243750D01*
G01*
X122262500Y-90481250D01*
G75*
G02*
X122018750Y-90725000I-243750J0D01*
G01*
X121106250Y-90725000D01*
G75*
G02*
X120862500Y-90481250I0J243750D01*
G01*
X120862500Y-89993750D01*
G75*
G02*
X121106250Y-89750000I243750J0D01*
G01*
G37*
G04 #@! TD.AperFunction*
G04 #@! TA.AperFunction,SMDPad,CuDef*
G36*
G01*
X121106250Y-87875000D02*
X122018750Y-87875000D01*
G75*
G02*
X122262500Y-88118750I0J-243750D01*
G01*
X122262500Y-88606250D01*
G75*
G02*
X122018750Y-88850000I-243750J0D01*
G01*
X121106250Y-88850000D01*
G75*
G02*
X120862500Y-88606250I0J243750D01*
G01*
X120862500Y-88118750D01*
G75*
G02*
X121106250Y-87875000I243750J0D01*
G01*
G37*
G04 #@! TD.AperFunction*
G04 #@! TA.AperFunction,SMDPad,CuDef*
G36*
G01*
X126906250Y-93350000D02*
X127818750Y-93350000D01*
G75*
G02*
X128062500Y-93593750I0J-243750D01*
G01*
X128062500Y-94081250D01*
G75*
G02*
X127818750Y-94325000I-243750J0D01*
G01*
X126906250Y-94325000D01*
G75*
G02*
X126662500Y-94081250I0J243750D01*
G01*
X126662500Y-93593750D01*
G75*
G02*
X126906250Y-93350000I243750J0D01*
G01*
G37*
G04 #@! TD.AperFunction*
G04 #@! TA.AperFunction,SMDPad,CuDef*
G36*
G01*
X126906250Y-91475000D02*
X127818750Y-91475000D01*
G75*
G02*
X128062500Y-91718750I0J-243750D01*
G01*
X128062500Y-92206250D01*
G75*
G02*
X127818750Y-92450000I-243750J0D01*
G01*
X126906250Y-92450000D01*
G75*
G02*
X126662500Y-92206250I0J243750D01*
G01*
X126662500Y-91718750D01*
G75*
G02*
X126906250Y-91475000I243750J0D01*
G01*
G37*
G04 #@! TD.AperFunction*
G04 #@! TA.AperFunction,SMDPad,CuDef*
G36*
G01*
X125918750Y-92450000D02*
X125006250Y-92450000D01*
G75*
G02*
X124762500Y-92206250I0J243750D01*
G01*
X124762500Y-91718750D01*
G75*
G02*
X125006250Y-91475000I243750J0D01*
G01*
X125918750Y-91475000D01*
G75*
G02*
X126162500Y-91718750I0J-243750D01*
G01*
X126162500Y-92206250D01*
G75*
G02*
X125918750Y-92450000I-243750J0D01*
G01*
G37*
G04 #@! TD.AperFunction*
G04 #@! TA.AperFunction,SMDPad,CuDef*
G36*
G01*
X125918750Y-94325000D02*
X125006250Y-94325000D01*
G75*
G02*
X124762500Y-94081250I0J243750D01*
G01*
X124762500Y-93593750D01*
G75*
G02*
X125006250Y-93350000I243750J0D01*
G01*
X125918750Y-93350000D01*
G75*
G02*
X126162500Y-93593750I0J-243750D01*
G01*
X126162500Y-94081250D01*
G75*
G02*
X125918750Y-94325000I-243750J0D01*
G01*
G37*
G04 #@! TD.AperFunction*
D21*
X117762500Y-92700000D03*
X117762500Y-97700000D03*
G04 #@! TA.AperFunction,SMDPad,CuDef*
G36*
G01*
X160775000Y-71806250D02*
X160775000Y-70893750D01*
G75*
G02*
X161018750Y-70650000I243750J0D01*
G01*
X161506250Y-70650000D01*
G75*
G02*
X161750000Y-70893750I0J-243750D01*
G01*
X161750000Y-71806250D01*
G75*
G02*
X161506250Y-72050000I-243750J0D01*
G01*
X161018750Y-72050000D01*
G75*
G02*
X160775000Y-71806250I0J243750D01*
G01*
G37*
G04 #@! TD.AperFunction*
G04 #@! TA.AperFunction,SMDPad,CuDef*
G36*
G01*
X158900000Y-71806250D02*
X158900000Y-70893750D01*
G75*
G02*
X159143750Y-70650000I243750J0D01*
G01*
X159631250Y-70650000D01*
G75*
G02*
X159875000Y-70893750I0J-243750D01*
G01*
X159875000Y-71806250D01*
G75*
G02*
X159631250Y-72050000I-243750J0D01*
G01*
X159143750Y-72050000D01*
G75*
G02*
X158900000Y-71806250I0J243750D01*
G01*
G37*
G04 #@! TD.AperFunction*
G04 #@! TA.AperFunction,SMDPad,CuDef*
G36*
G01*
X122812500Y-97956250D02*
X122812500Y-97043750D01*
G75*
G02*
X123056250Y-96800000I243750J0D01*
G01*
X123543750Y-96800000D01*
G75*
G02*
X123787500Y-97043750I0J-243750D01*
G01*
X123787500Y-97956250D01*
G75*
G02*
X123543750Y-98200000I-243750J0D01*
G01*
X123056250Y-98200000D01*
G75*
G02*
X122812500Y-97956250I0J243750D01*
G01*
G37*
G04 #@! TD.AperFunction*
G04 #@! TA.AperFunction,SMDPad,CuDef*
G36*
G01*
X120937500Y-97956250D02*
X120937500Y-97043750D01*
G75*
G02*
X121181250Y-96800000I243750J0D01*
G01*
X121668750Y-96800000D01*
G75*
G02*
X121912500Y-97043750I0J-243750D01*
G01*
X121912500Y-97956250D01*
G75*
G02*
X121668750Y-98200000I-243750J0D01*
G01*
X121181250Y-98200000D01*
G75*
G02*
X120937500Y-97956250I0J243750D01*
G01*
G37*
G04 #@! TD.AperFunction*
G04 #@! TA.AperFunction,SMDPad,CuDef*
G36*
G01*
X122812500Y-96056250D02*
X122812500Y-95143750D01*
G75*
G02*
X123056250Y-94900000I243750J0D01*
G01*
X123543750Y-94900000D01*
G75*
G02*
X123787500Y-95143750I0J-243750D01*
G01*
X123787500Y-96056250D01*
G75*
G02*
X123543750Y-96300000I-243750J0D01*
G01*
X123056250Y-96300000D01*
G75*
G02*
X122812500Y-96056250I0J243750D01*
G01*
G37*
G04 #@! TD.AperFunction*
G04 #@! TA.AperFunction,SMDPad,CuDef*
G36*
G01*
X120937500Y-96056250D02*
X120937500Y-95143750D01*
G75*
G02*
X121181250Y-94900000I243750J0D01*
G01*
X121668750Y-94900000D01*
G75*
G02*
X121912500Y-95143750I0J-243750D01*
G01*
X121912500Y-96056250D01*
G75*
G02*
X121668750Y-96300000I-243750J0D01*
G01*
X121181250Y-96300000D01*
G75*
G02*
X120937500Y-96056250I0J243750D01*
G01*
G37*
G04 #@! TD.AperFunction*
G04 #@! TA.AperFunction,SMDPad,CuDef*
G36*
G01*
X123006250Y-89750000D02*
X123918750Y-89750000D01*
G75*
G02*
X124162500Y-89993750I0J-243750D01*
G01*
X124162500Y-90481250D01*
G75*
G02*
X123918750Y-90725000I-243750J0D01*
G01*
X123006250Y-90725000D01*
G75*
G02*
X122762500Y-90481250I0J243750D01*
G01*
X122762500Y-89993750D01*
G75*
G02*
X123006250Y-89750000I243750J0D01*
G01*
G37*
G04 #@! TD.AperFunction*
G04 #@! TA.AperFunction,SMDPad,CuDef*
G36*
G01*
X123006250Y-87875000D02*
X123918750Y-87875000D01*
G75*
G02*
X124162500Y-88118750I0J-243750D01*
G01*
X124162500Y-88606250D01*
G75*
G02*
X123918750Y-88850000I-243750J0D01*
G01*
X123006250Y-88850000D01*
G75*
G02*
X122762500Y-88606250I0J243750D01*
G01*
X122762500Y-88118750D01*
G75*
G02*
X123006250Y-87875000I243750J0D01*
G01*
G37*
G04 #@! TD.AperFunction*
G04 #@! TA.AperFunction,SMDPad,CuDef*
G36*
G01*
X124606250Y-96750000D02*
X125518750Y-96750000D01*
G75*
G02*
X125762500Y-96993750I0J-243750D01*
G01*
X125762500Y-97481250D01*
G75*
G02*
X125518750Y-97725000I-243750J0D01*
G01*
X124606250Y-97725000D01*
G75*
G02*
X124362500Y-97481250I0J243750D01*
G01*
X124362500Y-96993750D01*
G75*
G02*
X124606250Y-96750000I243750J0D01*
G01*
G37*
G04 #@! TD.AperFunction*
G04 #@! TA.AperFunction,SMDPad,CuDef*
G36*
G01*
X124606250Y-94875000D02*
X125518750Y-94875000D01*
G75*
G02*
X125762500Y-95118750I0J-243750D01*
G01*
X125762500Y-95606250D01*
G75*
G02*
X125518750Y-95850000I-243750J0D01*
G01*
X124606250Y-95850000D01*
G75*
G02*
X124362500Y-95606250I0J243750D01*
G01*
X124362500Y-95118750D01*
G75*
G02*
X124606250Y-94875000I243750J0D01*
G01*
G37*
G04 #@! TD.AperFunction*
G04 #@! TA.AperFunction,SMDPad,CuDef*
G36*
G01*
X128943750Y-66962500D02*
X129856250Y-66962500D01*
G75*
G02*
X130100000Y-67206250I0J-243750D01*
G01*
X130100000Y-67693750D01*
G75*
G02*
X129856250Y-67937500I-243750J0D01*
G01*
X128943750Y-67937500D01*
G75*
G02*
X128700000Y-67693750I0J243750D01*
G01*
X128700000Y-67206250D01*
G75*
G02*
X128943750Y-66962500I243750J0D01*
G01*
G37*
G04 #@! TD.AperFunction*
G04 #@! TA.AperFunction,SMDPad,CuDef*
G36*
G01*
X128943750Y-65087500D02*
X129856250Y-65087500D01*
G75*
G02*
X130100000Y-65331250I0J-243750D01*
G01*
X130100000Y-65818750D01*
G75*
G02*
X129856250Y-66062500I-243750J0D01*
G01*
X128943750Y-66062500D01*
G75*
G02*
X128700000Y-65818750I0J243750D01*
G01*
X128700000Y-65331250D01*
G75*
G02*
X128943750Y-65087500I243750J0D01*
G01*
G37*
G04 #@! TD.AperFunction*
G04 #@! TA.AperFunction,SMDPad,CuDef*
G36*
G01*
X129856250Y-69462500D02*
X128943750Y-69462500D01*
G75*
G02*
X128700000Y-69218750I0J243750D01*
G01*
X128700000Y-68731250D01*
G75*
G02*
X128943750Y-68487500I243750J0D01*
G01*
X129856250Y-68487500D01*
G75*
G02*
X130100000Y-68731250I0J-243750D01*
G01*
X130100000Y-69218750D01*
G75*
G02*
X129856250Y-69462500I-243750J0D01*
G01*
G37*
G04 #@! TD.AperFunction*
G04 #@! TA.AperFunction,SMDPad,CuDef*
G36*
G01*
X129856250Y-71337500D02*
X128943750Y-71337500D01*
G75*
G02*
X128700000Y-71093750I0J243750D01*
G01*
X128700000Y-70606250D01*
G75*
G02*
X128943750Y-70362500I243750J0D01*
G01*
X129856250Y-70362500D01*
G75*
G02*
X130100000Y-70606250I0J-243750D01*
G01*
X130100000Y-71093750D01*
G75*
G02*
X129856250Y-71337500I-243750J0D01*
G01*
G37*
G04 #@! TD.AperFunction*
G04 #@! TA.AperFunction,SMDPad,CuDef*
G36*
G01*
X127043750Y-66962500D02*
X127956250Y-66962500D01*
G75*
G02*
X128200000Y-67206250I0J-243750D01*
G01*
X128200000Y-67693750D01*
G75*
G02*
X127956250Y-67937500I-243750J0D01*
G01*
X127043750Y-67937500D01*
G75*
G02*
X126800000Y-67693750I0J243750D01*
G01*
X126800000Y-67206250D01*
G75*
G02*
X127043750Y-66962500I243750J0D01*
G01*
G37*
G04 #@! TD.AperFunction*
G04 #@! TA.AperFunction,SMDPad,CuDef*
G36*
G01*
X127043750Y-65087500D02*
X127956250Y-65087500D01*
G75*
G02*
X128200000Y-65331250I0J-243750D01*
G01*
X128200000Y-65818750D01*
G75*
G02*
X127956250Y-66062500I-243750J0D01*
G01*
X127043750Y-66062500D01*
G75*
G02*
X126800000Y-65818750I0J243750D01*
G01*
X126800000Y-65331250D01*
G75*
G02*
X127043750Y-65087500I243750J0D01*
G01*
G37*
G04 #@! TD.AperFunction*
G04 #@! TA.AperFunction,SMDPad,CuDef*
G36*
G01*
X122950000Y-69668750D02*
X122950000Y-68756250D01*
G75*
G02*
X123193750Y-68512500I243750J0D01*
G01*
X123681250Y-68512500D01*
G75*
G02*
X123925000Y-68756250I0J-243750D01*
G01*
X123925000Y-69668750D01*
G75*
G02*
X123681250Y-69912500I-243750J0D01*
G01*
X123193750Y-69912500D01*
G75*
G02*
X122950000Y-69668750I0J243750D01*
G01*
G37*
G04 #@! TD.AperFunction*
G04 #@! TA.AperFunction,SMDPad,CuDef*
G36*
G01*
X121075000Y-69668750D02*
X121075000Y-68756250D01*
G75*
G02*
X121318750Y-68512500I243750J0D01*
G01*
X121806250Y-68512500D01*
G75*
G02*
X122050000Y-68756250I0J-243750D01*
G01*
X122050000Y-69668750D01*
G75*
G02*
X121806250Y-69912500I-243750J0D01*
G01*
X121318750Y-69912500D01*
G75*
G02*
X121075000Y-69668750I0J243750D01*
G01*
G37*
G04 #@! TD.AperFunction*
G04 #@! TA.AperFunction,SMDPad,CuDef*
G36*
G01*
X122950000Y-71568750D02*
X122950000Y-70656250D01*
G75*
G02*
X123193750Y-70412500I243750J0D01*
G01*
X123681250Y-70412500D01*
G75*
G02*
X123925000Y-70656250I0J-243750D01*
G01*
X123925000Y-71568750D01*
G75*
G02*
X123681250Y-71812500I-243750J0D01*
G01*
X123193750Y-71812500D01*
G75*
G02*
X122950000Y-71568750I0J243750D01*
G01*
G37*
G04 #@! TD.AperFunction*
G04 #@! TA.AperFunction,SMDPad,CuDef*
G36*
G01*
X121075000Y-71568750D02*
X121075000Y-70656250D01*
G75*
G02*
X121318750Y-70412500I243750J0D01*
G01*
X121806250Y-70412500D01*
G75*
G02*
X122050000Y-70656250I0J-243750D01*
G01*
X122050000Y-71568750D01*
G75*
G02*
X121806250Y-71812500I-243750J0D01*
G01*
X121318750Y-71812500D01*
G75*
G02*
X121075000Y-71568750I0J243750D01*
G01*
G37*
G04 #@! TD.AperFunction*
G04 #@! TA.AperFunction,SMDPad,CuDef*
G36*
G01*
X127956250Y-69462500D02*
X127043750Y-69462500D01*
G75*
G02*
X126800000Y-69218750I0J243750D01*
G01*
X126800000Y-68731250D01*
G75*
G02*
X127043750Y-68487500I243750J0D01*
G01*
X127956250Y-68487500D01*
G75*
G02*
X128200000Y-68731250I0J-243750D01*
G01*
X128200000Y-69218750D01*
G75*
G02*
X127956250Y-69462500I-243750J0D01*
G01*
G37*
G04 #@! TD.AperFunction*
G04 #@! TA.AperFunction,SMDPad,CuDef*
G36*
G01*
X127956250Y-71337500D02*
X127043750Y-71337500D01*
G75*
G02*
X126800000Y-71093750I0J243750D01*
G01*
X126800000Y-70606250D01*
G75*
G02*
X127043750Y-70362500I243750J0D01*
G01*
X127956250Y-70362500D01*
G75*
G02*
X128200000Y-70606250I0J-243750D01*
G01*
X128200000Y-71093750D01*
G75*
G02*
X127956250Y-71337500I-243750J0D01*
G01*
G37*
G04 #@! TD.AperFunction*
G04 #@! TA.AperFunction,SMDPad,CuDef*
G36*
G01*
X125143750Y-70362500D02*
X126056250Y-70362500D01*
G75*
G02*
X126300000Y-70606250I0J-243750D01*
G01*
X126300000Y-71093750D01*
G75*
G02*
X126056250Y-71337500I-243750J0D01*
G01*
X125143750Y-71337500D01*
G75*
G02*
X124900000Y-71093750I0J243750D01*
G01*
X124900000Y-70606250D01*
G75*
G02*
X125143750Y-70362500I243750J0D01*
G01*
G37*
G04 #@! TD.AperFunction*
G04 #@! TA.AperFunction,SMDPad,CuDef*
G36*
G01*
X125143750Y-68487500D02*
X126056250Y-68487500D01*
G75*
G02*
X126300000Y-68731250I0J-243750D01*
G01*
X126300000Y-69218750D01*
G75*
G02*
X126056250Y-69462500I-243750J0D01*
G01*
X125143750Y-69462500D01*
G75*
G02*
X124900000Y-69218750I0J243750D01*
G01*
X124900000Y-68731250D01*
G75*
G02*
X125143750Y-68487500I243750J0D01*
G01*
G37*
G04 #@! TD.AperFunction*
X117900000Y-66312500D03*
X117900000Y-71312500D03*
D18*
X123800000Y-66412500D03*
X123800000Y-65462500D03*
X123800000Y-67362500D03*
X121600000Y-67362500D03*
X121600000Y-66412500D03*
X121600000Y-65462500D03*
G04 #@! TA.AperFunction,SMDPad,CuDef*
G36*
G01*
X126056250Y-66062500D02*
X125143750Y-66062500D01*
G75*
G02*
X124900000Y-65818750I0J243750D01*
G01*
X124900000Y-65331250D01*
G75*
G02*
X125143750Y-65087500I243750J0D01*
G01*
X126056250Y-65087500D01*
G75*
G02*
X126300000Y-65331250I0J-243750D01*
G01*
X126300000Y-65818750D01*
G75*
G02*
X126056250Y-66062500I-243750J0D01*
G01*
G37*
G04 #@! TD.AperFunction*
G04 #@! TA.AperFunction,SMDPad,CuDef*
G36*
G01*
X126056250Y-67937500D02*
X125143750Y-67937500D01*
G75*
G02*
X124900000Y-67693750I0J243750D01*
G01*
X124900000Y-67206250D01*
G75*
G02*
X125143750Y-66962500I243750J0D01*
G01*
X126056250Y-66962500D01*
G75*
G02*
X126300000Y-67206250I0J-243750D01*
G01*
X126300000Y-67693750D01*
G75*
G02*
X126056250Y-67937500I-243750J0D01*
G01*
G37*
G04 #@! TD.AperFunction*
D22*
X156911257Y-80011257D03*
D23*
X156291492Y-76785000D03*
D22*
X155240077Y-69597211D03*
D23*
X156125170Y-68719569D03*
X157084887Y-67910187D03*
D22*
X150355000Y-68385000D03*
D24*
X151383037Y-68155027D03*
D23*
X137755000Y-79985000D03*
X135255000Y-85685000D03*
D22*
X137855000Y-85285000D03*
D23*
X142055000Y-66385000D03*
D22*
X148155000Y-66085000D03*
X147635890Y-67485000D03*
X144055000Y-68785000D03*
D23*
X139455000Y-67585000D03*
D24*
X144255000Y-64485000D03*
D22*
X155104390Y-80015366D03*
D23*
X150455000Y-92785000D03*
D22*
X151655000Y-64685000D03*
D23*
X122815000Y-74555000D03*
X120325000Y-73625000D03*
D22*
X151249913Y-74364185D03*
X151247962Y-75214100D03*
X148055000Y-71985000D03*
D24*
X156012995Y-70727005D03*
D22*
X154407516Y-68855663D03*
X152019311Y-69640226D03*
D24*
X148955000Y-85185000D03*
D22*
X153681433Y-81558567D03*
X152052799Y-81594074D03*
D24*
X156955000Y-84985000D03*
D25*
X130968467Y-72768360D03*
D24*
X128755000Y-72485000D03*
D22*
X130055000Y-72894610D03*
D24*
X133655000Y-76085000D03*
X122555000Y-87385000D03*
D23*
X122293966Y-86508638D03*
D24*
X122355000Y-96585000D03*
X138955000Y-71285000D03*
D22*
X146455000Y-72785000D03*
X145655000Y-72785000D03*
X145655000Y-73585000D03*
D23*
X139755000Y-73585000D03*
X139655000Y-75485000D03*
D25*
X134527456Y-73148709D03*
D22*
X142453351Y-69578403D03*
D23*
X129555000Y-77585000D03*
D22*
X143255000Y-68785000D03*
X142455000Y-68785000D03*
X141655000Y-68785000D03*
X149155000Y-65285000D03*
X155255000Y-81585000D03*
D23*
X143655000Y-86785000D03*
D22*
X151255000Y-83185000D03*
X140655000Y-86885000D03*
X151555000Y-85785000D03*
D23*
X156955000Y-87185000D03*
D22*
X155655000Y-64135000D03*
X159476257Y-76006257D03*
X158805000Y-75985000D03*
X156485602Y-65505000D03*
X158755000Y-65635000D03*
X154555000Y-65585000D03*
X155603492Y-65925684D03*
X148655000Y-67485000D03*
X149155000Y-66285000D03*
X130244400Y-66482806D03*
X152355000Y-65585000D03*
D23*
X119355000Y-84785000D03*
X117055000Y-84785000D03*
D22*
X156255000Y-79985000D03*
D23*
X128455000Y-71585000D03*
D24*
X120255000Y-69285000D03*
D23*
X150455000Y-97985000D03*
X144655000Y-97985000D03*
X118311573Y-75826114D03*
X115695000Y-79285000D03*
X125075000Y-96335000D03*
D22*
X125355000Y-89137244D03*
X124455000Y-79185000D03*
D23*
X142255000Y-95385000D03*
D22*
X144094341Y-73624341D03*
D23*
X149455000Y-91685000D03*
D25*
X126355000Y-95385000D03*
D23*
X122355000Y-98585000D03*
D22*
X146455000Y-83185000D03*
X146455000Y-80785000D03*
X145655000Y-80785000D03*
X145655000Y-79985000D03*
X147555000Y-92742321D03*
X148481552Y-91975225D03*
X147555000Y-91904110D03*
X148508604Y-93020797D03*
D23*
X130655000Y-87689557D03*
D25*
X130222674Y-90355521D03*
D22*
X122655000Y-85185000D03*
X123255000Y-85185000D03*
X123855000Y-85185000D03*
X124455000Y-85185000D03*
X149455000Y-88285000D03*
D23*
X125455000Y-78485000D03*
X119340163Y-81540163D03*
X119804889Y-82207016D03*
X116899136Y-81675690D03*
X126555000Y-82985000D03*
X125326923Y-79504843D03*
X125379768Y-80769442D03*
X130053090Y-76419025D03*
X131251074Y-76416582D03*
X114055000Y-76285000D03*
D25*
X115655000Y-77285000D03*
D23*
X124655000Y-76385000D03*
D25*
X124504595Y-71835768D03*
D23*
X111855000Y-75285000D03*
X120655000Y-72785000D03*
X125155000Y-85185000D03*
X127655000Y-85185000D03*
X123055000Y-77085000D03*
X120355000Y-79385000D03*
D22*
X122869935Y-82514871D03*
D23*
X122955000Y-81785000D03*
X120455000Y-83085000D03*
X120455000Y-84085000D03*
X125155000Y-82485000D03*
X128455000Y-82985000D03*
X129455000Y-79785000D03*
X131784327Y-78241376D03*
X134455000Y-83585000D03*
X134299186Y-82508225D03*
X131755000Y-82585000D03*
D25*
X130955000Y-80385000D03*
X115555000Y-84485000D03*
X126555000Y-69885000D03*
D23*
X111655000Y-82685000D03*
X111555000Y-80585000D03*
X114655000Y-82485000D03*
X114655000Y-80585000D03*
X131755000Y-80085000D03*
X134455000Y-80085000D03*
X123655000Y-76385000D03*
X130655000Y-85185000D03*
X111855000Y-74385000D03*
X114555000Y-71585000D03*
D22*
X120255000Y-76885000D03*
X120255000Y-78085000D03*
D23*
X127655000Y-76485000D03*
X127655000Y-73685000D03*
D22*
X122799850Y-83762618D03*
X122855000Y-80985000D03*
X122853914Y-78537373D03*
D23*
X160755000Y-75185000D03*
D22*
X161500000Y-87500000D03*
X161500000Y-86500000D03*
X161500000Y-85500000D03*
X161500000Y-84500000D03*
X161500000Y-83500000D03*
X158500000Y-84500000D03*
X159500000Y-85500000D03*
X159500000Y-84500000D03*
X160500000Y-86500000D03*
X160500000Y-85500000D03*
X160500000Y-84500000D03*
X160500000Y-83500000D03*
X158500000Y-78500000D03*
X159500000Y-78500000D03*
X159500000Y-77500000D03*
X161500000Y-79500000D03*
X161500000Y-78500000D03*
X161500000Y-77500000D03*
X161500000Y-76500000D03*
X160500000Y-76500000D03*
X160500000Y-77500000D03*
X160500000Y-78500000D03*
X160500000Y-79500000D03*
X157900000Y-80000000D03*
X158900000Y-79900000D03*
X159700000Y-80000000D03*
X161600000Y-80600000D03*
X156900000Y-83000000D03*
X157900000Y-83000000D03*
X158900000Y-83100000D03*
X159700000Y-83000000D03*
X161600000Y-82400000D03*
X142455000Y-81585000D03*
X154455000Y-78385000D03*
X153655000Y-79185000D03*
X152055000Y-82384998D03*
X150455000Y-80785000D03*
X149655000Y-80785000D03*
X154455000Y-79985000D03*
X154455000Y-79185000D03*
X148855000Y-83185000D03*
X150455000Y-74385000D03*
D23*
X111900000Y-89100000D03*
X114900000Y-91100000D03*
X110000000Y-90900000D03*
D22*
X125600000Y-64796910D03*
D23*
X122700000Y-65450000D03*
D25*
X124400000Y-70750000D03*
X125600000Y-71850000D03*
X124500000Y-69750000D03*
X134700000Y-65500000D03*
X131900000Y-65100000D03*
X132900000Y-97937500D03*
X129100000Y-97937500D03*
X132900000Y-90537500D03*
D22*
X153655000Y-75985000D03*
X155255000Y-75185000D03*
X154455000Y-75185000D03*
X153655000Y-75185000D03*
X154455000Y-74385000D03*
X153655000Y-74385000D03*
X153655000Y-73585000D03*
X154455000Y-73585000D03*
X154455000Y-72785000D03*
X155255000Y-72785000D03*
X155255000Y-71985000D03*
X154455000Y-71985000D03*
X154455000Y-69585000D03*
X141655000Y-73585000D03*
X147255000Y-83185000D03*
X141655000Y-79185000D03*
X145655000Y-81585000D03*
X149655000Y-71985000D03*
X150455000Y-72785000D03*
X149655000Y-73585000D03*
X150455000Y-73585000D03*
X151255000Y-73585000D03*
X151255000Y-75985000D03*
X149655000Y-75185000D03*
X148855000Y-75185000D03*
X149655000Y-75985000D03*
X148855000Y-75985000D03*
X155255000Y-79185000D03*
D25*
X114750000Y-81500000D03*
D23*
X120250000Y-81500000D03*
D22*
X146455000Y-78385000D03*
X147255000Y-78385000D03*
X148855000Y-78385000D03*
X149669375Y-78384998D03*
X146440623Y-77585002D03*
X147255000Y-77585000D03*
X146455000Y-75185000D03*
X147255000Y-75185000D03*
X146455000Y-75985000D03*
X147255000Y-75985000D03*
X148855000Y-77585000D03*
X149655000Y-77585000D03*
X144855000Y-77585000D03*
X144855000Y-79985000D03*
X144855000Y-80785000D03*
X144055000Y-79985000D03*
X144055000Y-79185000D03*
X144855000Y-79185000D03*
X144855000Y-78385000D03*
X144855000Y-75985000D03*
X144855000Y-75185000D03*
X144055000Y-74385000D03*
X144855000Y-74385000D03*
X144855000Y-73585000D03*
X144855000Y-72785000D03*
X146455000Y-79985000D03*
X147255000Y-80785000D03*
X147255000Y-79985000D03*
X149655000Y-79985000D03*
X150455000Y-79985000D03*
X151255000Y-79185000D03*
X146455000Y-73585000D03*
X147255000Y-73585000D03*
X147255000Y-72785000D03*
X144855000Y-71185000D03*
X145655000Y-69585000D03*
X145655000Y-75985000D03*
X150455000Y-75985000D03*
X145655000Y-77585000D03*
X148855000Y-79185000D03*
X147255000Y-79185000D03*
X148855000Y-74385000D03*
X147255000Y-74385000D03*
X152855000Y-79985000D03*
X152855000Y-80785000D03*
X152855000Y-77585000D03*
X150455000Y-75185000D03*
X149655000Y-74385000D03*
X146455000Y-74385000D03*
X145655000Y-74385000D03*
X145655000Y-75185000D03*
X145655000Y-78385000D03*
X145655000Y-79185000D03*
X146455000Y-79185000D03*
X150455000Y-78385000D03*
X149655000Y-79185000D03*
X150455000Y-79185000D03*
X151255000Y-77585000D03*
X151253351Y-79978403D03*
X150455000Y-77585000D03*
D23*
X157355000Y-71685000D03*
X162325000Y-71350000D03*
D22*
X151255000Y-72785000D03*
X144055000Y-72785000D03*
X144055000Y-80785000D03*
X153655000Y-79985000D03*
X153655000Y-78385000D03*
X153655000Y-77585000D03*
X154455000Y-75985000D03*
X154455000Y-77585000D03*
D23*
X149455000Y-89185000D03*
D26*
X156955000Y-83685000D02*
X158055000Y-84785000D01*
X158055000Y-84785000D02*
X158655000Y-85385000D01*
X158655000Y-85385000D02*
X158655000Y-86585000D01*
X155655000Y-82785000D02*
X156055000Y-82785000D01*
X156055000Y-82785000D02*
X156955000Y-83685000D01*
D27*
X151244166Y-66370000D02*
X152602500Y-66370000D01*
X152602500Y-66370000D02*
X152755000Y-66522500D01*
X151244166Y-65400000D02*
X151244166Y-65095834D01*
X151244166Y-65095834D02*
X151655000Y-64685000D01*
D28*
X152000262Y-67535000D02*
X150905000Y-67535000D01*
X150905000Y-67535000D02*
X150255000Y-66885000D01*
X150255000Y-66885000D02*
X150255000Y-65235000D01*
X150255000Y-65235000D02*
X149505000Y-64485000D01*
X149505000Y-64485000D02*
X144255000Y-64485000D01*
D29*
X157070551Y-67910187D02*
X157084887Y-67910187D01*
D30*
X155937757Y-67313285D02*
X155655000Y-67030528D01*
D31*
X155240077Y-69599923D02*
X155240077Y-69597211D01*
X154855000Y-69985000D02*
X155240077Y-69599923D01*
D30*
X159216715Y-67313285D02*
X155937757Y-67313285D01*
D29*
X156966752Y-68013986D02*
X157070551Y-67910187D01*
D30*
X159409010Y-67120990D02*
X159216715Y-67313285D01*
X158455000Y-64647500D02*
X159409010Y-65601510D01*
X159409010Y-65601510D02*
X159409010Y-67120990D01*
D26*
X152455000Y-78785000D02*
X152055000Y-78385000D01*
X152055000Y-70607058D02*
X152055000Y-70585000D01*
X152055000Y-70585000D02*
X151855000Y-70385000D01*
X151855000Y-70385000D02*
X151455000Y-70385000D01*
X151455000Y-70385000D02*
X151255000Y-70185000D01*
X151060028Y-68790028D02*
X150760028Y-68790028D01*
X151255000Y-70185000D02*
X151255000Y-68985000D01*
X151255000Y-68985000D02*
X151060028Y-68790028D01*
D28*
X151383037Y-68152225D02*
X151383037Y-68155027D01*
X152000262Y-67535000D02*
X151383037Y-68152225D01*
D26*
X150760028Y-68790028D02*
X150355000Y-68385000D01*
D30*
X142555000Y-87847500D02*
X140992500Y-86285000D01*
X140992500Y-86285000D02*
X139055000Y-86285000D01*
X139055000Y-86285000D02*
X137650443Y-87689557D01*
X137650443Y-87689557D02*
X130655000Y-87689557D01*
D27*
X142055000Y-66385000D02*
X143155000Y-66385000D01*
X143155000Y-66385000D02*
X143455000Y-66085000D01*
X147635890Y-67485000D02*
X146155000Y-67485000D01*
X146155000Y-67485000D02*
X144755000Y-66085000D01*
X144755000Y-66085000D02*
X143455000Y-66085000D01*
D26*
X149155000Y-65285000D02*
X148355000Y-66085000D01*
X148355000Y-66085000D02*
X148155000Y-66085000D01*
D30*
X147670000Y-67450890D02*
X147635890Y-67485000D01*
X147670000Y-66785000D02*
X147670000Y-67450890D01*
D31*
X144455000Y-69185000D02*
X144055000Y-68785000D01*
D27*
X139455000Y-67585000D02*
X139455000Y-66085000D01*
D31*
X154855000Y-80385000D02*
X155104390Y-80135610D01*
X155104390Y-80135610D02*
X155104390Y-80015366D01*
D27*
X150455000Y-95147500D02*
X150455000Y-92785000D01*
X152755000Y-64647500D02*
X151692500Y-64647500D01*
X151692500Y-64647500D02*
X151655000Y-64685000D01*
X152755000Y-66522500D02*
X152780000Y-66522500D01*
X152780000Y-66522500D02*
X154655000Y-64647500D01*
D30*
X123650000Y-75125000D02*
X123650000Y-74160000D01*
X123650000Y-74160000D02*
X123525000Y-74035000D01*
X123525000Y-74035000D02*
X123335000Y-74035000D01*
X123335000Y-74035000D02*
X122815000Y-74555000D01*
D27*
X120162500Y-73462500D02*
X120325000Y-73625000D01*
X116700000Y-73462500D02*
X120162500Y-73462500D01*
D26*
X151251351Y-74388649D02*
X151251351Y-74365623D01*
X151251351Y-74365623D02*
X151249913Y-74364185D01*
X151225900Y-75214100D02*
X151247962Y-75214100D01*
D27*
X156397005Y-70727005D02*
X156012995Y-70727005D01*
X157355000Y-71685000D02*
X156397005Y-70727005D01*
D26*
X154449390Y-68790610D02*
X154449390Y-68813789D01*
X154449390Y-68813789D02*
X154407516Y-68855663D01*
D31*
X151999774Y-69640226D02*
X152019311Y-69640226D01*
X151655000Y-69985000D02*
X151999774Y-69640226D01*
D28*
X152355000Y-67535000D02*
X153955000Y-67535000D01*
X152355000Y-67535000D02*
X152000262Y-67535000D01*
X153955000Y-67535000D02*
X154655000Y-66835000D01*
X154655000Y-66835000D02*
X154655000Y-66522500D01*
D26*
X152055000Y-78385000D02*
X152055000Y-70607058D01*
D31*
X153255000Y-81985000D02*
X153681433Y-81558567D01*
X154055000Y-81185000D02*
X153681433Y-81558567D01*
D26*
X152855000Y-78004101D02*
X152855000Y-77585000D01*
X152855000Y-78985000D02*
X152855000Y-78004101D01*
X150445501Y-82172441D02*
X150223443Y-82394499D01*
X150677058Y-81585000D02*
X150445501Y-81816557D01*
X151255000Y-81362942D02*
X151032942Y-81585000D01*
X152143971Y-81185000D02*
X152045501Y-81086530D01*
X151032942Y-81585000D02*
X150677058Y-81585000D01*
X151467559Y-80794499D02*
X151255000Y-81007058D01*
X150445501Y-81816557D02*
X150445501Y-82172441D01*
X151842441Y-80794499D02*
X151467559Y-80794499D01*
X150223443Y-82394499D02*
X149845501Y-82394499D01*
X152045501Y-80997559D02*
X151842441Y-80794499D01*
X152045501Y-81086530D02*
X152045501Y-80997559D01*
X151255000Y-81007058D02*
X151255000Y-81362942D01*
X149655000Y-82585000D02*
X149655000Y-85385000D01*
X152455000Y-81185000D02*
X152143971Y-81185000D01*
X148039462Y-87000538D02*
X148039462Y-92551655D01*
X149845501Y-82394499D02*
X149655000Y-82585000D01*
X149655000Y-85385000D02*
X148039462Y-87000538D01*
X148039462Y-92551655D02*
X148508604Y-93020797D01*
D31*
X152064074Y-81594074D02*
X152052799Y-81594074D01*
X152455000Y-81985000D02*
X152064074Y-81594074D01*
D26*
X152855000Y-80785000D02*
X152255000Y-80785000D01*
X152255000Y-80785000D02*
X152064499Y-80594499D01*
X152064499Y-79375501D02*
X152255000Y-79185000D01*
X152064499Y-80594499D02*
X152064499Y-79375501D01*
X152255000Y-79185000D02*
X152655000Y-79185000D01*
X152655000Y-79185000D02*
X152855000Y-78985000D01*
X155842441Y-83194499D02*
X156143971Y-83496029D01*
X156143971Y-83496029D02*
X156143971Y-86073971D01*
X156143971Y-86073971D02*
X156467587Y-86397587D01*
X156467587Y-86397587D02*
X157367587Y-86397587D01*
X154055000Y-83585000D02*
X154445501Y-83194499D01*
X157742413Y-86772413D02*
X157742413Y-88132587D01*
X154445501Y-83194499D02*
X155842441Y-83194499D01*
X157367587Y-86397587D02*
X157742413Y-86772413D01*
X157742413Y-88132587D02*
X156155000Y-89720000D01*
X156530000Y-88450000D02*
X156155000Y-88450000D01*
X157488402Y-86918402D02*
X157488402Y-87491598D01*
X157488402Y-87491598D02*
X156530000Y-88450000D01*
X156262373Y-86651598D02*
X157221598Y-86651598D01*
X155655000Y-86044225D02*
X156262373Y-86651598D01*
X157221598Y-86651598D02*
X157488402Y-86918402D01*
X155655000Y-83585000D02*
X155655000Y-86044225D01*
X150755000Y-88450000D02*
X149955000Y-87650000D01*
X152864499Y-84553443D02*
X152864499Y-83397559D01*
X149955000Y-87650000D02*
X149955000Y-86785000D01*
X152132942Y-85285000D02*
X152864499Y-84553443D01*
X149955000Y-86785000D02*
X151455000Y-85285000D01*
X151455000Y-85285000D02*
X152132942Y-85285000D01*
X153255000Y-83085000D02*
X153255000Y-82785000D01*
X152864499Y-83397559D02*
X153067559Y-83194499D01*
X153067559Y-83194499D02*
X153145501Y-83194499D01*
X153145501Y-83194499D02*
X153255000Y-83085000D01*
X142055000Y-83585000D02*
X141655000Y-83985000D01*
X141655000Y-83985000D02*
X141655000Y-84562942D01*
X141655000Y-84562942D02*
X141432942Y-84785000D01*
X137336550Y-84785000D02*
X134451550Y-81900000D01*
X141432942Y-84785000D02*
X137336550Y-84785000D01*
X134451550Y-81900000D02*
X133225000Y-81900000D01*
X133225000Y-81900000D02*
X133075000Y-82050000D01*
X143255000Y-80785000D02*
X143255000Y-80085000D01*
X143155000Y-79985000D02*
X142677058Y-79985000D01*
X142677058Y-79985000D02*
X142455000Y-79762942D01*
X139418644Y-79985000D02*
X133046516Y-73612872D01*
X142455000Y-78585000D02*
X142255000Y-78385000D01*
X142455000Y-80207058D02*
X142232942Y-79985000D01*
X139859419Y-80785000D02*
X132941302Y-73866883D01*
X133151730Y-73358861D02*
X129141139Y-73358861D01*
X138177869Y-78385000D02*
X133151730Y-73358861D01*
X142855000Y-81185000D02*
X142455000Y-80785000D01*
X129141139Y-73358861D02*
X128150000Y-74350000D01*
X143655000Y-81185000D02*
X143255000Y-80785000D01*
X139900194Y-81185000D02*
X132836088Y-74120894D01*
X142255000Y-78385000D02*
X138177869Y-78385000D01*
X129633117Y-73866883D02*
X129150000Y-74350000D01*
X129879106Y-74120894D02*
X129650000Y-74350000D01*
X132836088Y-74120894D02*
X129879106Y-74120894D01*
D30*
X131107890Y-72894610D02*
X130055000Y-72894610D01*
D26*
X129387128Y-73612872D02*
X128650000Y-74350000D01*
X142055000Y-81185000D02*
X141655000Y-80785000D01*
X129150000Y-74350000D02*
X129150000Y-75125000D01*
X141655000Y-80785000D02*
X139859419Y-80785000D01*
X132941302Y-73866883D02*
X129633117Y-73866883D01*
X128150000Y-74350000D02*
X128150000Y-75125000D01*
X128650000Y-74350000D02*
X128650000Y-75125000D01*
X142455000Y-80785000D02*
X142455000Y-80207058D01*
X129650000Y-74350000D02*
X129650000Y-75125000D01*
X142232942Y-79985000D02*
X139418644Y-79985000D01*
X143255000Y-80085000D02*
X143155000Y-79985000D01*
X133046516Y-73612872D02*
X129387128Y-73612872D01*
D30*
X131917500Y-72085000D02*
X131107890Y-72894610D01*
D26*
X140455000Y-81185000D02*
X139900194Y-81185000D01*
X142455000Y-79762942D02*
X142455000Y-78585000D01*
X133850000Y-77050000D02*
X133075000Y-77050000D01*
X140855000Y-81585000D02*
X138385000Y-81585000D01*
X141255000Y-81185000D02*
X140855000Y-81585000D01*
X138385000Y-81585000D02*
X133850000Y-77050000D01*
D30*
X123462500Y-88362500D02*
X123462500Y-88292500D01*
X123462500Y-88292500D02*
X122555000Y-87385000D01*
X122477500Y-88362500D02*
X123462500Y-88362500D01*
X121562500Y-88362500D02*
X122477500Y-88362500D01*
D27*
X114900000Y-88262500D02*
X115977500Y-87185000D01*
X115977500Y-87185000D02*
X121617604Y-87185000D01*
X121617604Y-87185000D02*
X122293966Y-86508638D01*
D28*
X121425000Y-96615000D02*
X121425000Y-95600000D01*
X121425000Y-97500000D02*
X121425000Y-96615000D01*
D32*
X121425000Y-96615000D02*
X122325000Y-96615000D01*
X122325000Y-96615000D02*
X122355000Y-96585000D01*
X122355000Y-95785000D02*
X122355000Y-96585000D01*
X122170000Y-95600000D02*
X122355000Y-95785000D01*
X121425000Y-95600000D02*
X122170000Y-95600000D01*
D27*
X121425000Y-95600000D02*
X121425000Y-95655000D01*
D26*
X142055000Y-70785000D02*
X141855000Y-70785000D01*
X141855000Y-70785000D02*
X141455000Y-71185000D01*
X141455000Y-71185000D02*
X139755000Y-71185000D01*
X139755000Y-71185000D02*
X138755000Y-70185000D01*
X138755000Y-70185000D02*
X137617500Y-70185000D01*
X137355000Y-84085000D02*
X134320000Y-81050000D01*
X141255000Y-84385000D02*
X137295775Y-84385000D01*
X141255000Y-83585000D02*
X140755000Y-84085000D01*
X137295775Y-84385000D02*
X134460775Y-81550000D01*
X134460775Y-81550000D02*
X133075000Y-81550000D01*
X140755000Y-84085000D02*
X137355000Y-84085000D01*
X134320000Y-81050000D02*
X133075000Y-81050000D01*
X140455000Y-83585000D02*
X137379421Y-83585000D01*
X137379421Y-83585000D02*
X134579421Y-80785000D01*
X134579421Y-80785000D02*
X134255000Y-80785000D01*
X134255000Y-80785000D02*
X134020000Y-80550000D01*
X134020000Y-80550000D02*
X133075000Y-80550000D01*
D31*
X146855000Y-73185000D02*
X146455000Y-72785000D01*
D26*
X146055000Y-73185000D02*
X145655000Y-72785000D01*
D31*
X146055000Y-73985000D02*
X145655000Y-73585000D01*
D26*
X141455000Y-72785000D02*
X138617500Y-72785000D01*
X142255000Y-71985000D02*
X141855000Y-71985000D01*
X142455000Y-71407058D02*
X142455000Y-71785000D01*
X142855000Y-71007058D02*
X142455000Y-71407058D01*
X141855000Y-71985000D02*
X141655000Y-72185000D01*
X141655000Y-72585000D02*
X141455000Y-72785000D01*
X138617500Y-72785000D02*
X137617500Y-73785000D01*
X142455000Y-71785000D02*
X142255000Y-71985000D01*
X141655000Y-72185000D02*
X141655000Y-72585000D01*
X142855000Y-70785000D02*
X142855000Y-71007058D01*
X142855000Y-69985000D02*
X142555000Y-69985000D01*
X142475388Y-70205388D02*
X142295776Y-70385000D01*
X142295776Y-70385000D02*
X141077058Y-70385000D01*
X142555000Y-69985000D02*
X142475388Y-70064612D01*
X142475388Y-70064612D02*
X142475388Y-70205388D01*
X141077058Y-70385000D02*
X140855000Y-70162942D01*
X140855000Y-70162942D02*
X140855000Y-69785000D01*
X140855000Y-69785000D02*
X139455000Y-68385000D01*
X139455000Y-68385000D02*
X137617500Y-68385000D01*
X139355000Y-71985000D02*
X137617500Y-71985000D01*
D30*
X135692500Y-73785000D02*
X134855000Y-73785000D01*
X134855000Y-73785000D02*
X134755000Y-73885000D01*
X134755000Y-73885000D02*
X134255000Y-73885000D01*
X134255000Y-73885000D02*
X133792500Y-73422500D01*
X133792500Y-73422500D02*
X133792500Y-72085000D01*
X135692500Y-71985000D02*
X135592500Y-71985000D01*
X135592500Y-71985000D02*
X133792500Y-70185000D01*
X135692500Y-70185000D02*
X133792500Y-68285000D01*
X135692500Y-68385000D02*
X135692500Y-66922500D01*
X135692500Y-66922500D02*
X135155000Y-66385000D01*
X135155000Y-66385000D02*
X133792500Y-66385000D01*
X131917500Y-66385000D02*
X131917500Y-68285000D01*
X131917500Y-68285000D02*
X131917500Y-70185000D01*
X131917500Y-72085000D02*
X131917500Y-70185000D01*
D26*
X142453351Y-69586649D02*
X142453351Y-69578403D01*
D31*
X142055000Y-69985000D02*
X142453351Y-69586649D01*
D26*
X143655000Y-69985000D02*
X143255000Y-70385000D01*
X143255000Y-70385000D02*
X142655000Y-70385000D01*
X142655000Y-70385000D02*
X142455000Y-70585000D01*
X142455000Y-70585000D02*
X142455000Y-70985000D01*
X142455000Y-70985000D02*
X142255000Y-71185000D01*
X141655000Y-71407057D02*
X141655000Y-71785000D01*
X142255000Y-71185000D02*
X141877057Y-71185000D01*
X141877057Y-71185000D02*
X141655000Y-71407057D01*
X141655000Y-71785000D02*
X141455000Y-71985000D01*
X141455000Y-71985000D02*
X139355000Y-71985000D01*
D32*
X111472828Y-79166814D02*
X112334830Y-79166814D01*
X113155000Y-79135000D02*
X112367002Y-79135000D01*
X112367002Y-79135000D02*
X112336001Y-79166001D01*
X113155000Y-83835000D02*
X112412882Y-83835000D01*
X112412882Y-83835000D02*
X112381881Y-83803999D01*
X110755000Y-79885000D02*
X111473999Y-79166001D01*
X112381787Y-83803269D02*
X111173905Y-83803269D01*
X111173999Y-83803999D02*
X110755000Y-83385000D01*
X110755000Y-83385000D02*
X110755000Y-79885000D01*
D27*
X130650000Y-77680000D02*
X130155000Y-78175000D01*
X130155000Y-78175000D02*
X130155000Y-83085000D01*
X130155000Y-83085000D02*
X128955000Y-84285000D01*
X128955000Y-84285000D02*
X126055000Y-84285000D01*
X126055000Y-84285000D02*
X125155000Y-85185000D01*
D31*
X143655000Y-69185000D02*
X143255000Y-68785000D01*
X142855000Y-69185000D02*
X142455000Y-68785000D01*
X142055000Y-69185000D02*
X141655000Y-68785000D01*
X154855000Y-81185000D02*
X155255000Y-81585000D01*
D33*
X147155000Y-86785000D02*
X143655000Y-86785000D01*
X147555000Y-87185000D02*
X147155000Y-86785000D01*
X147555000Y-89485000D02*
X147555000Y-87185000D01*
X147317500Y-89722500D02*
X147555000Y-89485000D01*
X146355000Y-89722500D02*
X147317500Y-89722500D01*
D30*
X127362500Y-91962500D02*
X131032500Y-91962500D01*
X145855000Y-98585000D02*
X146455000Y-97985000D01*
X131032500Y-91962500D02*
X137655000Y-98585000D01*
X137655000Y-98585000D02*
X145855000Y-98585000D01*
X146455000Y-97985000D02*
X146455000Y-97035000D01*
X144455000Y-89722500D02*
X144455000Y-88985000D01*
X144455000Y-88985000D02*
X144255000Y-88785000D01*
X149155000Y-93285000D02*
X149155000Y-92648673D01*
X144255000Y-88785000D02*
X140055000Y-88785000D01*
X140055000Y-88785000D02*
X139455000Y-89385000D01*
X139455000Y-89385000D02*
X139455000Y-90685000D01*
X139455000Y-90685000D02*
X142855000Y-94085000D01*
X142855000Y-94085000D02*
X148355000Y-94085000D01*
X148355000Y-94085000D02*
X149155000Y-93285000D01*
X149155000Y-92648673D02*
X148481552Y-91975225D01*
X148508604Y-93020797D02*
X147944401Y-93585000D01*
X147944401Y-93585000D02*
X143355000Y-93585000D01*
X140655000Y-90885000D02*
X140655000Y-89722500D01*
X143355000Y-93585000D02*
X140655000Y-90885000D01*
X142555000Y-89722500D02*
X142555000Y-90885000D01*
X142555000Y-90885000D02*
X142555000Y-90985000D01*
X142555000Y-90985000D02*
X143474110Y-91904110D01*
X143474110Y-91904110D02*
X147555000Y-91904110D01*
X144455000Y-87847500D02*
X146355000Y-87847500D01*
X142555000Y-87847500D02*
X144455000Y-87847500D01*
X140655000Y-87847500D02*
X140655000Y-86885000D01*
D26*
X150755000Y-87180000D02*
X151750000Y-86185000D01*
X151750000Y-86185000D02*
X152832942Y-86185000D01*
X152832942Y-86185000D02*
X154455000Y-84562942D01*
X154455000Y-84562942D02*
X154455000Y-83985000D01*
X154455000Y-83985000D02*
X154855000Y-83585000D01*
X153645501Y-84572441D02*
X152432942Y-85785000D01*
X152432942Y-85785000D02*
X151555000Y-85785000D01*
X153645501Y-82394499D02*
X153645501Y-84572441D01*
X154055000Y-81985000D02*
X153645501Y-82394499D01*
X152055000Y-83407058D02*
X152055000Y-84585000D01*
X153255000Y-81185000D02*
X152845501Y-81594499D01*
X152845501Y-82972441D02*
X152632942Y-83185000D01*
X152632942Y-83185000D02*
X152277058Y-83185000D01*
X152845501Y-81594499D02*
X152845501Y-82972441D01*
X152055000Y-84585000D02*
X151609011Y-85030989D01*
X152277058Y-83185000D02*
X152055000Y-83407058D01*
X151609011Y-85030989D02*
X151309011Y-85030989D01*
X151309011Y-85030989D02*
X149455000Y-86885000D01*
X149455000Y-86885000D02*
X149455000Y-88285000D01*
X156155000Y-90990000D02*
X156155000Y-91685000D01*
X156155000Y-91685000D02*
X155621598Y-92218402D01*
X155621598Y-92218402D02*
X149198966Y-92218402D01*
X149198966Y-92218402D02*
X148921598Y-91941034D01*
X148921598Y-91941034D02*
X148921598Y-86918402D01*
X148921598Y-86918402D02*
X151255000Y-84585000D01*
X151255000Y-84585000D02*
X151255000Y-83985000D01*
X151255000Y-83985000D02*
X151655000Y-83585000D01*
D30*
X156950000Y-87180000D02*
X156955000Y-87185000D01*
X156155000Y-87180000D02*
X156950000Y-87180000D01*
D26*
X156555000Y-64647500D02*
X156367500Y-64647500D01*
D30*
X156367500Y-64647500D02*
X155855000Y-64135000D01*
X155855000Y-64135000D02*
X155655000Y-64135000D01*
D31*
X154055000Y-69185000D02*
X154449390Y-68790610D01*
D26*
X155655000Y-78785000D02*
X156005000Y-78785000D01*
X155655000Y-79585000D02*
X155955000Y-79585000D01*
X155955000Y-79585000D02*
X159476257Y-76063743D01*
X156005000Y-78785000D02*
X158805000Y-75985000D01*
X159476257Y-76063743D02*
X159476257Y-76006257D01*
X155608177Y-65937470D02*
X155608177Y-66983705D01*
X155608177Y-66983705D02*
X155655000Y-67030528D01*
D30*
X158755000Y-65635000D02*
X158755000Y-66222500D01*
X158755000Y-66222500D02*
X158455000Y-66522500D01*
D26*
X155655000Y-65984293D02*
X155608177Y-65937470D01*
D30*
X148640000Y-67470000D02*
X148655000Y-67485000D01*
X148640000Y-66785000D02*
X148640000Y-67470000D01*
X149155000Y-66285000D02*
X149140000Y-66285000D01*
X149140000Y-66285000D02*
X148640000Y-66785000D01*
X152755000Y-66522500D02*
X152755000Y-65785000D01*
X152755000Y-65785000D02*
X152555000Y-65585000D01*
X152555000Y-65585000D02*
X152355000Y-65585000D01*
X129400000Y-65575000D02*
X130245000Y-65575000D01*
X130245000Y-65575000D02*
X130727002Y-66057002D01*
X130727002Y-68612998D02*
X130365000Y-68975000D01*
X130727002Y-66057002D02*
X130727002Y-68612998D01*
X130365000Y-68975000D02*
X129400000Y-68975000D01*
D33*
X129400000Y-67450000D02*
X129590000Y-67450000D01*
X129590000Y-67450000D02*
X130244400Y-66795600D01*
X130244400Y-66795600D02*
X130244400Y-66482806D01*
D30*
X158455000Y-66522500D02*
X156555000Y-66522500D01*
D27*
X119355000Y-85985000D02*
X119355000Y-84785000D01*
X117055000Y-84785000D02*
X117016169Y-84823831D01*
X117016169Y-84823831D02*
X117016169Y-85985000D01*
D31*
X155655000Y-80385000D02*
X156255000Y-79985000D01*
D30*
X128420000Y-70850000D02*
X127550000Y-70850000D01*
X129450000Y-70850000D02*
X128420000Y-70850000D01*
X128420000Y-70850000D02*
X128420000Y-71550000D01*
X128420000Y-71550000D02*
X128455000Y-71585000D01*
D28*
X120327500Y-69212500D02*
X120255000Y-69285000D01*
X121562500Y-69212500D02*
X120327500Y-69212500D01*
D34*
X150455000Y-97022500D02*
X150455000Y-97985000D01*
X146455000Y-96085000D02*
X145592500Y-96085000D01*
X145592500Y-96085000D02*
X144655000Y-97022500D01*
X144655000Y-97022500D02*
X144655000Y-97985000D01*
D27*
X118505000Y-77100000D02*
X118505000Y-76019541D01*
X118505000Y-76019541D02*
X118311573Y-75826114D01*
D33*
X116700000Y-75337500D02*
X117612500Y-74425000D01*
X122655000Y-73085000D02*
X123955000Y-73085000D01*
X117612500Y-74425000D02*
X121315000Y-74425000D01*
X121315000Y-74425000D02*
X122655000Y-73085000D01*
X123955000Y-73085000D02*
X124150000Y-73280000D01*
X124150000Y-73280000D02*
X124150000Y-75125000D01*
D27*
X116805000Y-79300000D02*
X115710000Y-79300000D01*
X115710000Y-79300000D02*
X115695000Y-79285000D01*
X125062500Y-97237500D02*
X125062500Y-96292500D01*
X125062500Y-96292500D02*
X125055000Y-96285000D01*
D26*
X121500000Y-91850000D02*
X120720000Y-91850000D01*
X120720000Y-91850000D02*
X120555000Y-91685000D01*
X126555000Y-90870000D02*
X125462500Y-91962500D01*
X120555000Y-91685000D02*
X120555000Y-89785000D01*
X120555000Y-89785000D02*
X120783640Y-89556360D01*
X120783640Y-89556360D02*
X126326360Y-89556360D01*
X126326360Y-89556360D02*
X126555000Y-89785000D01*
X126555000Y-89785000D02*
X126555000Y-90870000D01*
D29*
X125365990Y-89126254D02*
X125355000Y-89137244D01*
X125365990Y-88359370D02*
X125365990Y-89126254D01*
D30*
X124105750Y-79550000D02*
X124403492Y-79847742D01*
X121725000Y-79550000D02*
X124105750Y-79550000D01*
X124403492Y-79847742D02*
X124984024Y-79847742D01*
X124984024Y-79847742D02*
X125326923Y-79504843D01*
D27*
X144655000Y-95147500D02*
X142492500Y-95147500D01*
X142492500Y-95147500D02*
X142255000Y-95385000D01*
D31*
X144455000Y-73985000D02*
X144094341Y-73624341D01*
D30*
X149455000Y-90970000D02*
X149455000Y-91685000D01*
D32*
X125062500Y-95362500D02*
X126332500Y-95362500D01*
X126332500Y-95362500D02*
X126355000Y-95385000D01*
D27*
X121425000Y-97500000D02*
X121425000Y-97655000D01*
X121425000Y-97655000D02*
X122355000Y-98585000D01*
D31*
X146855000Y-80385000D02*
X146455000Y-80785000D01*
D26*
X146055000Y-80385000D02*
X145655000Y-80785000D01*
D31*
X146055000Y-79585000D02*
X145655000Y-79985000D01*
D26*
X147555000Y-91904110D02*
X147555000Y-92742321D01*
X151255000Y-81722167D02*
X151255000Y-82162942D01*
X151655000Y-81322167D02*
X151255000Y-81722167D01*
X151255000Y-82162942D02*
X151023443Y-82394499D01*
X150645501Y-82394499D02*
X150455000Y-82585000D01*
X150455000Y-84985000D02*
X148481552Y-86958448D01*
X151655000Y-81185000D02*
X151655000Y-81322167D01*
X148481552Y-86958448D02*
X148481552Y-91975225D01*
X151023443Y-82394499D02*
X150645501Y-82394499D01*
X150455000Y-82585000D02*
X150455000Y-84985000D01*
D30*
X130650000Y-87684557D02*
X130655000Y-87689557D01*
X130650000Y-86475000D02*
X130650000Y-87684557D01*
D26*
X122855000Y-84685000D02*
X122855000Y-84985000D01*
X122720000Y-84550000D02*
X122855000Y-84685000D01*
X122855000Y-84985000D02*
X122655000Y-85185000D01*
X121725000Y-84550000D02*
X122720000Y-84550000D01*
X123650000Y-85580000D02*
X123255000Y-85185000D01*
X123650000Y-86475000D02*
X123650000Y-85580000D01*
X124150000Y-85480000D02*
X123855000Y-85185000D01*
X124150000Y-86475000D02*
X124150000Y-85480000D01*
X124650000Y-85380000D02*
X124455000Y-85185000D01*
X124650000Y-86475000D02*
X124650000Y-85380000D01*
D29*
X119340163Y-80999837D02*
X119340163Y-81540163D01*
D32*
X116664310Y-81675690D02*
X116899136Y-81675690D01*
D29*
X120290000Y-80050000D02*
X119340163Y-80999837D01*
D27*
X117435000Y-81139826D02*
X116899136Y-81675690D01*
X117435000Y-80785000D02*
X117435000Y-81139826D01*
D32*
X114555000Y-83785000D02*
X116664310Y-81675690D01*
D29*
X121725000Y-80050000D02*
X120290000Y-80050000D01*
D33*
X130150000Y-76322115D02*
X130053090Y-76419025D01*
X130150000Y-75125000D02*
X130150000Y-76322115D01*
D30*
X131150000Y-75125000D02*
X131150000Y-76315508D01*
X130650000Y-75125000D02*
X130650000Y-77680000D01*
X131150000Y-76315508D02*
X131251074Y-76416582D01*
D33*
X114055000Y-76285000D02*
X114555000Y-76285000D01*
X114555000Y-76285000D02*
X114800000Y-76040000D01*
X114800000Y-76040000D02*
X114800000Y-75337500D01*
D32*
X113155000Y-79135000D02*
X114605000Y-79135000D01*
X114605000Y-79135000D02*
X115655000Y-78085000D01*
X115655000Y-78085000D02*
X115655000Y-77285000D01*
X124518827Y-71850000D02*
X124504595Y-71835768D01*
D33*
X124650000Y-76380000D02*
X124655000Y-76385000D01*
D32*
X124400000Y-71731173D02*
X124504595Y-71835768D01*
X124400000Y-70750000D02*
X124400000Y-71731173D01*
D33*
X124650000Y-75125000D02*
X124650000Y-76380000D01*
D32*
X125600000Y-71850000D02*
X124518827Y-71850000D01*
D33*
X120655000Y-72785000D02*
X120997899Y-72442101D01*
X125150000Y-73646826D02*
X125150000Y-75125000D01*
X123945275Y-72442101D02*
X125150000Y-73646826D01*
X120997899Y-72442101D02*
X123945275Y-72442101D01*
X110800000Y-75300000D02*
X111840000Y-75300000D01*
X111840000Y-75300000D02*
X111855000Y-75285000D01*
X125150000Y-85190000D02*
X125155000Y-85185000D01*
X125150000Y-86475000D02*
X125150000Y-85190000D01*
X127650000Y-86475000D02*
X127650000Y-85190000D01*
X127650000Y-85190000D02*
X127655000Y-85185000D01*
X123020000Y-77050000D02*
X123055000Y-77085000D01*
X121725000Y-77050000D02*
X123020000Y-77050000D01*
X120690000Y-79050000D02*
X120355000Y-79385000D01*
X121725000Y-79050000D02*
X120690000Y-79050000D01*
X121725000Y-82050000D02*
X122690000Y-82050000D01*
X122690000Y-82050000D02*
X122955000Y-81785000D01*
X122720000Y-81550000D02*
X122955000Y-81785000D01*
X121725000Y-81550000D02*
X122720000Y-81550000D01*
D30*
X122834806Y-82550000D02*
X122869935Y-82514871D01*
X121725000Y-82550000D02*
X122834806Y-82550000D01*
D33*
X120490000Y-83050000D02*
X120455000Y-83085000D01*
X121725000Y-83050000D02*
X120490000Y-83050000D01*
X120490000Y-84050000D02*
X120455000Y-84085000D01*
X121725000Y-84050000D02*
X120490000Y-84050000D01*
D27*
X117016169Y-90066223D02*
X119267759Y-90066223D01*
X119267759Y-90066223D02*
X119282405Y-90080869D01*
X114900000Y-88262500D02*
X115212446Y-88262500D01*
X115212446Y-88262500D02*
X117016169Y-90066223D01*
D33*
X131778634Y-78071366D02*
X131778634Y-78232117D01*
X132300000Y-77550000D02*
X131778634Y-78071366D01*
X133075000Y-77550000D02*
X132300000Y-77550000D01*
D30*
X134257411Y-82550000D02*
X134299186Y-82508225D01*
D33*
X134420000Y-83550000D02*
X134455000Y-83585000D01*
X133075000Y-83550000D02*
X134420000Y-83550000D01*
D30*
X133075000Y-82550000D02*
X134257411Y-82550000D01*
D32*
X115555000Y-84485000D02*
X115555000Y-83985000D01*
X115555000Y-83985000D02*
X115055000Y-83485000D01*
X115055000Y-83485000D02*
X114855000Y-83485000D01*
X114855000Y-83485000D02*
X114555000Y-83785000D01*
X126555000Y-69885000D02*
X125755000Y-69885000D01*
X125600000Y-69730000D02*
X125600000Y-68975000D01*
X125755000Y-69885000D02*
X125600000Y-69730000D01*
X114555000Y-84085000D02*
X114555000Y-83785000D01*
D27*
X116465000Y-80785000D02*
X115465000Y-80785000D01*
X115465000Y-80785000D02*
X114750000Y-81500000D01*
D29*
X121725000Y-80550000D02*
X120490000Y-80550000D01*
X120490000Y-80550000D02*
X120250000Y-80790000D01*
X120250000Y-80790000D02*
X120250000Y-81500000D01*
D30*
X113155000Y-78385000D02*
X113155000Y-77540000D01*
X113155000Y-77540000D02*
X112780000Y-77165000D01*
X113155000Y-84585000D02*
X113155000Y-85430000D01*
X113155000Y-85430000D02*
X112780000Y-85805000D01*
D32*
X148655000Y-95135000D02*
X150442500Y-95135000D01*
X150442500Y-95135000D02*
X150455000Y-95147500D01*
X144655000Y-95147500D02*
X146442500Y-95147500D01*
X146442500Y-95147500D02*
X146455000Y-95135000D01*
D30*
X113155000Y-82235000D02*
X112405000Y-82235000D01*
X112405000Y-82235000D02*
X112055000Y-81885000D01*
X112055000Y-81885000D02*
X112055000Y-81085000D01*
X112055000Y-81085000D02*
X112405000Y-80735000D01*
X112405000Y-80735000D02*
X113155000Y-80735000D01*
X111705000Y-82735000D02*
X111655000Y-82685000D01*
X113155000Y-82735000D02*
X111705000Y-82735000D01*
X112405000Y-79735000D02*
X111555000Y-80585000D01*
X113155000Y-79735000D02*
X112405000Y-79735000D01*
D32*
X108955000Y-82885000D02*
X108955000Y-85805000D01*
X108955000Y-80085000D02*
X108955000Y-77165000D01*
X108955000Y-82885000D02*
X108955000Y-80085000D01*
X113155000Y-83835000D02*
X114305000Y-83835000D01*
X114305000Y-83835000D02*
X114555000Y-84085000D01*
X113955000Y-86885000D02*
X111555000Y-86885000D01*
X114555000Y-84085000D02*
X114555000Y-86285000D01*
X114555000Y-86285000D02*
X113955000Y-86885000D01*
X110900000Y-87540000D02*
X110900000Y-88200000D01*
X111555000Y-86885000D02*
X110900000Y-87540000D01*
D30*
X113155000Y-82235000D02*
X114205000Y-82235000D01*
X114205000Y-82235000D02*
X114455000Y-82485000D01*
X114455000Y-82485000D02*
X114655000Y-82485000D01*
X113155000Y-81735000D02*
X114005000Y-81735000D01*
X114055000Y-81685000D02*
X114055000Y-81085000D01*
X113905000Y-81235000D02*
X114055000Y-81085000D01*
X114055000Y-81085000D02*
X114555000Y-80585000D01*
X114005000Y-81735000D02*
X114055000Y-81685000D01*
X113155000Y-81235000D02*
X113905000Y-81235000D01*
D29*
X114555000Y-80585000D02*
X114655000Y-80585000D01*
D26*
X138262886Y-82385000D02*
X134427886Y-78550000D01*
X140455000Y-82785000D02*
X138303661Y-82785000D01*
X140855000Y-83185000D02*
X138344436Y-83185000D01*
X134568661Y-79050000D02*
X133075000Y-79050000D01*
D30*
X134420000Y-80050000D02*
X134455000Y-80085000D01*
X133075000Y-80050000D02*
X134420000Y-80050000D01*
D26*
X138344436Y-83185000D02*
X134709436Y-79550000D01*
X138303661Y-82785000D02*
X134568661Y-79050000D01*
X134709436Y-79550000D02*
X133075000Y-79550000D01*
X141255000Y-81985000D02*
X140855000Y-82385000D01*
X140855000Y-82385000D02*
X138262886Y-82385000D01*
X141255000Y-82785000D02*
X140855000Y-83185000D01*
X134427886Y-78550000D02*
X133075000Y-78550000D01*
D30*
X125462500Y-90437500D02*
X125310000Y-90285000D01*
X125310000Y-90285000D02*
X123815000Y-90285000D01*
X123815000Y-90285000D02*
X123662500Y-90437500D01*
X116805000Y-77100000D02*
X117890000Y-78185000D01*
X117890000Y-78185000D02*
X119155000Y-78185000D01*
X119555000Y-77785000D02*
X119555000Y-77535000D01*
X119155000Y-78185000D02*
X119555000Y-77785000D01*
X119555000Y-77535000D02*
X120205000Y-76885000D01*
X120205000Y-76885000D02*
X120255000Y-76885000D01*
X121725000Y-77550000D02*
X120820000Y-77550000D01*
X120820000Y-77550000D02*
X120255000Y-76985000D01*
X120255000Y-76985000D02*
X120255000Y-76885000D01*
X111820000Y-74350000D02*
X111855000Y-74385000D01*
X110800000Y-74350000D02*
X111820000Y-74350000D01*
X114540000Y-71600000D02*
X114555000Y-71585000D01*
X113685000Y-71600000D02*
X114540000Y-71600000D01*
X109000000Y-73462500D02*
X109000000Y-71737500D01*
X109000000Y-71737500D02*
X108862500Y-71600000D01*
X114800000Y-73462500D02*
X116700000Y-73462500D01*
X112715000Y-71600000D02*
X110737500Y-71600000D01*
X113000000Y-73400000D02*
X113000000Y-72630000D01*
X113000000Y-72630000D02*
X112715000Y-72345000D01*
X112715000Y-72345000D02*
X112715000Y-71600000D01*
X113000000Y-74350000D02*
X116320000Y-74350000D01*
X116320000Y-74350000D02*
X116700000Y-74730000D01*
X116700000Y-74730000D02*
X116700000Y-75337500D01*
X113000000Y-75300000D02*
X114762500Y-75300000D01*
X114762500Y-75300000D02*
X114800000Y-75337500D01*
X113000000Y-73400000D02*
X114737500Y-73400000D01*
X114737500Y-73400000D02*
X114800000Y-73462500D01*
X110800000Y-75300000D02*
X109037500Y-75300000D01*
X109037500Y-75300000D02*
X109000000Y-75337500D01*
X110800000Y-73400000D02*
X109062500Y-73400000D01*
X109062500Y-73400000D02*
X109000000Y-73462500D01*
X118505000Y-79300000D02*
X119540000Y-79300000D01*
X119540000Y-79300000D02*
X120255000Y-78585000D01*
X120255000Y-78585000D02*
X120255000Y-78085000D01*
X116600000Y-79050000D02*
X116990000Y-79050000D01*
X121725000Y-78050000D02*
X120290000Y-78050000D01*
X120290000Y-78050000D02*
X120255000Y-78085000D01*
X127650000Y-73690000D02*
X127655000Y-73685000D01*
X127650000Y-75125000D02*
X127650000Y-73690000D01*
X123655000Y-75130000D02*
X123650000Y-75125000D01*
X121725000Y-83550000D02*
X122587232Y-83550000D01*
X122587232Y-83550000D02*
X122799850Y-83762618D01*
X121725000Y-81050000D02*
X122790000Y-81050000D01*
X122790000Y-81050000D02*
X122855000Y-80985000D01*
X122841287Y-78550000D02*
X122853914Y-78537373D01*
X121725000Y-78550000D02*
X122841287Y-78550000D01*
X160110000Y-72950000D02*
X160520000Y-72950000D01*
X160520000Y-72950000D02*
X160755000Y-73185000D01*
X160755000Y-73185000D02*
X160755000Y-75185000D01*
X159140000Y-72950000D02*
X158620000Y-72950000D01*
X158620000Y-72950000D02*
X157355000Y-71685000D01*
D26*
X154855000Y-84385000D02*
X154855000Y-84667842D01*
X154855000Y-84667842D02*
X153083831Y-86439011D01*
X153083831Y-86439011D02*
X151908087Y-86439011D01*
X151908087Y-86439011D02*
X151455000Y-86892098D01*
X151455000Y-86892098D02*
X151455000Y-89020000D01*
X151455000Y-89020000D02*
X150755000Y-89720000D01*
X140455000Y-81985000D02*
X138255000Y-81985000D01*
X134320000Y-78050000D02*
X133075000Y-78050000D01*
X138255000Y-81985000D02*
X134320000Y-78050000D01*
D35*
X161120000Y-81500000D02*
X164491192Y-81500000D01*
X164495596Y-81495596D02*
G75*
G03*
X164491192Y-81493772I-4405J-4406D01*
G01*
X159870000Y-80843772D02*
X159046903Y-80843772D01*
X159015952Y-80830951D02*
G75*
G03*
X159046903Y-80843772I30950J30946D01*
G01*
X159800000Y-82143772D02*
X155400000Y-82143772D01*
X158000000Y-80843772D02*
X156100000Y-80843772D01*
D31*
X154855000Y-81985000D02*
X155400000Y-82143772D01*
X155655000Y-81185000D02*
X156100000Y-80843772D01*
D26*
X155655000Y-81185000D02*
X155655000Y-81145000D01*
D31*
X152855000Y-80785000D02*
X153255000Y-80385000D01*
X142855000Y-81985000D02*
X142455000Y-81585000D01*
X154055000Y-79585000D02*
X153655000Y-79185000D01*
X154055000Y-77985000D02*
X154455000Y-78385000D01*
X153255000Y-78785000D02*
X153655000Y-79185000D01*
X151655000Y-81985000D02*
X151855001Y-82184999D01*
X151855001Y-82184999D02*
X152055000Y-82384998D01*
X150855000Y-80385000D02*
X150455000Y-80785000D01*
X150055000Y-80385000D02*
X149655000Y-80785000D01*
X154055000Y-80385000D02*
X154455000Y-79985000D01*
X154055000Y-78785000D02*
X154455000Y-79185000D01*
X149255000Y-83585000D02*
X148855000Y-83185000D01*
X150855000Y-74785000D02*
X151251351Y-74388649D01*
X150855000Y-75585000D02*
X151225900Y-75214100D01*
D27*
X110900000Y-89150000D02*
X111850000Y-89150000D01*
X111850000Y-89150000D02*
X111900000Y-89100000D01*
X114900000Y-90137500D02*
X114900000Y-91100000D01*
X109237500Y-90137500D02*
X110000000Y-90900000D01*
X109100000Y-90137500D02*
X109237500Y-90137500D01*
X113100000Y-88200000D02*
X114837500Y-88200000D01*
X114837500Y-88200000D02*
X114900000Y-88262500D01*
X109100000Y-88262500D02*
X110837500Y-88262500D01*
X110837500Y-88262500D02*
X110900000Y-88200000D01*
D32*
X125600000Y-71850000D02*
X125600000Y-70850000D01*
X124500000Y-69750000D02*
X124500000Y-70650000D01*
X124500000Y-70650000D02*
X124400000Y-70750000D01*
X124500000Y-69750000D02*
X125600000Y-70850000D01*
X124500000Y-69750000D02*
X123975000Y-69750000D01*
X123975000Y-69750000D02*
X123437500Y-69212500D01*
D30*
X124962500Y-64300000D02*
X128125000Y-64300000D01*
X123800000Y-65462500D02*
X124962500Y-64300000D01*
X128125000Y-64300000D02*
X129400000Y-65575000D01*
X125600000Y-65575000D02*
X125600000Y-64796910D01*
X121600000Y-65462500D02*
X122687500Y-65462500D01*
X122687500Y-65462500D02*
X122700000Y-65450000D01*
D32*
X124182500Y-71112500D02*
X124937500Y-71112500D01*
D30*
X127300000Y-66412500D02*
X127500000Y-66212500D01*
X123800000Y-66412500D02*
X127300000Y-66412500D01*
X127500000Y-66212500D02*
X127500000Y-65575000D01*
X125200000Y-68975000D02*
X125200000Y-67850000D01*
X125200000Y-67850000D02*
X125600000Y-67450000D01*
D32*
X127350000Y-68775000D02*
X127550000Y-68975000D01*
D30*
X129450000Y-68975000D02*
X127550000Y-68975000D01*
X127450000Y-68875000D02*
X127550000Y-68975000D01*
D28*
X121552500Y-71112500D02*
X121552500Y-69222500D01*
X121552500Y-69222500D02*
X121562500Y-69212500D01*
D32*
X124862500Y-68975000D02*
X123800000Y-67912500D01*
X123800000Y-67912500D02*
X123800000Y-67362500D01*
X125200000Y-68975000D02*
X124862500Y-68975000D01*
D30*
X125512500Y-67362500D02*
X125600000Y-67450000D01*
D32*
X123437500Y-69212500D02*
X123437500Y-71102500D01*
X123437500Y-71102500D02*
X123427500Y-71112500D01*
X123427500Y-71112500D02*
X124182500Y-71112500D01*
X124937500Y-71112500D02*
X125200000Y-70850000D01*
D30*
X125600000Y-67450000D02*
X127500000Y-67450000D01*
D32*
X121600000Y-67362500D02*
X120650000Y-67362500D01*
X120650000Y-67362500D02*
X119600000Y-66312500D01*
X119600000Y-66312500D02*
X117900000Y-66312500D01*
D28*
X117900000Y-71312500D02*
X121352500Y-71312500D01*
X121352500Y-71312500D02*
X121552500Y-71112500D01*
D31*
X154855000Y-79585000D02*
X155255000Y-79185000D01*
X153255000Y-76385000D02*
X153655000Y-75985000D01*
X154855000Y-75585000D02*
X155255000Y-75185000D01*
X154055000Y-75585000D02*
X154455000Y-75185000D01*
X153255000Y-75585000D02*
X153655000Y-75185000D01*
X154055000Y-74785000D02*
X154455000Y-74385000D01*
X153255000Y-74785000D02*
X153655000Y-74385000D01*
X153255000Y-73985000D02*
X153655000Y-73585000D01*
X154055000Y-73985000D02*
X154455000Y-73585000D01*
X154055000Y-73185000D02*
X154455000Y-72785000D01*
X154855000Y-73185000D02*
X155255000Y-72785000D01*
X154855000Y-72385000D02*
X155255000Y-71985000D01*
X154055000Y-72385000D02*
X154455000Y-71985000D01*
X154055000Y-69985000D02*
X154455000Y-69585000D01*
X141255000Y-73985000D02*
X141655000Y-73585000D01*
X146855000Y-83585000D02*
X147255000Y-83185000D01*
X141255000Y-79585000D02*
X141655000Y-79185000D01*
X145255000Y-81985000D02*
X145655000Y-81585000D01*
X149255000Y-72385000D02*
X149655000Y-71985000D01*
X150055000Y-73185000D02*
X150455000Y-72785000D01*
X149255000Y-73985000D02*
X149655000Y-73585000D01*
X150055000Y-73985000D02*
X150455000Y-73585000D01*
X150855000Y-73985000D02*
X151255000Y-73585000D01*
X150855000Y-76385000D02*
X151255000Y-75985000D01*
X149255000Y-75585000D02*
X149655000Y-75185000D01*
X148455000Y-75585000D02*
X148855000Y-75185000D01*
X149255000Y-76385000D02*
X149655000Y-75985000D01*
X148455000Y-76385000D02*
X148855000Y-75985000D01*
D28*
X121225000Y-97700000D02*
X121425000Y-97500000D01*
X117762500Y-97700000D02*
X121225000Y-97700000D01*
D32*
X120612500Y-93750000D02*
X121462500Y-93750000D01*
X119562500Y-92700000D02*
X120612500Y-93750000D01*
X117762500Y-92700000D02*
X119562500Y-92700000D01*
X124225000Y-97237500D02*
X125062500Y-97237500D01*
X123962500Y-97500000D02*
X124225000Y-97237500D01*
X123300000Y-97500000D02*
X123962500Y-97500000D01*
X123300000Y-97500000D02*
X123300000Y-95600000D01*
X125375000Y-93750000D02*
X125462500Y-93837500D01*
X123662500Y-93750000D02*
X123662500Y-94300000D01*
X124725000Y-95362500D02*
X125062500Y-95362500D01*
X123662500Y-94300000D02*
X124725000Y-95362500D01*
D30*
X125062500Y-94237500D02*
X125462500Y-93837500D01*
X125062500Y-95362500D02*
X125062500Y-94237500D01*
X125462500Y-93837500D02*
X127362500Y-93837500D01*
X123662500Y-92800000D02*
X127162500Y-92800000D01*
X127362500Y-92600000D02*
X127362500Y-91962500D01*
X127162500Y-92800000D02*
X127362500Y-92600000D01*
X121562500Y-90237500D02*
X123462500Y-90237500D01*
D32*
X123662500Y-90437500D02*
X123462500Y-90237500D01*
X123662500Y-91850000D02*
X123662500Y-90437500D01*
X122562500Y-94862500D02*
X123300000Y-95600000D01*
X122562500Y-93000000D02*
X122562500Y-94862500D01*
X122362500Y-92800000D02*
X122562500Y-93000000D01*
X121462500Y-92800000D02*
X122362500Y-92800000D01*
X122500000Y-66412500D02*
X121600000Y-66412500D01*
X122700000Y-66612500D02*
X122500000Y-66412500D01*
X122700000Y-68212500D02*
X122700000Y-66612500D01*
X123437500Y-69212500D02*
X123437500Y-68950000D01*
X123437500Y-68950000D02*
X122700000Y-68212500D01*
D31*
X146855000Y-77985000D02*
X146455000Y-78385000D01*
X147655000Y-77985000D02*
X147255000Y-78385000D01*
X148455000Y-77985000D02*
X148855000Y-78385000D01*
D26*
X149654998Y-78384998D02*
X149669375Y-78384998D01*
D31*
X149255000Y-77985000D02*
X149654998Y-78384998D01*
D26*
X146454998Y-77585002D02*
X146440623Y-77585002D01*
D31*
X146855000Y-77185000D02*
X146454998Y-77585002D01*
D26*
X147655000Y-77185000D02*
X147255000Y-77585000D01*
D31*
X146855000Y-75585000D02*
X146455000Y-75185000D01*
X147655000Y-75585000D02*
X147255000Y-75185000D01*
X146855000Y-76385000D02*
X146455000Y-75985000D01*
X147655000Y-76385000D02*
X147255000Y-75985000D01*
X148455000Y-77185000D02*
X148855000Y-77585000D01*
X149255000Y-77185000D02*
X149655000Y-77585000D01*
X145255000Y-77185000D02*
X144855000Y-77585000D01*
X145255000Y-79585000D02*
X144855000Y-79985000D01*
X145255000Y-80385000D02*
X144855000Y-80785000D01*
X144455000Y-79585000D02*
X144055000Y-79985000D01*
X144455000Y-78785000D02*
X144055000Y-79185000D01*
X145255000Y-78785000D02*
X144855000Y-79185000D01*
X145255000Y-77985000D02*
X144855000Y-78385000D01*
X145255000Y-76385000D02*
X144855000Y-75985000D01*
X145255000Y-75585000D02*
X144855000Y-75185000D01*
X144455000Y-74785000D02*
X144055000Y-74385000D01*
X145255000Y-74785000D02*
X144855000Y-74385000D01*
X145255000Y-73985000D02*
X144855000Y-73585000D01*
X145255000Y-73185000D02*
X144855000Y-72785000D01*
X146855000Y-79585000D02*
X146455000Y-79985000D01*
X147655000Y-80385000D02*
X147255000Y-80785000D01*
X147655000Y-79585000D02*
X147255000Y-79985000D01*
X149255000Y-79585000D02*
X149655000Y-79985000D01*
X150055000Y-79585000D02*
X150455000Y-79985000D01*
X150855000Y-78785000D02*
X151255000Y-79185000D01*
X146855000Y-73985000D02*
X146455000Y-73585000D01*
X147655000Y-73985000D02*
X147255000Y-73585000D01*
X147655000Y-73185000D02*
X147255000Y-72785000D01*
X145255000Y-71585000D02*
X144855000Y-71185000D01*
X146055000Y-69985000D02*
X145655000Y-69585000D01*
X146055000Y-76385000D02*
X145655000Y-75985000D01*
X150055000Y-76385000D02*
X150455000Y-75985000D01*
X146055000Y-77185000D02*
X145655000Y-77585000D01*
X148455000Y-78785000D02*
X148855000Y-79185000D01*
X147655000Y-78785000D02*
X147255000Y-79185000D01*
X148455000Y-74785000D02*
X148855000Y-74385000D01*
X147655000Y-74785000D02*
X147255000Y-74385000D01*
X152455000Y-79585000D02*
X152855000Y-79985000D01*
X152455000Y-80385000D02*
X152855000Y-80785000D01*
X152455000Y-77185000D02*
X152855000Y-77585000D01*
X150055000Y-75585000D02*
X150455000Y-75185000D01*
X150055000Y-74785000D02*
X150455000Y-74385000D01*
X149255000Y-74785000D02*
X149655000Y-74385000D01*
X146855000Y-74785000D02*
X146455000Y-74385000D01*
X146055000Y-74785000D02*
X145655000Y-74385000D01*
X146055000Y-75585000D02*
X145655000Y-75185000D01*
X146055000Y-77985000D02*
X145655000Y-78385000D01*
X146055000Y-78785000D02*
X145655000Y-79185000D01*
X146855000Y-78785000D02*
X146455000Y-79185000D01*
X150055000Y-77985000D02*
X150455000Y-78385000D01*
X149255000Y-78785000D02*
X149655000Y-79185000D01*
X150055000Y-78785000D02*
X150455000Y-79185000D01*
X150855000Y-77185000D02*
X151255000Y-77585000D01*
D26*
X151248403Y-79978403D02*
X151253351Y-79978403D01*
D31*
X150855000Y-79585000D02*
X151248403Y-79978403D01*
X150055000Y-77185000D02*
X150455000Y-77585000D01*
D26*
X150855000Y-77985000D02*
X151255000Y-77585000D01*
D30*
X159140000Y-71597500D02*
X159387500Y-71350000D01*
X159140000Y-72950000D02*
X159140000Y-71597500D01*
X161262500Y-71350000D02*
X162325000Y-71350000D01*
D31*
X150855000Y-73185000D02*
X151255000Y-72785000D01*
X144455000Y-73185000D02*
X144055000Y-72785000D01*
X144455000Y-80385000D02*
X144055000Y-80785000D01*
X153255000Y-79585000D02*
X153655000Y-79985000D01*
X153255000Y-77985000D02*
X153655000Y-78385000D01*
X153255000Y-77185000D02*
X153655000Y-77585000D01*
X154055000Y-76385000D02*
X154455000Y-75985000D01*
X154055000Y-77185000D02*
X154455000Y-77585000D01*
D30*
X149475000Y-90990000D02*
X149455000Y-90970000D01*
X150755000Y-90990000D02*
X149475000Y-90990000D01*
X149455000Y-90000000D02*
X149455000Y-89185000D01*
G04 #@! TA.AperFunction,Conductor*
G36*
X160631837Y-82007304D02*
G01*
X160763925Y-82095561D01*
X160763926Y-82095562D01*
X160919999Y-82126608D01*
X161320001Y-82126608D01*
X161476074Y-82095562D01*
X161476075Y-82095561D01*
X161478883Y-82093685D01*
X161533885Y-82077000D01*
X161960909Y-82077000D01*
X161980224Y-82078902D01*
X162000000Y-82082836D01*
X162001000Y-82082836D01*
X162001434Y-82082977D01*
X162004836Y-82083312D01*
X162004763Y-82084058D01*
X162059191Y-82101743D01*
X162100000Y-82181836D01*
X162100000Y-88260992D01*
X162081093Y-88319183D01*
X162031593Y-88355147D01*
X161970407Y-88355147D01*
X161930996Y-88330996D01*
X159149496Y-85549496D01*
X159120500Y-85479492D01*
X159120500Y-85409637D01*
X159120877Y-85401008D01*
X159125882Y-85343802D01*
X159111017Y-85288324D01*
X159109148Y-85279893D01*
X159099175Y-85223334D01*
X159095291Y-85216606D01*
X159085403Y-85192733D01*
X159083394Y-85185235D01*
X159050450Y-85138187D01*
X159045809Y-85130902D01*
X159017095Y-85081168D01*
X158973105Y-85044256D01*
X158966737Y-85038421D01*
X158412957Y-84484642D01*
X156818091Y-82889776D01*
X156790314Y-82835259D01*
X156799885Y-82774827D01*
X156843150Y-82731562D01*
X156888095Y-82720772D01*
X159446794Y-82720772D01*
X159501796Y-82737457D01*
X159513924Y-82745561D01*
X159513926Y-82745562D01*
X159669999Y-82776608D01*
X160070001Y-82776608D01*
X160226074Y-82745562D01*
X160226075Y-82745561D01*
X160358382Y-82657158D01*
X160358386Y-82657154D01*
X160446789Y-82524847D01*
X160446790Y-82524846D01*
X160477836Y-82368773D01*
X160477836Y-82089620D01*
X160496743Y-82031429D01*
X160546243Y-81995465D01*
X160631837Y-82007304D01*
G37*
G04 #@! TD.AperFunction*
G04 #@! TA.AperFunction,Conductor*
G36*
X160474455Y-81361874D02*
G01*
X160512164Y-81439620D01*
X160512164Y-81547924D01*
X160493257Y-81606115D01*
X160443757Y-81642079D01*
X160358163Y-81630240D01*
X160277118Y-81576088D01*
X160239238Y-81528038D01*
X160236836Y-81466900D01*
X160277118Y-81411456D01*
X160358163Y-81357304D01*
X160417051Y-81340696D01*
X160474455Y-81361874D01*
G37*
G04 #@! TD.AperFunction*
G04 #@! TA.AperFunction,Conductor*
G36*
X162059191Y-74518907D02*
G01*
X162100000Y-74599000D01*
X162100000Y-80818164D01*
X162081093Y-80876355D01*
X162004697Y-80915280D01*
X162004836Y-80916688D01*
X162001239Y-80917042D01*
X162001000Y-80917164D01*
X162000000Y-80917164D01*
X161980224Y-80921098D01*
X161960909Y-80923000D01*
X161552527Y-80923000D01*
X161497526Y-80906316D01*
X161476074Y-80891983D01*
X161476074Y-80891982D01*
X161320001Y-80860936D01*
X160919999Y-80860936D01*
X160763926Y-80891982D01*
X160763925Y-80891983D01*
X160631837Y-80980240D01*
X160572949Y-80996848D01*
X160515545Y-80975670D01*
X160477836Y-80897924D01*
X160477836Y-80618771D01*
X160446790Y-80462698D01*
X160446789Y-80462697D01*
X160358386Y-80330390D01*
X160358382Y-80330386D01*
X160226075Y-80241983D01*
X160226074Y-80241982D01*
X160070001Y-80210936D01*
X159669999Y-80210936D01*
X159580452Y-80228749D01*
X159519690Y-80221558D01*
X159488300Y-80198701D01*
X159476106Y-80185454D01*
X159476104Y-80185453D01*
X159313183Y-80097285D01*
X159313181Y-80097284D01*
X159176455Y-80074469D01*
X158777972Y-80074469D01*
X158701394Y-80084014D01*
X158701388Y-80084016D01*
X158534325Y-80157297D01*
X158447439Y-80153704D01*
X158343186Y-80097286D01*
X158343181Y-80097284D01*
X158206455Y-80074469D01*
X157807972Y-80074469D01*
X157731394Y-80084014D01*
X157731388Y-80084016D01*
X157561750Y-80158427D01*
X157561747Y-80158429D01*
X157472475Y-80240609D01*
X157405424Y-80266772D01*
X156962759Y-80266772D01*
X156904568Y-80247865D01*
X156868604Y-80198365D01*
X156868604Y-80137179D01*
X156885599Y-80084874D01*
X156885599Y-79885124D01*
X156823873Y-79695148D01*
X156738618Y-79577804D01*
X156719711Y-79519613D01*
X156748707Y-79449609D01*
X159537592Y-76660724D01*
X159577004Y-76636573D01*
X159766109Y-76575130D01*
X159927715Y-76457716D01*
X159927716Y-76457715D01*
X160045130Y-76296109D01*
X160106856Y-76106133D01*
X160106856Y-75934152D01*
X160135852Y-75864148D01*
X161471004Y-74528996D01*
X161541008Y-74500000D01*
X162001000Y-74500000D01*
X162059191Y-74518907D01*
G37*
G04 #@! TD.AperFunction*
M02*
