G04 #@! TF.GenerationSoftware,KiCad,Pcbnew,(5.99.0-2267-g4486b0b6d)*
G04 #@! TF.CreationDate,2020-07-12T23:07:06+02:00*
G04 #@! TF.ProjectId,TDR,5444522e-6b69-4636-9164-5f7063625858,A*
G04 #@! TF.SameCoordinates,Original*
G04 #@! TF.FileFunction,Copper,L4,Bot*
G04 #@! TF.FilePolarity,Positive*
%FSLAX46Y46*%
G04 Gerber Fmt 4.6, Leading zero omitted, Abs format (unit mm)*
G04 Created by KiCad (PCBNEW (5.99.0-2267-g4486b0b6d)) date 2020-07-12 23:07:06*
%MOMM*%
%LPD*%
G01*
G04 APERTURE LIST*
G04 #@! TA.AperFunction,SMDPad,CuDef*
%ADD10R,0.650000X1.060000*%
G04 #@! TD*
G04 #@! TA.AperFunction,ComponentPad*
%ADD11C,0.500000*%
G04 #@! TD*
G04 #@! TA.AperFunction,ComponentPad*
%ADD12O,2.100000X1.000000*%
G04 #@! TD*
G04 #@! TA.AperFunction,ComponentPad*
%ADD13O,2.300000X1.000000*%
G04 #@! TD*
G04 #@! TA.AperFunction,SMDPad,CuDef*
%ADD14R,1.290000X0.890000*%
G04 #@! TD*
G04 #@! TA.AperFunction,SMDPad,CuDef*
%ADD15R,1.060000X0.650000*%
G04 #@! TD*
G04 #@! TA.AperFunction,SMDPad,CuDef*
%ADD16R,2.600000X1.700000*%
G04 #@! TD*
G04 #@! TA.AperFunction,SMDPad,CuDef*
%ADD17R,0.450000X0.630000*%
G04 #@! TD*
G04 #@! TA.AperFunction,ViaPad*
%ADD18C,0.457200*%
G04 #@! TD*
G04 #@! TA.AperFunction,ViaPad*
%ADD19C,0.685800*%
G04 #@! TD*
G04 #@! TA.AperFunction,ViaPad*
%ADD20C,0.889000*%
G04 #@! TD*
G04 #@! TA.AperFunction,ViaPad*
%ADD21C,0.800000*%
G04 #@! TD*
G04 #@! TA.AperFunction,Conductor*
%ADD22C,0.300000*%
G04 #@! TD*
G04 #@! TA.AperFunction,Conductor*
%ADD23C,0.390000*%
G04 #@! TD*
G04 #@! TA.AperFunction,Conductor*
%ADD24C,0.254000*%
G04 #@! TD*
G04 #@! TA.AperFunction,Conductor*
%ADD25C,0.127000*%
G04 #@! TD*
G04 #@! TA.AperFunction,Conductor*
%ADD26C,0.508000*%
G04 #@! TD*
G04 #@! TA.AperFunction,Conductor*
%ADD27C,0.250000*%
G04 #@! TD*
G04 #@! TA.AperFunction,Conductor*
%ADD28C,0.762000*%
G04 #@! TD*
G04 #@! TA.AperFunction,Conductor*
%ADD29C,0.410000*%
G04 #@! TD*
G04 APERTURE END LIST*
D10*
X138805000Y-81785000D03*
X136905000Y-81785000D03*
X136905000Y-83985000D03*
X137855000Y-83985000D03*
X138805000Y-83985000D03*
G04 #@! TA.AperFunction,SMDPad,CuDef*
G36*
G01*
X137405000Y-79528750D02*
X137405000Y-80441250D01*
G75*
G02*
X137161250Y-80685000I-243750J0D01*
G01*
X136673750Y-80685000D01*
G75*
G02*
X136430000Y-80441250I0J243750D01*
G01*
X136430000Y-79528750D01*
G75*
G02*
X136673750Y-79285000I243750J0D01*
G01*
X137161250Y-79285000D01*
G75*
G02*
X137405000Y-79528750I0J-243750D01*
G01*
G37*
G04 #@! TD.AperFunction*
G04 #@! TA.AperFunction,SMDPad,CuDef*
G36*
G01*
X139280000Y-79528750D02*
X139280000Y-80441250D01*
G75*
G02*
X139036250Y-80685000I-243750J0D01*
G01*
X138548750Y-80685000D01*
G75*
G02*
X138305000Y-80441250I0J243750D01*
G01*
X138305000Y-79528750D01*
G75*
G02*
X138548750Y-79285000I243750J0D01*
G01*
X139036250Y-79285000D01*
G75*
G02*
X139280000Y-79528750I0J-243750D01*
G01*
G37*
G04 #@! TD.AperFunction*
G04 #@! TA.AperFunction,SMDPad,CuDef*
G36*
G01*
X137405000Y-85328750D02*
X137405000Y-86241250D01*
G75*
G02*
X137161250Y-86485000I-243750J0D01*
G01*
X136673750Y-86485000D01*
G75*
G02*
X136430000Y-86241250I0J243750D01*
G01*
X136430000Y-85328750D01*
G75*
G02*
X136673750Y-85085000I243750J0D01*
G01*
X137161250Y-85085000D01*
G75*
G02*
X137405000Y-85328750I0J-243750D01*
G01*
G37*
G04 #@! TD.AperFunction*
G04 #@! TA.AperFunction,SMDPad,CuDef*
G36*
G01*
X139280000Y-85328750D02*
X139280000Y-86241250D01*
G75*
G02*
X139036250Y-86485000I-243750J0D01*
G01*
X138548750Y-86485000D01*
G75*
G02*
X138305000Y-86241250I0J243750D01*
G01*
X138305000Y-85328750D01*
G75*
G02*
X138548750Y-85085000I243750J0D01*
G01*
X139036250Y-85085000D01*
G75*
G02*
X139280000Y-85328750I0J-243750D01*
G01*
G37*
G04 #@! TD.AperFunction*
G04 #@! TA.AperFunction,SMDPad,CuDef*
G36*
G01*
X146745000Y-72257500D02*
X146745000Y-71912500D01*
G75*
G02*
X146892500Y-71765000I147500J0D01*
G01*
X147187500Y-71765000D01*
G75*
G02*
X147335000Y-71912500I0J-147500D01*
G01*
X147335000Y-72257500D01*
G75*
G02*
X147187500Y-72405000I-147500J0D01*
G01*
X146892500Y-72405000D01*
G75*
G02*
X146745000Y-72257500I0J147500D01*
G01*
G37*
G04 #@! TD.AperFunction*
G04 #@! TA.AperFunction,SMDPad,CuDef*
G36*
G01*
X145775000Y-72257500D02*
X145775000Y-71912500D01*
G75*
G02*
X145922500Y-71765000I147500J0D01*
G01*
X146217500Y-71765000D01*
G75*
G02*
X146365000Y-71912500I0J-147500D01*
G01*
X146365000Y-72257500D01*
G75*
G02*
X146217500Y-72405000I-147500J0D01*
G01*
X145922500Y-72405000D01*
G75*
G02*
X145775000Y-72257500I0J147500D01*
G01*
G37*
G04 #@! TD.AperFunction*
D11*
X166600000Y-85000000D03*
X163000000Y-85000000D03*
X165250000Y-85000000D03*
X166000000Y-85000000D03*
X162250000Y-85000000D03*
X166600000Y-85750000D03*
X166000000Y-85750000D03*
X162250000Y-85750000D03*
X166600000Y-82750000D03*
X162250000Y-82750000D03*
X166000000Y-82750000D03*
X165250000Y-82750000D03*
X164500000Y-82750000D03*
X163750000Y-82750000D03*
X163000000Y-82750000D03*
X166600000Y-83500000D03*
X163000000Y-83500000D03*
X163750000Y-83500000D03*
X164500000Y-83500000D03*
X165250000Y-83500000D03*
X166000000Y-83500000D03*
X166600000Y-86500000D03*
X166000000Y-86500000D03*
X162250000Y-86500000D03*
X166600000Y-87250000D03*
X166000000Y-87250000D03*
X162250000Y-87250000D03*
X166600000Y-88000000D03*
X163000000Y-88000000D03*
X163750000Y-88000000D03*
X164500000Y-88000000D03*
X165250000Y-88000000D03*
X166000000Y-88000000D03*
X162250000Y-88000000D03*
X162250000Y-83500000D03*
X166600000Y-84250000D03*
X163000000Y-84250000D03*
X163750000Y-84250000D03*
X164500000Y-84250000D03*
X165250000Y-84250000D03*
X166000000Y-84250000D03*
X162250000Y-84250000D03*
X162250000Y-75000000D03*
X166000000Y-75000000D03*
X165250000Y-75000000D03*
X164500000Y-75000000D03*
X163750000Y-75000000D03*
X163000000Y-75000000D03*
X166600000Y-75000000D03*
X162250000Y-75750000D03*
X166000000Y-75750000D03*
X166600000Y-75750000D03*
X162250000Y-76500000D03*
X166000000Y-76500000D03*
X166600000Y-76500000D03*
X162250000Y-77250000D03*
X166000000Y-77250000D03*
X166600000Y-77250000D03*
X162250000Y-78000000D03*
X166000000Y-78000000D03*
X165250000Y-78000000D03*
X163000000Y-78000000D03*
X166600000Y-78000000D03*
X162250000Y-78750000D03*
X166000000Y-78750000D03*
X165250000Y-78750000D03*
X164500000Y-78750000D03*
X163750000Y-78750000D03*
X163000000Y-78750000D03*
X166600000Y-78750000D03*
X162250000Y-79500000D03*
X166000000Y-79500000D03*
X165250000Y-79500000D03*
X164500000Y-79500000D03*
X163750000Y-79500000D03*
X163000000Y-79500000D03*
X166600000Y-79500000D03*
X163000000Y-80250000D03*
X163750000Y-80250000D03*
X164500000Y-80250000D03*
X165250000Y-80250000D03*
X166000000Y-80250000D03*
X162250000Y-80250000D03*
X166600000Y-80250000D03*
G04 #@! TA.AperFunction,ComponentPad*
G36*
X166850000Y-82500001D02*
G01*
X166849999Y-88500000D01*
X162000000Y-88499999D01*
X162000001Y-82500000D01*
X166850000Y-82500001D01*
G37*
G04 #@! TD.AperFunction*
G04 #@! TA.AperFunction,ComponentPad*
G36*
X166850000Y-74500001D02*
G01*
X166849999Y-80500000D01*
X162000000Y-80499999D01*
X162000001Y-74500000D01*
X166850000Y-74500001D01*
G37*
G04 #@! TD.AperFunction*
G04 #@! TA.AperFunction,SMDPad,CuDef*
G36*
G01*
X157227500Y-66095000D02*
X156882500Y-66095000D01*
G75*
G02*
X156735000Y-65947500I0J147500D01*
G01*
X156735000Y-65652500D01*
G75*
G02*
X156882500Y-65505000I147500J0D01*
G01*
X157227500Y-65505000D01*
G75*
G02*
X157375000Y-65652500I0J-147500D01*
G01*
X157375000Y-65947500D01*
G75*
G02*
X157227500Y-66095000I-147500J0D01*
G01*
G37*
G04 #@! TD.AperFunction*
G04 #@! TA.AperFunction,SMDPad,CuDef*
G36*
G01*
X157227500Y-67065000D02*
X156882500Y-67065000D01*
G75*
G02*
X156735000Y-66917500I0J147500D01*
G01*
X156735000Y-66622500D01*
G75*
G02*
X156882500Y-66475000I147500J0D01*
G01*
X157227500Y-66475000D01*
G75*
G02*
X157375000Y-66622500I0J-147500D01*
G01*
X157375000Y-66917500D01*
G75*
G02*
X157227500Y-67065000I-147500J0D01*
G01*
G37*
G04 #@! TD.AperFunction*
G04 #@! TA.AperFunction,SMDPad,CuDef*
G36*
G01*
X151182500Y-81475000D02*
X151527500Y-81475000D01*
G75*
G02*
X151675000Y-81622500I0J-147500D01*
G01*
X151675000Y-81917500D01*
G75*
G02*
X151527500Y-82065000I-147500J0D01*
G01*
X151182500Y-82065000D01*
G75*
G02*
X151035000Y-81917500I0J147500D01*
G01*
X151035000Y-81622500D01*
G75*
G02*
X151182500Y-81475000I147500J0D01*
G01*
G37*
G04 #@! TD.AperFunction*
G04 #@! TA.AperFunction,SMDPad,CuDef*
G36*
G01*
X151182500Y-80505000D02*
X151527500Y-80505000D01*
G75*
G02*
X151675000Y-80652500I0J-147500D01*
G01*
X151675000Y-80947500D01*
G75*
G02*
X151527500Y-81095000I-147500J0D01*
G01*
X151182500Y-81095000D01*
G75*
G02*
X151035000Y-80947500I0J147500D01*
G01*
X151035000Y-80652500D01*
G75*
G02*
X151182500Y-80505000I147500J0D01*
G01*
G37*
G04 #@! TD.AperFunction*
G04 #@! TA.AperFunction,SMDPad,CuDef*
G36*
G01*
X146282500Y-82175000D02*
X146627500Y-82175000D01*
G75*
G02*
X146775000Y-82322500I0J-147500D01*
G01*
X146775000Y-82617500D01*
G75*
G02*
X146627500Y-82765000I-147500J0D01*
G01*
X146282500Y-82765000D01*
G75*
G02*
X146135000Y-82617500I0J147500D01*
G01*
X146135000Y-82322500D01*
G75*
G02*
X146282500Y-82175000I147500J0D01*
G01*
G37*
G04 #@! TD.AperFunction*
G04 #@! TA.AperFunction,SMDPad,CuDef*
G36*
G01*
X146282500Y-81205000D02*
X146627500Y-81205000D01*
G75*
G02*
X146775000Y-81352500I0J-147500D01*
G01*
X146775000Y-81647500D01*
G75*
G02*
X146627500Y-81795000I-147500J0D01*
G01*
X146282500Y-81795000D01*
G75*
G02*
X146135000Y-81647500I0J147500D01*
G01*
X146135000Y-81352500D01*
G75*
G02*
X146282500Y-81205000I147500J0D01*
G01*
G37*
G04 #@! TD.AperFunction*
G04 #@! TA.AperFunction,SMDPad,CuDef*
G36*
G01*
X153445000Y-76957500D02*
X153445000Y-76612500D01*
G75*
G02*
X153592500Y-76465000I147500J0D01*
G01*
X153887500Y-76465000D01*
G75*
G02*
X154035000Y-76612500I0J-147500D01*
G01*
X154035000Y-76957500D01*
G75*
G02*
X153887500Y-77105000I-147500J0D01*
G01*
X153592500Y-77105000D01*
G75*
G02*
X153445000Y-76957500I0J147500D01*
G01*
G37*
G04 #@! TD.AperFunction*
G04 #@! TA.AperFunction,SMDPad,CuDef*
G36*
G01*
X152475000Y-76957500D02*
X152475000Y-76612500D01*
G75*
G02*
X152622500Y-76465000I147500J0D01*
G01*
X152917500Y-76465000D01*
G75*
G02*
X153065000Y-76612500I0J-147500D01*
G01*
X153065000Y-76957500D01*
G75*
G02*
X152917500Y-77105000I-147500J0D01*
G01*
X152622500Y-77105000D01*
G75*
G02*
X152475000Y-76957500I0J147500D01*
G01*
G37*
G04 #@! TD.AperFunction*
D12*
X112780000Y-85805000D03*
X112780000Y-77165000D03*
D13*
X108955000Y-77165000D03*
X108955000Y-85805000D03*
D14*
X158500000Y-72950000D03*
X160750000Y-72950000D03*
X158500000Y-71680000D03*
X158500000Y-74220000D03*
X160750000Y-74220000D03*
X160750000Y-71680000D03*
G04 #@! TA.AperFunction,SMDPad,CuDef*
G36*
G01*
X149500000Y-67275000D02*
X149500000Y-67075000D01*
G75*
G02*
X149600000Y-66975000I100000J0D01*
G01*
X151025000Y-66975000D01*
G75*
G02*
X151125000Y-67075000I0J-100000D01*
G01*
X151125000Y-67275000D01*
G75*
G02*
X151025000Y-67375000I-100000J0D01*
G01*
X149600000Y-67375000D01*
G75*
G02*
X149500000Y-67275000I0J100000D01*
G01*
G37*
G04 #@! TD.AperFunction*
G04 #@! TA.AperFunction,SMDPad,CuDef*
G36*
G01*
X149500000Y-66625000D02*
X149500000Y-66425000D01*
G75*
G02*
X149600000Y-66325000I100000J0D01*
G01*
X151025000Y-66325000D01*
G75*
G02*
X151125000Y-66425000I0J-100000D01*
G01*
X151125000Y-66625000D01*
G75*
G02*
X151025000Y-66725000I-100000J0D01*
G01*
X149600000Y-66725000D01*
G75*
G02*
X149500000Y-66625000I0J100000D01*
G01*
G37*
G04 #@! TD.AperFunction*
G04 #@! TA.AperFunction,SMDPad,CuDef*
G36*
G01*
X149500000Y-65975000D02*
X149500000Y-65775000D01*
G75*
G02*
X149600000Y-65675000I100000J0D01*
G01*
X151025000Y-65675000D01*
G75*
G02*
X151125000Y-65775000I0J-100000D01*
G01*
X151125000Y-65975000D01*
G75*
G02*
X151025000Y-66075000I-100000J0D01*
G01*
X149600000Y-66075000D01*
G75*
G02*
X149500000Y-65975000I0J100000D01*
G01*
G37*
G04 #@! TD.AperFunction*
G04 #@! TA.AperFunction,SMDPad,CuDef*
G36*
G01*
X149500000Y-65325000D02*
X149500000Y-65125000D01*
G75*
G02*
X149600000Y-65025000I100000J0D01*
G01*
X151025000Y-65025000D01*
G75*
G02*
X151125000Y-65125000I0J-100000D01*
G01*
X151125000Y-65325000D01*
G75*
G02*
X151025000Y-65425000I-100000J0D01*
G01*
X149600000Y-65425000D01*
G75*
G02*
X149500000Y-65325000I0J100000D01*
G01*
G37*
G04 #@! TD.AperFunction*
G04 #@! TA.AperFunction,SMDPad,CuDef*
G36*
G01*
X145275000Y-65325000D02*
X145275000Y-65125000D01*
G75*
G02*
X145375000Y-65025000I100000J0D01*
G01*
X146800000Y-65025000D01*
G75*
G02*
X146900000Y-65125000I0J-100000D01*
G01*
X146900000Y-65325000D01*
G75*
G02*
X146800000Y-65425000I-100000J0D01*
G01*
X145375000Y-65425000D01*
G75*
G02*
X145275000Y-65325000I0J100000D01*
G01*
G37*
G04 #@! TD.AperFunction*
G04 #@! TA.AperFunction,SMDPad,CuDef*
G36*
G01*
X145275000Y-65975000D02*
X145275000Y-65775000D01*
G75*
G02*
X145375000Y-65675000I100000J0D01*
G01*
X146800000Y-65675000D01*
G75*
G02*
X146900000Y-65775000I0J-100000D01*
G01*
X146900000Y-65975000D01*
G75*
G02*
X146800000Y-66075000I-100000J0D01*
G01*
X145375000Y-66075000D01*
G75*
G02*
X145275000Y-65975000I0J100000D01*
G01*
G37*
G04 #@! TD.AperFunction*
G04 #@! TA.AperFunction,SMDPad,CuDef*
G36*
G01*
X145275000Y-66625000D02*
X145275000Y-66425000D01*
G75*
G02*
X145375000Y-66325000I100000J0D01*
G01*
X146800000Y-66325000D01*
G75*
G02*
X146900000Y-66425000I0J-100000D01*
G01*
X146900000Y-66625000D01*
G75*
G02*
X146800000Y-66725000I-100000J0D01*
G01*
X145375000Y-66725000D01*
G75*
G02*
X145275000Y-66625000I0J100000D01*
G01*
G37*
G04 #@! TD.AperFunction*
G04 #@! TA.AperFunction,SMDPad,CuDef*
G36*
G01*
X145275000Y-67275000D02*
X145275000Y-67075000D01*
G75*
G02*
X145375000Y-66975000I100000J0D01*
G01*
X146800000Y-66975000D01*
G75*
G02*
X146900000Y-67075000I0J-100000D01*
G01*
X146900000Y-67275000D01*
G75*
G02*
X146800000Y-67375000I-100000J0D01*
G01*
X145375000Y-67375000D01*
G75*
G02*
X145275000Y-67275000I0J100000D01*
G01*
G37*
G04 #@! TD.AperFunction*
D15*
X155600000Y-67150000D03*
X155600000Y-65250000D03*
X153400000Y-65250000D03*
X153400000Y-66200000D03*
X153400000Y-67150000D03*
G04 #@! TA.AperFunction,SMDPad,CuDef*
G36*
G01*
X138500000Y-78450001D02*
X138500000Y-77149999D01*
G75*
G02*
X138749999Y-76900000I249999J0D01*
G01*
X139650001Y-76900000D01*
G75*
G02*
X139900000Y-77149999I0J-249999D01*
G01*
X139900000Y-78450001D01*
G75*
G02*
X139650001Y-78700000I-249999J0D01*
G01*
X138749999Y-78700000D01*
G75*
G02*
X138500000Y-78450001I0J249999D01*
G01*
G37*
G04 #@! TD.AperFunction*
G04 #@! TA.AperFunction,SMDPad,CuDef*
G36*
G01*
X134500000Y-78450001D02*
X134500000Y-77149999D01*
G75*
G02*
X134749999Y-76900000I249999J0D01*
G01*
X135650001Y-76900000D01*
G75*
G02*
X135900000Y-77149999I0J-249999D01*
G01*
X135900000Y-78450001D01*
G75*
G02*
X135650001Y-78700000I-249999J0D01*
G01*
X134749999Y-78700000D01*
G75*
G02*
X134500000Y-78450001I0J249999D01*
G01*
G37*
G04 #@! TD.AperFunction*
G04 #@! TA.AperFunction,SMDPad,CuDef*
G36*
G01*
X132865000Y-79912500D02*
X132865000Y-80257500D01*
G75*
G02*
X132717500Y-80405000I-147500J0D01*
G01*
X132422500Y-80405000D01*
G75*
G02*
X132275000Y-80257500I0J147500D01*
G01*
X132275000Y-79912500D01*
G75*
G02*
X132422500Y-79765000I147500J0D01*
G01*
X132717500Y-79765000D01*
G75*
G02*
X132865000Y-79912500I0J-147500D01*
G01*
G37*
G04 #@! TD.AperFunction*
G04 #@! TA.AperFunction,SMDPad,CuDef*
G36*
G01*
X133835000Y-79912500D02*
X133835000Y-80257500D01*
G75*
G02*
X133687500Y-80405000I-147500J0D01*
G01*
X133392500Y-80405000D01*
G75*
G02*
X133245000Y-80257500I0J147500D01*
G01*
X133245000Y-79912500D01*
G75*
G02*
X133392500Y-79765000I147500J0D01*
G01*
X133687500Y-79765000D01*
G75*
G02*
X133835000Y-79912500I0J-147500D01*
G01*
G37*
G04 #@! TD.AperFunction*
G04 #@! TA.AperFunction,SMDPad,CuDef*
G36*
G01*
X126645000Y-85657500D02*
X126645000Y-85312500D01*
G75*
G02*
X126792500Y-85165000I147500J0D01*
G01*
X127087500Y-85165000D01*
G75*
G02*
X127235000Y-85312500I0J-147500D01*
G01*
X127235000Y-85657500D01*
G75*
G02*
X127087500Y-85805000I-147500J0D01*
G01*
X126792500Y-85805000D01*
G75*
G02*
X126645000Y-85657500I0J147500D01*
G01*
G37*
G04 #@! TD.AperFunction*
G04 #@! TA.AperFunction,SMDPad,CuDef*
G36*
G01*
X125675000Y-85657500D02*
X125675000Y-85312500D01*
G75*
G02*
X125822500Y-85165000I147500J0D01*
G01*
X126117500Y-85165000D01*
G75*
G02*
X126265000Y-85312500I0J-147500D01*
G01*
X126265000Y-85657500D01*
G75*
G02*
X126117500Y-85805000I-147500J0D01*
G01*
X125822500Y-85805000D01*
G75*
G02*
X125675000Y-85657500I0J147500D01*
G01*
G37*
G04 #@! TD.AperFunction*
G04 #@! TA.AperFunction,SMDPad,CuDef*
G36*
G01*
X127482500Y-75275000D02*
X127827500Y-75275000D01*
G75*
G02*
X127975000Y-75422500I0J-147500D01*
G01*
X127975000Y-75717500D01*
G75*
G02*
X127827500Y-75865000I-147500J0D01*
G01*
X127482500Y-75865000D01*
G75*
G02*
X127335000Y-75717500I0J147500D01*
G01*
X127335000Y-75422500D01*
G75*
G02*
X127482500Y-75275000I147500J0D01*
G01*
G37*
G04 #@! TD.AperFunction*
G04 #@! TA.AperFunction,SMDPad,CuDef*
G36*
G01*
X127482500Y-74305000D02*
X127827500Y-74305000D01*
G75*
G02*
X127975000Y-74452500I0J-147500D01*
G01*
X127975000Y-74747500D01*
G75*
G02*
X127827500Y-74895000I-147500J0D01*
G01*
X127482500Y-74895000D01*
G75*
G02*
X127335000Y-74747500I0J147500D01*
G01*
X127335000Y-74452500D01*
G75*
G02*
X127482500Y-74305000I147500J0D01*
G01*
G37*
G04 #@! TD.AperFunction*
G04 #@! TA.AperFunction,SMDPad,CuDef*
G36*
G01*
X130827500Y-86295000D02*
X130482500Y-86295000D01*
G75*
G02*
X130335000Y-86147500I0J147500D01*
G01*
X130335000Y-85852500D01*
G75*
G02*
X130482500Y-85705000I147500J0D01*
G01*
X130827500Y-85705000D01*
G75*
G02*
X130975000Y-85852500I0J-147500D01*
G01*
X130975000Y-86147500D01*
G75*
G02*
X130827500Y-86295000I-147500J0D01*
G01*
G37*
G04 #@! TD.AperFunction*
G04 #@! TA.AperFunction,SMDPad,CuDef*
G36*
G01*
X130827500Y-87265000D02*
X130482500Y-87265000D01*
G75*
G02*
X130335000Y-87117500I0J147500D01*
G01*
X130335000Y-86822500D01*
G75*
G02*
X130482500Y-86675000I147500J0D01*
G01*
X130827500Y-86675000D01*
G75*
G02*
X130975000Y-86822500I0J-147500D01*
G01*
X130975000Y-87117500D01*
G75*
G02*
X130827500Y-87265000I-147500J0D01*
G01*
G37*
G04 #@! TD.AperFunction*
G04 #@! TA.AperFunction,SMDPad,CuDef*
G36*
G01*
X124090000Y-82672500D02*
X124090000Y-82327500D01*
G75*
G02*
X124237500Y-82180000I147500J0D01*
G01*
X124532500Y-82180000D01*
G75*
G02*
X124680000Y-82327500I0J-147500D01*
G01*
X124680000Y-82672500D01*
G75*
G02*
X124532500Y-82820000I-147500J0D01*
G01*
X124237500Y-82820000D01*
G75*
G02*
X124090000Y-82672500I0J147500D01*
G01*
G37*
G04 #@! TD.AperFunction*
G04 #@! TA.AperFunction,SMDPad,CuDef*
G36*
G01*
X123120000Y-82672500D02*
X123120000Y-82327500D01*
G75*
G02*
X123267500Y-82180000I147500J0D01*
G01*
X123562500Y-82180000D01*
G75*
G02*
X123710000Y-82327500I0J-147500D01*
G01*
X123710000Y-82672500D01*
G75*
G02*
X123562500Y-82820000I-147500J0D01*
G01*
X123267500Y-82820000D01*
G75*
G02*
X123120000Y-82672500I0J147500D01*
G01*
G37*
G04 #@! TD.AperFunction*
G04 #@! TA.AperFunction,SMDPad,CuDef*
G36*
G01*
X123482500Y-75275000D02*
X123827500Y-75275000D01*
G75*
G02*
X123975000Y-75422500I0J-147500D01*
G01*
X123975000Y-75717500D01*
G75*
G02*
X123827500Y-75865000I-147500J0D01*
G01*
X123482500Y-75865000D01*
G75*
G02*
X123335000Y-75717500I0J147500D01*
G01*
X123335000Y-75422500D01*
G75*
G02*
X123482500Y-75275000I147500J0D01*
G01*
G37*
G04 #@! TD.AperFunction*
G04 #@! TA.AperFunction,SMDPad,CuDef*
G36*
G01*
X123482500Y-74305000D02*
X123827500Y-74305000D01*
G75*
G02*
X123975000Y-74452500I0J-147500D01*
G01*
X123975000Y-74747500D01*
G75*
G02*
X123827500Y-74895000I-147500J0D01*
G01*
X123482500Y-74895000D01*
G75*
G02*
X123335000Y-74747500I0J147500D01*
G01*
X123335000Y-74452500D01*
G75*
G02*
X123482500Y-74305000I147500J0D01*
G01*
G37*
G04 #@! TD.AperFunction*
G04 #@! TA.AperFunction,SMDPad,CuDef*
G36*
G01*
X132865000Y-82412500D02*
X132865000Y-82757500D01*
G75*
G02*
X132717500Y-82905000I-147500J0D01*
G01*
X132422500Y-82905000D01*
G75*
G02*
X132275000Y-82757500I0J147500D01*
G01*
X132275000Y-82412500D01*
G75*
G02*
X132422500Y-82265000I147500J0D01*
G01*
X132717500Y-82265000D01*
G75*
G02*
X132865000Y-82412500I0J-147500D01*
G01*
G37*
G04 #@! TD.AperFunction*
G04 #@! TA.AperFunction,SMDPad,CuDef*
G36*
G01*
X133835000Y-82412500D02*
X133835000Y-82757500D01*
G75*
G02*
X133687500Y-82905000I-147500J0D01*
G01*
X133392500Y-82905000D01*
G75*
G02*
X133245000Y-82757500I0J147500D01*
G01*
X133245000Y-82412500D01*
G75*
G02*
X133392500Y-82265000I147500J0D01*
G01*
X133687500Y-82265000D01*
G75*
G02*
X133835000Y-82412500I0J-147500D01*
G01*
G37*
G04 #@! TD.AperFunction*
G04 #@! TA.AperFunction,SMDPad,CuDef*
G36*
G01*
X124090000Y-81172500D02*
X124090000Y-80827500D01*
G75*
G02*
X124237500Y-80680000I147500J0D01*
G01*
X124532500Y-80680000D01*
G75*
G02*
X124680000Y-80827500I0J-147500D01*
G01*
X124680000Y-81172500D01*
G75*
G02*
X124532500Y-81320000I-147500J0D01*
G01*
X124237500Y-81320000D01*
G75*
G02*
X124090000Y-81172500I0J147500D01*
G01*
G37*
G04 #@! TD.AperFunction*
G04 #@! TA.AperFunction,SMDPad,CuDef*
G36*
G01*
X123120000Y-81172500D02*
X123120000Y-80827500D01*
G75*
G02*
X123267500Y-80680000I147500J0D01*
G01*
X123562500Y-80680000D01*
G75*
G02*
X123710000Y-80827500I0J-147500D01*
G01*
X123710000Y-81172500D01*
G75*
G02*
X123562500Y-81320000I-147500J0D01*
G01*
X123267500Y-81320000D01*
G75*
G02*
X123120000Y-81172500I0J147500D01*
G01*
G37*
G04 #@! TD.AperFunction*
G04 #@! TA.AperFunction,SMDPad,CuDef*
G36*
G01*
X124145000Y-78700665D02*
X124145000Y-78355665D01*
G75*
G02*
X124292500Y-78208165I147500J0D01*
G01*
X124587500Y-78208165D01*
G75*
G02*
X124735000Y-78355665I0J-147500D01*
G01*
X124735000Y-78700665D01*
G75*
G02*
X124587500Y-78848165I-147500J0D01*
G01*
X124292500Y-78848165D01*
G75*
G02*
X124145000Y-78700665I0J147500D01*
G01*
G37*
G04 #@! TD.AperFunction*
G04 #@! TA.AperFunction,SMDPad,CuDef*
G36*
G01*
X123175000Y-78700665D02*
X123175000Y-78355665D01*
G75*
G02*
X123322500Y-78208165I147500J0D01*
G01*
X123617500Y-78208165D01*
G75*
G02*
X123765000Y-78355665I0J-147500D01*
G01*
X123765000Y-78700665D01*
G75*
G02*
X123617500Y-78848165I-147500J0D01*
G01*
X123322500Y-78848165D01*
G75*
G02*
X123175000Y-78700665I0J147500D01*
G01*
G37*
G04 #@! TD.AperFunction*
G04 #@! TA.AperFunction,SMDPad,CuDef*
G36*
G01*
X130483274Y-78775610D02*
X131395774Y-78775610D01*
G75*
G02*
X131639524Y-79019360I0J-243750D01*
G01*
X131639524Y-79506860D01*
G75*
G02*
X131395774Y-79750610I-243750J0D01*
G01*
X130483274Y-79750610D01*
G75*
G02*
X130239524Y-79506860I0J243750D01*
G01*
X130239524Y-79019360D01*
G75*
G02*
X130483274Y-78775610I243750J0D01*
G01*
G37*
G04 #@! TD.AperFunction*
G04 #@! TA.AperFunction,SMDPad,CuDef*
G36*
G01*
X130483274Y-76900610D02*
X131395774Y-76900610D01*
G75*
G02*
X131639524Y-77144360I0J-243750D01*
G01*
X131639524Y-77631860D01*
G75*
G02*
X131395774Y-77875610I-243750J0D01*
G01*
X130483274Y-77875610D01*
G75*
G02*
X130239524Y-77631860I0J243750D01*
G01*
X130239524Y-77144360D01*
G75*
G02*
X130483274Y-76900610I243750J0D01*
G01*
G37*
G04 #@! TD.AperFunction*
G04 #@! TA.AperFunction,SMDPad,CuDef*
G36*
G01*
X127950000Y-78356250D02*
X127950000Y-77443750D01*
G75*
G02*
X128193750Y-77200000I243750J0D01*
G01*
X128681250Y-77200000D01*
G75*
G02*
X128925000Y-77443750I0J-243750D01*
G01*
X128925000Y-78356250D01*
G75*
G02*
X128681250Y-78600000I-243750J0D01*
G01*
X128193750Y-78600000D01*
G75*
G02*
X127950000Y-78356250I0J243750D01*
G01*
G37*
G04 #@! TD.AperFunction*
G04 #@! TA.AperFunction,SMDPad,CuDef*
G36*
G01*
X126075000Y-78356250D02*
X126075000Y-77443750D01*
G75*
G02*
X126318750Y-77200000I243750J0D01*
G01*
X126806250Y-77200000D01*
G75*
G02*
X127050000Y-77443750I0J-243750D01*
G01*
X127050000Y-78356250D01*
G75*
G02*
X126806250Y-78600000I-243750J0D01*
G01*
X126318750Y-78600000D01*
G75*
G02*
X126075000Y-78356250I0J243750D01*
G01*
G37*
G04 #@! TD.AperFunction*
G04 #@! TA.AperFunction,SMDPad,CuDef*
G36*
G01*
X127950000Y-82156250D02*
X127950000Y-81243750D01*
G75*
G02*
X128193750Y-81000000I243750J0D01*
G01*
X128681250Y-81000000D01*
G75*
G02*
X128925000Y-81243750I0J-243750D01*
G01*
X128925000Y-82156250D01*
G75*
G02*
X128681250Y-82400000I-243750J0D01*
G01*
X128193750Y-82400000D01*
G75*
G02*
X127950000Y-82156250I0J243750D01*
G01*
G37*
G04 #@! TD.AperFunction*
G04 #@! TA.AperFunction,SMDPad,CuDef*
G36*
G01*
X126075000Y-82156250D02*
X126075000Y-81243750D01*
G75*
G02*
X126318750Y-81000000I243750J0D01*
G01*
X126806250Y-81000000D01*
G75*
G02*
X127050000Y-81243750I0J-243750D01*
G01*
X127050000Y-82156250D01*
G75*
G02*
X126806250Y-82400000I-243750J0D01*
G01*
X126318750Y-82400000D01*
G75*
G02*
X126075000Y-82156250I0J243750D01*
G01*
G37*
G04 #@! TD.AperFunction*
G04 #@! TA.AperFunction,SMDPad,CuDef*
G36*
G01*
X124050000Y-83543750D02*
X124050000Y-84456250D01*
G75*
G02*
X123806250Y-84700000I-243750J0D01*
G01*
X123318750Y-84700000D01*
G75*
G02*
X123075000Y-84456250I0J243750D01*
G01*
X123075000Y-83543750D01*
G75*
G02*
X123318750Y-83300000I243750J0D01*
G01*
X123806250Y-83300000D01*
G75*
G02*
X124050000Y-83543750I0J-243750D01*
G01*
G37*
G04 #@! TD.AperFunction*
G04 #@! TA.AperFunction,SMDPad,CuDef*
G36*
G01*
X125925000Y-83543750D02*
X125925000Y-84456250D01*
G75*
G02*
X125681250Y-84700000I-243750J0D01*
G01*
X125193750Y-84700000D01*
G75*
G02*
X124950000Y-84456250I0J243750D01*
G01*
X124950000Y-83543750D01*
G75*
G02*
X125193750Y-83300000I243750J0D01*
G01*
X125681250Y-83300000D01*
G75*
G02*
X125925000Y-83543750I0J-243750D01*
G01*
G37*
G04 #@! TD.AperFunction*
G04 #@! TA.AperFunction,SMDPad,CuDef*
G36*
G01*
X127050000Y-79343750D02*
X127050000Y-80256250D01*
G75*
G02*
X126806250Y-80500000I-243750J0D01*
G01*
X126318750Y-80500000D01*
G75*
G02*
X126075000Y-80256250I0J243750D01*
G01*
X126075000Y-79343750D01*
G75*
G02*
X126318750Y-79100000I243750J0D01*
G01*
X126806250Y-79100000D01*
G75*
G02*
X127050000Y-79343750I0J-243750D01*
G01*
G37*
G04 #@! TD.AperFunction*
G04 #@! TA.AperFunction,SMDPad,CuDef*
G36*
G01*
X128925000Y-79343750D02*
X128925000Y-80256250D01*
G75*
G02*
X128681250Y-80500000I-243750J0D01*
G01*
X128193750Y-80500000D01*
G75*
G02*
X127950000Y-80256250I0J243750D01*
G01*
X127950000Y-79343750D01*
G75*
G02*
X128193750Y-79100000I243750J0D01*
G01*
X128681250Y-79100000D01*
G75*
G02*
X128925000Y-79343750I0J-243750D01*
G01*
G37*
G04 #@! TD.AperFunction*
G04 #@! TA.AperFunction,SMDPad,CuDef*
G36*
G01*
X118750000Y-78856250D02*
X118750000Y-77943750D01*
G75*
G02*
X118993750Y-77700000I243750J0D01*
G01*
X119481250Y-77700000D01*
G75*
G02*
X119725000Y-77943750I0J-243750D01*
G01*
X119725000Y-78856250D01*
G75*
G02*
X119481250Y-79100000I-243750J0D01*
G01*
X118993750Y-79100000D01*
G75*
G02*
X118750000Y-78856250I0J243750D01*
G01*
G37*
G04 #@! TD.AperFunction*
G04 #@! TA.AperFunction,SMDPad,CuDef*
G36*
G01*
X116875000Y-78856250D02*
X116875000Y-77943750D01*
G75*
G02*
X117118750Y-77700000I243750J0D01*
G01*
X117606250Y-77700000D01*
G75*
G02*
X117850000Y-77943750I0J-243750D01*
G01*
X117850000Y-78856250D01*
G75*
G02*
X117606250Y-79100000I-243750J0D01*
G01*
X117118750Y-79100000D01*
G75*
G02*
X116875000Y-78856250I0J243750D01*
G01*
G37*
G04 #@! TD.AperFunction*
G04 #@! TA.AperFunction,SMDPad,CuDef*
G36*
G01*
X118750000Y-76956250D02*
X118750000Y-76043750D01*
G75*
G02*
X118993750Y-75800000I243750J0D01*
G01*
X119481250Y-75800000D01*
G75*
G02*
X119725000Y-76043750I0J-243750D01*
G01*
X119725000Y-76956250D01*
G75*
G02*
X119481250Y-77200000I-243750J0D01*
G01*
X118993750Y-77200000D01*
G75*
G02*
X118750000Y-76956250I0J243750D01*
G01*
G37*
G04 #@! TD.AperFunction*
G04 #@! TA.AperFunction,SMDPad,CuDef*
G36*
G01*
X116875000Y-76956250D02*
X116875000Y-76043750D01*
G75*
G02*
X117118750Y-75800000I243750J0D01*
G01*
X117606250Y-75800000D01*
G75*
G02*
X117850000Y-76043750I0J-243750D01*
G01*
X117850000Y-76956250D01*
G75*
G02*
X117606250Y-77200000I-243750J0D01*
G01*
X117118750Y-77200000D01*
G75*
G02*
X116875000Y-76956250I0J243750D01*
G01*
G37*
G04 #@! TD.AperFunction*
G04 #@! TA.AperFunction,SMDPad,CuDef*
G36*
G01*
X152682500Y-82075000D02*
X153027500Y-82075000D01*
G75*
G02*
X153175000Y-82222500I0J-147500D01*
G01*
X153175000Y-82517500D01*
G75*
G02*
X153027500Y-82665000I-147500J0D01*
G01*
X152682500Y-82665000D01*
G75*
G02*
X152535000Y-82517500I0J147500D01*
G01*
X152535000Y-82222500D01*
G75*
G02*
X152682500Y-82075000I147500J0D01*
G01*
G37*
G04 #@! TD.AperFunction*
G04 #@! TA.AperFunction,SMDPad,CuDef*
G36*
G01*
X152682500Y-81105000D02*
X153027500Y-81105000D01*
G75*
G02*
X153175000Y-81252500I0J-147500D01*
G01*
X153175000Y-81547500D01*
G75*
G02*
X153027500Y-81695000I-147500J0D01*
G01*
X152682500Y-81695000D01*
G75*
G02*
X152535000Y-81547500I0J147500D01*
G01*
X152535000Y-81252500D01*
G75*
G02*
X152682500Y-81105000I147500J0D01*
G01*
G37*
G04 #@! TD.AperFunction*
D16*
X130100000Y-92337500D03*
D17*
X129150000Y-93677500D03*
X130100000Y-93677500D03*
X131050000Y-93677500D03*
X131050000Y-90997500D03*
X130100000Y-90997500D03*
X129150000Y-90997500D03*
D16*
X131900000Y-67300000D03*
D17*
X130950000Y-68640000D03*
X131900000Y-68640000D03*
X132850000Y-68640000D03*
X132850000Y-65960000D03*
X131900000Y-65960000D03*
X130950000Y-65960000D03*
G04 #@! TA.AperFunction,SMDPad,CuDef*
G36*
G01*
X132443750Y-96387500D02*
X133356250Y-96387500D01*
G75*
G02*
X133600000Y-96631250I0J-243750D01*
G01*
X133600000Y-97118750D01*
G75*
G02*
X133356250Y-97362500I-243750J0D01*
G01*
X132443750Y-97362500D01*
G75*
G02*
X132200000Y-97118750I0J243750D01*
G01*
X132200000Y-96631250D01*
G75*
G02*
X132443750Y-96387500I243750J0D01*
G01*
G37*
G04 #@! TD.AperFunction*
G04 #@! TA.AperFunction,SMDPad,CuDef*
G36*
G01*
X132443750Y-94512500D02*
X133356250Y-94512500D01*
G75*
G02*
X133600000Y-94756250I0J-243750D01*
G01*
X133600000Y-95243750D01*
G75*
G02*
X133356250Y-95487500I-243750J0D01*
G01*
X132443750Y-95487500D01*
G75*
G02*
X132200000Y-95243750I0J243750D01*
G01*
X132200000Y-94756250D01*
G75*
G02*
X132443750Y-94512500I243750J0D01*
G01*
G37*
G04 #@! TD.AperFunction*
G04 #@! TA.AperFunction,SMDPad,CuDef*
G36*
G01*
X131456250Y-95487500D02*
X130543750Y-95487500D01*
G75*
G02*
X130300000Y-95243750I0J243750D01*
G01*
X130300000Y-94756250D01*
G75*
G02*
X130543750Y-94512500I243750J0D01*
G01*
X131456250Y-94512500D01*
G75*
G02*
X131700000Y-94756250I0J-243750D01*
G01*
X131700000Y-95243750D01*
G75*
G02*
X131456250Y-95487500I-243750J0D01*
G01*
G37*
G04 #@! TD.AperFunction*
G04 #@! TA.AperFunction,SMDPad,CuDef*
G36*
G01*
X131456250Y-97362500D02*
X130543750Y-97362500D01*
G75*
G02*
X130300000Y-97118750I0J243750D01*
G01*
X130300000Y-96631250D01*
G75*
G02*
X130543750Y-96387500I243750J0D01*
G01*
X131456250Y-96387500D01*
G75*
G02*
X131700000Y-96631250I0J-243750D01*
G01*
X131700000Y-97118750D01*
G75*
G02*
X131456250Y-97362500I-243750J0D01*
G01*
G37*
G04 #@! TD.AperFunction*
G04 #@! TA.AperFunction,SMDPad,CuDef*
G36*
G01*
X134243750Y-71350000D02*
X135156250Y-71350000D01*
G75*
G02*
X135400000Y-71593750I0J-243750D01*
G01*
X135400000Y-72081250D01*
G75*
G02*
X135156250Y-72325000I-243750J0D01*
G01*
X134243750Y-72325000D01*
G75*
G02*
X134000000Y-72081250I0J243750D01*
G01*
X134000000Y-71593750D01*
G75*
G02*
X134243750Y-71350000I243750J0D01*
G01*
G37*
G04 #@! TD.AperFunction*
G04 #@! TA.AperFunction,SMDPad,CuDef*
G36*
G01*
X134243750Y-69475000D02*
X135156250Y-69475000D01*
G75*
G02*
X135400000Y-69718750I0J-243750D01*
G01*
X135400000Y-70206250D01*
G75*
G02*
X135156250Y-70450000I-243750J0D01*
G01*
X134243750Y-70450000D01*
G75*
G02*
X134000000Y-70206250I0J243750D01*
G01*
X134000000Y-69718750D01*
G75*
G02*
X134243750Y-69475000I243750J0D01*
G01*
G37*
G04 #@! TD.AperFunction*
G04 #@! TA.AperFunction,SMDPad,CuDef*
G36*
G01*
X133256250Y-70450000D02*
X132343750Y-70450000D01*
G75*
G02*
X132100000Y-70206250I0J243750D01*
G01*
X132100000Y-69718750D01*
G75*
G02*
X132343750Y-69475000I243750J0D01*
G01*
X133256250Y-69475000D01*
G75*
G02*
X133500000Y-69718750I0J-243750D01*
G01*
X133500000Y-70206250D01*
G75*
G02*
X133256250Y-70450000I-243750J0D01*
G01*
G37*
G04 #@! TD.AperFunction*
G04 #@! TA.AperFunction,SMDPad,CuDef*
G36*
G01*
X133256250Y-72325000D02*
X132343750Y-72325000D01*
G75*
G02*
X132100000Y-72081250I0J243750D01*
G01*
X132100000Y-71593750D01*
G75*
G02*
X132343750Y-71350000I243750J0D01*
G01*
X133256250Y-71350000D01*
G75*
G02*
X133500000Y-71593750I0J-243750D01*
G01*
X133500000Y-72081250D01*
G75*
G02*
X133256250Y-72325000I-243750J0D01*
G01*
G37*
G04 #@! TD.AperFunction*
G04 #@! TA.AperFunction,SMDPad,CuDef*
G36*
G01*
X124943750Y-92787500D02*
X125856250Y-92787500D01*
G75*
G02*
X126100000Y-93031250I0J-243750D01*
G01*
X126100000Y-93518750D01*
G75*
G02*
X125856250Y-93762500I-243750J0D01*
G01*
X124943750Y-93762500D01*
G75*
G02*
X124700000Y-93518750I0J243750D01*
G01*
X124700000Y-93031250D01*
G75*
G02*
X124943750Y-92787500I243750J0D01*
G01*
G37*
G04 #@! TD.AperFunction*
G04 #@! TA.AperFunction,SMDPad,CuDef*
G36*
G01*
X124943750Y-90912500D02*
X125856250Y-90912500D01*
G75*
G02*
X126100000Y-91156250I0J-243750D01*
G01*
X126100000Y-91643750D01*
G75*
G02*
X125856250Y-91887500I-243750J0D01*
G01*
X124943750Y-91887500D01*
G75*
G02*
X124700000Y-91643750I0J243750D01*
G01*
X124700000Y-91156250D01*
G75*
G02*
X124943750Y-90912500I243750J0D01*
G01*
G37*
G04 #@! TD.AperFunction*
G04 #@! TA.AperFunction,SMDPad,CuDef*
G36*
G01*
X126743750Y-67950000D02*
X127656250Y-67950000D01*
G75*
G02*
X127900000Y-68193750I0J-243750D01*
G01*
X127900000Y-68681250D01*
G75*
G02*
X127656250Y-68925000I-243750J0D01*
G01*
X126743750Y-68925000D01*
G75*
G02*
X126500000Y-68681250I0J243750D01*
G01*
X126500000Y-68193750D01*
G75*
G02*
X126743750Y-67950000I243750J0D01*
G01*
G37*
G04 #@! TD.AperFunction*
G04 #@! TA.AperFunction,SMDPad,CuDef*
G36*
G01*
X126743750Y-66075000D02*
X127656250Y-66075000D01*
G75*
G02*
X127900000Y-66318750I0J-243750D01*
G01*
X127900000Y-66806250D01*
G75*
G02*
X127656250Y-67050000I-243750J0D01*
G01*
X126743750Y-67050000D01*
G75*
G02*
X126500000Y-66806250I0J243750D01*
G01*
X126500000Y-66318750D01*
G75*
G02*
X126743750Y-66075000I243750J0D01*
G01*
G37*
G04 #@! TD.AperFunction*
G04 #@! TA.AperFunction,SMDPad,CuDef*
G36*
G01*
X127756250Y-91887500D02*
X126843750Y-91887500D01*
G75*
G02*
X126600000Y-91643750I0J243750D01*
G01*
X126600000Y-91156250D01*
G75*
G02*
X126843750Y-90912500I243750J0D01*
G01*
X127756250Y-90912500D01*
G75*
G02*
X128000000Y-91156250I0J-243750D01*
G01*
X128000000Y-91643750D01*
G75*
G02*
X127756250Y-91887500I-243750J0D01*
G01*
G37*
G04 #@! TD.AperFunction*
G04 #@! TA.AperFunction,SMDPad,CuDef*
G36*
G01*
X127756250Y-93762500D02*
X126843750Y-93762500D01*
G75*
G02*
X126600000Y-93518750I0J243750D01*
G01*
X126600000Y-93031250D01*
G75*
G02*
X126843750Y-92787500I243750J0D01*
G01*
X127756250Y-92787500D01*
G75*
G02*
X128000000Y-93031250I0J-243750D01*
G01*
X128000000Y-93518750D01*
G75*
G02*
X127756250Y-93762500I-243750J0D01*
G01*
G37*
G04 #@! TD.AperFunction*
G04 #@! TA.AperFunction,SMDPad,CuDef*
G36*
G01*
X129556250Y-67050000D02*
X128643750Y-67050000D01*
G75*
G02*
X128400000Y-66806250I0J243750D01*
G01*
X128400000Y-66318750D01*
G75*
G02*
X128643750Y-66075000I243750J0D01*
G01*
X129556250Y-66075000D01*
G75*
G02*
X129800000Y-66318750I0J-243750D01*
G01*
X129800000Y-66806250D01*
G75*
G02*
X129556250Y-67050000I-243750J0D01*
G01*
G37*
G04 #@! TD.AperFunction*
G04 #@! TA.AperFunction,SMDPad,CuDef*
G36*
G01*
X129556250Y-68925000D02*
X128643750Y-68925000D01*
G75*
G02*
X128400000Y-68681250I0J243750D01*
G01*
X128400000Y-68193750D01*
G75*
G02*
X128643750Y-67950000I243750J0D01*
G01*
X129556250Y-67950000D01*
G75*
G02*
X129800000Y-68193750I0J-243750D01*
G01*
X129800000Y-68681250D01*
G75*
G02*
X129556250Y-68925000I-243750J0D01*
G01*
G37*
G04 #@! TD.AperFunction*
G04 #@! TA.AperFunction,SMDPad,CuDef*
G36*
G01*
X138455000Y-94135001D02*
X138455000Y-92834999D01*
G75*
G02*
X138704999Y-92585000I249999J0D01*
G01*
X139605001Y-92585000D01*
G75*
G02*
X139855000Y-92834999I0J-249999D01*
G01*
X139855000Y-94135001D01*
G75*
G02*
X139605001Y-94385000I-249999J0D01*
G01*
X138704999Y-94385000D01*
G75*
G02*
X138455000Y-94135001I0J249999D01*
G01*
G37*
G04 #@! TD.AperFunction*
G04 #@! TA.AperFunction,SMDPad,CuDef*
G36*
G01*
X134455000Y-94135001D02*
X134455000Y-92834999D01*
G75*
G02*
X134704999Y-92585000I249999J0D01*
G01*
X135605001Y-92585000D01*
G75*
G02*
X135855000Y-92834999I0J-249999D01*
G01*
X135855000Y-94135001D01*
G75*
G02*
X135605001Y-94385000I-249999J0D01*
G01*
X134704999Y-94385000D01*
G75*
G02*
X134455000Y-94135001I0J249999D01*
G01*
G37*
G04 #@! TD.AperFunction*
G04 #@! TA.AperFunction,SMDPad,CuDef*
G36*
G01*
X139900000Y-66069959D02*
X139900000Y-64769957D01*
G75*
G02*
X140149999Y-64519958I249999J0D01*
G01*
X141050001Y-64519958D01*
G75*
G02*
X141300000Y-64769957I0J-249999D01*
G01*
X141300000Y-66069959D01*
G75*
G02*
X141050001Y-66319958I-249999J0D01*
G01*
X140149999Y-66319958D01*
G75*
G02*
X139900000Y-66069959I0J249999D01*
G01*
G37*
G04 #@! TD.AperFunction*
G04 #@! TA.AperFunction,SMDPad,CuDef*
G36*
G01*
X135900000Y-66069959D02*
X135900000Y-64769957D01*
G75*
G02*
X136149999Y-64519958I249999J0D01*
G01*
X137050001Y-64519958D01*
G75*
G02*
X137300000Y-64769957I0J-249999D01*
G01*
X137300000Y-66069959D01*
G75*
G02*
X137050001Y-66319958I-249999J0D01*
G01*
X136149999Y-66319958D01*
G75*
G02*
X135900000Y-66069959I0J249999D01*
G01*
G37*
G04 #@! TD.AperFunction*
G04 #@! TA.AperFunction,SMDPad,CuDef*
G36*
G01*
X147882500Y-80275000D02*
X148227500Y-80275000D01*
G75*
G02*
X148375000Y-80422500I0J-147500D01*
G01*
X148375000Y-80717500D01*
G75*
G02*
X148227500Y-80865000I-147500J0D01*
G01*
X147882500Y-80865000D01*
G75*
G02*
X147735000Y-80717500I0J147500D01*
G01*
X147735000Y-80422500D01*
G75*
G02*
X147882500Y-80275000I147500J0D01*
G01*
G37*
G04 #@! TD.AperFunction*
G04 #@! TA.AperFunction,SMDPad,CuDef*
G36*
G01*
X147882500Y-79305000D02*
X148227500Y-79305000D01*
G75*
G02*
X148375000Y-79452500I0J-147500D01*
G01*
X148375000Y-79747500D01*
G75*
G02*
X148227500Y-79895000I-147500J0D01*
G01*
X147882500Y-79895000D01*
G75*
G02*
X147735000Y-79747500I0J147500D01*
G01*
X147735000Y-79452500D01*
G75*
G02*
X147882500Y-79305000I147500J0D01*
G01*
G37*
G04 #@! TD.AperFunction*
G04 #@! TA.AperFunction,SMDPad,CuDef*
G36*
G01*
X149669632Y-81401127D02*
X149669632Y-81746127D01*
G75*
G02*
X149522132Y-81893627I-147500J0D01*
G01*
X149227132Y-81893627D01*
G75*
G02*
X149079632Y-81746127I0J147500D01*
G01*
X149079632Y-81401127D01*
G75*
G02*
X149227132Y-81253627I147500J0D01*
G01*
X149522132Y-81253627D01*
G75*
G02*
X149669632Y-81401127I0J-147500D01*
G01*
G37*
G04 #@! TD.AperFunction*
G04 #@! TA.AperFunction,SMDPad,CuDef*
G36*
G01*
X150639632Y-81401127D02*
X150639632Y-81746127D01*
G75*
G02*
X150492132Y-81893627I-147500J0D01*
G01*
X150197132Y-81893627D01*
G75*
G02*
X150049632Y-81746127I0J147500D01*
G01*
X150049632Y-81401127D01*
G75*
G02*
X150197132Y-81253627I147500J0D01*
G01*
X150492132Y-81253627D01*
G75*
G02*
X150639632Y-81401127I0J-147500D01*
G01*
G37*
G04 #@! TD.AperFunction*
G04 #@! TA.AperFunction,SMDPad,CuDef*
G36*
G01*
X146845000Y-76957500D02*
X146845000Y-76612500D01*
G75*
G02*
X146992500Y-76465000I147500J0D01*
G01*
X147287500Y-76465000D01*
G75*
G02*
X147435000Y-76612500I0J-147500D01*
G01*
X147435000Y-76957500D01*
G75*
G02*
X147287500Y-77105000I-147500J0D01*
G01*
X146992500Y-77105000D01*
G75*
G02*
X146845000Y-76957500I0J147500D01*
G01*
G37*
G04 #@! TD.AperFunction*
G04 #@! TA.AperFunction,SMDPad,CuDef*
G36*
G01*
X145875000Y-76957500D02*
X145875000Y-76612500D01*
G75*
G02*
X146022500Y-76465000I147500J0D01*
G01*
X146317500Y-76465000D01*
G75*
G02*
X146465000Y-76612500I0J-147500D01*
G01*
X146465000Y-76957500D01*
G75*
G02*
X146317500Y-77105000I-147500J0D01*
G01*
X146022500Y-77105000D01*
G75*
G02*
X145875000Y-76957500I0J147500D01*
G01*
G37*
G04 #@! TD.AperFunction*
G04 #@! TA.AperFunction,SMDPad,CuDef*
G36*
G01*
X142665000Y-80612500D02*
X142665000Y-80957500D01*
G75*
G02*
X142517500Y-81105000I-147500J0D01*
G01*
X142222500Y-81105000D01*
G75*
G02*
X142075000Y-80957500I0J147500D01*
G01*
X142075000Y-80612500D01*
G75*
G02*
X142222500Y-80465000I147500J0D01*
G01*
X142517500Y-80465000D01*
G75*
G02*
X142665000Y-80612500I0J-147500D01*
G01*
G37*
G04 #@! TD.AperFunction*
G04 #@! TA.AperFunction,SMDPad,CuDef*
G36*
G01*
X143635000Y-80612500D02*
X143635000Y-80957500D01*
G75*
G02*
X143487500Y-81105000I-147500J0D01*
G01*
X143192500Y-81105000D01*
G75*
G02*
X143045000Y-80957500I0J147500D01*
G01*
X143045000Y-80612500D01*
G75*
G02*
X143192500Y-80465000I147500J0D01*
G01*
X143487500Y-80465000D01*
G75*
G02*
X143635000Y-80612500I0J-147500D01*
G01*
G37*
G04 #@! TD.AperFunction*
G04 #@! TA.AperFunction,SMDPad,CuDef*
G36*
G01*
X148227500Y-73295000D02*
X147882500Y-73295000D01*
G75*
G02*
X147735000Y-73147500I0J147500D01*
G01*
X147735000Y-72852500D01*
G75*
G02*
X147882500Y-72705000I147500J0D01*
G01*
X148227500Y-72705000D01*
G75*
G02*
X148375000Y-72852500I0J-147500D01*
G01*
X148375000Y-73147500D01*
G75*
G02*
X148227500Y-73295000I-147500J0D01*
G01*
G37*
G04 #@! TD.AperFunction*
G04 #@! TA.AperFunction,SMDPad,CuDef*
G36*
G01*
X148227500Y-74265000D02*
X147882500Y-74265000D01*
G75*
G02*
X147735000Y-74117500I0J147500D01*
G01*
X147735000Y-73822500D01*
G75*
G02*
X147882500Y-73675000I147500J0D01*
G01*
X148227500Y-73675000D01*
G75*
G02*
X148375000Y-73822500I0J-147500D01*
G01*
X148375000Y-74117500D01*
G75*
G02*
X148227500Y-74265000I-147500J0D01*
G01*
G37*
G04 #@! TD.AperFunction*
G04 #@! TA.AperFunction,SMDPad,CuDef*
G36*
G01*
X155345000Y-76957500D02*
X155345000Y-76612500D01*
G75*
G02*
X155492500Y-76465000I147500J0D01*
G01*
X155787500Y-76465000D01*
G75*
G02*
X155935000Y-76612500I0J-147500D01*
G01*
X155935000Y-76957500D01*
G75*
G02*
X155787500Y-77105000I-147500J0D01*
G01*
X155492500Y-77105000D01*
G75*
G02*
X155345000Y-76957500I0J147500D01*
G01*
G37*
G04 #@! TD.AperFunction*
G04 #@! TA.AperFunction,SMDPad,CuDef*
G36*
G01*
X154375000Y-76957500D02*
X154375000Y-76612500D01*
G75*
G02*
X154522500Y-76465000I147500J0D01*
G01*
X154817500Y-76465000D01*
G75*
G02*
X154965000Y-76612500I0J-147500D01*
G01*
X154965000Y-76957500D01*
G75*
G02*
X154817500Y-77105000I-147500J0D01*
G01*
X154522500Y-77105000D01*
G75*
G02*
X154375000Y-76957500I0J147500D01*
G01*
G37*
G04 #@! TD.AperFunction*
G04 #@! TA.AperFunction,SMDPad,CuDef*
G36*
G01*
X151545000Y-76957500D02*
X151545000Y-76612500D01*
G75*
G02*
X151692500Y-76465000I147500J0D01*
G01*
X151987500Y-76465000D01*
G75*
G02*
X152135000Y-76612500I0J-147500D01*
G01*
X152135000Y-76957500D01*
G75*
G02*
X151987500Y-77105000I-147500J0D01*
G01*
X151692500Y-77105000D01*
G75*
G02*
X151545000Y-76957500I0J147500D01*
G01*
G37*
G04 #@! TD.AperFunction*
G04 #@! TA.AperFunction,SMDPad,CuDef*
G36*
G01*
X150575000Y-76957500D02*
X150575000Y-76612500D01*
G75*
G02*
X150722500Y-76465000I147500J0D01*
G01*
X151017500Y-76465000D01*
G75*
G02*
X151165000Y-76612500I0J-147500D01*
G01*
X151165000Y-76957500D01*
G75*
G02*
X151017500Y-77105000I-147500J0D01*
G01*
X150722500Y-77105000D01*
G75*
G02*
X150575000Y-76957500I0J147500D01*
G01*
G37*
G04 #@! TD.AperFunction*
G04 #@! TA.AperFunction,SMDPad,CuDef*
G36*
G01*
X141205000Y-73128750D02*
X141205000Y-74041250D01*
G75*
G02*
X140961250Y-74285000I-243750J0D01*
G01*
X140473750Y-74285000D01*
G75*
G02*
X140230000Y-74041250I0J243750D01*
G01*
X140230000Y-73128750D01*
G75*
G02*
X140473750Y-72885000I243750J0D01*
G01*
X140961250Y-72885000D01*
G75*
G02*
X141205000Y-73128750I0J-243750D01*
G01*
G37*
G04 #@! TD.AperFunction*
G04 #@! TA.AperFunction,SMDPad,CuDef*
G36*
G01*
X143080000Y-73128750D02*
X143080000Y-74041250D01*
G75*
G02*
X142836250Y-74285000I-243750J0D01*
G01*
X142348750Y-74285000D01*
G75*
G02*
X142105000Y-74041250I0J243750D01*
G01*
X142105000Y-73128750D01*
G75*
G02*
X142348750Y-72885000I243750J0D01*
G01*
X142836250Y-72885000D01*
G75*
G02*
X143080000Y-73128750I0J-243750D01*
G01*
G37*
G04 #@! TD.AperFunction*
G04 #@! TA.AperFunction,SMDPad,CuDef*
G36*
G01*
X149265000Y-76612500D02*
X149265000Y-76957500D01*
G75*
G02*
X149117500Y-77105000I-147500J0D01*
G01*
X148822500Y-77105000D01*
G75*
G02*
X148675000Y-76957500I0J147500D01*
G01*
X148675000Y-76612500D01*
G75*
G02*
X148822500Y-76465000I147500J0D01*
G01*
X149117500Y-76465000D01*
G75*
G02*
X149265000Y-76612500I0J-147500D01*
G01*
G37*
G04 #@! TD.AperFunction*
G04 #@! TA.AperFunction,SMDPad,CuDef*
G36*
G01*
X150235000Y-76612500D02*
X150235000Y-76957500D01*
G75*
G02*
X150087500Y-77105000I-147500J0D01*
G01*
X149792500Y-77105000D01*
G75*
G02*
X149645000Y-76957500I0J147500D01*
G01*
X149645000Y-76612500D01*
G75*
G02*
X149792500Y-76465000I147500J0D01*
G01*
X150087500Y-76465000D01*
G75*
G02*
X150235000Y-76612500I0J-147500D01*
G01*
G37*
G04 #@! TD.AperFunction*
G04 #@! TA.AperFunction,SMDPad,CuDef*
G36*
G01*
X141205000Y-75028750D02*
X141205000Y-75941250D01*
G75*
G02*
X140961250Y-76185000I-243750J0D01*
G01*
X140473750Y-76185000D01*
G75*
G02*
X140230000Y-75941250I0J243750D01*
G01*
X140230000Y-75028750D01*
G75*
G02*
X140473750Y-74785000I243750J0D01*
G01*
X140961250Y-74785000D01*
G75*
G02*
X141205000Y-75028750I0J-243750D01*
G01*
G37*
G04 #@! TD.AperFunction*
G04 #@! TA.AperFunction,SMDPad,CuDef*
G36*
G01*
X143080000Y-75028750D02*
X143080000Y-75941250D01*
G75*
G02*
X142836250Y-76185000I-243750J0D01*
G01*
X142348750Y-76185000D01*
G75*
G02*
X142105000Y-75941250I0J243750D01*
G01*
X142105000Y-75028750D01*
G75*
G02*
X142348750Y-74785000I243750J0D01*
G01*
X142836250Y-74785000D01*
G75*
G02*
X143080000Y-75028750I0J-243750D01*
G01*
G37*
G04 #@! TD.AperFunction*
G04 #@! TA.AperFunction,SMDPad,CuDef*
G36*
G01*
X144565000Y-76612500D02*
X144565000Y-76957500D01*
G75*
G02*
X144417500Y-77105000I-147500J0D01*
G01*
X144122500Y-77105000D01*
G75*
G02*
X143975000Y-76957500I0J147500D01*
G01*
X143975000Y-76612500D01*
G75*
G02*
X144122500Y-76465000I147500J0D01*
G01*
X144417500Y-76465000D01*
G75*
G02*
X144565000Y-76612500I0J-147500D01*
G01*
G37*
G04 #@! TD.AperFunction*
G04 #@! TA.AperFunction,SMDPad,CuDef*
G36*
G01*
X145535000Y-76612500D02*
X145535000Y-76957500D01*
G75*
G02*
X145387500Y-77105000I-147500J0D01*
G01*
X145092500Y-77105000D01*
G75*
G02*
X144945000Y-76957500I0J147500D01*
G01*
X144945000Y-76612500D01*
G75*
G02*
X145092500Y-76465000I147500J0D01*
G01*
X145387500Y-76465000D01*
G75*
G02*
X145535000Y-76612500I0J-147500D01*
G01*
G37*
G04 #@! TD.AperFunction*
G04 #@! TA.AperFunction,SMDPad,CuDef*
G36*
G01*
X151845000Y-78507500D02*
X151845000Y-78162500D01*
G75*
G02*
X151992500Y-78015000I147500J0D01*
G01*
X152287500Y-78015000D01*
G75*
G02*
X152435000Y-78162500I0J-147500D01*
G01*
X152435000Y-78507500D01*
G75*
G02*
X152287500Y-78655000I-147500J0D01*
G01*
X151992500Y-78655000D01*
G75*
G02*
X151845000Y-78507500I0J147500D01*
G01*
G37*
G04 #@! TD.AperFunction*
G04 #@! TA.AperFunction,SMDPad,CuDef*
G36*
G01*
X150875000Y-78507500D02*
X150875000Y-78162500D01*
G75*
G02*
X151022500Y-78015000I147500J0D01*
G01*
X151317500Y-78015000D01*
G75*
G02*
X151465000Y-78162500I0J-147500D01*
G01*
X151465000Y-78507500D01*
G75*
G02*
X151317500Y-78655000I-147500J0D01*
G01*
X151022500Y-78655000D01*
G75*
G02*
X150875000Y-78507500I0J147500D01*
G01*
G37*
G04 #@! TD.AperFunction*
G04 #@! TA.AperFunction,SMDPad,CuDef*
G36*
G01*
X151782500Y-75460000D02*
X152127500Y-75460000D01*
G75*
G02*
X152275000Y-75607500I0J-147500D01*
G01*
X152275000Y-75902500D01*
G75*
G02*
X152127500Y-76050000I-147500J0D01*
G01*
X151782500Y-76050000D01*
G75*
G02*
X151635000Y-75902500I0J147500D01*
G01*
X151635000Y-75607500D01*
G75*
G02*
X151782500Y-75460000I147500J0D01*
G01*
G37*
G04 #@! TD.AperFunction*
G04 #@! TA.AperFunction,SMDPad,CuDef*
G36*
G01*
X151782500Y-74490000D02*
X152127500Y-74490000D01*
G75*
G02*
X152275000Y-74637500I0J-147500D01*
G01*
X152275000Y-74932500D01*
G75*
G02*
X152127500Y-75080000I-147500J0D01*
G01*
X151782500Y-75080000D01*
G75*
G02*
X151635000Y-74932500I0J147500D01*
G01*
X151635000Y-74637500D01*
G75*
G02*
X151782500Y-74490000I147500J0D01*
G01*
G37*
G04 #@! TD.AperFunction*
G04 #@! TA.AperFunction,SMDPad,CuDef*
G36*
G01*
X148227500Y-77995000D02*
X147882500Y-77995000D01*
G75*
G02*
X147735000Y-77847500I0J147500D01*
G01*
X147735000Y-77552500D01*
G75*
G02*
X147882500Y-77405000I147500J0D01*
G01*
X148227500Y-77405000D01*
G75*
G02*
X148375000Y-77552500I0J-147500D01*
G01*
X148375000Y-77847500D01*
G75*
G02*
X148227500Y-77995000I-147500J0D01*
G01*
G37*
G04 #@! TD.AperFunction*
G04 #@! TA.AperFunction,SMDPad,CuDef*
G36*
G01*
X148227500Y-78965000D02*
X147882500Y-78965000D01*
G75*
G02*
X147735000Y-78817500I0J147500D01*
G01*
X147735000Y-78522500D01*
G75*
G02*
X147882500Y-78375000I147500J0D01*
G01*
X148227500Y-78375000D01*
G75*
G02*
X148375000Y-78522500I0J-147500D01*
G01*
X148375000Y-78817500D01*
G75*
G02*
X148227500Y-78965000I-147500J0D01*
G01*
G37*
G04 #@! TD.AperFunction*
G04 #@! TA.AperFunction,SMDPad,CuDef*
G36*
G01*
X147882500Y-75575000D02*
X148227500Y-75575000D01*
G75*
G02*
X148375000Y-75722500I0J-147500D01*
G01*
X148375000Y-76017500D01*
G75*
G02*
X148227500Y-76165000I-147500J0D01*
G01*
X147882500Y-76165000D01*
G75*
G02*
X147735000Y-76017500I0J147500D01*
G01*
X147735000Y-75722500D01*
G75*
G02*
X147882500Y-75575000I147500J0D01*
G01*
G37*
G04 #@! TD.AperFunction*
G04 #@! TA.AperFunction,SMDPad,CuDef*
G36*
G01*
X147882500Y-74605000D02*
X148227500Y-74605000D01*
G75*
G02*
X148375000Y-74752500I0J-147500D01*
G01*
X148375000Y-75047500D01*
G75*
G02*
X148227500Y-75195000I-147500J0D01*
G01*
X147882500Y-75195000D01*
G75*
G02*
X147735000Y-75047500I0J147500D01*
G01*
X147735000Y-74752500D01*
G75*
G02*
X147882500Y-74605000I147500J0D01*
G01*
G37*
G04 #@! TD.AperFunction*
G04 #@! TA.AperFunction,SMDPad,CuDef*
G36*
G01*
X152745000Y-79457500D02*
X152745000Y-79112500D01*
G75*
G02*
X152892500Y-78965000I147500J0D01*
G01*
X153187500Y-78965000D01*
G75*
G02*
X153335000Y-79112500I0J-147500D01*
G01*
X153335000Y-79457500D01*
G75*
G02*
X153187500Y-79605000I-147500J0D01*
G01*
X152892500Y-79605000D01*
G75*
G02*
X152745000Y-79457500I0J147500D01*
G01*
G37*
G04 #@! TD.AperFunction*
G04 #@! TA.AperFunction,SMDPad,CuDef*
G36*
G01*
X151775000Y-79457500D02*
X151775000Y-79112500D01*
G75*
G02*
X151922500Y-78965000I147500J0D01*
G01*
X152217500Y-78965000D01*
G75*
G02*
X152365000Y-79112500I0J-147500D01*
G01*
X152365000Y-79457500D01*
G75*
G02*
X152217500Y-79605000I-147500J0D01*
G01*
X151922500Y-79605000D01*
G75*
G02*
X151775000Y-79457500I0J147500D01*
G01*
G37*
G04 #@! TD.AperFunction*
G04 #@! TA.AperFunction,SMDPad,CuDef*
G36*
G01*
X154445000Y-80957500D02*
X154445000Y-80612500D01*
G75*
G02*
X154592500Y-80465000I147500J0D01*
G01*
X154887500Y-80465000D01*
G75*
G02*
X155035000Y-80612500I0J-147500D01*
G01*
X155035000Y-80957500D01*
G75*
G02*
X154887500Y-81105000I-147500J0D01*
G01*
X154592500Y-81105000D01*
G75*
G02*
X154445000Y-80957500I0J147500D01*
G01*
G37*
G04 #@! TD.AperFunction*
G04 #@! TA.AperFunction,SMDPad,CuDef*
G36*
G01*
X153475000Y-80957500D02*
X153475000Y-80612500D01*
G75*
G02*
X153622500Y-80465000I147500J0D01*
G01*
X153917500Y-80465000D01*
G75*
G02*
X154065000Y-80612500I0J-147500D01*
G01*
X154065000Y-80957500D01*
G75*
G02*
X153917500Y-81105000I-147500J0D01*
G01*
X153622500Y-81105000D01*
G75*
G02*
X153475000Y-80957500I0J147500D01*
G01*
G37*
G04 #@! TD.AperFunction*
G04 #@! TA.AperFunction,SMDPad,CuDef*
G36*
G01*
X152115000Y-83112500D02*
X152115000Y-83457500D01*
G75*
G02*
X151967500Y-83605000I-147500J0D01*
G01*
X151672500Y-83605000D01*
G75*
G02*
X151525000Y-83457500I0J147500D01*
G01*
X151525000Y-83112500D01*
G75*
G02*
X151672500Y-82965000I147500J0D01*
G01*
X151967500Y-82965000D01*
G75*
G02*
X152115000Y-83112500I0J-147500D01*
G01*
G37*
G04 #@! TD.AperFunction*
G04 #@! TA.AperFunction,SMDPad,CuDef*
G36*
G01*
X153085000Y-83112500D02*
X153085000Y-83457500D01*
G75*
G02*
X152937500Y-83605000I-147500J0D01*
G01*
X152642500Y-83605000D01*
G75*
G02*
X152495000Y-83457500I0J147500D01*
G01*
X152495000Y-83112500D01*
G75*
G02*
X152642500Y-82965000I147500J0D01*
G01*
X152937500Y-82965000D01*
G75*
G02*
X153085000Y-83112500I0J-147500D01*
G01*
G37*
G04 #@! TD.AperFunction*
G04 #@! TA.AperFunction,SMDPad,CuDef*
G36*
G01*
X155405000Y-84541250D02*
X155405000Y-83628750D01*
G75*
G02*
X155648750Y-83385000I243750J0D01*
G01*
X156136250Y-83385000D01*
G75*
G02*
X156380000Y-83628750I0J-243750D01*
G01*
X156380000Y-84541250D01*
G75*
G02*
X156136250Y-84785000I-243750J0D01*
G01*
X155648750Y-84785000D01*
G75*
G02*
X155405000Y-84541250I0J243750D01*
G01*
G37*
G04 #@! TD.AperFunction*
G04 #@! TA.AperFunction,SMDPad,CuDef*
G36*
G01*
X153530000Y-84541250D02*
X153530000Y-83628750D01*
G75*
G02*
X153773750Y-83385000I243750J0D01*
G01*
X154261250Y-83385000D01*
G75*
G02*
X154505000Y-83628750I0J-243750D01*
G01*
X154505000Y-84541250D01*
G75*
G02*
X154261250Y-84785000I-243750J0D01*
G01*
X153773750Y-84785000D01*
G75*
G02*
X153530000Y-84541250I0J243750D01*
G01*
G37*
G04 #@! TD.AperFunction*
G04 #@! TA.AperFunction,SMDPad,CuDef*
G36*
G01*
X151105000Y-84278750D02*
X151105000Y-85191250D01*
G75*
G02*
X150861250Y-85435000I-243750J0D01*
G01*
X150373750Y-85435000D01*
G75*
G02*
X150130000Y-85191250I0J243750D01*
G01*
X150130000Y-84278750D01*
G75*
G02*
X150373750Y-84035000I243750J0D01*
G01*
X150861250Y-84035000D01*
G75*
G02*
X151105000Y-84278750I0J-243750D01*
G01*
G37*
G04 #@! TD.AperFunction*
G04 #@! TA.AperFunction,SMDPad,CuDef*
G36*
G01*
X152980000Y-84278750D02*
X152980000Y-85191250D01*
G75*
G02*
X152736250Y-85435000I-243750J0D01*
G01*
X152248750Y-85435000D01*
G75*
G02*
X152005000Y-85191250I0J243750D01*
G01*
X152005000Y-84278750D01*
G75*
G02*
X152248750Y-84035000I243750J0D01*
G01*
X152736250Y-84035000D01*
G75*
G02*
X152980000Y-84278750I0J-243750D01*
G01*
G37*
G04 #@! TD.AperFunction*
G04 #@! TA.AperFunction,SMDPad,CuDef*
G36*
G01*
X155405000Y-86441250D02*
X155405000Y-85528750D01*
G75*
G02*
X155648750Y-85285000I243750J0D01*
G01*
X156136250Y-85285000D01*
G75*
G02*
X156380000Y-85528750I0J-243750D01*
G01*
X156380000Y-86441250D01*
G75*
G02*
X156136250Y-86685000I-243750J0D01*
G01*
X155648750Y-86685000D01*
G75*
G02*
X155405000Y-86441250I0J243750D01*
G01*
G37*
G04 #@! TD.AperFunction*
G04 #@! TA.AperFunction,SMDPad,CuDef*
G36*
G01*
X153530000Y-86441250D02*
X153530000Y-85528750D01*
G75*
G02*
X153773750Y-85285000I243750J0D01*
G01*
X154261250Y-85285000D01*
G75*
G02*
X154505000Y-85528750I0J-243750D01*
G01*
X154505000Y-86441250D01*
G75*
G02*
X154261250Y-86685000I-243750J0D01*
G01*
X153773750Y-86685000D01*
G75*
G02*
X153530000Y-86441250I0J243750D01*
G01*
G37*
G04 #@! TD.AperFunction*
G04 #@! TA.AperFunction,SMDPad,CuDef*
G36*
G01*
X151105000Y-86228750D02*
X151105000Y-87141250D01*
G75*
G02*
X150861250Y-87385000I-243750J0D01*
G01*
X150373750Y-87385000D01*
G75*
G02*
X150130000Y-87141250I0J243750D01*
G01*
X150130000Y-86228750D01*
G75*
G02*
X150373750Y-85985000I243750J0D01*
G01*
X150861250Y-85985000D01*
G75*
G02*
X151105000Y-86228750I0J-243750D01*
G01*
G37*
G04 #@! TD.AperFunction*
G04 #@! TA.AperFunction,SMDPad,CuDef*
G36*
G01*
X152980000Y-86228750D02*
X152980000Y-87141250D01*
G75*
G02*
X152736250Y-87385000I-243750J0D01*
G01*
X152248750Y-87385000D01*
G75*
G02*
X152005000Y-87141250I0J243750D01*
G01*
X152005000Y-86228750D01*
G75*
G02*
X152248750Y-85985000I243750J0D01*
G01*
X152736250Y-85985000D01*
G75*
G02*
X152980000Y-86228750I0J-243750D01*
G01*
G37*
G04 #@! TD.AperFunction*
G04 #@! TA.AperFunction,SMDPad,CuDef*
G36*
G01*
X133356250Y-92087500D02*
X132443750Y-92087500D01*
G75*
G02*
X132200000Y-91843750I0J243750D01*
G01*
X132200000Y-91356250D01*
G75*
G02*
X132443750Y-91112500I243750J0D01*
G01*
X133356250Y-91112500D01*
G75*
G02*
X133600000Y-91356250I0J-243750D01*
G01*
X133600000Y-91843750D01*
G75*
G02*
X133356250Y-92087500I-243750J0D01*
G01*
G37*
G04 #@! TD.AperFunction*
G04 #@! TA.AperFunction,SMDPad,CuDef*
G36*
G01*
X133356250Y-93962500D02*
X132443750Y-93962500D01*
G75*
G02*
X132200000Y-93718750I0J243750D01*
G01*
X132200000Y-93231250D01*
G75*
G02*
X132443750Y-92987500I243750J0D01*
G01*
X133356250Y-92987500D01*
G75*
G02*
X133600000Y-93231250I0J-243750D01*
G01*
X133600000Y-93718750D01*
G75*
G02*
X133356250Y-93962500I-243750J0D01*
G01*
G37*
G04 #@! TD.AperFunction*
G04 #@! TA.AperFunction,SMDPad,CuDef*
G36*
G01*
X135156250Y-67050000D02*
X134243750Y-67050000D01*
G75*
G02*
X134000000Y-66806250I0J243750D01*
G01*
X134000000Y-66318750D01*
G75*
G02*
X134243750Y-66075000I243750J0D01*
G01*
X135156250Y-66075000D01*
G75*
G02*
X135400000Y-66318750I0J-243750D01*
G01*
X135400000Y-66806250D01*
G75*
G02*
X135156250Y-67050000I-243750J0D01*
G01*
G37*
G04 #@! TD.AperFunction*
G04 #@! TA.AperFunction,SMDPad,CuDef*
G36*
G01*
X135156250Y-68925000D02*
X134243750Y-68925000D01*
G75*
G02*
X134000000Y-68681250I0J243750D01*
G01*
X134000000Y-68193750D01*
G75*
G02*
X134243750Y-67950000I243750J0D01*
G01*
X135156250Y-67950000D01*
G75*
G02*
X135400000Y-68193750I0J-243750D01*
G01*
X135400000Y-68681250D01*
G75*
G02*
X135156250Y-68925000I-243750J0D01*
G01*
G37*
G04 #@! TD.AperFunction*
G04 #@! TA.AperFunction,SMDPad,CuDef*
G36*
G01*
X128643750Y-96387500D02*
X129556250Y-96387500D01*
G75*
G02*
X129800000Y-96631250I0J-243750D01*
G01*
X129800000Y-97118750D01*
G75*
G02*
X129556250Y-97362500I-243750J0D01*
G01*
X128643750Y-97362500D01*
G75*
G02*
X128400000Y-97118750I0J243750D01*
G01*
X128400000Y-96631250D01*
G75*
G02*
X128643750Y-96387500I243750J0D01*
G01*
G37*
G04 #@! TD.AperFunction*
G04 #@! TA.AperFunction,SMDPad,CuDef*
G36*
G01*
X128643750Y-94512500D02*
X129556250Y-94512500D01*
G75*
G02*
X129800000Y-94756250I0J-243750D01*
G01*
X129800000Y-95243750D01*
G75*
G02*
X129556250Y-95487500I-243750J0D01*
G01*
X128643750Y-95487500D01*
G75*
G02*
X128400000Y-95243750I0J243750D01*
G01*
X128400000Y-94756250D01*
G75*
G02*
X128643750Y-94512500I243750J0D01*
G01*
G37*
G04 #@! TD.AperFunction*
G04 #@! TA.AperFunction,SMDPad,CuDef*
G36*
G01*
X130443750Y-71350000D02*
X131356250Y-71350000D01*
G75*
G02*
X131600000Y-71593750I0J-243750D01*
G01*
X131600000Y-72081250D01*
G75*
G02*
X131356250Y-72325000I-243750J0D01*
G01*
X130443750Y-72325000D01*
G75*
G02*
X130200000Y-72081250I0J243750D01*
G01*
X130200000Y-71593750D01*
G75*
G02*
X130443750Y-71350000I243750J0D01*
G01*
G37*
G04 #@! TD.AperFunction*
G04 #@! TA.AperFunction,SMDPad,CuDef*
G36*
G01*
X130443750Y-69475000D02*
X131356250Y-69475000D01*
G75*
G02*
X131600000Y-69718750I0J-243750D01*
G01*
X131600000Y-70206250D01*
G75*
G02*
X131356250Y-70450000I-243750J0D01*
G01*
X130443750Y-70450000D01*
G75*
G02*
X130200000Y-70206250I0J243750D01*
G01*
X130200000Y-69718750D01*
G75*
G02*
X130443750Y-69475000I243750J0D01*
G01*
G37*
G04 #@! TD.AperFunction*
G04 #@! TA.AperFunction,SMDPad,CuDef*
G36*
G01*
X109656250Y-79250000D02*
X108743750Y-79250000D01*
G75*
G02*
X108500000Y-79006250I0J243750D01*
G01*
X108500000Y-78518750D01*
G75*
G02*
X108743750Y-78275000I243750J0D01*
G01*
X109656250Y-78275000D01*
G75*
G02*
X109900000Y-78518750I0J-243750D01*
G01*
X109900000Y-79006250D01*
G75*
G02*
X109656250Y-79250000I-243750J0D01*
G01*
G37*
G04 #@! TD.AperFunction*
G04 #@! TA.AperFunction,SMDPad,CuDef*
G36*
G01*
X109656250Y-81125000D02*
X108743750Y-81125000D01*
G75*
G02*
X108500000Y-80881250I0J243750D01*
G01*
X108500000Y-80393750D01*
G75*
G02*
X108743750Y-80150000I243750J0D01*
G01*
X109656250Y-80150000D01*
G75*
G02*
X109900000Y-80393750I0J-243750D01*
G01*
X109900000Y-80881250D01*
G75*
G02*
X109656250Y-81125000I-243750J0D01*
G01*
G37*
G04 #@! TD.AperFunction*
G04 #@! TA.AperFunction,SMDPad,CuDef*
G36*
G01*
X108743750Y-83750000D02*
X109656250Y-83750000D01*
G75*
G02*
X109900000Y-83993750I0J-243750D01*
G01*
X109900000Y-84481250D01*
G75*
G02*
X109656250Y-84725000I-243750J0D01*
G01*
X108743750Y-84725000D01*
G75*
G02*
X108500000Y-84481250I0J243750D01*
G01*
X108500000Y-83993750D01*
G75*
G02*
X108743750Y-83750000I243750J0D01*
G01*
G37*
G04 #@! TD.AperFunction*
G04 #@! TA.AperFunction,SMDPad,CuDef*
G36*
G01*
X108743750Y-81875000D02*
X109656250Y-81875000D01*
G75*
G02*
X109900000Y-82118750I0J-243750D01*
G01*
X109900000Y-82606250D01*
G75*
G02*
X109656250Y-82850000I-243750J0D01*
G01*
X108743750Y-82850000D01*
G75*
G02*
X108500000Y-82606250I0J243750D01*
G01*
X108500000Y-82118750D01*
G75*
G02*
X108743750Y-81875000I243750J0D01*
G01*
G37*
G04 #@! TD.AperFunction*
D15*
X118050000Y-81500000D03*
X118050000Y-82450000D03*
X118050000Y-80550000D03*
X115850000Y-80550000D03*
X115850000Y-81500000D03*
X115850000Y-82450000D03*
G04 #@! TA.AperFunction,SMDPad,CuDef*
G36*
G01*
X154465000Y-82112500D02*
X154465000Y-82457500D01*
G75*
G02*
X154317500Y-82605000I-147500J0D01*
G01*
X154022500Y-82605000D01*
G75*
G02*
X153875000Y-82457500I0J147500D01*
G01*
X153875000Y-82112500D01*
G75*
G02*
X154022500Y-81965000I147500J0D01*
G01*
X154317500Y-81965000D01*
G75*
G02*
X154465000Y-82112500I0J-147500D01*
G01*
G37*
G04 #@! TD.AperFunction*
G04 #@! TA.AperFunction,SMDPad,CuDef*
G36*
G01*
X155435000Y-82112500D02*
X155435000Y-82457500D01*
G75*
G02*
X155287500Y-82605000I-147500J0D01*
G01*
X154992500Y-82605000D01*
G75*
G02*
X154845000Y-82457500I0J147500D01*
G01*
X154845000Y-82112500D01*
G75*
G02*
X154992500Y-81965000I147500J0D01*
G01*
X155287500Y-81965000D01*
G75*
G02*
X155435000Y-82112500I0J-147500D01*
G01*
G37*
G04 #@! TD.AperFunction*
D18*
X156911257Y-80011257D03*
D19*
X156291492Y-76785000D03*
D18*
X155240077Y-69597211D03*
D19*
X156125170Y-68719569D03*
X157084887Y-67910187D03*
D18*
X150355000Y-68385000D03*
D20*
X151383037Y-68155027D03*
D19*
X137755000Y-79985000D03*
X135255000Y-85685000D03*
D18*
X137855000Y-85285000D03*
D19*
X142055000Y-66385000D03*
D18*
X148155000Y-66085000D03*
X147635890Y-67485000D03*
X144055000Y-68785000D03*
D19*
X139455000Y-67585000D03*
D20*
X144255000Y-64485000D03*
D18*
X155104390Y-80015366D03*
D19*
X150455000Y-92785000D03*
D18*
X151655000Y-64685000D03*
D19*
X122815000Y-74555000D03*
X120325000Y-73625000D03*
D18*
X151249913Y-74364185D03*
X151247962Y-75214100D03*
X148055000Y-71985000D03*
D20*
X156012995Y-70727005D03*
D18*
X154407516Y-68855663D03*
X152019311Y-69640226D03*
D20*
X148955000Y-85185000D03*
D18*
X153681433Y-81558567D03*
X152052799Y-81594074D03*
D20*
X156955000Y-84985000D03*
D21*
X130968467Y-72768360D03*
D20*
X128755000Y-72485000D03*
D18*
X130055000Y-72894610D03*
D20*
X133655000Y-76085000D03*
X122555000Y-87385000D03*
D19*
X122293966Y-86508638D03*
D20*
X122355000Y-96585000D03*
X138955000Y-71285000D03*
D18*
X146455000Y-72785000D03*
X145655000Y-72785000D03*
X145655000Y-73585000D03*
D19*
X139755000Y-73585000D03*
X139655000Y-75485000D03*
D21*
X134527456Y-73148709D03*
D18*
X142453351Y-69578403D03*
D19*
X129555000Y-77585000D03*
D18*
X143255000Y-68785000D03*
X142455000Y-68785000D03*
X141655000Y-68785000D03*
X149155000Y-65285000D03*
X155255000Y-81585000D03*
D19*
X143655000Y-86785000D03*
D18*
X151255000Y-83185000D03*
X140655000Y-86885000D03*
X151555000Y-85785000D03*
D19*
X156955000Y-87185000D03*
D18*
X155655000Y-64135000D03*
X159476257Y-76006257D03*
X158805000Y-75985000D03*
X156485602Y-65505000D03*
X158755000Y-65635000D03*
X154555000Y-65585000D03*
X155603492Y-65925684D03*
X148655000Y-67485000D03*
X149155000Y-66285000D03*
X130244400Y-66482806D03*
X152355000Y-65585000D03*
D19*
X119355000Y-84785000D03*
X117055000Y-84785000D03*
D18*
X156255000Y-79985000D03*
D19*
X128455000Y-71585000D03*
D20*
X120255000Y-69285000D03*
D19*
X150455000Y-97985000D03*
X144655000Y-97985000D03*
X118311573Y-75826114D03*
X115695000Y-79285000D03*
X125075000Y-96335000D03*
D18*
X125355000Y-89137244D03*
X124455000Y-79185000D03*
D19*
X142255000Y-95385000D03*
D18*
X144094341Y-73624341D03*
D19*
X149455000Y-91685000D03*
D21*
X126355000Y-95385000D03*
D19*
X122355000Y-98585000D03*
D18*
X146455000Y-83185000D03*
X146455000Y-80785000D03*
X145655000Y-80785000D03*
X145655000Y-79985000D03*
X147555000Y-92742321D03*
X148481552Y-91975225D03*
X147555000Y-91904110D03*
X148508604Y-93020797D03*
D19*
X130655000Y-87689557D03*
D21*
X130222674Y-90355521D03*
D18*
X122655000Y-85185000D03*
X123255000Y-85185000D03*
X123855000Y-85185000D03*
X124455000Y-85185000D03*
X149455000Y-88285000D03*
D19*
X125455000Y-78485000D03*
X119340163Y-81540163D03*
X119804889Y-82207016D03*
X116899136Y-81675690D03*
X126555000Y-82985000D03*
X125326923Y-79504843D03*
X125379768Y-80769442D03*
X130053090Y-76419025D03*
X131251074Y-76416582D03*
X114055000Y-76285000D03*
D21*
X115655000Y-77285000D03*
D19*
X124655000Y-76385000D03*
D21*
X124504595Y-71835768D03*
D19*
X111855000Y-75285000D03*
X120655000Y-72785000D03*
X125155000Y-85185000D03*
X127655000Y-85185000D03*
X123055000Y-77085000D03*
X120355000Y-79385000D03*
D18*
X122869935Y-82514871D03*
D19*
X122955000Y-81785000D03*
X120455000Y-83085000D03*
X120455000Y-84085000D03*
X125155000Y-82485000D03*
X128455000Y-82985000D03*
X129455000Y-79785000D03*
X131784327Y-78241376D03*
X134455000Y-83585000D03*
X134299186Y-82508225D03*
X131755000Y-82585000D03*
D21*
X130955000Y-80385000D03*
X115555000Y-84485000D03*
X126555000Y-69885000D03*
D19*
X111655000Y-82685000D03*
X111555000Y-80585000D03*
X114655000Y-82485000D03*
X114655000Y-80585000D03*
X131755000Y-80085000D03*
X134455000Y-80085000D03*
X123655000Y-76385000D03*
X130655000Y-85185000D03*
X111855000Y-74385000D03*
X114555000Y-71585000D03*
D18*
X120255000Y-76885000D03*
X120255000Y-78085000D03*
D19*
X127655000Y-76485000D03*
X127655000Y-73685000D03*
D18*
X122799850Y-83762618D03*
X122855000Y-80985000D03*
X122853914Y-78537373D03*
D19*
X160755000Y-75185000D03*
D18*
X161500000Y-87500000D03*
X161500000Y-86500000D03*
X161500000Y-85500000D03*
X161500000Y-84500000D03*
X161500000Y-83500000D03*
X158500000Y-84500000D03*
X159500000Y-85500000D03*
X159500000Y-84500000D03*
X160500000Y-86500000D03*
X160500000Y-85500000D03*
X160500000Y-84500000D03*
X160500000Y-83500000D03*
X158500000Y-78500000D03*
X159500000Y-78500000D03*
X159500000Y-77500000D03*
X161500000Y-79500000D03*
X161500000Y-78500000D03*
X161500000Y-77500000D03*
X161500000Y-76500000D03*
X160500000Y-76500000D03*
X160500000Y-77500000D03*
X160500000Y-78500000D03*
X160500000Y-79500000D03*
X157900000Y-80000000D03*
X158900000Y-79900000D03*
X159700000Y-80000000D03*
X161600000Y-80600000D03*
X156900000Y-83000000D03*
X157900000Y-83000000D03*
X158900000Y-83100000D03*
X159700000Y-83000000D03*
X161600000Y-82400000D03*
X142455000Y-81585000D03*
X154455000Y-78385000D03*
X153655000Y-79185000D03*
X152055000Y-82384998D03*
X150455000Y-80785000D03*
X149655000Y-80785000D03*
X154455000Y-79985000D03*
X154455000Y-79185000D03*
X148855000Y-83185000D03*
X150455000Y-74385000D03*
D19*
X111900000Y-89100000D03*
X114900000Y-91100000D03*
X110000000Y-90900000D03*
D18*
X125600000Y-64796910D03*
D19*
X122700000Y-65450000D03*
D21*
X124400000Y-70750000D03*
X125600000Y-71850000D03*
X124500000Y-69750000D03*
X134700000Y-65500000D03*
X131900000Y-65100000D03*
X132900000Y-97937500D03*
X129100000Y-97937500D03*
X132900000Y-90537500D03*
D18*
X153655000Y-75985000D03*
X155255000Y-75185000D03*
X154455000Y-75185000D03*
X153655000Y-75185000D03*
X154455000Y-74385000D03*
X153655000Y-74385000D03*
X153655000Y-73585000D03*
X154455000Y-73585000D03*
X154455000Y-72785000D03*
X155255000Y-72785000D03*
X155255000Y-71985000D03*
X154455000Y-71985000D03*
X154455000Y-69585000D03*
X141655000Y-73585000D03*
X147255000Y-83185000D03*
X141655000Y-79185000D03*
X145655000Y-81585000D03*
X149655000Y-71985000D03*
X150455000Y-72785000D03*
X149655000Y-73585000D03*
X150455000Y-73585000D03*
X151255000Y-73585000D03*
X151255000Y-75985000D03*
X149655000Y-75185000D03*
X148855000Y-75185000D03*
X149655000Y-75985000D03*
X148855000Y-75985000D03*
X155255000Y-79185000D03*
D21*
X114750000Y-81500000D03*
D19*
X120250000Y-81500000D03*
D18*
X146455000Y-78385000D03*
X147255000Y-78385000D03*
X148855000Y-78385000D03*
X149669375Y-78384998D03*
X146440623Y-77585002D03*
X147255000Y-77585000D03*
X146455000Y-75185000D03*
X147255000Y-75185000D03*
X146455000Y-75985000D03*
X147255000Y-75985000D03*
X148855000Y-77585000D03*
X149655000Y-77585000D03*
X144855000Y-77585000D03*
X144855000Y-79985000D03*
X144855000Y-80785000D03*
X144055000Y-79985000D03*
X144055000Y-79185000D03*
X144855000Y-79185000D03*
X144855000Y-78385000D03*
X144855000Y-75985000D03*
X144855000Y-75185000D03*
X144055000Y-74385000D03*
X144855000Y-74385000D03*
X144855000Y-73585000D03*
X144855000Y-72785000D03*
X146455000Y-79985000D03*
X147255000Y-80785000D03*
X147255000Y-79985000D03*
X149655000Y-79985000D03*
X150455000Y-79985000D03*
X151255000Y-79185000D03*
X146455000Y-73585000D03*
X147255000Y-73585000D03*
X147255000Y-72785000D03*
X144855000Y-71185000D03*
X145655000Y-69585000D03*
X145655000Y-75985000D03*
X150455000Y-75985000D03*
X145655000Y-77585000D03*
X148855000Y-79185000D03*
X147255000Y-79185000D03*
X148855000Y-74385000D03*
X147255000Y-74385000D03*
X152855000Y-79985000D03*
X152855000Y-80785000D03*
X152855000Y-77585000D03*
X150455000Y-75185000D03*
X149655000Y-74385000D03*
X146455000Y-74385000D03*
X145655000Y-74385000D03*
X145655000Y-75185000D03*
X145655000Y-78385000D03*
X145655000Y-79185000D03*
X146455000Y-79185000D03*
X150455000Y-78385000D03*
X149655000Y-79185000D03*
X150455000Y-79185000D03*
X151255000Y-77585000D03*
X151253351Y-79978403D03*
X150455000Y-77585000D03*
D19*
X157355000Y-71685000D03*
X162325000Y-71350000D03*
D18*
X151255000Y-72785000D03*
X144055000Y-72785000D03*
X144055000Y-80785000D03*
X153655000Y-79985000D03*
X153655000Y-78385000D03*
X153655000Y-77585000D03*
X154455000Y-75985000D03*
X154455000Y-77585000D03*
D19*
X149455000Y-89185000D03*
D22*
X154170000Y-82285000D02*
X154187034Y-82267966D01*
X154187034Y-82267966D02*
X154187034Y-81202034D01*
X154187034Y-81202034D02*
X153770000Y-80785000D01*
D23*
X155640000Y-76785000D02*
X156291492Y-76785000D01*
D24*
X156005989Y-67735989D02*
X154805989Y-67735989D01*
X156255000Y-79985000D02*
X156888402Y-79351598D01*
X156888402Y-79351598D02*
X156888402Y-76528966D01*
X156888402Y-76528966D02*
X156753933Y-76394497D01*
X156753933Y-76394497D02*
X156753933Y-68483933D01*
X156753933Y-68483933D02*
X156005989Y-67735989D01*
X154805989Y-67735989D02*
X154655000Y-67585000D01*
X154655000Y-67585000D02*
X154655000Y-66874176D01*
X154655000Y-66874176D02*
X155603492Y-65925684D01*
D22*
X157055000Y-67880300D02*
X157084887Y-67910187D01*
X157055000Y-66770000D02*
X157055000Y-67880300D01*
D23*
X139455000Y-67585000D02*
X142355000Y-70485000D01*
X151955000Y-70485000D02*
X154255000Y-68185000D01*
X142355000Y-70485000D02*
X151955000Y-70485000D01*
X154255000Y-68185000D02*
X155590601Y-68185000D01*
X155590601Y-68185000D02*
X156125170Y-68719569D01*
D25*
X150355000Y-68385000D02*
X150355000Y-67985000D01*
X150355000Y-67985000D02*
X150774490Y-67565510D01*
X150774490Y-67565510D02*
X151147012Y-67565510D01*
X151147012Y-67565510D02*
X151555000Y-67157522D01*
X151345000Y-65875000D02*
X150312500Y-65875000D01*
X151555000Y-67157522D02*
X151555000Y-66085000D01*
X151555000Y-66085000D02*
X151345000Y-65875000D01*
D23*
X136917500Y-79985000D02*
X137755000Y-79985000D01*
X135296093Y-85726093D02*
X135255000Y-85685000D01*
X137571093Y-86947500D02*
X135533444Y-86947500D01*
X136917500Y-85726093D02*
X135296093Y-85726093D01*
X135533444Y-86947500D02*
X134590098Y-86004154D01*
X135137991Y-79267991D02*
X135055000Y-79185000D01*
X134590098Y-85365846D02*
X135137991Y-84817953D01*
X135055000Y-79185000D02*
X134255000Y-79185000D01*
X134590098Y-86004154D02*
X134590098Y-85365846D01*
X135137991Y-84817953D02*
X135137991Y-79267991D01*
X134255000Y-79185000D02*
X132455000Y-77385000D01*
X132455000Y-77385000D02*
X132455000Y-75885000D01*
X132455000Y-75885000D02*
X131255000Y-74685000D01*
X138792500Y-85726093D02*
X137571093Y-86947500D01*
X137855000Y-83985000D02*
X137855000Y-85285000D01*
X138655000Y-66785000D02*
X141655000Y-66785000D01*
X141655000Y-66785000D02*
X142055000Y-66385000D01*
X138792500Y-79985000D02*
X137255000Y-78447500D01*
X137255000Y-78447500D02*
X137255000Y-74885000D01*
X138255000Y-67185000D02*
X138655000Y-66785000D01*
X137255000Y-74885000D02*
X140355000Y-71785000D01*
X138255000Y-68485000D02*
X138255000Y-67185000D01*
X140355000Y-71785000D02*
X140355000Y-70585000D01*
X140355000Y-70585000D02*
X138255000Y-68485000D01*
D25*
X147655000Y-68185000D02*
X148155000Y-67685000D01*
X148155000Y-67685000D02*
X148155000Y-66085000D01*
D24*
X146087500Y-67175000D02*
X147325890Y-67175000D01*
D25*
X144155000Y-68285000D02*
X144255000Y-68185000D01*
D24*
X150312500Y-67175000D02*
X149045000Y-67175000D01*
D25*
X144055000Y-68385000D02*
X144155000Y-68285000D01*
X144055000Y-68785000D02*
X144055000Y-68385000D01*
D24*
X149045000Y-67175000D02*
X148637602Y-66767602D01*
X148637602Y-64902398D02*
X149405000Y-64135000D01*
X149405000Y-64135000D02*
X155655000Y-64135000D01*
D25*
X144255000Y-68185000D02*
X147655000Y-68185000D01*
D24*
X148637602Y-66767602D02*
X148637602Y-64902398D01*
X147325890Y-67175000D02*
X147635890Y-67485000D01*
X138805000Y-81785000D02*
X138805000Y-79997500D01*
X138805000Y-79997500D02*
X138792500Y-79985000D01*
X136905000Y-83985000D02*
X136905000Y-83235000D01*
X136905000Y-83235000D02*
X137155000Y-82985000D01*
X138555000Y-82985000D02*
X138805000Y-83235000D01*
X137155000Y-82985000D02*
X138555000Y-82985000D01*
X138805000Y-83235000D02*
X138805000Y-83985000D01*
D23*
X138792500Y-85726093D02*
X138792500Y-83997500D01*
X138792500Y-83997500D02*
X138805000Y-83985000D01*
D26*
X129733256Y-74685000D02*
X131255000Y-74685000D01*
D27*
X143655000Y-86785000D02*
X143055000Y-86185000D01*
X143055000Y-86185000D02*
X140555000Y-86185000D01*
X140555000Y-86185000D02*
X138155000Y-88585000D01*
D23*
X150344632Y-81573627D02*
X150344632Y-82674521D01*
X150344632Y-82674521D02*
X149086070Y-83933083D01*
X149086070Y-83933083D02*
X144503083Y-83933083D01*
X144503083Y-83933083D02*
X143340000Y-82770000D01*
X143340000Y-82770000D02*
X143340000Y-80785000D01*
X138955000Y-71285000D02*
X138955000Y-71985000D01*
X135200000Y-75740000D02*
X135200000Y-77800000D01*
X138955000Y-71985000D02*
X135200000Y-75740000D01*
D25*
X144323238Y-65225000D02*
X141655000Y-67893238D01*
D28*
X140600000Y-65419958D02*
X143320042Y-65419958D01*
D25*
X146087500Y-65225000D02*
X144323238Y-65225000D01*
D28*
X143320042Y-65419958D02*
X144255000Y-64485000D01*
D25*
X141655000Y-67893238D02*
X141655000Y-68785000D01*
D23*
X154740000Y-80379756D02*
X155104390Y-80015366D01*
X154740000Y-80785000D02*
X154740000Y-80379756D01*
X150455000Y-92685000D02*
X150455000Y-92785000D01*
X149455000Y-91685000D02*
X150455000Y-92685000D01*
D24*
X122860000Y-74600000D02*
X122815000Y-74555000D01*
X123655000Y-74600000D02*
X122860000Y-74600000D01*
D27*
X124655000Y-76385000D02*
X124655000Y-73685000D01*
D26*
X116838989Y-74701011D02*
X115655000Y-75885000D01*
D27*
X124155002Y-73185002D02*
X123285207Y-73185002D01*
X116055000Y-78085000D02*
X115370067Y-78085000D01*
D26*
X115655000Y-75885000D02*
X115655000Y-77285000D01*
D27*
X115370067Y-78085000D02*
X114055000Y-76769933D01*
X124655000Y-73685000D02*
X124155002Y-73185002D01*
X123285207Y-73185002D02*
X121263187Y-75207022D01*
X121263187Y-75207022D02*
X117132978Y-75207022D01*
D26*
X123075611Y-72678991D02*
X121053591Y-74701011D01*
X121053591Y-74701011D02*
X116838989Y-74701011D01*
D27*
X116455000Y-75885000D02*
X116455000Y-77685000D01*
X117132978Y-75207022D02*
X116455000Y-75885000D01*
X116455000Y-77685000D02*
X116055000Y-78085000D01*
X114055000Y-76769933D02*
X114055000Y-76285000D01*
D26*
X126161009Y-72678991D02*
X123075611Y-72678991D01*
X126555000Y-72285000D02*
X126161009Y-72678991D01*
D23*
X151955000Y-74785000D02*
X151605000Y-74785000D01*
D25*
X151605000Y-74785000D02*
X150855000Y-74785000D01*
D24*
X151955000Y-75755000D02*
X151788862Y-75755000D01*
X151788862Y-75755000D02*
X151247962Y-75214100D01*
D23*
X150455000Y-74385000D02*
X150855000Y-74785000D01*
X147255000Y-72785000D02*
X147840000Y-72785000D01*
X147840000Y-72785000D02*
X148055000Y-73000000D01*
X147255000Y-72785000D02*
X147255000Y-72300000D01*
X147255000Y-72300000D02*
X147040000Y-72085000D01*
X148055000Y-73000000D02*
X148055000Y-71985000D01*
X147955000Y-72085000D02*
X148055000Y-71985000D01*
X147040000Y-72085000D02*
X147955000Y-72085000D01*
X146055000Y-72785000D02*
X146055000Y-72100000D01*
X146055000Y-72100000D02*
X146070000Y-72085000D01*
X146455000Y-72785000D02*
X145655000Y-72785000D01*
X145655000Y-73585000D02*
X145655000Y-72785000D01*
X149117500Y-85185000D02*
X148955000Y-85185000D01*
X150617500Y-86685000D02*
X149117500Y-85185000D01*
X149405000Y-84735000D02*
X148955000Y-85185000D01*
X150617500Y-84735000D02*
X149405000Y-84735000D01*
D25*
X148355000Y-89985000D02*
X148355000Y-88585000D01*
X148355000Y-88585000D02*
X149155000Y-87785000D01*
X149155000Y-87785000D02*
X151305000Y-87785000D01*
X151305000Y-87785000D02*
X151555000Y-87535000D01*
X151555000Y-87535000D02*
X151555000Y-85785000D01*
D22*
X153505000Y-82865000D02*
X153085000Y-83285000D01*
X152855000Y-81447176D02*
X153505000Y-82097176D01*
X152855000Y-81400000D02*
X152855000Y-81447176D01*
X153505000Y-82097176D02*
X153505000Y-82865000D01*
X153085000Y-83285000D02*
X152790000Y-83285000D01*
D23*
X152492500Y-84735000D02*
X152492500Y-83582500D01*
X152492500Y-83582500D02*
X152790000Y-83285000D01*
X151820000Y-83285000D02*
X151355000Y-83285000D01*
X151355000Y-83285000D02*
X151255000Y-83185000D01*
X150617500Y-84735000D02*
X150617500Y-84085000D01*
X153770000Y-80785000D02*
X153655000Y-80785000D01*
X153655000Y-80785000D02*
X152855000Y-79985000D01*
X152855000Y-79985000D02*
X152531711Y-79985000D01*
X152531711Y-79985000D02*
X152070000Y-79523289D01*
X152070000Y-79523289D02*
X152070000Y-79285000D01*
X153040000Y-79285000D02*
X153555000Y-79285000D01*
X153555000Y-79285000D02*
X153655000Y-79185000D01*
X152055000Y-82384998D02*
X152840002Y-82384998D01*
X152840002Y-82384998D02*
X152855000Y-82370000D01*
D24*
X152855000Y-81400000D02*
X152855000Y-80785000D01*
D23*
X155892500Y-84085000D02*
X155892500Y-84222500D01*
X155892500Y-84222500D02*
X156655000Y-84985000D01*
X156655000Y-84985000D02*
X156955000Y-84985000D01*
X155892500Y-85985000D02*
X155892500Y-85847500D01*
X155892500Y-85847500D02*
X156755000Y-84985000D01*
X156755000Y-84985000D02*
X156955000Y-84985000D01*
D26*
X129818990Y-71421010D02*
X128755000Y-72485000D01*
D23*
X130900000Y-71837500D02*
X130900000Y-72699893D01*
X130900000Y-72699893D02*
X130968467Y-72768360D01*
D26*
X126555000Y-72285000D02*
X127333256Y-72285000D01*
X130900000Y-69962500D02*
X129977500Y-70885000D01*
X127333256Y-72285000D02*
X129733256Y-74685000D01*
X129977500Y-70885000D02*
X129818990Y-71043510D01*
X129818990Y-71043510D02*
X129818990Y-71421010D01*
X135200000Y-77630000D02*
X133655000Y-76085000D01*
D23*
X135200000Y-77800000D02*
X135200000Y-77630000D01*
X127455000Y-97185000D02*
X127455000Y-96645000D01*
X127455000Y-96645000D02*
X129100000Y-95000000D01*
X151255000Y-72785000D02*
X152855000Y-72785000D01*
X155855000Y-71785000D02*
X155855000Y-75485000D01*
X152855000Y-72785000D02*
X154255000Y-71385000D01*
X154255000Y-71385000D02*
X155455000Y-71385000D01*
X155455000Y-71385000D02*
X155855000Y-71785000D01*
X155855000Y-75485000D02*
X155355000Y-75985000D01*
X155355000Y-75985000D02*
X154455000Y-75985000D01*
X144055000Y-72785000D02*
X145455000Y-71385000D01*
X145455000Y-71385000D02*
X149855000Y-71385000D01*
X149855000Y-71385000D02*
X151255000Y-72785000D01*
D29*
X142592500Y-75485000D02*
X141855000Y-75485000D01*
X141555000Y-75785000D02*
X141555000Y-77015000D01*
X141855000Y-75485000D02*
X141555000Y-75785000D01*
X141555000Y-77015000D02*
X140770000Y-77800000D01*
X140770000Y-77800000D02*
X139200000Y-77800000D01*
X142592500Y-76447500D02*
X142592500Y-79122500D01*
X142592500Y-79122500D02*
X143340000Y-79870000D01*
X142592500Y-75485000D02*
X142592500Y-73585000D01*
X142592500Y-76447500D02*
X142592500Y-75485000D01*
X140717500Y-73585000D02*
X139755000Y-73585000D01*
X140717500Y-75485000D02*
X139655000Y-75485000D01*
X143255000Y-73585000D02*
X142692500Y-73585000D01*
X143340000Y-80785000D02*
X143340000Y-79870000D01*
X144055000Y-72785000D02*
X143255000Y-73585000D01*
D28*
X135155000Y-93485000D02*
X132910000Y-93485000D01*
X132910000Y-93485000D02*
X132900000Y-93475000D01*
X139155000Y-93485000D02*
X140555000Y-93485000D01*
X140555000Y-93485000D02*
X141255000Y-94185000D01*
X141255000Y-94185000D02*
X152055000Y-94185000D01*
X152055000Y-94185000D02*
X154017500Y-92222500D01*
X154017500Y-92222500D02*
X154017500Y-85985000D01*
D23*
X154017500Y-84085000D02*
X154017500Y-83122500D01*
X154017500Y-83122500D02*
X154170000Y-82970000D01*
X154170000Y-82970000D02*
X154170000Y-82285000D01*
D24*
X125300000Y-64796910D02*
X125600000Y-64796910D01*
X132800000Y-71837500D02*
X132800000Y-72900000D01*
X132800000Y-72900000D02*
X133785000Y-73885000D01*
X133785000Y-73885000D02*
X134915000Y-73885000D01*
X134915000Y-73885000D02*
X135700000Y-73100000D01*
X135700000Y-69437500D02*
X134700000Y-68437500D01*
X135700000Y-73100000D02*
X135700000Y-69437500D01*
X134700000Y-72855000D02*
X134655000Y-72900000D01*
X134700000Y-71837500D02*
X134700000Y-72855000D01*
D27*
X129240000Y-77900000D02*
X129555000Y-77585000D01*
X128437500Y-77900000D02*
X129240000Y-77900000D01*
D24*
X152140000Y-78385000D02*
X152055000Y-78385000D01*
X152055000Y-78385000D02*
X151255000Y-79185000D01*
D25*
X146087500Y-66525000D02*
X144615000Y-66525000D01*
X143255000Y-67885000D02*
X143255000Y-68785000D01*
X144615000Y-66525000D02*
X143255000Y-67885000D01*
X146087500Y-65875000D02*
X144165000Y-65875000D01*
X144165000Y-65875000D02*
X142455000Y-67585000D01*
X142455000Y-67585000D02*
X142455000Y-68785000D01*
X150312500Y-65225000D02*
X149215000Y-65225000D01*
X149215000Y-65225000D02*
X149155000Y-65285000D01*
D23*
X155140000Y-82285000D02*
X155140000Y-81700000D01*
X155140000Y-81700000D02*
X155255000Y-81585000D01*
X151355000Y-81770000D02*
X151355000Y-82384998D01*
X151355000Y-82384998D02*
X152055000Y-82384998D01*
X151255000Y-83185000D02*
X151355000Y-83085000D01*
X151355000Y-83085000D02*
X151355000Y-81770000D01*
X150617500Y-84085000D02*
X150617500Y-83822500D01*
X150617500Y-83822500D02*
X151255000Y-83185000D01*
X151355000Y-80800000D02*
X152040000Y-80800000D01*
X152040000Y-80800000D02*
X152855000Y-79985000D01*
D24*
X149374632Y-81573627D02*
X149655000Y-81293259D01*
X149655000Y-81293259D02*
X149655000Y-80785000D01*
X150344632Y-81573627D02*
X150455000Y-81463259D01*
X150455000Y-81463259D02*
X150455000Y-80785000D01*
D23*
X150617500Y-86685000D02*
X150617500Y-84785000D01*
X152492500Y-86685000D02*
X152492500Y-84785000D01*
X155892500Y-85985000D02*
X155892500Y-84085000D01*
X154017500Y-85985000D02*
X154017500Y-84085000D01*
D22*
X155600000Y-67150000D02*
X155890000Y-67150000D01*
X155890000Y-67150000D02*
X156270000Y-66770000D01*
X156270000Y-66770000D02*
X157055000Y-66770000D01*
D24*
X157040000Y-66785000D02*
X157055000Y-66770000D01*
X160750000Y-71680000D02*
X158500000Y-71680000D01*
X158500000Y-72950000D02*
X159260000Y-72950000D01*
X159260000Y-72950000D02*
X159505000Y-73195000D01*
X159505000Y-75285000D02*
X158805000Y-75985000D01*
X159505000Y-73195000D02*
X159505000Y-75285000D01*
X158255000Y-74465000D02*
X158255000Y-76149250D01*
X158255000Y-76149250D02*
X158573351Y-76467601D01*
X158573351Y-76467601D02*
X159014913Y-76467601D01*
X159014913Y-76467601D02*
X159476257Y-76006257D01*
X157055000Y-65800000D02*
X156890000Y-65635000D01*
X156890000Y-65635000D02*
X156615602Y-65635000D01*
X156615602Y-65635000D02*
X156485602Y-65505000D01*
X153400000Y-65250000D02*
X154140000Y-65250000D01*
X154140000Y-65250000D02*
X154755000Y-64635000D01*
X154755000Y-64635000D02*
X157755000Y-64635000D01*
X157755000Y-64635000D02*
X158755000Y-65635000D01*
X153400000Y-66200000D02*
X154140000Y-66200000D01*
X154555000Y-65785000D02*
X154555000Y-65585000D01*
X154140000Y-66200000D02*
X154555000Y-65785000D01*
X155608177Y-65937470D02*
X155608177Y-65258177D01*
X155608177Y-65258177D02*
X155600000Y-65250000D01*
X150312500Y-66525000D02*
X149395000Y-66525000D01*
X149395000Y-66525000D02*
X149155000Y-66285000D01*
X152555000Y-65785000D02*
X152555000Y-66985000D01*
X152355000Y-65585000D02*
X152555000Y-65785000D01*
X152555000Y-66985000D02*
X152720000Y-67150000D01*
X152720000Y-67150000D02*
X153400000Y-67150000D01*
D23*
X118036386Y-75826114D02*
X117362500Y-76500000D01*
X118311573Y-75826114D02*
X118036386Y-75826114D01*
X116477500Y-79285000D02*
X117362500Y-78400000D01*
X115695000Y-79285000D02*
X116477500Y-79285000D01*
X117362500Y-76500000D02*
X117362500Y-78400000D01*
X126055000Y-98585000D02*
X127455000Y-97185000D01*
X122355000Y-98585000D02*
X126055000Y-98585000D01*
D24*
X124440000Y-78528165D02*
X124440000Y-79170000D01*
X124440000Y-79170000D02*
X124455000Y-79185000D01*
D26*
X125055000Y-95385000D02*
X126355000Y-95385000D01*
X115555000Y-84485000D02*
X115555000Y-85885000D01*
X115555000Y-85885000D02*
X125055000Y-95385000D01*
D23*
X144055000Y-80785000D02*
X143340000Y-80785000D01*
D24*
X153740000Y-76785000D02*
X153740000Y-76070000D01*
X153740000Y-76070000D02*
X153655000Y-75985000D01*
X153740000Y-76785000D02*
X153740000Y-77500000D01*
X153740000Y-77500000D02*
X153655000Y-77585000D01*
X152770000Y-76785000D02*
X152770000Y-76870000D01*
X152770000Y-76870000D02*
X152055000Y-77585000D01*
X152055000Y-77585000D02*
X151255000Y-77585000D01*
X146455000Y-82470000D02*
X146455000Y-83185000D01*
X146455000Y-80785000D02*
X146455000Y-81500000D01*
D25*
X141812321Y-92742321D02*
X147555000Y-92742321D01*
X137555000Y-88485000D02*
X141812321Y-92742321D01*
X126831711Y-88485000D02*
X137555000Y-88485000D01*
X123855000Y-85508289D02*
X126831711Y-88485000D01*
X123855000Y-85185000D02*
X123855000Y-85508289D01*
X122655000Y-85185000D02*
X122655000Y-85585000D01*
X122655000Y-85585000D02*
X126255000Y-89185000D01*
X126255000Y-89185000D02*
X137255000Y-89185000D01*
X137255000Y-89185000D02*
X141485433Y-93415433D01*
X141485433Y-93415433D02*
X148113968Y-93415433D01*
X148113968Y-93415433D02*
X148508604Y-93020797D01*
X126992967Y-88222967D02*
X137792967Y-88222967D01*
X124455000Y-85685000D02*
X126992967Y-88222967D01*
X124455000Y-85185000D02*
X124455000Y-85685000D01*
X148096685Y-92943490D02*
X148096685Y-92360092D01*
X147756169Y-92323211D02*
X147974101Y-92105279D01*
X148355000Y-89985000D02*
X148355000Y-91104110D01*
X137792967Y-88222967D02*
X141893211Y-92323211D01*
X148096685Y-92360092D02*
X148481552Y-91975225D01*
X147878753Y-93161422D02*
X148096685Y-92943490D01*
X137400989Y-88830989D02*
X141731422Y-93161422D01*
X141893211Y-92323211D02*
X147756169Y-92323211D01*
X123255000Y-85508289D02*
X126577700Y-88830989D01*
X141731422Y-93161422D02*
X147878753Y-93161422D01*
X147974101Y-92105279D02*
X147974101Y-91844233D01*
X126577700Y-88830989D02*
X137400989Y-88830989D01*
X148355000Y-91104110D02*
X147555000Y-91904110D01*
X123255000Y-85185000D02*
X123255000Y-85508289D01*
X147974101Y-91844233D02*
X148755000Y-91063334D01*
X148755000Y-91063334D02*
X148755000Y-88985000D01*
X148755000Y-88985000D02*
X149455000Y-88285000D01*
X148355000Y-89985000D02*
X148355000Y-90285000D01*
D24*
X131050000Y-90997500D02*
X131050000Y-90080000D01*
X131050000Y-90080000D02*
X130655000Y-89685000D01*
X130655000Y-89685000D02*
X127115000Y-89685000D01*
X127115000Y-89685000D02*
X125400000Y-91400000D01*
D23*
X130100000Y-90997500D02*
X130100000Y-90478195D01*
D24*
X130655000Y-86970000D02*
X130655000Y-87689557D01*
D23*
X130100000Y-90478195D02*
X130222674Y-90355521D01*
X126562500Y-77900000D02*
X125977500Y-78485000D01*
X125977500Y-78485000D02*
X125455000Y-78485000D01*
X118050000Y-82450000D02*
X118430326Y-82450000D01*
X118430326Y-82450000D02*
X119340163Y-81540163D01*
X118050000Y-81500000D02*
X117074826Y-81500000D01*
X117074826Y-81500000D02*
X116899136Y-81675690D01*
X126562500Y-81700000D02*
X126562500Y-82977500D01*
X126562500Y-82977500D02*
X126555000Y-82985000D01*
D24*
X126562500Y-81700000D02*
X126552082Y-81710418D01*
X124098165Y-77900000D02*
X123470000Y-78528165D01*
X124125418Y-81710418D02*
X123415000Y-81000000D01*
X126562500Y-77900000D02*
X124098165Y-77900000D01*
X126267343Y-79504843D02*
X125326923Y-79504843D01*
X126562500Y-79800000D02*
X126267343Y-79504843D01*
D27*
X124385000Y-81000000D02*
X125149210Y-81000000D01*
X125149210Y-81000000D02*
X125379768Y-80769442D01*
D24*
X126552082Y-81710418D02*
X124125418Y-81710418D01*
X130939524Y-76728132D02*
X131251074Y-76416582D01*
X130939524Y-77388110D02*
X130939524Y-76728132D01*
X125437500Y-84000000D02*
X125437500Y-84902500D01*
X125437500Y-84902500D02*
X125155000Y-85185000D01*
D26*
X126555000Y-69885000D02*
X126555000Y-72285000D01*
D27*
X111855000Y-75285000D02*
X114355000Y-72785000D01*
X114355000Y-72785000D02*
X120655000Y-72785000D01*
X126940000Y-85485000D02*
X127355000Y-85485000D01*
X127355000Y-85485000D02*
X127655000Y-85185000D01*
X125970000Y-85485000D02*
X125455000Y-85485000D01*
X125455000Y-85485000D02*
X125155000Y-85185000D01*
D24*
X123415000Y-82500000D02*
X122884806Y-82500000D01*
X122884806Y-82500000D02*
X122869935Y-82514871D01*
D27*
X125140000Y-82500000D02*
X125155000Y-82485000D01*
X124385000Y-82500000D02*
X125140000Y-82500000D01*
X128437500Y-81700000D02*
X128437500Y-82967500D01*
X128437500Y-82967500D02*
X128455000Y-82985000D01*
X129440000Y-79800000D02*
X129455000Y-79785000D01*
X128437500Y-79800000D02*
X129440000Y-79800000D01*
D24*
X134222411Y-82585000D02*
X134299186Y-82508225D01*
X133540000Y-82585000D02*
X134222411Y-82585000D01*
D27*
X132570000Y-82585000D02*
X131755000Y-82585000D01*
X130939524Y-79263110D02*
X130939524Y-80369524D01*
X130939524Y-80369524D02*
X130955000Y-80385000D01*
D24*
X109200000Y-84237500D02*
X109200000Y-85560000D01*
X109200000Y-85560000D02*
X108955000Y-85805000D01*
X109200000Y-78762500D02*
X109200000Y-77410000D01*
X109200000Y-77410000D02*
X108955000Y-77165000D01*
X111332500Y-82362500D02*
X111655000Y-82685000D01*
X109200000Y-82362500D02*
X111332500Y-82362500D01*
X111502500Y-80637500D02*
X111555000Y-80585000D01*
X109200000Y-80637500D02*
X111502500Y-80637500D01*
X114655000Y-82485000D02*
X115815000Y-82485000D01*
X115815000Y-82485000D02*
X115850000Y-82450000D01*
D22*
X115815000Y-80585000D02*
X115850000Y-80550000D01*
D24*
X114655000Y-80585000D02*
X115815000Y-80585000D01*
X132570000Y-80085000D02*
X131755000Y-80085000D01*
X134455000Y-80085000D02*
X133540000Y-80085000D01*
X123655000Y-75570000D02*
X123655000Y-76385000D01*
X130655000Y-86000000D02*
X130655000Y-85185000D01*
X119237500Y-76500000D02*
X119870000Y-76500000D01*
X119870000Y-76500000D02*
X120255000Y-76885000D01*
X119237500Y-78400000D02*
X119940000Y-78400000D01*
X119940000Y-78400000D02*
X120255000Y-78085000D01*
X127655000Y-75570000D02*
X127655000Y-76485000D01*
X127655000Y-74600000D02*
X127655000Y-73685000D01*
X122799850Y-83762618D02*
X123325118Y-83762618D01*
X123325118Y-83762618D02*
X123562500Y-84000000D01*
X122855000Y-80985000D02*
X123400000Y-80985000D01*
X123400000Y-80985000D02*
X123415000Y-81000000D01*
X122853914Y-78537373D02*
X123413997Y-78537373D01*
X123413997Y-78537373D02*
X123423205Y-78528165D01*
D25*
X122891287Y-78500000D02*
X122853914Y-78537373D01*
D24*
X160750000Y-74220000D02*
X160750000Y-75180000D01*
D27*
X160750000Y-75180000D02*
X160755000Y-75185000D01*
D25*
X158500000Y-74220000D02*
X158255000Y-74465000D01*
D24*
X158500000Y-71680000D02*
X157360000Y-71680000D01*
X142455000Y-81585000D02*
X142455000Y-80870000D01*
X142455000Y-80870000D02*
X142370000Y-80785000D01*
X151170000Y-78385000D02*
X151170000Y-78470000D01*
X151170000Y-78470000D02*
X150455000Y-79185000D01*
D26*
X136600000Y-67777998D02*
X136600000Y-65419958D01*
X134700000Y-68437500D02*
X135940498Y-68437500D01*
X135940498Y-68437500D02*
X136600000Y-67777998D01*
D24*
X124646910Y-65450000D02*
X125300000Y-64796910D01*
X122400000Y-65450000D02*
X124646910Y-65450000D01*
X127300000Y-93275000D02*
X125400000Y-93275000D01*
X129100000Y-95000000D02*
X128162500Y-95000000D01*
X128162500Y-95000000D02*
X127300000Y-94137500D01*
X127300000Y-94137500D02*
X127300000Y-93275000D01*
X129862500Y-69962500D02*
X129100000Y-69200000D01*
X129100000Y-69200000D02*
X129100000Y-68437500D01*
X130900000Y-69962500D02*
X129862500Y-69962500D01*
X128800000Y-90137500D02*
X127900000Y-90137500D01*
X129150000Y-90997500D02*
X129150000Y-90487500D01*
X129150000Y-90487500D02*
X128800000Y-90137500D01*
X127900000Y-90137500D02*
X127300000Y-90737500D01*
X127300000Y-90737500D02*
X127300000Y-91400000D01*
X130950000Y-65450000D02*
X130800000Y-65300000D01*
X130950000Y-65960000D02*
X130950000Y-65450000D01*
X130800000Y-65300000D02*
X129600000Y-65300000D01*
X129600000Y-65300000D02*
X129100000Y-65800000D01*
X129100000Y-65800000D02*
X129100000Y-66562500D01*
X127200000Y-65800000D02*
X128700000Y-64300000D01*
X132400000Y-64300000D02*
X132850000Y-64750000D01*
X132850000Y-64750000D02*
X132850000Y-65960000D01*
X128700000Y-64300000D02*
X132400000Y-64300000D01*
X127200000Y-66562500D02*
X127200000Y-65800000D01*
X127200000Y-68437500D02*
X129100000Y-68437500D01*
X134700000Y-69962500D02*
X132800000Y-69962500D01*
X131900000Y-68640000D02*
X131900000Y-69062500D01*
X131900000Y-69062500D02*
X132800000Y-69962500D01*
D23*
X134700000Y-66562500D02*
X134700000Y-65500000D01*
X131900000Y-65960000D02*
X131900000Y-65100000D01*
X132850000Y-68640000D02*
X134497500Y-68640000D01*
X134497500Y-68640000D02*
X134700000Y-68437500D01*
X130950000Y-68640000D02*
X130950000Y-69912500D01*
X130950000Y-69912500D02*
X130900000Y-69962500D01*
D24*
X131500000Y-98437500D02*
X131800000Y-98737500D01*
X131000000Y-97937500D02*
X131500000Y-98437500D01*
X133300000Y-98737500D02*
X133900000Y-98137500D01*
X131800000Y-98737500D02*
X133300000Y-98737500D01*
X133900000Y-98137500D02*
X133900000Y-94475000D01*
X133900000Y-94475000D02*
X132900000Y-93475000D01*
X132900000Y-96875000D02*
X132900000Y-97937500D01*
X131000000Y-96875000D02*
X131000000Y-97937500D01*
D23*
X129100000Y-96875000D02*
X129100000Y-97937500D01*
X132900000Y-91600000D02*
X132900000Y-90537500D01*
D24*
X132900000Y-95000000D02*
X131000000Y-95000000D01*
D23*
X131050000Y-93677500D02*
X132697500Y-93677500D01*
X132697500Y-93677500D02*
X132900000Y-93475000D01*
X130100000Y-93677500D02*
X130100000Y-94100000D01*
X130100000Y-94100000D02*
X131000000Y-95000000D01*
X129150000Y-93677500D02*
X129150000Y-94950000D01*
X129150000Y-94950000D02*
X129100000Y-95000000D01*
X115850000Y-81500000D02*
X114750000Y-81500000D01*
X118050000Y-80550000D02*
X118845001Y-80550000D01*
X119300000Y-80550000D02*
X120250000Y-81500000D01*
X118845001Y-80550000D02*
X119300000Y-80550000D01*
D24*
X147370000Y-75870000D02*
X147255000Y-75985000D01*
X148055000Y-75870000D02*
X147370000Y-75870000D01*
X147140000Y-77470000D02*
X147255000Y-77585000D01*
X147140000Y-76785000D02*
X147140000Y-77470000D01*
X148970000Y-76100000D02*
X148855000Y-75985000D01*
X148970000Y-76785000D02*
X148970000Y-76100000D01*
X148740000Y-77700000D02*
X148855000Y-77585000D01*
X148055000Y-77700000D02*
X148740000Y-77700000D01*
X147370000Y-77700000D02*
X147255000Y-77585000D01*
X148055000Y-77700000D02*
X147370000Y-77700000D01*
X148970000Y-77470000D02*
X148855000Y-77585000D01*
X148970000Y-76785000D02*
X148970000Y-77470000D01*
X148740000Y-75870000D02*
X148855000Y-75985000D01*
X148055000Y-75870000D02*
X148740000Y-75870000D01*
X147140000Y-76100000D02*
X147255000Y-75985000D01*
X147140000Y-76785000D02*
X147140000Y-76100000D01*
X151840000Y-76570000D02*
X151255000Y-75985000D01*
X151840000Y-76785000D02*
X151840000Y-76570000D01*
X147470000Y-80570000D02*
X147255000Y-80785000D01*
X148055000Y-80570000D02*
X147470000Y-80570000D01*
X144855000Y-77555000D02*
X144855000Y-77585000D01*
X144270000Y-76785000D02*
X144270000Y-76970000D01*
X144270000Y-76970000D02*
X144855000Y-77555000D01*
X145655000Y-76075000D02*
X145655000Y-75985000D01*
X145240000Y-76785000D02*
X145240000Y-76490000D01*
X145240000Y-76490000D02*
X145655000Y-76075000D01*
X146170000Y-77070000D02*
X145655000Y-77585000D01*
X146170000Y-76785000D02*
X146170000Y-77070000D01*
X150870000Y-77170000D02*
X150455000Y-77585000D01*
X150870000Y-76785000D02*
X150870000Y-77170000D01*
X149940000Y-76500000D02*
X150455000Y-75985000D01*
X149940000Y-76785000D02*
X149940000Y-76500000D01*
X148440000Y-79600000D02*
X148855000Y-79185000D01*
X148055000Y-79600000D02*
X148440000Y-79600000D01*
X147425000Y-79185000D02*
X147255000Y-79185000D01*
X148055000Y-78670000D02*
X147940000Y-78670000D01*
X147940000Y-78670000D02*
X147425000Y-79185000D01*
X148440000Y-73970000D02*
X148855000Y-74385000D01*
X148055000Y-73970000D02*
X148440000Y-73970000D01*
X147770000Y-74900000D02*
X147255000Y-74385000D01*
X148055000Y-74900000D02*
X147770000Y-74900000D01*
X154670000Y-76200000D02*
X154455000Y-75985000D01*
X154670000Y-76785000D02*
X154670000Y-76200000D01*
X154670000Y-77370000D02*
X154455000Y-77585000D01*
X154670000Y-76785000D02*
X154670000Y-77370000D01*
X153570000Y-80700000D02*
X152855000Y-79985000D01*
M02*
