G04 #@! TF.GenerationSoftware,KiCad,Pcbnew,(5.99.0-2267-g4486b0b6d)*
G04 #@! TF.CreationDate,2020-07-12T23:07:06+02:00*
G04 #@! TF.ProjectId,TDR,5444522e-6b69-4636-9164-5f7063625858,A*
G04 #@! TF.SameCoordinates,Original*
G04 #@! TF.FileFunction,Paste,Top*
G04 #@! TF.FilePolarity,Positive*
%FSLAX46Y46*%
G04 Gerber Fmt 4.6, Leading zero omitted, Abs format (unit mm)*
G04 Created by KiCad (PCBNEW (5.99.0-2267-g4486b0b6d)) date 2020-07-12 23:07:06*
%MOMM*%
%LPD*%
G01*
G04 APERTURE LIST*
%ADD10R,2.000000X1.000000*%
%ADD11C,0.400000*%
%ADD12R,0.400000X0.450000*%
%ADD13R,1.060000X0.650000*%
%ADD14R,1.200000X1.400000*%
%ADD15R,2.800000X2.000000*%
G04 APERTURE END LIST*
G36*
G01*
X151071666Y-66075000D02*
X151416666Y-66075000D01*
G75*
G02*
X151564166Y-66222500I0J-147500D01*
G01*
X151564166Y-66517500D01*
G75*
G02*
X151416666Y-66665000I-147500J0D01*
G01*
X151071666Y-66665000D01*
G75*
G02*
X150924166Y-66517500I0J147500D01*
G01*
X150924166Y-66222500D01*
G75*
G02*
X151071666Y-66075000I147500J0D01*
G01*
G37*
G36*
G01*
X151071666Y-65105000D02*
X151416666Y-65105000D01*
G75*
G02*
X151564166Y-65252500I0J-147500D01*
G01*
X151564166Y-65547500D01*
G75*
G02*
X151416666Y-65695000I-147500J0D01*
G01*
X151071666Y-65695000D01*
G75*
G02*
X150924166Y-65547500I0J147500D01*
G01*
X150924166Y-65252500D01*
G75*
G02*
X151071666Y-65105000I147500J0D01*
G01*
G37*
G36*
G01*
X132405000Y-71628750D02*
X132405000Y-72541250D01*
G75*
G02*
X132161250Y-72785000I-243750J0D01*
G01*
X131673750Y-72785000D01*
G75*
G02*
X131430000Y-72541250I0J243750D01*
G01*
X131430000Y-71628750D01*
G75*
G02*
X131673750Y-71385000I243750J0D01*
G01*
X132161250Y-71385000D01*
G75*
G02*
X132405000Y-71628750I0J-243750D01*
G01*
G37*
G36*
G01*
X134280000Y-71628750D02*
X134280000Y-72541250D01*
G75*
G02*
X134036250Y-72785000I-243750J0D01*
G01*
X133548750Y-72785000D01*
G75*
G02*
X133305000Y-72541250I0J243750D01*
G01*
X133305000Y-71628750D01*
G75*
G02*
X133548750Y-71385000I243750J0D01*
G01*
X134036250Y-71385000D01*
G75*
G02*
X134280000Y-71628750I0J-243750D01*
G01*
G37*
G36*
G01*
X132405000Y-69728750D02*
X132405000Y-70641250D01*
G75*
G02*
X132161250Y-70885000I-243750J0D01*
G01*
X131673750Y-70885000D01*
G75*
G02*
X131430000Y-70641250I0J243750D01*
G01*
X131430000Y-69728750D01*
G75*
G02*
X131673750Y-69485000I243750J0D01*
G01*
X132161250Y-69485000D01*
G75*
G02*
X132405000Y-69728750I0J-243750D01*
G01*
G37*
G36*
G01*
X134280000Y-69728750D02*
X134280000Y-70641250D01*
G75*
G02*
X134036250Y-70885000I-243750J0D01*
G01*
X133548750Y-70885000D01*
G75*
G02*
X133305000Y-70641250I0J243750D01*
G01*
X133305000Y-69728750D01*
G75*
G02*
X133548750Y-69485000I243750J0D01*
G01*
X134036250Y-69485000D01*
G75*
G02*
X134280000Y-69728750I0J-243750D01*
G01*
G37*
G36*
G01*
X132405000Y-67828750D02*
X132405000Y-68741250D01*
G75*
G02*
X132161250Y-68985000I-243750J0D01*
G01*
X131673750Y-68985000D01*
G75*
G02*
X131430000Y-68741250I0J243750D01*
G01*
X131430000Y-67828750D01*
G75*
G02*
X131673750Y-67585000I243750J0D01*
G01*
X132161250Y-67585000D01*
G75*
G02*
X132405000Y-67828750I0J-243750D01*
G01*
G37*
G36*
G01*
X134280000Y-67828750D02*
X134280000Y-68741250D01*
G75*
G02*
X134036250Y-68985000I-243750J0D01*
G01*
X133548750Y-68985000D01*
G75*
G02*
X133305000Y-68741250I0J243750D01*
G01*
X133305000Y-67828750D01*
G75*
G02*
X133548750Y-67585000I243750J0D01*
G01*
X134036250Y-67585000D01*
G75*
G02*
X134280000Y-67828750I0J-243750D01*
G01*
G37*
G36*
G01*
X132405000Y-65928750D02*
X132405000Y-66841250D01*
G75*
G02*
X132161250Y-67085000I-243750J0D01*
G01*
X131673750Y-67085000D01*
G75*
G02*
X131430000Y-66841250I0J243750D01*
G01*
X131430000Y-65928750D01*
G75*
G02*
X131673750Y-65685000I243750J0D01*
G01*
X132161250Y-65685000D01*
G75*
G02*
X132405000Y-65928750I0J-243750D01*
G01*
G37*
G36*
G01*
X134280000Y-65928750D02*
X134280000Y-66841250D01*
G75*
G02*
X134036250Y-67085000I-243750J0D01*
G01*
X133548750Y-67085000D01*
G75*
G02*
X133305000Y-66841250I0J243750D01*
G01*
X133305000Y-65928750D01*
G75*
G02*
X133548750Y-65685000I243750J0D01*
G01*
X134036250Y-65685000D01*
G75*
G02*
X134280000Y-65928750I0J-243750D01*
G01*
G37*
G36*
G01*
X136955000Y-74185000D02*
X136955000Y-73385000D01*
G75*
G02*
X137205000Y-73135000I250000J0D01*
G01*
X138030000Y-73135000D01*
G75*
G02*
X138280000Y-73385000I0J-250000D01*
G01*
X138280000Y-74185000D01*
G75*
G02*
X138030000Y-74435000I-250000J0D01*
G01*
X137205000Y-74435000D01*
G75*
G02*
X136955000Y-74185000I0J250000D01*
G01*
G37*
G36*
G01*
X135030000Y-74185000D02*
X135030000Y-73385000D01*
G75*
G02*
X135280000Y-73135000I250000J0D01*
G01*
X136105000Y-73135000D01*
G75*
G02*
X136355000Y-73385000I0J-250000D01*
G01*
X136355000Y-74185000D01*
G75*
G02*
X136105000Y-74435000I-250000J0D01*
G01*
X135280000Y-74435000D01*
G75*
G02*
X135030000Y-74185000I0J250000D01*
G01*
G37*
G36*
G01*
X136955000Y-72385000D02*
X136955000Y-71585000D01*
G75*
G02*
X137205000Y-71335000I250000J0D01*
G01*
X138030000Y-71335000D01*
G75*
G02*
X138280000Y-71585000I0J-250000D01*
G01*
X138280000Y-72385000D01*
G75*
G02*
X138030000Y-72635000I-250000J0D01*
G01*
X137205000Y-72635000D01*
G75*
G02*
X136955000Y-72385000I0J250000D01*
G01*
G37*
G36*
G01*
X135030000Y-72385000D02*
X135030000Y-71585000D01*
G75*
G02*
X135280000Y-71335000I250000J0D01*
G01*
X136105000Y-71335000D01*
G75*
G02*
X136355000Y-71585000I0J-250000D01*
G01*
X136355000Y-72385000D01*
G75*
G02*
X136105000Y-72635000I-250000J0D01*
G01*
X135280000Y-72635000D01*
G75*
G02*
X135030000Y-72385000I0J250000D01*
G01*
G37*
G36*
G01*
X136955000Y-70585000D02*
X136955000Y-69785000D01*
G75*
G02*
X137205000Y-69535000I250000J0D01*
G01*
X138030000Y-69535000D01*
G75*
G02*
X138280000Y-69785000I0J-250000D01*
G01*
X138280000Y-70585000D01*
G75*
G02*
X138030000Y-70835000I-250000J0D01*
G01*
X137205000Y-70835000D01*
G75*
G02*
X136955000Y-70585000I0J250000D01*
G01*
G37*
G36*
G01*
X135030000Y-70585000D02*
X135030000Y-69785000D01*
G75*
G02*
X135280000Y-69535000I250000J0D01*
G01*
X136105000Y-69535000D01*
G75*
G02*
X136355000Y-69785000I0J-250000D01*
G01*
X136355000Y-70585000D01*
G75*
G02*
X136105000Y-70835000I-250000J0D01*
G01*
X135280000Y-70835000D01*
G75*
G02*
X135030000Y-70585000I0J250000D01*
G01*
G37*
G36*
G01*
X136955000Y-68785000D02*
X136955000Y-67985000D01*
G75*
G02*
X137205000Y-67735000I250000J0D01*
G01*
X138030000Y-67735000D01*
G75*
G02*
X138280000Y-67985000I0J-250000D01*
G01*
X138280000Y-68785000D01*
G75*
G02*
X138030000Y-69035000I-250000J0D01*
G01*
X137205000Y-69035000D01*
G75*
G02*
X136955000Y-68785000I0J250000D01*
G01*
G37*
G36*
G01*
X135030000Y-68785000D02*
X135030000Y-67985000D01*
G75*
G02*
X135280000Y-67735000I250000J0D01*
G01*
X136105000Y-67735000D01*
G75*
G02*
X136355000Y-67985000I0J-250000D01*
G01*
X136355000Y-68785000D01*
G75*
G02*
X136105000Y-69035000I-250000J0D01*
G01*
X135280000Y-69035000D01*
G75*
G02*
X135030000Y-68785000I0J250000D01*
G01*
G37*
D10*
X108955000Y-82885000D03*
X108955000Y-80085000D03*
G36*
G01*
X112707000Y-84325000D02*
X113603000Y-84325000D01*
G75*
G02*
X113655000Y-84377000I0J-52000D01*
G01*
X113655000Y-84793000D01*
G75*
G02*
X113603000Y-84845000I-52000J0D01*
G01*
X112707000Y-84845000D01*
G75*
G02*
X112655000Y-84793000I0J52000D01*
G01*
X112655000Y-84377000D01*
G75*
G02*
X112707000Y-84325000I52000J0D01*
G01*
G37*
G36*
G01*
X112707000Y-83575000D02*
X113603000Y-83575000D01*
G75*
G02*
X113655000Y-83627000I0J-52000D01*
G01*
X113655000Y-84043000D01*
G75*
G02*
X113603000Y-84095000I-52000J0D01*
G01*
X112707000Y-84095000D01*
G75*
G02*
X112655000Y-84043000I0J52000D01*
G01*
X112655000Y-83627000D01*
G75*
G02*
X112707000Y-83575000I52000J0D01*
G01*
G37*
G36*
G01*
X112707000Y-78875000D02*
X113603000Y-78875000D01*
G75*
G02*
X113655000Y-78927000I0J-52000D01*
G01*
X113655000Y-79343000D01*
G75*
G02*
X113603000Y-79395000I-52000J0D01*
G01*
X112707000Y-79395000D01*
G75*
G02*
X112655000Y-79343000I0J52000D01*
G01*
X112655000Y-78927000D01*
G75*
G02*
X112707000Y-78875000I52000J0D01*
G01*
G37*
G36*
G01*
X112707000Y-78125000D02*
X113603000Y-78125000D01*
G75*
G02*
X113655000Y-78177000I0J-52000D01*
G01*
X113655000Y-78593000D01*
G75*
G02*
X113603000Y-78645000I-52000J0D01*
G01*
X112707000Y-78645000D01*
G75*
G02*
X112655000Y-78593000I0J52000D01*
G01*
X112655000Y-78177000D01*
G75*
G02*
X112707000Y-78125000I52000J0D01*
G01*
G37*
G36*
G01*
X112707000Y-78125000D02*
X113603000Y-78125000D01*
G75*
G02*
X113655000Y-78177000I0J-52000D01*
G01*
X113655000Y-78593000D01*
G75*
G02*
X113603000Y-78645000I-52000J0D01*
G01*
X112707000Y-78645000D01*
G75*
G02*
X112655000Y-78593000I0J52000D01*
G01*
X112655000Y-78177000D01*
G75*
G02*
X112707000Y-78125000I52000J0D01*
G01*
G37*
G36*
G01*
X112707000Y-78875000D02*
X113603000Y-78875000D01*
G75*
G02*
X113655000Y-78927000I0J-52000D01*
G01*
X113655000Y-79343000D01*
G75*
G02*
X113603000Y-79395000I-52000J0D01*
G01*
X112707000Y-79395000D01*
G75*
G02*
X112655000Y-79343000I0J52000D01*
G01*
X112655000Y-78927000D01*
G75*
G02*
X112707000Y-78875000I52000J0D01*
G01*
G37*
G36*
G01*
X112707000Y-83575000D02*
X113603000Y-83575000D01*
G75*
G02*
X113655000Y-83627000I0J-52000D01*
G01*
X113655000Y-84043000D01*
G75*
G02*
X113603000Y-84095000I-52000J0D01*
G01*
X112707000Y-84095000D01*
G75*
G02*
X112655000Y-84043000I0J52000D01*
G01*
X112655000Y-83627000D01*
G75*
G02*
X112707000Y-83575000I52000J0D01*
G01*
G37*
G36*
G01*
X112707000Y-84325000D02*
X113603000Y-84325000D01*
G75*
G02*
X113655000Y-84377000I0J-52000D01*
G01*
X113655000Y-84793000D01*
G75*
G02*
X113603000Y-84845000I-52000J0D01*
G01*
X112707000Y-84845000D01*
G75*
G02*
X112655000Y-84793000I0J52000D01*
G01*
X112655000Y-84377000D01*
G75*
G02*
X112707000Y-84325000I52000J0D01*
G01*
G37*
G36*
G01*
X112682000Y-79600000D02*
X113628000Y-79600000D01*
G75*
G02*
X113655000Y-79627000I0J-27000D01*
G01*
X113655000Y-79843000D01*
G75*
G02*
X113628000Y-79870000I-27000J0D01*
G01*
X112682000Y-79870000D01*
G75*
G02*
X112655000Y-79843000I0J27000D01*
G01*
X112655000Y-79627000D01*
G75*
G02*
X112682000Y-79600000I27000J0D01*
G01*
G37*
G36*
G01*
X112682000Y-80100000D02*
X113628000Y-80100000D01*
G75*
G02*
X113655000Y-80127000I0J-27000D01*
G01*
X113655000Y-80343000D01*
G75*
G02*
X113628000Y-80370000I-27000J0D01*
G01*
X112682000Y-80370000D01*
G75*
G02*
X112655000Y-80343000I0J27000D01*
G01*
X112655000Y-80127000D01*
G75*
G02*
X112682000Y-80100000I27000J0D01*
G01*
G37*
G36*
G01*
X112682000Y-80600000D02*
X113628000Y-80600000D01*
G75*
G02*
X113655000Y-80627000I0J-27000D01*
G01*
X113655000Y-80843000D01*
G75*
G02*
X113628000Y-80870000I-27000J0D01*
G01*
X112682000Y-80870000D01*
G75*
G02*
X112655000Y-80843000I0J27000D01*
G01*
X112655000Y-80627000D01*
G75*
G02*
X112682000Y-80600000I27000J0D01*
G01*
G37*
G36*
G01*
X112682000Y-81600000D02*
X113628000Y-81600000D01*
G75*
G02*
X113655000Y-81627000I0J-27000D01*
G01*
X113655000Y-81843000D01*
G75*
G02*
X113628000Y-81870000I-27000J0D01*
G01*
X112682000Y-81870000D01*
G75*
G02*
X112655000Y-81843000I0J27000D01*
G01*
X112655000Y-81627000D01*
G75*
G02*
X112682000Y-81600000I27000J0D01*
G01*
G37*
G36*
G01*
X112682000Y-82100000D02*
X113628000Y-82100000D01*
G75*
G02*
X113655000Y-82127000I0J-27000D01*
G01*
X113655000Y-82343000D01*
G75*
G02*
X113628000Y-82370000I-27000J0D01*
G01*
X112682000Y-82370000D01*
G75*
G02*
X112655000Y-82343000I0J27000D01*
G01*
X112655000Y-82127000D01*
G75*
G02*
X112682000Y-82100000I27000J0D01*
G01*
G37*
G36*
G01*
X112682000Y-82600000D02*
X113628000Y-82600000D01*
G75*
G02*
X113655000Y-82627000I0J-27000D01*
G01*
X113655000Y-82843000D01*
G75*
G02*
X113628000Y-82870000I-27000J0D01*
G01*
X112682000Y-82870000D01*
G75*
G02*
X112655000Y-82843000I0J27000D01*
G01*
X112655000Y-82627000D01*
G75*
G02*
X112682000Y-82600000I27000J0D01*
G01*
G37*
G36*
G01*
X112682000Y-83100000D02*
X113628000Y-83100000D01*
G75*
G02*
X113655000Y-83127000I0J-27000D01*
G01*
X113655000Y-83343000D01*
G75*
G02*
X113628000Y-83370000I-27000J0D01*
G01*
X112682000Y-83370000D01*
G75*
G02*
X112655000Y-83343000I0J27000D01*
G01*
X112655000Y-83127000D01*
G75*
G02*
X112682000Y-83100000I27000J0D01*
G01*
G37*
G36*
G01*
X112682000Y-81100000D02*
X113628000Y-81100000D01*
G75*
G02*
X113655000Y-81127000I0J-27000D01*
G01*
X113655000Y-81343000D01*
G75*
G02*
X113628000Y-81370000I-27000J0D01*
G01*
X112682000Y-81370000D01*
G75*
G02*
X112655000Y-81343000I0J27000D01*
G01*
X112655000Y-81127000D01*
G75*
G02*
X112682000Y-81100000I27000J0D01*
G01*
G37*
D11*
X155655000Y-69985000D03*
X155655000Y-71585000D03*
X155655000Y-72385000D03*
X155655000Y-73185000D03*
X155655000Y-73985000D03*
X155655000Y-75585000D03*
X155655000Y-76385000D03*
X155655000Y-78785000D03*
X155655000Y-79585000D03*
X155655000Y-80385000D03*
X155655000Y-81185000D03*
X155655000Y-82785000D03*
X155655000Y-83585000D03*
X154855000Y-69185000D03*
X154855000Y-69985000D03*
X154855000Y-70785000D03*
X154855000Y-71585000D03*
X154855000Y-72385000D03*
X154855000Y-73185000D03*
X154855000Y-73985000D03*
X154855000Y-74785000D03*
X154855000Y-75585000D03*
X154855000Y-76385000D03*
X154855000Y-77185000D03*
X154855000Y-77985000D03*
X154855000Y-78785000D03*
X154855000Y-79585000D03*
X154855000Y-80385000D03*
X154855000Y-81185000D03*
X154855000Y-81985000D03*
X154855000Y-82785000D03*
X154855000Y-83585000D03*
X154855000Y-84385000D03*
X154055000Y-69185000D03*
X154055000Y-69985000D03*
X154055000Y-70785000D03*
X154055000Y-71585000D03*
X154055000Y-72385000D03*
X154055000Y-73185000D03*
X154055000Y-73985000D03*
X154055000Y-74785000D03*
X154055000Y-75585000D03*
X154055000Y-76385000D03*
X154055000Y-77185000D03*
X154055000Y-77985000D03*
X154055000Y-78785000D03*
X154055000Y-79585000D03*
X154055000Y-80385000D03*
X154055000Y-81185000D03*
X154055000Y-81985000D03*
X154055000Y-82785000D03*
X154055000Y-83585000D03*
X154055000Y-84385000D03*
X153255000Y-69185000D03*
X153255000Y-69985000D03*
X153255000Y-70785000D03*
X153255000Y-71585000D03*
X153255000Y-72385000D03*
X153255000Y-73185000D03*
X153255000Y-73985000D03*
X153255000Y-74785000D03*
X153255000Y-75585000D03*
X153255000Y-76385000D03*
X153255000Y-77185000D03*
X153255000Y-77985000D03*
X153255000Y-78785000D03*
X153255000Y-79585000D03*
X153255000Y-80385000D03*
X153255000Y-81185000D03*
X153255000Y-81985000D03*
X153255000Y-82785000D03*
X153255000Y-83585000D03*
X153255000Y-84385000D03*
X152455000Y-69185000D03*
X152455000Y-69985000D03*
X152455000Y-70785000D03*
X152455000Y-71585000D03*
X152455000Y-72385000D03*
X152455000Y-73185000D03*
X152455000Y-73985000D03*
X152455000Y-74785000D03*
X152455000Y-75585000D03*
X152455000Y-76385000D03*
X152455000Y-77185000D03*
X152455000Y-77985000D03*
X152455000Y-78785000D03*
X152455000Y-79585000D03*
X152455000Y-80385000D03*
X152455000Y-81185000D03*
X152455000Y-81985000D03*
X152455000Y-82785000D03*
X152455000Y-83585000D03*
X152455000Y-84385000D03*
X151655000Y-69185000D03*
X151655000Y-69985000D03*
X151655000Y-70785000D03*
X151655000Y-71585000D03*
X151655000Y-72385000D03*
X151655000Y-81185000D03*
X151655000Y-81985000D03*
X151655000Y-82785000D03*
X151655000Y-83585000D03*
X151655000Y-84385000D03*
X150855000Y-69185000D03*
X150855000Y-69985000D03*
X150855000Y-70785000D03*
X150855000Y-71585000D03*
X150855000Y-72385000D03*
X150855000Y-73185000D03*
X150855000Y-73985000D03*
X150855000Y-74785000D03*
X150855000Y-75585000D03*
X150855000Y-76385000D03*
X150855000Y-77185000D03*
X150855000Y-77985000D03*
X150855000Y-78785000D03*
X150855000Y-79585000D03*
X150855000Y-80385000D03*
X150855000Y-81185000D03*
X150855000Y-81985000D03*
X150855000Y-82785000D03*
X150855000Y-83585000D03*
X150855000Y-84385000D03*
X150055000Y-69185000D03*
X150055000Y-69985000D03*
X150055000Y-70785000D03*
X150055000Y-71585000D03*
X150055000Y-72385000D03*
X150055000Y-73185000D03*
X150055000Y-73985000D03*
X150055000Y-74785000D03*
X150055000Y-75585000D03*
X150055000Y-76385000D03*
X150055000Y-77185000D03*
X150055000Y-77985000D03*
X150055000Y-78785000D03*
X150055000Y-79585000D03*
X150055000Y-80385000D03*
X150055000Y-81185000D03*
X150055000Y-81985000D03*
X150055000Y-82785000D03*
X150055000Y-83585000D03*
X150055000Y-84385000D03*
X149255000Y-69185000D03*
X149255000Y-69985000D03*
X149255000Y-70785000D03*
X149255000Y-71585000D03*
X149255000Y-72385000D03*
X149255000Y-73185000D03*
X149255000Y-73985000D03*
X149255000Y-74785000D03*
X149255000Y-75585000D03*
X149255000Y-76385000D03*
X149255000Y-77185000D03*
X149255000Y-77985000D03*
X149255000Y-78785000D03*
X149255000Y-79585000D03*
X149255000Y-80385000D03*
X149255000Y-81185000D03*
X149255000Y-81985000D03*
X149255000Y-82785000D03*
X149255000Y-83585000D03*
X149255000Y-84385000D03*
X148455000Y-69185000D03*
X148455000Y-69985000D03*
X148455000Y-70785000D03*
X148455000Y-71585000D03*
X148455000Y-72385000D03*
X148455000Y-73185000D03*
X148455000Y-73985000D03*
X148455000Y-74785000D03*
X148455000Y-75585000D03*
X148455000Y-76385000D03*
X148455000Y-77185000D03*
X148455000Y-77985000D03*
X148455000Y-78785000D03*
X148455000Y-79585000D03*
X148455000Y-80385000D03*
X148455000Y-81185000D03*
X148455000Y-81985000D03*
X148455000Y-82785000D03*
X148455000Y-83585000D03*
X148455000Y-84385000D03*
X147655000Y-69185000D03*
X147655000Y-69985000D03*
X147655000Y-70785000D03*
X147655000Y-71585000D03*
X147655000Y-72385000D03*
X147655000Y-73185000D03*
X147655000Y-73985000D03*
X147655000Y-74785000D03*
X147655000Y-75585000D03*
X147655000Y-76385000D03*
X147655000Y-77185000D03*
X147655000Y-77985000D03*
X147655000Y-78785000D03*
X147655000Y-79585000D03*
X147655000Y-80385000D03*
X147655000Y-81185000D03*
X147655000Y-81985000D03*
X147655000Y-82785000D03*
X147655000Y-83585000D03*
X147655000Y-84385000D03*
X146855000Y-69185000D03*
X146855000Y-69985000D03*
X146855000Y-70785000D03*
X146855000Y-71585000D03*
X146855000Y-72385000D03*
X146855000Y-73185000D03*
X146855000Y-73985000D03*
X146855000Y-74785000D03*
X146855000Y-75585000D03*
X146855000Y-76385000D03*
X146855000Y-77185000D03*
X146855000Y-77985000D03*
X146855000Y-78785000D03*
X146855000Y-79585000D03*
X146855000Y-80385000D03*
X146855000Y-81185000D03*
X146855000Y-81985000D03*
X146855000Y-82785000D03*
X146855000Y-83585000D03*
X146855000Y-84385000D03*
X146055000Y-69185000D03*
X146055000Y-69985000D03*
X146055000Y-70785000D03*
X146055000Y-71585000D03*
X146055000Y-72385000D03*
X146055000Y-73185000D03*
X146055000Y-73985000D03*
X146055000Y-74785000D03*
X146055000Y-75585000D03*
X146055000Y-76385000D03*
X146055000Y-77185000D03*
X146055000Y-77985000D03*
X146055000Y-78785000D03*
X146055000Y-79585000D03*
X146055000Y-80385000D03*
X146055000Y-81185000D03*
X146055000Y-81985000D03*
X146055000Y-82785000D03*
X146055000Y-83585000D03*
X146055000Y-84385000D03*
X145255000Y-69185000D03*
X145255000Y-69985000D03*
X145255000Y-70785000D03*
X145255000Y-71585000D03*
X145255000Y-72385000D03*
X145255000Y-73185000D03*
X145255000Y-73985000D03*
X145255000Y-74785000D03*
X145255000Y-75585000D03*
X145255000Y-76385000D03*
X145255000Y-77185000D03*
X145255000Y-77985000D03*
X145255000Y-78785000D03*
X145255000Y-79585000D03*
X145255000Y-80385000D03*
X145255000Y-81185000D03*
X145255000Y-81985000D03*
X145255000Y-82785000D03*
X145255000Y-83585000D03*
X145255000Y-84385000D03*
X144455000Y-69185000D03*
X144455000Y-69985000D03*
X144455000Y-70785000D03*
X144455000Y-71585000D03*
X144455000Y-72385000D03*
X144455000Y-73185000D03*
X144455000Y-73985000D03*
X144455000Y-74785000D03*
X144455000Y-75585000D03*
X144455000Y-76385000D03*
X144455000Y-77185000D03*
X144455000Y-77985000D03*
X144455000Y-78785000D03*
X144455000Y-79585000D03*
X144455000Y-80385000D03*
X144455000Y-81185000D03*
X144455000Y-81985000D03*
X144455000Y-82785000D03*
X144455000Y-83585000D03*
X144455000Y-84385000D03*
X143655000Y-69185000D03*
X143655000Y-69985000D03*
X143655000Y-70785000D03*
X143655000Y-71585000D03*
X143655000Y-72385000D03*
X143655000Y-73185000D03*
X143655000Y-73985000D03*
X143655000Y-74785000D03*
X143655000Y-75585000D03*
X143655000Y-76385000D03*
X143655000Y-77185000D03*
X143655000Y-77985000D03*
X143655000Y-78785000D03*
X143655000Y-79585000D03*
X143655000Y-80385000D03*
X143655000Y-81185000D03*
X143655000Y-81985000D03*
X143655000Y-82785000D03*
X143655000Y-83585000D03*
X143655000Y-84385000D03*
X142855000Y-69185000D03*
X142855000Y-69985000D03*
X142855000Y-70785000D03*
X142855000Y-71585000D03*
X142855000Y-72385000D03*
X142855000Y-73185000D03*
X142855000Y-73985000D03*
X142855000Y-74785000D03*
X142855000Y-75585000D03*
X142855000Y-76385000D03*
X142855000Y-77185000D03*
X142855000Y-77985000D03*
X142855000Y-78785000D03*
X142855000Y-79585000D03*
X142855000Y-80385000D03*
X142855000Y-81185000D03*
X142855000Y-81985000D03*
X142855000Y-82785000D03*
X142855000Y-83585000D03*
X142855000Y-84385000D03*
X142055000Y-69185000D03*
X142055000Y-69985000D03*
X142055000Y-70785000D03*
X142055000Y-71585000D03*
X142055000Y-72385000D03*
X142055000Y-73185000D03*
X142055000Y-73985000D03*
X142055000Y-74785000D03*
X142055000Y-75585000D03*
X142055000Y-76385000D03*
X142055000Y-77185000D03*
X142055000Y-77985000D03*
X142055000Y-78785000D03*
X142055000Y-79585000D03*
X142055000Y-80385000D03*
X142055000Y-81185000D03*
X142055000Y-81985000D03*
X142055000Y-82785000D03*
X142055000Y-83585000D03*
X142055000Y-84385000D03*
X141255000Y-69185000D03*
X141255000Y-69985000D03*
X141255000Y-70785000D03*
X141255000Y-71585000D03*
X141255000Y-72385000D03*
X141255000Y-73185000D03*
X141255000Y-73985000D03*
X141255000Y-74785000D03*
X141255000Y-75585000D03*
X141255000Y-76385000D03*
X141255000Y-77185000D03*
X141255000Y-77985000D03*
X141255000Y-78785000D03*
X141255000Y-79585000D03*
X141255000Y-80385000D03*
X141255000Y-81185000D03*
X141255000Y-81985000D03*
X141255000Y-82785000D03*
X141255000Y-83585000D03*
X141255000Y-84385000D03*
X140455000Y-69985000D03*
X140455000Y-70785000D03*
X140455000Y-71585000D03*
X140455000Y-72385000D03*
X140455000Y-73185000D03*
X140455000Y-73985000D03*
X140455000Y-74785000D03*
X140455000Y-75585000D03*
X140455000Y-76385000D03*
X140455000Y-77185000D03*
X140455000Y-77985000D03*
X140455000Y-78785000D03*
X140455000Y-79585000D03*
X140455000Y-80385000D03*
X140455000Y-81185000D03*
X140455000Y-81985000D03*
X140455000Y-82785000D03*
X140455000Y-83585000D03*
G36*
G01*
X158690000Y-80972500D02*
X158690000Y-80627500D01*
G75*
G02*
X158837500Y-80480000I147500J0D01*
G01*
X159132500Y-80480000D01*
G75*
G02*
X159280000Y-80627500I0J-147500D01*
G01*
X159280000Y-80972500D01*
G75*
G02*
X159132500Y-81120000I-147500J0D01*
G01*
X158837500Y-81120000D01*
G75*
G02*
X158690000Y-80972500I0J147500D01*
G01*
G37*
G36*
G01*
X157720000Y-80972500D02*
X157720000Y-80627500D01*
G75*
G02*
X157867500Y-80480000I147500J0D01*
G01*
X158162500Y-80480000D01*
G75*
G02*
X158310000Y-80627500I0J-147500D01*
G01*
X158310000Y-80972500D01*
G75*
G02*
X158162500Y-81120000I-147500J0D01*
G01*
X157867500Y-81120000D01*
G75*
G02*
X157720000Y-80972500I0J147500D01*
G01*
G37*
G36*
G01*
X158911250Y-65135000D02*
X157998750Y-65135000D01*
G75*
G02*
X157755000Y-64891250I0J243750D01*
G01*
X157755000Y-64403750D01*
G75*
G02*
X157998750Y-64160000I243750J0D01*
G01*
X158911250Y-64160000D01*
G75*
G02*
X159155000Y-64403750I0J-243750D01*
G01*
X159155000Y-64891250D01*
G75*
G02*
X158911250Y-65135000I-243750J0D01*
G01*
G37*
G36*
G01*
X158911250Y-67010000D02*
X157998750Y-67010000D01*
G75*
G02*
X157755000Y-66766250I0J243750D01*
G01*
X157755000Y-66278750D01*
G75*
G02*
X157998750Y-66035000I243750J0D01*
G01*
X158911250Y-66035000D01*
G75*
G02*
X159155000Y-66278750I0J-243750D01*
G01*
X159155000Y-66766250D01*
G75*
G02*
X158911250Y-67010000I-243750J0D01*
G01*
G37*
G36*
G01*
X157011250Y-65135000D02*
X156098750Y-65135000D01*
G75*
G02*
X155855000Y-64891250I0J243750D01*
G01*
X155855000Y-64403750D01*
G75*
G02*
X156098750Y-64160000I243750J0D01*
G01*
X157011250Y-64160000D01*
G75*
G02*
X157255000Y-64403750I0J-243750D01*
G01*
X157255000Y-64891250D01*
G75*
G02*
X157011250Y-65135000I-243750J0D01*
G01*
G37*
G36*
G01*
X157011250Y-67010000D02*
X156098750Y-67010000D01*
G75*
G02*
X155855000Y-66766250I0J243750D01*
G01*
X155855000Y-66278750D01*
G75*
G02*
X156098750Y-66035000I243750J0D01*
G01*
X157011250Y-66035000D01*
G75*
G02*
X157255000Y-66278750I0J-243750D01*
G01*
X157255000Y-66766250D01*
G75*
G02*
X157011250Y-67010000I-243750J0D01*
G01*
G37*
G36*
G01*
X153211250Y-65135000D02*
X152298750Y-65135000D01*
G75*
G02*
X152055000Y-64891250I0J243750D01*
G01*
X152055000Y-64403750D01*
G75*
G02*
X152298750Y-64160000I243750J0D01*
G01*
X153211250Y-64160000D01*
G75*
G02*
X153455000Y-64403750I0J-243750D01*
G01*
X153455000Y-64891250D01*
G75*
G02*
X153211250Y-65135000I-243750J0D01*
G01*
G37*
G36*
G01*
X153211250Y-67010000D02*
X152298750Y-67010000D01*
G75*
G02*
X152055000Y-66766250I0J243750D01*
G01*
X152055000Y-66278750D01*
G75*
G02*
X152298750Y-66035000I243750J0D01*
G01*
X153211250Y-66035000D01*
G75*
G02*
X153455000Y-66278750I0J-243750D01*
G01*
X153455000Y-66766250D01*
G75*
G02*
X153211250Y-67010000I-243750J0D01*
G01*
G37*
G36*
G01*
X155111250Y-65135000D02*
X154198750Y-65135000D01*
G75*
G02*
X153955000Y-64891250I0J243750D01*
G01*
X153955000Y-64403750D01*
G75*
G02*
X154198750Y-64160000I243750J0D01*
G01*
X155111250Y-64160000D01*
G75*
G02*
X155355000Y-64403750I0J-243750D01*
G01*
X155355000Y-64891250D01*
G75*
G02*
X155111250Y-65135000I-243750J0D01*
G01*
G37*
G36*
G01*
X155111250Y-67010000D02*
X154198750Y-67010000D01*
G75*
G02*
X153955000Y-66766250I0J243750D01*
G01*
X153955000Y-66278750D01*
G75*
G02*
X154198750Y-66035000I243750J0D01*
G01*
X155111250Y-66035000D01*
G75*
G02*
X155355000Y-66278750I0J-243750D01*
G01*
X155355000Y-66766250D01*
G75*
G02*
X155111250Y-67010000I-243750J0D01*
G01*
G37*
G36*
G01*
X140155000Y-65434999D02*
X140155000Y-66735001D01*
G75*
G02*
X139905001Y-66985000I-249999J0D01*
G01*
X139004999Y-66985000D01*
G75*
G02*
X138755000Y-66735001I0J249999D01*
G01*
X138755000Y-65434999D01*
G75*
G02*
X139004999Y-65185000I249999J0D01*
G01*
X139905001Y-65185000D01*
G75*
G02*
X140155000Y-65434999I0J-249999D01*
G01*
G37*
G36*
G01*
X144155000Y-65434999D02*
X144155000Y-66735001D01*
G75*
G02*
X143905001Y-66985000I-249999J0D01*
G01*
X143004999Y-66985000D01*
G75*
G02*
X142755000Y-66735001I0J249999D01*
G01*
X142755000Y-65434999D01*
G75*
G02*
X143004999Y-65185000I249999J0D01*
G01*
X143905001Y-65185000D01*
G75*
G02*
X144155000Y-65434999I0J-249999D01*
G01*
G37*
G36*
G01*
X148345000Y-66957500D02*
X148345000Y-66612500D01*
G75*
G02*
X148492500Y-66465000I147500J0D01*
G01*
X148787500Y-66465000D01*
G75*
G02*
X148935000Y-66612500I0J-147500D01*
G01*
X148935000Y-66957500D01*
G75*
G02*
X148787500Y-67105000I-147500J0D01*
G01*
X148492500Y-67105000D01*
G75*
G02*
X148345000Y-66957500I0J147500D01*
G01*
G37*
G36*
G01*
X147375000Y-66957500D02*
X147375000Y-66612500D01*
G75*
G02*
X147522500Y-66465000I147500J0D01*
G01*
X147817500Y-66465000D01*
G75*
G02*
X147965000Y-66612500I0J-147500D01*
G01*
X147965000Y-66957500D01*
G75*
G02*
X147817500Y-67105000I-147500J0D01*
G01*
X147522500Y-67105000D01*
G75*
G02*
X147375000Y-66957500I0J147500D01*
G01*
G37*
G36*
X160920000Y-80968773D02*
G01*
X160670000Y-80968772D01*
X160669999Y-82018772D01*
X160919999Y-82018772D01*
X160919999Y-82693772D01*
X160320000Y-82693772D01*
X160320000Y-81643771D01*
X160070000Y-81643771D01*
X160070000Y-81343772D01*
X160320001Y-81343772D01*
X160320001Y-80293772D01*
X160920000Y-80293772D01*
X160920000Y-80968773D01*
G37*
D12*
X159870000Y-82143772D03*
X159870000Y-80843772D03*
X161120000Y-81493772D03*
G36*
G01*
X113010000Y-71427500D02*
X113010000Y-71772500D01*
G75*
G02*
X112862500Y-71920000I-147500J0D01*
G01*
X112567500Y-71920000D01*
G75*
G02*
X112420000Y-71772500I0J147500D01*
G01*
X112420000Y-71427500D01*
G75*
G02*
X112567500Y-71280000I147500J0D01*
G01*
X112862500Y-71280000D01*
G75*
G02*
X113010000Y-71427500I0J-147500D01*
G01*
G37*
G36*
G01*
X113980000Y-71427500D02*
X113980000Y-71772500D01*
G75*
G02*
X113832500Y-71920000I-147500J0D01*
G01*
X113537500Y-71920000D01*
G75*
G02*
X113390000Y-71772500I0J147500D01*
G01*
X113390000Y-71427500D01*
G75*
G02*
X113537500Y-71280000I147500J0D01*
G01*
X113832500Y-71280000D01*
G75*
G02*
X113980000Y-71427500I0J-147500D01*
G01*
G37*
G36*
G01*
X159815000Y-73122500D02*
X159815000Y-72777500D01*
G75*
G02*
X159962500Y-72630000I147500J0D01*
G01*
X160257500Y-72630000D01*
G75*
G02*
X160405000Y-72777500I0J-147500D01*
G01*
X160405000Y-73122500D01*
G75*
G02*
X160257500Y-73270000I-147500J0D01*
G01*
X159962500Y-73270000D01*
G75*
G02*
X159815000Y-73122500I0J147500D01*
G01*
G37*
G36*
G01*
X158845000Y-73122500D02*
X158845000Y-72777500D01*
G75*
G02*
X158992500Y-72630000I147500J0D01*
G01*
X159287500Y-72630000D01*
G75*
G02*
X159435000Y-72777500I0J-147500D01*
G01*
X159435000Y-73122500D01*
G75*
G02*
X159287500Y-73270000I-147500J0D01*
G01*
X158992500Y-73270000D01*
G75*
G02*
X158845000Y-73122500I0J147500D01*
G01*
G37*
G36*
G01*
X116760000Y-80612500D02*
X116760000Y-80957500D01*
G75*
G02*
X116612500Y-81105000I-147500J0D01*
G01*
X116317500Y-81105000D01*
G75*
G02*
X116170000Y-80957500I0J147500D01*
G01*
X116170000Y-80612500D01*
G75*
G02*
X116317500Y-80465000I147500J0D01*
G01*
X116612500Y-80465000D01*
G75*
G02*
X116760000Y-80612500I0J-147500D01*
G01*
G37*
G36*
G01*
X117730000Y-80612500D02*
X117730000Y-80957500D01*
G75*
G02*
X117582500Y-81105000I-147500J0D01*
G01*
X117287500Y-81105000D01*
G75*
G02*
X117140000Y-80957500I0J147500D01*
G01*
X117140000Y-80612500D01*
G75*
G02*
X117287500Y-80465000I147500J0D01*
G01*
X117582500Y-80465000D01*
G75*
G02*
X117730000Y-80612500I0J-147500D01*
G01*
G37*
D13*
X113100000Y-88200000D03*
X113100000Y-90100000D03*
X110900000Y-90100000D03*
X110900000Y-89150000D03*
X110900000Y-88200000D03*
X113000000Y-74350000D03*
X113000000Y-73400000D03*
X113000000Y-75300000D03*
X110800000Y-75300000D03*
X110800000Y-74350000D03*
X110800000Y-73400000D03*
G36*
G01*
X120005001Y-86685000D02*
X118704999Y-86685000D01*
G75*
G02*
X118455000Y-86435001I0J249999D01*
G01*
X118455000Y-85534999D01*
G75*
G02*
X118704999Y-85285000I249999J0D01*
G01*
X120005001Y-85285000D01*
G75*
G02*
X120255000Y-85534999I0J-249999D01*
G01*
X120255000Y-86435001D01*
G75*
G02*
X120005001Y-86685000I-249999J0D01*
G01*
G37*
G36*
G01*
X120005001Y-90685000D02*
X118704999Y-90685000D01*
G75*
G02*
X118455000Y-90435001I0J249999D01*
G01*
X118455000Y-89534999D01*
G75*
G02*
X118704999Y-89285000I249999J0D01*
G01*
X120005001Y-89285000D01*
G75*
G02*
X120255000Y-89534999I0J-249999D01*
G01*
X120255000Y-90435001D01*
G75*
G02*
X120005001Y-90685000I-249999J0D01*
G01*
G37*
G36*
G01*
X117666170Y-86685000D02*
X116366168Y-86685000D01*
G75*
G02*
X116116169Y-86435001I0J249999D01*
G01*
X116116169Y-85534999D01*
G75*
G02*
X116366168Y-85285000I249999J0D01*
G01*
X117666170Y-85285000D01*
G75*
G02*
X117916169Y-85534999I0J-249999D01*
G01*
X117916169Y-86435001D01*
G75*
G02*
X117666170Y-86685000I-249999J0D01*
G01*
G37*
G36*
G01*
X117666170Y-90685000D02*
X116366168Y-90685000D01*
G75*
G02*
X116116169Y-90435001I0J249999D01*
G01*
X116116169Y-89534999D01*
G75*
G02*
X116366168Y-89285000I249999J0D01*
G01*
X117666170Y-89285000D01*
G75*
G02*
X117916169Y-89534999I0J-249999D01*
G01*
X117916169Y-90435001D01*
G75*
G02*
X117666170Y-90685000I-249999J0D01*
G01*
G37*
G36*
G01*
X114443750Y-89650000D02*
X115356250Y-89650000D01*
G75*
G02*
X115600000Y-89893750I0J-243750D01*
G01*
X115600000Y-90381250D01*
G75*
G02*
X115356250Y-90625000I-243750J0D01*
G01*
X114443750Y-90625000D01*
G75*
G02*
X114200000Y-90381250I0J243750D01*
G01*
X114200000Y-89893750D01*
G75*
G02*
X114443750Y-89650000I243750J0D01*
G01*
G37*
G36*
G01*
X114443750Y-87775000D02*
X115356250Y-87775000D01*
G75*
G02*
X115600000Y-88018750I0J-243750D01*
G01*
X115600000Y-88506250D01*
G75*
G02*
X115356250Y-88750000I-243750J0D01*
G01*
X114443750Y-88750000D01*
G75*
G02*
X114200000Y-88506250I0J243750D01*
G01*
X114200000Y-88018750D01*
G75*
G02*
X114443750Y-87775000I243750J0D01*
G01*
G37*
G36*
G01*
X108643750Y-89650000D02*
X109556250Y-89650000D01*
G75*
G02*
X109800000Y-89893750I0J-243750D01*
G01*
X109800000Y-90381250D01*
G75*
G02*
X109556250Y-90625000I-243750J0D01*
G01*
X108643750Y-90625000D01*
G75*
G02*
X108400000Y-90381250I0J243750D01*
G01*
X108400000Y-89893750D01*
G75*
G02*
X108643750Y-89650000I243750J0D01*
G01*
G37*
G36*
G01*
X108643750Y-87775000D02*
X109556250Y-87775000D01*
G75*
G02*
X109800000Y-88018750I0J-243750D01*
G01*
X109800000Y-88506250D01*
G75*
G02*
X109556250Y-88750000I-243750J0D01*
G01*
X108643750Y-88750000D01*
G75*
G02*
X108400000Y-88506250I0J243750D01*
G01*
X108400000Y-88018750D01*
G75*
G02*
X108643750Y-87775000I243750J0D01*
G01*
G37*
D14*
X116805000Y-79300000D03*
X116805000Y-77100000D03*
X118505000Y-77100000D03*
X118505000Y-79300000D03*
G36*
G01*
X141111250Y-88335000D02*
X140198750Y-88335000D01*
G75*
G02*
X139955000Y-88091250I0J243750D01*
G01*
X139955000Y-87603750D01*
G75*
G02*
X140198750Y-87360000I243750J0D01*
G01*
X141111250Y-87360000D01*
G75*
G02*
X141355000Y-87603750I0J-243750D01*
G01*
X141355000Y-88091250D01*
G75*
G02*
X141111250Y-88335000I-243750J0D01*
G01*
G37*
G36*
G01*
X141111250Y-90210000D02*
X140198750Y-90210000D01*
G75*
G02*
X139955000Y-89966250I0J243750D01*
G01*
X139955000Y-89478750D01*
G75*
G02*
X140198750Y-89235000I243750J0D01*
G01*
X141111250Y-89235000D01*
G75*
G02*
X141355000Y-89478750I0J-243750D01*
G01*
X141355000Y-89966250D01*
G75*
G02*
X141111250Y-90210000I-243750J0D01*
G01*
G37*
G36*
G01*
X143998750Y-89235000D02*
X144911250Y-89235000D01*
G75*
G02*
X145155000Y-89478750I0J-243750D01*
G01*
X145155000Y-89966250D01*
G75*
G02*
X144911250Y-90210000I-243750J0D01*
G01*
X143998750Y-90210000D01*
G75*
G02*
X143755000Y-89966250I0J243750D01*
G01*
X143755000Y-89478750D01*
G75*
G02*
X143998750Y-89235000I243750J0D01*
G01*
G37*
G36*
G01*
X143998750Y-87360000D02*
X144911250Y-87360000D01*
G75*
G02*
X145155000Y-87603750I0J-243750D01*
G01*
X145155000Y-88091250D01*
G75*
G02*
X144911250Y-88335000I-243750J0D01*
G01*
X143998750Y-88335000D01*
G75*
G02*
X143755000Y-88091250I0J243750D01*
G01*
X143755000Y-87603750D01*
G75*
G02*
X143998750Y-87360000I243750J0D01*
G01*
G37*
G36*
G01*
X142098750Y-89235000D02*
X143011250Y-89235000D01*
G75*
G02*
X143255000Y-89478750I0J-243750D01*
G01*
X143255000Y-89966250D01*
G75*
G02*
X143011250Y-90210000I-243750J0D01*
G01*
X142098750Y-90210000D01*
G75*
G02*
X141855000Y-89966250I0J243750D01*
G01*
X141855000Y-89478750D01*
G75*
G02*
X142098750Y-89235000I243750J0D01*
G01*
G37*
G36*
G01*
X142098750Y-87360000D02*
X143011250Y-87360000D01*
G75*
G02*
X143255000Y-87603750I0J-243750D01*
G01*
X143255000Y-88091250D01*
G75*
G02*
X143011250Y-88335000I-243750J0D01*
G01*
X142098750Y-88335000D01*
G75*
G02*
X141855000Y-88091250I0J243750D01*
G01*
X141855000Y-87603750D01*
G75*
G02*
X142098750Y-87360000I243750J0D01*
G01*
G37*
G36*
G01*
X145898750Y-89235000D02*
X146811250Y-89235000D01*
G75*
G02*
X147055000Y-89478750I0J-243750D01*
G01*
X147055000Y-89966250D01*
G75*
G02*
X146811250Y-90210000I-243750J0D01*
G01*
X145898750Y-90210000D01*
G75*
G02*
X145655000Y-89966250I0J243750D01*
G01*
X145655000Y-89478750D01*
G75*
G02*
X145898750Y-89235000I243750J0D01*
G01*
G37*
G36*
G01*
X145898750Y-87360000D02*
X146811250Y-87360000D01*
G75*
G02*
X147055000Y-87603750I0J-243750D01*
G01*
X147055000Y-88091250D01*
G75*
G02*
X146811250Y-88335000I-243750J0D01*
G01*
X145898750Y-88335000D01*
G75*
G02*
X145655000Y-88091250I0J243750D01*
G01*
X145655000Y-87603750D01*
G75*
G02*
X145898750Y-87360000I243750J0D01*
G01*
G37*
G36*
G01*
X116243750Y-74850000D02*
X117156250Y-74850000D01*
G75*
G02*
X117400000Y-75093750I0J-243750D01*
G01*
X117400000Y-75581250D01*
G75*
G02*
X117156250Y-75825000I-243750J0D01*
G01*
X116243750Y-75825000D01*
G75*
G02*
X116000000Y-75581250I0J243750D01*
G01*
X116000000Y-75093750D01*
G75*
G02*
X116243750Y-74850000I243750J0D01*
G01*
G37*
G36*
G01*
X116243750Y-72975000D02*
X117156250Y-72975000D01*
G75*
G02*
X117400000Y-73218750I0J-243750D01*
G01*
X117400000Y-73706250D01*
G75*
G02*
X117156250Y-73950000I-243750J0D01*
G01*
X116243750Y-73950000D01*
G75*
G02*
X116000000Y-73706250I0J243750D01*
G01*
X116000000Y-73218750D01*
G75*
G02*
X116243750Y-72975000I243750J0D01*
G01*
G37*
G36*
G01*
X114343750Y-74850000D02*
X115256250Y-74850000D01*
G75*
G02*
X115500000Y-75093750I0J-243750D01*
G01*
X115500000Y-75581250D01*
G75*
G02*
X115256250Y-75825000I-243750J0D01*
G01*
X114343750Y-75825000D01*
G75*
G02*
X114100000Y-75581250I0J243750D01*
G01*
X114100000Y-75093750D01*
G75*
G02*
X114343750Y-74850000I243750J0D01*
G01*
G37*
G36*
G01*
X114343750Y-72975000D02*
X115256250Y-72975000D01*
G75*
G02*
X115500000Y-73218750I0J-243750D01*
G01*
X115500000Y-73706250D01*
G75*
G02*
X115256250Y-73950000I-243750J0D01*
G01*
X114343750Y-73950000D01*
G75*
G02*
X114100000Y-73706250I0J243750D01*
G01*
X114100000Y-73218750D01*
G75*
G02*
X114343750Y-72975000I243750J0D01*
G01*
G37*
G36*
G01*
X108543750Y-74850000D02*
X109456250Y-74850000D01*
G75*
G02*
X109700000Y-75093750I0J-243750D01*
G01*
X109700000Y-75581250D01*
G75*
G02*
X109456250Y-75825000I-243750J0D01*
G01*
X108543750Y-75825000D01*
G75*
G02*
X108300000Y-75581250I0J243750D01*
G01*
X108300000Y-75093750D01*
G75*
G02*
X108543750Y-74850000I243750J0D01*
G01*
G37*
G36*
G01*
X108543750Y-72975000D02*
X109456250Y-72975000D01*
G75*
G02*
X109700000Y-73218750I0J-243750D01*
G01*
X109700000Y-73706250D01*
G75*
G02*
X109456250Y-73950000I-243750J0D01*
G01*
X108543750Y-73950000D01*
G75*
G02*
X108300000Y-73706250I0J243750D01*
G01*
X108300000Y-73218750D01*
G75*
G02*
X108543750Y-72975000I243750J0D01*
G01*
G37*
G36*
G01*
X109350000Y-71143750D02*
X109350000Y-72056250D01*
G75*
G02*
X109106250Y-72300000I-243750J0D01*
G01*
X108618750Y-72300000D01*
G75*
G02*
X108375000Y-72056250I0J243750D01*
G01*
X108375000Y-71143750D01*
G75*
G02*
X108618750Y-70900000I243750J0D01*
G01*
X109106250Y-70900000D01*
G75*
G02*
X109350000Y-71143750I0J-243750D01*
G01*
G37*
G36*
G01*
X111225000Y-71143750D02*
X111225000Y-72056250D01*
G75*
G02*
X110981250Y-72300000I-243750J0D01*
G01*
X110493750Y-72300000D01*
G75*
G02*
X110250000Y-72056250I0J243750D01*
G01*
X110250000Y-71143750D01*
G75*
G02*
X110493750Y-70900000I243750J0D01*
G01*
X110981250Y-70900000D01*
G75*
G02*
X111225000Y-71143750I0J-243750D01*
G01*
G37*
G36*
G01*
X123500000Y-75825000D02*
X123500000Y-74425000D01*
G75*
G02*
X123575000Y-74350000I75000J0D01*
G01*
X123725000Y-74350000D01*
G75*
G02*
X123800000Y-74425000I0J-75000D01*
G01*
X123800000Y-75825000D01*
G75*
G02*
X123725000Y-75900000I-75000J0D01*
G01*
X123575000Y-75900000D01*
G75*
G02*
X123500000Y-75825000I0J75000D01*
G01*
G37*
G36*
G01*
X124000000Y-75825000D02*
X124000000Y-74425000D01*
G75*
G02*
X124075000Y-74350000I75000J0D01*
G01*
X124225000Y-74350000D01*
G75*
G02*
X124300000Y-74425000I0J-75000D01*
G01*
X124300000Y-75825000D01*
G75*
G02*
X124225000Y-75900000I-75000J0D01*
G01*
X124075000Y-75900000D01*
G75*
G02*
X124000000Y-75825000I0J75000D01*
G01*
G37*
G36*
G01*
X124500000Y-75825000D02*
X124500000Y-74425000D01*
G75*
G02*
X124575000Y-74350000I75000J0D01*
G01*
X124725000Y-74350000D01*
G75*
G02*
X124800000Y-74425000I0J-75000D01*
G01*
X124800000Y-75825000D01*
G75*
G02*
X124725000Y-75900000I-75000J0D01*
G01*
X124575000Y-75900000D01*
G75*
G02*
X124500000Y-75825000I0J75000D01*
G01*
G37*
G36*
G01*
X125000000Y-75825000D02*
X125000000Y-74425000D01*
G75*
G02*
X125075000Y-74350000I75000J0D01*
G01*
X125225000Y-74350000D01*
G75*
G02*
X125300000Y-74425000I0J-75000D01*
G01*
X125300000Y-75825000D01*
G75*
G02*
X125225000Y-75900000I-75000J0D01*
G01*
X125075000Y-75900000D01*
G75*
G02*
X125000000Y-75825000I0J75000D01*
G01*
G37*
G36*
G01*
X125500000Y-75825000D02*
X125500000Y-74425000D01*
G75*
G02*
X125575000Y-74350000I75000J0D01*
G01*
X125725000Y-74350000D01*
G75*
G02*
X125800000Y-74425000I0J-75000D01*
G01*
X125800000Y-75825000D01*
G75*
G02*
X125725000Y-75900000I-75000J0D01*
G01*
X125575000Y-75900000D01*
G75*
G02*
X125500000Y-75825000I0J75000D01*
G01*
G37*
G36*
G01*
X126000000Y-75825000D02*
X126000000Y-74425000D01*
G75*
G02*
X126075000Y-74350000I75000J0D01*
G01*
X126225000Y-74350000D01*
G75*
G02*
X126300000Y-74425000I0J-75000D01*
G01*
X126300000Y-75825000D01*
G75*
G02*
X126225000Y-75900000I-75000J0D01*
G01*
X126075000Y-75900000D01*
G75*
G02*
X126000000Y-75825000I0J75000D01*
G01*
G37*
G36*
G01*
X126500000Y-75825000D02*
X126500000Y-74425000D01*
G75*
G02*
X126575000Y-74350000I75000J0D01*
G01*
X126725000Y-74350000D01*
G75*
G02*
X126800000Y-74425000I0J-75000D01*
G01*
X126800000Y-75825000D01*
G75*
G02*
X126725000Y-75900000I-75000J0D01*
G01*
X126575000Y-75900000D01*
G75*
G02*
X126500000Y-75825000I0J75000D01*
G01*
G37*
G36*
G01*
X127000000Y-75825000D02*
X127000000Y-74425000D01*
G75*
G02*
X127075000Y-74350000I75000J0D01*
G01*
X127225000Y-74350000D01*
G75*
G02*
X127300000Y-74425000I0J-75000D01*
G01*
X127300000Y-75825000D01*
G75*
G02*
X127225000Y-75900000I-75000J0D01*
G01*
X127075000Y-75900000D01*
G75*
G02*
X127000000Y-75825000I0J75000D01*
G01*
G37*
G36*
G01*
X127500000Y-75825000D02*
X127500000Y-74425000D01*
G75*
G02*
X127575000Y-74350000I75000J0D01*
G01*
X127725000Y-74350000D01*
G75*
G02*
X127800000Y-74425000I0J-75000D01*
G01*
X127800000Y-75825000D01*
G75*
G02*
X127725000Y-75900000I-75000J0D01*
G01*
X127575000Y-75900000D01*
G75*
G02*
X127500000Y-75825000I0J75000D01*
G01*
G37*
G36*
G01*
X128000000Y-75825000D02*
X128000000Y-74425000D01*
G75*
G02*
X128075000Y-74350000I75000J0D01*
G01*
X128225000Y-74350000D01*
G75*
G02*
X128300000Y-74425000I0J-75000D01*
G01*
X128300000Y-75825000D01*
G75*
G02*
X128225000Y-75900000I-75000J0D01*
G01*
X128075000Y-75900000D01*
G75*
G02*
X128000000Y-75825000I0J75000D01*
G01*
G37*
G36*
G01*
X128500000Y-75825000D02*
X128500000Y-74425000D01*
G75*
G02*
X128575000Y-74350000I75000J0D01*
G01*
X128725000Y-74350000D01*
G75*
G02*
X128800000Y-74425000I0J-75000D01*
G01*
X128800000Y-75825000D01*
G75*
G02*
X128725000Y-75900000I-75000J0D01*
G01*
X128575000Y-75900000D01*
G75*
G02*
X128500000Y-75825000I0J75000D01*
G01*
G37*
G36*
G01*
X129000000Y-75825000D02*
X129000000Y-74425000D01*
G75*
G02*
X129075000Y-74350000I75000J0D01*
G01*
X129225000Y-74350000D01*
G75*
G02*
X129300000Y-74425000I0J-75000D01*
G01*
X129300000Y-75825000D01*
G75*
G02*
X129225000Y-75900000I-75000J0D01*
G01*
X129075000Y-75900000D01*
G75*
G02*
X129000000Y-75825000I0J75000D01*
G01*
G37*
G36*
G01*
X129500000Y-75825000D02*
X129500000Y-74425000D01*
G75*
G02*
X129575000Y-74350000I75000J0D01*
G01*
X129725000Y-74350000D01*
G75*
G02*
X129800000Y-74425000I0J-75000D01*
G01*
X129800000Y-75825000D01*
G75*
G02*
X129725000Y-75900000I-75000J0D01*
G01*
X129575000Y-75900000D01*
G75*
G02*
X129500000Y-75825000I0J75000D01*
G01*
G37*
G36*
G01*
X130000000Y-75825000D02*
X130000000Y-74425000D01*
G75*
G02*
X130075000Y-74350000I75000J0D01*
G01*
X130225000Y-74350000D01*
G75*
G02*
X130300000Y-74425000I0J-75000D01*
G01*
X130300000Y-75825000D01*
G75*
G02*
X130225000Y-75900000I-75000J0D01*
G01*
X130075000Y-75900000D01*
G75*
G02*
X130000000Y-75825000I0J75000D01*
G01*
G37*
G36*
G01*
X130500000Y-75825000D02*
X130500000Y-74425000D01*
G75*
G02*
X130575000Y-74350000I75000J0D01*
G01*
X130725000Y-74350000D01*
G75*
G02*
X130800000Y-74425000I0J-75000D01*
G01*
X130800000Y-75825000D01*
G75*
G02*
X130725000Y-75900000I-75000J0D01*
G01*
X130575000Y-75900000D01*
G75*
G02*
X130500000Y-75825000I0J75000D01*
G01*
G37*
G36*
G01*
X131000000Y-75825000D02*
X131000000Y-74425000D01*
G75*
G02*
X131075000Y-74350000I75000J0D01*
G01*
X131225000Y-74350000D01*
G75*
G02*
X131300000Y-74425000I0J-75000D01*
G01*
X131300000Y-75825000D01*
G75*
G02*
X131225000Y-75900000I-75000J0D01*
G01*
X131075000Y-75900000D01*
G75*
G02*
X131000000Y-75825000I0J75000D01*
G01*
G37*
G36*
G01*
X132300000Y-77125000D02*
X132300000Y-76975000D01*
G75*
G02*
X132375000Y-76900000I75000J0D01*
G01*
X133775000Y-76900000D01*
G75*
G02*
X133850000Y-76975000I0J-75000D01*
G01*
X133850000Y-77125000D01*
G75*
G02*
X133775000Y-77200000I-75000J0D01*
G01*
X132375000Y-77200000D01*
G75*
G02*
X132300000Y-77125000I0J75000D01*
G01*
G37*
G36*
G01*
X132300000Y-77625000D02*
X132300000Y-77475000D01*
G75*
G02*
X132375000Y-77400000I75000J0D01*
G01*
X133775000Y-77400000D01*
G75*
G02*
X133850000Y-77475000I0J-75000D01*
G01*
X133850000Y-77625000D01*
G75*
G02*
X133775000Y-77700000I-75000J0D01*
G01*
X132375000Y-77700000D01*
G75*
G02*
X132300000Y-77625000I0J75000D01*
G01*
G37*
G36*
G01*
X132300000Y-78125000D02*
X132300000Y-77975000D01*
G75*
G02*
X132375000Y-77900000I75000J0D01*
G01*
X133775000Y-77900000D01*
G75*
G02*
X133850000Y-77975000I0J-75000D01*
G01*
X133850000Y-78125000D01*
G75*
G02*
X133775000Y-78200000I-75000J0D01*
G01*
X132375000Y-78200000D01*
G75*
G02*
X132300000Y-78125000I0J75000D01*
G01*
G37*
G36*
G01*
X132300000Y-78625000D02*
X132300000Y-78475000D01*
G75*
G02*
X132375000Y-78400000I75000J0D01*
G01*
X133775000Y-78400000D01*
G75*
G02*
X133850000Y-78475000I0J-75000D01*
G01*
X133850000Y-78625000D01*
G75*
G02*
X133775000Y-78700000I-75000J0D01*
G01*
X132375000Y-78700000D01*
G75*
G02*
X132300000Y-78625000I0J75000D01*
G01*
G37*
G36*
G01*
X132300000Y-79125000D02*
X132300000Y-78975000D01*
G75*
G02*
X132375000Y-78900000I75000J0D01*
G01*
X133775000Y-78900000D01*
G75*
G02*
X133850000Y-78975000I0J-75000D01*
G01*
X133850000Y-79125000D01*
G75*
G02*
X133775000Y-79200000I-75000J0D01*
G01*
X132375000Y-79200000D01*
G75*
G02*
X132300000Y-79125000I0J75000D01*
G01*
G37*
G36*
G01*
X132300000Y-79625000D02*
X132300000Y-79475000D01*
G75*
G02*
X132375000Y-79400000I75000J0D01*
G01*
X133775000Y-79400000D01*
G75*
G02*
X133850000Y-79475000I0J-75000D01*
G01*
X133850000Y-79625000D01*
G75*
G02*
X133775000Y-79700000I-75000J0D01*
G01*
X132375000Y-79700000D01*
G75*
G02*
X132300000Y-79625000I0J75000D01*
G01*
G37*
G36*
G01*
X132300000Y-80125000D02*
X132300000Y-79975000D01*
G75*
G02*
X132375000Y-79900000I75000J0D01*
G01*
X133775000Y-79900000D01*
G75*
G02*
X133850000Y-79975000I0J-75000D01*
G01*
X133850000Y-80125000D01*
G75*
G02*
X133775000Y-80200000I-75000J0D01*
G01*
X132375000Y-80200000D01*
G75*
G02*
X132300000Y-80125000I0J75000D01*
G01*
G37*
G36*
G01*
X132300000Y-80625000D02*
X132300000Y-80475000D01*
G75*
G02*
X132375000Y-80400000I75000J0D01*
G01*
X133775000Y-80400000D01*
G75*
G02*
X133850000Y-80475000I0J-75000D01*
G01*
X133850000Y-80625000D01*
G75*
G02*
X133775000Y-80700000I-75000J0D01*
G01*
X132375000Y-80700000D01*
G75*
G02*
X132300000Y-80625000I0J75000D01*
G01*
G37*
G36*
G01*
X132300000Y-81125000D02*
X132300000Y-80975000D01*
G75*
G02*
X132375000Y-80900000I75000J0D01*
G01*
X133775000Y-80900000D01*
G75*
G02*
X133850000Y-80975000I0J-75000D01*
G01*
X133850000Y-81125000D01*
G75*
G02*
X133775000Y-81200000I-75000J0D01*
G01*
X132375000Y-81200000D01*
G75*
G02*
X132300000Y-81125000I0J75000D01*
G01*
G37*
G36*
G01*
X132300000Y-81625000D02*
X132300000Y-81475000D01*
G75*
G02*
X132375000Y-81400000I75000J0D01*
G01*
X133775000Y-81400000D01*
G75*
G02*
X133850000Y-81475000I0J-75000D01*
G01*
X133850000Y-81625000D01*
G75*
G02*
X133775000Y-81700000I-75000J0D01*
G01*
X132375000Y-81700000D01*
G75*
G02*
X132300000Y-81625000I0J75000D01*
G01*
G37*
G36*
G01*
X132300000Y-82125000D02*
X132300000Y-81975000D01*
G75*
G02*
X132375000Y-81900000I75000J0D01*
G01*
X133775000Y-81900000D01*
G75*
G02*
X133850000Y-81975000I0J-75000D01*
G01*
X133850000Y-82125000D01*
G75*
G02*
X133775000Y-82200000I-75000J0D01*
G01*
X132375000Y-82200000D01*
G75*
G02*
X132300000Y-82125000I0J75000D01*
G01*
G37*
G36*
G01*
X132300000Y-82625000D02*
X132300000Y-82475000D01*
G75*
G02*
X132375000Y-82400000I75000J0D01*
G01*
X133775000Y-82400000D01*
G75*
G02*
X133850000Y-82475000I0J-75000D01*
G01*
X133850000Y-82625000D01*
G75*
G02*
X133775000Y-82700000I-75000J0D01*
G01*
X132375000Y-82700000D01*
G75*
G02*
X132300000Y-82625000I0J75000D01*
G01*
G37*
G36*
G01*
X132300000Y-83125000D02*
X132300000Y-82975000D01*
G75*
G02*
X132375000Y-82900000I75000J0D01*
G01*
X133775000Y-82900000D01*
G75*
G02*
X133850000Y-82975000I0J-75000D01*
G01*
X133850000Y-83125000D01*
G75*
G02*
X133775000Y-83200000I-75000J0D01*
G01*
X132375000Y-83200000D01*
G75*
G02*
X132300000Y-83125000I0J75000D01*
G01*
G37*
G36*
G01*
X132300000Y-83625000D02*
X132300000Y-83475000D01*
G75*
G02*
X132375000Y-83400000I75000J0D01*
G01*
X133775000Y-83400000D01*
G75*
G02*
X133850000Y-83475000I0J-75000D01*
G01*
X133850000Y-83625000D01*
G75*
G02*
X133775000Y-83700000I-75000J0D01*
G01*
X132375000Y-83700000D01*
G75*
G02*
X132300000Y-83625000I0J75000D01*
G01*
G37*
G36*
G01*
X132300000Y-84125000D02*
X132300000Y-83975000D01*
G75*
G02*
X132375000Y-83900000I75000J0D01*
G01*
X133775000Y-83900000D01*
G75*
G02*
X133850000Y-83975000I0J-75000D01*
G01*
X133850000Y-84125000D01*
G75*
G02*
X133775000Y-84200000I-75000J0D01*
G01*
X132375000Y-84200000D01*
G75*
G02*
X132300000Y-84125000I0J75000D01*
G01*
G37*
G36*
G01*
X132300000Y-84625000D02*
X132300000Y-84475000D01*
G75*
G02*
X132375000Y-84400000I75000J0D01*
G01*
X133775000Y-84400000D01*
G75*
G02*
X133850000Y-84475000I0J-75000D01*
G01*
X133850000Y-84625000D01*
G75*
G02*
X133775000Y-84700000I-75000J0D01*
G01*
X132375000Y-84700000D01*
G75*
G02*
X132300000Y-84625000I0J75000D01*
G01*
G37*
G36*
G01*
X131000000Y-87175000D02*
X131000000Y-85775000D01*
G75*
G02*
X131075000Y-85700000I75000J0D01*
G01*
X131225000Y-85700000D01*
G75*
G02*
X131300000Y-85775000I0J-75000D01*
G01*
X131300000Y-87175000D01*
G75*
G02*
X131225000Y-87250000I-75000J0D01*
G01*
X131075000Y-87250000D01*
G75*
G02*
X131000000Y-87175000I0J75000D01*
G01*
G37*
G36*
G01*
X130500000Y-87175000D02*
X130500000Y-85775000D01*
G75*
G02*
X130575000Y-85700000I75000J0D01*
G01*
X130725000Y-85700000D01*
G75*
G02*
X130800000Y-85775000I0J-75000D01*
G01*
X130800000Y-87175000D01*
G75*
G02*
X130725000Y-87250000I-75000J0D01*
G01*
X130575000Y-87250000D01*
G75*
G02*
X130500000Y-87175000I0J75000D01*
G01*
G37*
G36*
G01*
X130000000Y-87175000D02*
X130000000Y-85775000D01*
G75*
G02*
X130075000Y-85700000I75000J0D01*
G01*
X130225000Y-85700000D01*
G75*
G02*
X130300000Y-85775000I0J-75000D01*
G01*
X130300000Y-87175000D01*
G75*
G02*
X130225000Y-87250000I-75000J0D01*
G01*
X130075000Y-87250000D01*
G75*
G02*
X130000000Y-87175000I0J75000D01*
G01*
G37*
G36*
G01*
X129500000Y-87175000D02*
X129500000Y-85775000D01*
G75*
G02*
X129575000Y-85700000I75000J0D01*
G01*
X129725000Y-85700000D01*
G75*
G02*
X129800000Y-85775000I0J-75000D01*
G01*
X129800000Y-87175000D01*
G75*
G02*
X129725000Y-87250000I-75000J0D01*
G01*
X129575000Y-87250000D01*
G75*
G02*
X129500000Y-87175000I0J75000D01*
G01*
G37*
G36*
G01*
X129000000Y-87175000D02*
X129000000Y-85775000D01*
G75*
G02*
X129075000Y-85700000I75000J0D01*
G01*
X129225000Y-85700000D01*
G75*
G02*
X129300000Y-85775000I0J-75000D01*
G01*
X129300000Y-87175000D01*
G75*
G02*
X129225000Y-87250000I-75000J0D01*
G01*
X129075000Y-87250000D01*
G75*
G02*
X129000000Y-87175000I0J75000D01*
G01*
G37*
G36*
G01*
X128500000Y-87175000D02*
X128500000Y-85775000D01*
G75*
G02*
X128575000Y-85700000I75000J0D01*
G01*
X128725000Y-85700000D01*
G75*
G02*
X128800000Y-85775000I0J-75000D01*
G01*
X128800000Y-87175000D01*
G75*
G02*
X128725000Y-87250000I-75000J0D01*
G01*
X128575000Y-87250000D01*
G75*
G02*
X128500000Y-87175000I0J75000D01*
G01*
G37*
G36*
G01*
X128000000Y-87175000D02*
X128000000Y-85775000D01*
G75*
G02*
X128075000Y-85700000I75000J0D01*
G01*
X128225000Y-85700000D01*
G75*
G02*
X128300000Y-85775000I0J-75000D01*
G01*
X128300000Y-87175000D01*
G75*
G02*
X128225000Y-87250000I-75000J0D01*
G01*
X128075000Y-87250000D01*
G75*
G02*
X128000000Y-87175000I0J75000D01*
G01*
G37*
G36*
G01*
X127500000Y-87175000D02*
X127500000Y-85775000D01*
G75*
G02*
X127575000Y-85700000I75000J0D01*
G01*
X127725000Y-85700000D01*
G75*
G02*
X127800000Y-85775000I0J-75000D01*
G01*
X127800000Y-87175000D01*
G75*
G02*
X127725000Y-87250000I-75000J0D01*
G01*
X127575000Y-87250000D01*
G75*
G02*
X127500000Y-87175000I0J75000D01*
G01*
G37*
G36*
G01*
X127000000Y-87175000D02*
X127000000Y-85775000D01*
G75*
G02*
X127075000Y-85700000I75000J0D01*
G01*
X127225000Y-85700000D01*
G75*
G02*
X127300000Y-85775000I0J-75000D01*
G01*
X127300000Y-87175000D01*
G75*
G02*
X127225000Y-87250000I-75000J0D01*
G01*
X127075000Y-87250000D01*
G75*
G02*
X127000000Y-87175000I0J75000D01*
G01*
G37*
G36*
G01*
X126500000Y-87175000D02*
X126500000Y-85775000D01*
G75*
G02*
X126575000Y-85700000I75000J0D01*
G01*
X126725000Y-85700000D01*
G75*
G02*
X126800000Y-85775000I0J-75000D01*
G01*
X126800000Y-87175000D01*
G75*
G02*
X126725000Y-87250000I-75000J0D01*
G01*
X126575000Y-87250000D01*
G75*
G02*
X126500000Y-87175000I0J75000D01*
G01*
G37*
G36*
G01*
X126000000Y-87175000D02*
X126000000Y-85775000D01*
G75*
G02*
X126075000Y-85700000I75000J0D01*
G01*
X126225000Y-85700000D01*
G75*
G02*
X126300000Y-85775000I0J-75000D01*
G01*
X126300000Y-87175000D01*
G75*
G02*
X126225000Y-87250000I-75000J0D01*
G01*
X126075000Y-87250000D01*
G75*
G02*
X126000000Y-87175000I0J75000D01*
G01*
G37*
G36*
G01*
X125500000Y-87175000D02*
X125500000Y-85775000D01*
G75*
G02*
X125575000Y-85700000I75000J0D01*
G01*
X125725000Y-85700000D01*
G75*
G02*
X125800000Y-85775000I0J-75000D01*
G01*
X125800000Y-87175000D01*
G75*
G02*
X125725000Y-87250000I-75000J0D01*
G01*
X125575000Y-87250000D01*
G75*
G02*
X125500000Y-87175000I0J75000D01*
G01*
G37*
G36*
G01*
X125000000Y-87175000D02*
X125000000Y-85775000D01*
G75*
G02*
X125075000Y-85700000I75000J0D01*
G01*
X125225000Y-85700000D01*
G75*
G02*
X125300000Y-85775000I0J-75000D01*
G01*
X125300000Y-87175000D01*
G75*
G02*
X125225000Y-87250000I-75000J0D01*
G01*
X125075000Y-87250000D01*
G75*
G02*
X125000000Y-87175000I0J75000D01*
G01*
G37*
G36*
G01*
X124500000Y-87175000D02*
X124500000Y-85775000D01*
G75*
G02*
X124575000Y-85700000I75000J0D01*
G01*
X124725000Y-85700000D01*
G75*
G02*
X124800000Y-85775000I0J-75000D01*
G01*
X124800000Y-87175000D01*
G75*
G02*
X124725000Y-87250000I-75000J0D01*
G01*
X124575000Y-87250000D01*
G75*
G02*
X124500000Y-87175000I0J75000D01*
G01*
G37*
G36*
G01*
X124000000Y-87175000D02*
X124000000Y-85775000D01*
G75*
G02*
X124075000Y-85700000I75000J0D01*
G01*
X124225000Y-85700000D01*
G75*
G02*
X124300000Y-85775000I0J-75000D01*
G01*
X124300000Y-87175000D01*
G75*
G02*
X124225000Y-87250000I-75000J0D01*
G01*
X124075000Y-87250000D01*
G75*
G02*
X124000000Y-87175000I0J75000D01*
G01*
G37*
G36*
G01*
X123500000Y-87175000D02*
X123500000Y-85775000D01*
G75*
G02*
X123575000Y-85700000I75000J0D01*
G01*
X123725000Y-85700000D01*
G75*
G02*
X123800000Y-85775000I0J-75000D01*
G01*
X123800000Y-87175000D01*
G75*
G02*
X123725000Y-87250000I-75000J0D01*
G01*
X123575000Y-87250000D01*
G75*
G02*
X123500000Y-87175000I0J75000D01*
G01*
G37*
G36*
G01*
X120950000Y-84625000D02*
X120950000Y-84475000D01*
G75*
G02*
X121025000Y-84400000I75000J0D01*
G01*
X122425000Y-84400000D01*
G75*
G02*
X122500000Y-84475000I0J-75000D01*
G01*
X122500000Y-84625000D01*
G75*
G02*
X122425000Y-84700000I-75000J0D01*
G01*
X121025000Y-84700000D01*
G75*
G02*
X120950000Y-84625000I0J75000D01*
G01*
G37*
G36*
G01*
X120950000Y-84125000D02*
X120950000Y-83975000D01*
G75*
G02*
X121025000Y-83900000I75000J0D01*
G01*
X122425000Y-83900000D01*
G75*
G02*
X122500000Y-83975000I0J-75000D01*
G01*
X122500000Y-84125000D01*
G75*
G02*
X122425000Y-84200000I-75000J0D01*
G01*
X121025000Y-84200000D01*
G75*
G02*
X120950000Y-84125000I0J75000D01*
G01*
G37*
G36*
G01*
X120950000Y-83625000D02*
X120950000Y-83475000D01*
G75*
G02*
X121025000Y-83400000I75000J0D01*
G01*
X122425000Y-83400000D01*
G75*
G02*
X122500000Y-83475000I0J-75000D01*
G01*
X122500000Y-83625000D01*
G75*
G02*
X122425000Y-83700000I-75000J0D01*
G01*
X121025000Y-83700000D01*
G75*
G02*
X120950000Y-83625000I0J75000D01*
G01*
G37*
G36*
G01*
X120950000Y-83125000D02*
X120950000Y-82975000D01*
G75*
G02*
X121025000Y-82900000I75000J0D01*
G01*
X122425000Y-82900000D01*
G75*
G02*
X122500000Y-82975000I0J-75000D01*
G01*
X122500000Y-83125000D01*
G75*
G02*
X122425000Y-83200000I-75000J0D01*
G01*
X121025000Y-83200000D01*
G75*
G02*
X120950000Y-83125000I0J75000D01*
G01*
G37*
G36*
G01*
X120950000Y-82625000D02*
X120950000Y-82475000D01*
G75*
G02*
X121025000Y-82400000I75000J0D01*
G01*
X122425000Y-82400000D01*
G75*
G02*
X122500000Y-82475000I0J-75000D01*
G01*
X122500000Y-82625000D01*
G75*
G02*
X122425000Y-82700000I-75000J0D01*
G01*
X121025000Y-82700000D01*
G75*
G02*
X120950000Y-82625000I0J75000D01*
G01*
G37*
G36*
G01*
X120950000Y-82125000D02*
X120950000Y-81975000D01*
G75*
G02*
X121025000Y-81900000I75000J0D01*
G01*
X122425000Y-81900000D01*
G75*
G02*
X122500000Y-81975000I0J-75000D01*
G01*
X122500000Y-82125000D01*
G75*
G02*
X122425000Y-82200000I-75000J0D01*
G01*
X121025000Y-82200000D01*
G75*
G02*
X120950000Y-82125000I0J75000D01*
G01*
G37*
G36*
G01*
X120950000Y-81625000D02*
X120950000Y-81475000D01*
G75*
G02*
X121025000Y-81400000I75000J0D01*
G01*
X122425000Y-81400000D01*
G75*
G02*
X122500000Y-81475000I0J-75000D01*
G01*
X122500000Y-81625000D01*
G75*
G02*
X122425000Y-81700000I-75000J0D01*
G01*
X121025000Y-81700000D01*
G75*
G02*
X120950000Y-81625000I0J75000D01*
G01*
G37*
G36*
G01*
X120950000Y-81125000D02*
X120950000Y-80975000D01*
G75*
G02*
X121025000Y-80900000I75000J0D01*
G01*
X122425000Y-80900000D01*
G75*
G02*
X122500000Y-80975000I0J-75000D01*
G01*
X122500000Y-81125000D01*
G75*
G02*
X122425000Y-81200000I-75000J0D01*
G01*
X121025000Y-81200000D01*
G75*
G02*
X120950000Y-81125000I0J75000D01*
G01*
G37*
G36*
G01*
X120950000Y-80625000D02*
X120950000Y-80475000D01*
G75*
G02*
X121025000Y-80400000I75000J0D01*
G01*
X122425000Y-80400000D01*
G75*
G02*
X122500000Y-80475000I0J-75000D01*
G01*
X122500000Y-80625000D01*
G75*
G02*
X122425000Y-80700000I-75000J0D01*
G01*
X121025000Y-80700000D01*
G75*
G02*
X120950000Y-80625000I0J75000D01*
G01*
G37*
G36*
G01*
X120950000Y-80125000D02*
X120950000Y-79975000D01*
G75*
G02*
X121025000Y-79900000I75000J0D01*
G01*
X122425000Y-79900000D01*
G75*
G02*
X122500000Y-79975000I0J-75000D01*
G01*
X122500000Y-80125000D01*
G75*
G02*
X122425000Y-80200000I-75000J0D01*
G01*
X121025000Y-80200000D01*
G75*
G02*
X120950000Y-80125000I0J75000D01*
G01*
G37*
G36*
G01*
X120950000Y-79625000D02*
X120950000Y-79475000D01*
G75*
G02*
X121025000Y-79400000I75000J0D01*
G01*
X122425000Y-79400000D01*
G75*
G02*
X122500000Y-79475000I0J-75000D01*
G01*
X122500000Y-79625000D01*
G75*
G02*
X122425000Y-79700000I-75000J0D01*
G01*
X121025000Y-79700000D01*
G75*
G02*
X120950000Y-79625000I0J75000D01*
G01*
G37*
G36*
G01*
X120950000Y-79125000D02*
X120950000Y-78975000D01*
G75*
G02*
X121025000Y-78900000I75000J0D01*
G01*
X122425000Y-78900000D01*
G75*
G02*
X122500000Y-78975000I0J-75000D01*
G01*
X122500000Y-79125000D01*
G75*
G02*
X122425000Y-79200000I-75000J0D01*
G01*
X121025000Y-79200000D01*
G75*
G02*
X120950000Y-79125000I0J75000D01*
G01*
G37*
G36*
G01*
X120950000Y-78625000D02*
X120950000Y-78475000D01*
G75*
G02*
X121025000Y-78400000I75000J0D01*
G01*
X122425000Y-78400000D01*
G75*
G02*
X122500000Y-78475000I0J-75000D01*
G01*
X122500000Y-78625000D01*
G75*
G02*
X122425000Y-78700000I-75000J0D01*
G01*
X121025000Y-78700000D01*
G75*
G02*
X120950000Y-78625000I0J75000D01*
G01*
G37*
G36*
G01*
X120950000Y-78125000D02*
X120950000Y-77975000D01*
G75*
G02*
X121025000Y-77900000I75000J0D01*
G01*
X122425000Y-77900000D01*
G75*
G02*
X122500000Y-77975000I0J-75000D01*
G01*
X122500000Y-78125000D01*
G75*
G02*
X122425000Y-78200000I-75000J0D01*
G01*
X121025000Y-78200000D01*
G75*
G02*
X120950000Y-78125000I0J75000D01*
G01*
G37*
G36*
G01*
X120950000Y-77625000D02*
X120950000Y-77475000D01*
G75*
G02*
X121025000Y-77400000I75000J0D01*
G01*
X122425000Y-77400000D01*
G75*
G02*
X122500000Y-77475000I0J-75000D01*
G01*
X122500000Y-77625000D01*
G75*
G02*
X122425000Y-77700000I-75000J0D01*
G01*
X121025000Y-77700000D01*
G75*
G02*
X120950000Y-77625000I0J75000D01*
G01*
G37*
G36*
G01*
X120950000Y-77125000D02*
X120950000Y-76975000D01*
G75*
G02*
X121025000Y-76900000I75000J0D01*
G01*
X122425000Y-76900000D01*
G75*
G02*
X122500000Y-76975000I0J-75000D01*
G01*
X122500000Y-77125000D01*
G75*
G02*
X122425000Y-77200000I-75000J0D01*
G01*
X121025000Y-77200000D01*
G75*
G02*
X120950000Y-77125000I0J75000D01*
G01*
G37*
G36*
G01*
X153290000Y-87395000D02*
X153290000Y-88625000D01*
G75*
G02*
X153040000Y-88875000I-250000J0D01*
G01*
X152170000Y-88875000D01*
G75*
G02*
X151920000Y-88625000I0J250000D01*
G01*
X151920000Y-87395000D01*
G75*
G02*
X152170000Y-87145000I250000J0D01*
G01*
X153040000Y-87145000D01*
G75*
G02*
X153290000Y-87395000I0J-250000D01*
G01*
G37*
G36*
G01*
X153290000Y-89545000D02*
X153290000Y-90775000D01*
G75*
G02*
X153040000Y-91025000I-250000J0D01*
G01*
X152170000Y-91025000D01*
G75*
G02*
X151920000Y-90775000I0J250000D01*
G01*
X151920000Y-89545000D01*
G75*
G02*
X152170000Y-89295000I250000J0D01*
G01*
X153040000Y-89295000D01*
G75*
G02*
X153290000Y-89545000I0J-250000D01*
G01*
G37*
G36*
G01*
X154990000Y-87395000D02*
X154990000Y-88625000D01*
G75*
G02*
X154740000Y-88875000I-250000J0D01*
G01*
X153870000Y-88875000D01*
G75*
G02*
X153620000Y-88625000I0J250000D01*
G01*
X153620000Y-87395000D01*
G75*
G02*
X153870000Y-87145000I250000J0D01*
G01*
X154740000Y-87145000D01*
G75*
G02*
X154990000Y-87395000I0J-250000D01*
G01*
G37*
G36*
G01*
X154990000Y-89545000D02*
X154990000Y-90775000D01*
G75*
G02*
X154740000Y-91025000I-250000J0D01*
G01*
X153870000Y-91025000D01*
G75*
G02*
X153620000Y-90775000I0J250000D01*
G01*
X153620000Y-89545000D01*
G75*
G02*
X153870000Y-89295000I250000J0D01*
G01*
X154740000Y-89295000D01*
G75*
G02*
X154990000Y-89545000I0J-250000D01*
G01*
G37*
G36*
G01*
X151130000Y-90865000D02*
X151130000Y-91115000D01*
G75*
G02*
X151005000Y-91240000I-125000J0D01*
G01*
X150505000Y-91240000D01*
G75*
G02*
X150380000Y-91115000I0J125000D01*
G01*
X150380000Y-90865000D01*
G75*
G02*
X150505000Y-90740000I125000J0D01*
G01*
X151005000Y-90740000D01*
G75*
G02*
X151130000Y-90865000I0J-125000D01*
G01*
G37*
G36*
G01*
X151130000Y-89595000D02*
X151130000Y-89845000D01*
G75*
G02*
X151005000Y-89970000I-125000J0D01*
G01*
X150505000Y-89970000D01*
G75*
G02*
X150380000Y-89845000I0J125000D01*
G01*
X150380000Y-89595000D01*
G75*
G02*
X150505000Y-89470000I125000J0D01*
G01*
X151005000Y-89470000D01*
G75*
G02*
X151130000Y-89595000I0J-125000D01*
G01*
G37*
G36*
G01*
X151130000Y-88325000D02*
X151130000Y-88575000D01*
G75*
G02*
X151005000Y-88700000I-125000J0D01*
G01*
X150505000Y-88700000D01*
G75*
G02*
X150380000Y-88575000I0J125000D01*
G01*
X150380000Y-88325000D01*
G75*
G02*
X150505000Y-88200000I125000J0D01*
G01*
X151005000Y-88200000D01*
G75*
G02*
X151130000Y-88325000I0J-125000D01*
G01*
G37*
G36*
G01*
X151130000Y-87055000D02*
X151130000Y-87305000D01*
G75*
G02*
X151005000Y-87430000I-125000J0D01*
G01*
X150505000Y-87430000D01*
G75*
G02*
X150380000Y-87305000I0J125000D01*
G01*
X150380000Y-87055000D01*
G75*
G02*
X150505000Y-86930000I125000J0D01*
G01*
X151005000Y-86930000D01*
G75*
G02*
X151130000Y-87055000I0J-125000D01*
G01*
G37*
G36*
G01*
X156530000Y-87055000D02*
X156530000Y-87305000D01*
G75*
G02*
X156405000Y-87430000I-125000J0D01*
G01*
X155905000Y-87430000D01*
G75*
G02*
X155780000Y-87305000I0J125000D01*
G01*
X155780000Y-87055000D01*
G75*
G02*
X155905000Y-86930000I125000J0D01*
G01*
X156405000Y-86930000D01*
G75*
G02*
X156530000Y-87055000I0J-125000D01*
G01*
G37*
G36*
G01*
X156530000Y-88325000D02*
X156530000Y-88575000D01*
G75*
G02*
X156405000Y-88700000I-125000J0D01*
G01*
X155905000Y-88700000D01*
G75*
G02*
X155780000Y-88575000I0J125000D01*
G01*
X155780000Y-88325000D01*
G75*
G02*
X155905000Y-88200000I125000J0D01*
G01*
X156405000Y-88200000D01*
G75*
G02*
X156530000Y-88325000I0J-125000D01*
G01*
G37*
G36*
G01*
X156530000Y-89595000D02*
X156530000Y-89845000D01*
G75*
G02*
X156405000Y-89970000I-125000J0D01*
G01*
X155905000Y-89970000D01*
G75*
G02*
X155780000Y-89845000I0J125000D01*
G01*
X155780000Y-89595000D01*
G75*
G02*
X155905000Y-89470000I125000J0D01*
G01*
X156405000Y-89470000D01*
G75*
G02*
X156530000Y-89595000I0J-125000D01*
G01*
G37*
G36*
G01*
X156530000Y-90865000D02*
X156530000Y-91115000D01*
G75*
G02*
X156405000Y-91240000I-125000J0D01*
G01*
X155905000Y-91240000D01*
G75*
G02*
X155780000Y-91115000I0J125000D01*
G01*
X155780000Y-90865000D01*
G75*
G02*
X155905000Y-90740000I125000J0D01*
G01*
X156405000Y-90740000D01*
G75*
G02*
X156530000Y-90865000I0J-125000D01*
G01*
G37*
G36*
G01*
X149627500Y-90295000D02*
X149282500Y-90295000D01*
G75*
G02*
X149135000Y-90147500I0J147500D01*
G01*
X149135000Y-89852500D01*
G75*
G02*
X149282500Y-89705000I147500J0D01*
G01*
X149627500Y-89705000D01*
G75*
G02*
X149775000Y-89852500I0J-147500D01*
G01*
X149775000Y-90147500D01*
G75*
G02*
X149627500Y-90295000I-147500J0D01*
G01*
G37*
G36*
G01*
X149627500Y-91265000D02*
X149282500Y-91265000D01*
G75*
G02*
X149135000Y-91117500I0J147500D01*
G01*
X149135000Y-90822500D01*
G75*
G02*
X149282500Y-90675000I147500J0D01*
G01*
X149627500Y-90675000D01*
G75*
G02*
X149775000Y-90822500I0J-147500D01*
G01*
X149775000Y-91117500D01*
G75*
G02*
X149627500Y-91265000I-147500J0D01*
G01*
G37*
D13*
X148655000Y-95135000D03*
X148655000Y-97035000D03*
X146455000Y-97035000D03*
X146455000Y-96085000D03*
X146455000Y-95135000D03*
G36*
G01*
X149998750Y-96535000D02*
X150911250Y-96535000D01*
G75*
G02*
X151155000Y-96778750I0J-243750D01*
G01*
X151155000Y-97266250D01*
G75*
G02*
X150911250Y-97510000I-243750J0D01*
G01*
X149998750Y-97510000D01*
G75*
G02*
X149755000Y-97266250I0J243750D01*
G01*
X149755000Y-96778750D01*
G75*
G02*
X149998750Y-96535000I243750J0D01*
G01*
G37*
G36*
G01*
X149998750Y-94660000D02*
X150911250Y-94660000D01*
G75*
G02*
X151155000Y-94903750I0J-243750D01*
G01*
X151155000Y-95391250D01*
G75*
G02*
X150911250Y-95635000I-243750J0D01*
G01*
X149998750Y-95635000D01*
G75*
G02*
X149755000Y-95391250I0J243750D01*
G01*
X149755000Y-94903750D01*
G75*
G02*
X149998750Y-94660000I243750J0D01*
G01*
G37*
G36*
G01*
X144198750Y-96535000D02*
X145111250Y-96535000D01*
G75*
G02*
X145355000Y-96778750I0J-243750D01*
G01*
X145355000Y-97266250D01*
G75*
G02*
X145111250Y-97510000I-243750J0D01*
G01*
X144198750Y-97510000D01*
G75*
G02*
X143955000Y-97266250I0J243750D01*
G01*
X143955000Y-96778750D01*
G75*
G02*
X144198750Y-96535000I243750J0D01*
G01*
G37*
G36*
G01*
X144198750Y-94660000D02*
X145111250Y-94660000D01*
G75*
G02*
X145355000Y-94903750I0J-243750D01*
G01*
X145355000Y-95391250D01*
G75*
G02*
X145111250Y-95635000I-243750J0D01*
G01*
X144198750Y-95635000D01*
G75*
G02*
X143955000Y-95391250I0J243750D01*
G01*
X143955000Y-94903750D01*
G75*
G02*
X144198750Y-94660000I243750J0D01*
G01*
G37*
X123700000Y-92800000D03*
X123700000Y-91850000D03*
X123700000Y-93750000D03*
X121500000Y-93750000D03*
X121500000Y-92800000D03*
X121500000Y-91850000D03*
G36*
G01*
X125822240Y-88846870D02*
X124909740Y-88846870D01*
G75*
G02*
X124665990Y-88603120I0J243750D01*
G01*
X124665990Y-88115620D01*
G75*
G02*
X124909740Y-87871870I243750J0D01*
G01*
X125822240Y-87871870D01*
G75*
G02*
X126065990Y-88115620I0J-243750D01*
G01*
X126065990Y-88603120D01*
G75*
G02*
X125822240Y-88846870I-243750J0D01*
G01*
G37*
G36*
G01*
X125822240Y-90721870D02*
X124909740Y-90721870D01*
G75*
G02*
X124665990Y-90478120I0J243750D01*
G01*
X124665990Y-89990620D01*
G75*
G02*
X124909740Y-89746870I243750J0D01*
G01*
X125822240Y-89746870D01*
G75*
G02*
X126065990Y-89990620I0J-243750D01*
G01*
X126065990Y-90478120D01*
G75*
G02*
X125822240Y-90721870I-243750J0D01*
G01*
G37*
G36*
G01*
X121106250Y-89750000D02*
X122018750Y-89750000D01*
G75*
G02*
X122262500Y-89993750I0J-243750D01*
G01*
X122262500Y-90481250D01*
G75*
G02*
X122018750Y-90725000I-243750J0D01*
G01*
X121106250Y-90725000D01*
G75*
G02*
X120862500Y-90481250I0J243750D01*
G01*
X120862500Y-89993750D01*
G75*
G02*
X121106250Y-89750000I243750J0D01*
G01*
G37*
G36*
G01*
X121106250Y-87875000D02*
X122018750Y-87875000D01*
G75*
G02*
X122262500Y-88118750I0J-243750D01*
G01*
X122262500Y-88606250D01*
G75*
G02*
X122018750Y-88850000I-243750J0D01*
G01*
X121106250Y-88850000D01*
G75*
G02*
X120862500Y-88606250I0J243750D01*
G01*
X120862500Y-88118750D01*
G75*
G02*
X121106250Y-87875000I243750J0D01*
G01*
G37*
G36*
G01*
X126906250Y-93350000D02*
X127818750Y-93350000D01*
G75*
G02*
X128062500Y-93593750I0J-243750D01*
G01*
X128062500Y-94081250D01*
G75*
G02*
X127818750Y-94325000I-243750J0D01*
G01*
X126906250Y-94325000D01*
G75*
G02*
X126662500Y-94081250I0J243750D01*
G01*
X126662500Y-93593750D01*
G75*
G02*
X126906250Y-93350000I243750J0D01*
G01*
G37*
G36*
G01*
X126906250Y-91475000D02*
X127818750Y-91475000D01*
G75*
G02*
X128062500Y-91718750I0J-243750D01*
G01*
X128062500Y-92206250D01*
G75*
G02*
X127818750Y-92450000I-243750J0D01*
G01*
X126906250Y-92450000D01*
G75*
G02*
X126662500Y-92206250I0J243750D01*
G01*
X126662500Y-91718750D01*
G75*
G02*
X126906250Y-91475000I243750J0D01*
G01*
G37*
G36*
G01*
X125918750Y-92450000D02*
X125006250Y-92450000D01*
G75*
G02*
X124762500Y-92206250I0J243750D01*
G01*
X124762500Y-91718750D01*
G75*
G02*
X125006250Y-91475000I243750J0D01*
G01*
X125918750Y-91475000D01*
G75*
G02*
X126162500Y-91718750I0J-243750D01*
G01*
X126162500Y-92206250D01*
G75*
G02*
X125918750Y-92450000I-243750J0D01*
G01*
G37*
G36*
G01*
X125918750Y-94325000D02*
X125006250Y-94325000D01*
G75*
G02*
X124762500Y-94081250I0J243750D01*
G01*
X124762500Y-93593750D01*
G75*
G02*
X125006250Y-93350000I243750J0D01*
G01*
X125918750Y-93350000D01*
G75*
G02*
X126162500Y-93593750I0J-243750D01*
G01*
X126162500Y-94081250D01*
G75*
G02*
X125918750Y-94325000I-243750J0D01*
G01*
G37*
D15*
X117762500Y-92700000D03*
X117762500Y-97700000D03*
G36*
G01*
X160775000Y-71806250D02*
X160775000Y-70893750D01*
G75*
G02*
X161018750Y-70650000I243750J0D01*
G01*
X161506250Y-70650000D01*
G75*
G02*
X161750000Y-70893750I0J-243750D01*
G01*
X161750000Y-71806250D01*
G75*
G02*
X161506250Y-72050000I-243750J0D01*
G01*
X161018750Y-72050000D01*
G75*
G02*
X160775000Y-71806250I0J243750D01*
G01*
G37*
G36*
G01*
X158900000Y-71806250D02*
X158900000Y-70893750D01*
G75*
G02*
X159143750Y-70650000I243750J0D01*
G01*
X159631250Y-70650000D01*
G75*
G02*
X159875000Y-70893750I0J-243750D01*
G01*
X159875000Y-71806250D01*
G75*
G02*
X159631250Y-72050000I-243750J0D01*
G01*
X159143750Y-72050000D01*
G75*
G02*
X158900000Y-71806250I0J243750D01*
G01*
G37*
G36*
G01*
X122812500Y-97956250D02*
X122812500Y-97043750D01*
G75*
G02*
X123056250Y-96800000I243750J0D01*
G01*
X123543750Y-96800000D01*
G75*
G02*
X123787500Y-97043750I0J-243750D01*
G01*
X123787500Y-97956250D01*
G75*
G02*
X123543750Y-98200000I-243750J0D01*
G01*
X123056250Y-98200000D01*
G75*
G02*
X122812500Y-97956250I0J243750D01*
G01*
G37*
G36*
G01*
X120937500Y-97956250D02*
X120937500Y-97043750D01*
G75*
G02*
X121181250Y-96800000I243750J0D01*
G01*
X121668750Y-96800000D01*
G75*
G02*
X121912500Y-97043750I0J-243750D01*
G01*
X121912500Y-97956250D01*
G75*
G02*
X121668750Y-98200000I-243750J0D01*
G01*
X121181250Y-98200000D01*
G75*
G02*
X120937500Y-97956250I0J243750D01*
G01*
G37*
G36*
G01*
X122812500Y-96056250D02*
X122812500Y-95143750D01*
G75*
G02*
X123056250Y-94900000I243750J0D01*
G01*
X123543750Y-94900000D01*
G75*
G02*
X123787500Y-95143750I0J-243750D01*
G01*
X123787500Y-96056250D01*
G75*
G02*
X123543750Y-96300000I-243750J0D01*
G01*
X123056250Y-96300000D01*
G75*
G02*
X122812500Y-96056250I0J243750D01*
G01*
G37*
G36*
G01*
X120937500Y-96056250D02*
X120937500Y-95143750D01*
G75*
G02*
X121181250Y-94900000I243750J0D01*
G01*
X121668750Y-94900000D01*
G75*
G02*
X121912500Y-95143750I0J-243750D01*
G01*
X121912500Y-96056250D01*
G75*
G02*
X121668750Y-96300000I-243750J0D01*
G01*
X121181250Y-96300000D01*
G75*
G02*
X120937500Y-96056250I0J243750D01*
G01*
G37*
G36*
G01*
X123006250Y-89750000D02*
X123918750Y-89750000D01*
G75*
G02*
X124162500Y-89993750I0J-243750D01*
G01*
X124162500Y-90481250D01*
G75*
G02*
X123918750Y-90725000I-243750J0D01*
G01*
X123006250Y-90725000D01*
G75*
G02*
X122762500Y-90481250I0J243750D01*
G01*
X122762500Y-89993750D01*
G75*
G02*
X123006250Y-89750000I243750J0D01*
G01*
G37*
G36*
G01*
X123006250Y-87875000D02*
X123918750Y-87875000D01*
G75*
G02*
X124162500Y-88118750I0J-243750D01*
G01*
X124162500Y-88606250D01*
G75*
G02*
X123918750Y-88850000I-243750J0D01*
G01*
X123006250Y-88850000D01*
G75*
G02*
X122762500Y-88606250I0J243750D01*
G01*
X122762500Y-88118750D01*
G75*
G02*
X123006250Y-87875000I243750J0D01*
G01*
G37*
G36*
G01*
X124606250Y-96750000D02*
X125518750Y-96750000D01*
G75*
G02*
X125762500Y-96993750I0J-243750D01*
G01*
X125762500Y-97481250D01*
G75*
G02*
X125518750Y-97725000I-243750J0D01*
G01*
X124606250Y-97725000D01*
G75*
G02*
X124362500Y-97481250I0J243750D01*
G01*
X124362500Y-96993750D01*
G75*
G02*
X124606250Y-96750000I243750J0D01*
G01*
G37*
G36*
G01*
X124606250Y-94875000D02*
X125518750Y-94875000D01*
G75*
G02*
X125762500Y-95118750I0J-243750D01*
G01*
X125762500Y-95606250D01*
G75*
G02*
X125518750Y-95850000I-243750J0D01*
G01*
X124606250Y-95850000D01*
G75*
G02*
X124362500Y-95606250I0J243750D01*
G01*
X124362500Y-95118750D01*
G75*
G02*
X124606250Y-94875000I243750J0D01*
G01*
G37*
G36*
G01*
X128943750Y-66962500D02*
X129856250Y-66962500D01*
G75*
G02*
X130100000Y-67206250I0J-243750D01*
G01*
X130100000Y-67693750D01*
G75*
G02*
X129856250Y-67937500I-243750J0D01*
G01*
X128943750Y-67937500D01*
G75*
G02*
X128700000Y-67693750I0J243750D01*
G01*
X128700000Y-67206250D01*
G75*
G02*
X128943750Y-66962500I243750J0D01*
G01*
G37*
G36*
G01*
X128943750Y-65087500D02*
X129856250Y-65087500D01*
G75*
G02*
X130100000Y-65331250I0J-243750D01*
G01*
X130100000Y-65818750D01*
G75*
G02*
X129856250Y-66062500I-243750J0D01*
G01*
X128943750Y-66062500D01*
G75*
G02*
X128700000Y-65818750I0J243750D01*
G01*
X128700000Y-65331250D01*
G75*
G02*
X128943750Y-65087500I243750J0D01*
G01*
G37*
G36*
G01*
X129856250Y-69462500D02*
X128943750Y-69462500D01*
G75*
G02*
X128700000Y-69218750I0J243750D01*
G01*
X128700000Y-68731250D01*
G75*
G02*
X128943750Y-68487500I243750J0D01*
G01*
X129856250Y-68487500D01*
G75*
G02*
X130100000Y-68731250I0J-243750D01*
G01*
X130100000Y-69218750D01*
G75*
G02*
X129856250Y-69462500I-243750J0D01*
G01*
G37*
G36*
G01*
X129856250Y-71337500D02*
X128943750Y-71337500D01*
G75*
G02*
X128700000Y-71093750I0J243750D01*
G01*
X128700000Y-70606250D01*
G75*
G02*
X128943750Y-70362500I243750J0D01*
G01*
X129856250Y-70362500D01*
G75*
G02*
X130100000Y-70606250I0J-243750D01*
G01*
X130100000Y-71093750D01*
G75*
G02*
X129856250Y-71337500I-243750J0D01*
G01*
G37*
G36*
G01*
X127043750Y-66962500D02*
X127956250Y-66962500D01*
G75*
G02*
X128200000Y-67206250I0J-243750D01*
G01*
X128200000Y-67693750D01*
G75*
G02*
X127956250Y-67937500I-243750J0D01*
G01*
X127043750Y-67937500D01*
G75*
G02*
X126800000Y-67693750I0J243750D01*
G01*
X126800000Y-67206250D01*
G75*
G02*
X127043750Y-66962500I243750J0D01*
G01*
G37*
G36*
G01*
X127043750Y-65087500D02*
X127956250Y-65087500D01*
G75*
G02*
X128200000Y-65331250I0J-243750D01*
G01*
X128200000Y-65818750D01*
G75*
G02*
X127956250Y-66062500I-243750J0D01*
G01*
X127043750Y-66062500D01*
G75*
G02*
X126800000Y-65818750I0J243750D01*
G01*
X126800000Y-65331250D01*
G75*
G02*
X127043750Y-65087500I243750J0D01*
G01*
G37*
G36*
G01*
X122950000Y-69668750D02*
X122950000Y-68756250D01*
G75*
G02*
X123193750Y-68512500I243750J0D01*
G01*
X123681250Y-68512500D01*
G75*
G02*
X123925000Y-68756250I0J-243750D01*
G01*
X123925000Y-69668750D01*
G75*
G02*
X123681250Y-69912500I-243750J0D01*
G01*
X123193750Y-69912500D01*
G75*
G02*
X122950000Y-69668750I0J243750D01*
G01*
G37*
G36*
G01*
X121075000Y-69668750D02*
X121075000Y-68756250D01*
G75*
G02*
X121318750Y-68512500I243750J0D01*
G01*
X121806250Y-68512500D01*
G75*
G02*
X122050000Y-68756250I0J-243750D01*
G01*
X122050000Y-69668750D01*
G75*
G02*
X121806250Y-69912500I-243750J0D01*
G01*
X121318750Y-69912500D01*
G75*
G02*
X121075000Y-69668750I0J243750D01*
G01*
G37*
G36*
G01*
X122950000Y-71568750D02*
X122950000Y-70656250D01*
G75*
G02*
X123193750Y-70412500I243750J0D01*
G01*
X123681250Y-70412500D01*
G75*
G02*
X123925000Y-70656250I0J-243750D01*
G01*
X123925000Y-71568750D01*
G75*
G02*
X123681250Y-71812500I-243750J0D01*
G01*
X123193750Y-71812500D01*
G75*
G02*
X122950000Y-71568750I0J243750D01*
G01*
G37*
G36*
G01*
X121075000Y-71568750D02*
X121075000Y-70656250D01*
G75*
G02*
X121318750Y-70412500I243750J0D01*
G01*
X121806250Y-70412500D01*
G75*
G02*
X122050000Y-70656250I0J-243750D01*
G01*
X122050000Y-71568750D01*
G75*
G02*
X121806250Y-71812500I-243750J0D01*
G01*
X121318750Y-71812500D01*
G75*
G02*
X121075000Y-71568750I0J243750D01*
G01*
G37*
G36*
G01*
X127956250Y-69462500D02*
X127043750Y-69462500D01*
G75*
G02*
X126800000Y-69218750I0J243750D01*
G01*
X126800000Y-68731250D01*
G75*
G02*
X127043750Y-68487500I243750J0D01*
G01*
X127956250Y-68487500D01*
G75*
G02*
X128200000Y-68731250I0J-243750D01*
G01*
X128200000Y-69218750D01*
G75*
G02*
X127956250Y-69462500I-243750J0D01*
G01*
G37*
G36*
G01*
X127956250Y-71337500D02*
X127043750Y-71337500D01*
G75*
G02*
X126800000Y-71093750I0J243750D01*
G01*
X126800000Y-70606250D01*
G75*
G02*
X127043750Y-70362500I243750J0D01*
G01*
X127956250Y-70362500D01*
G75*
G02*
X128200000Y-70606250I0J-243750D01*
G01*
X128200000Y-71093750D01*
G75*
G02*
X127956250Y-71337500I-243750J0D01*
G01*
G37*
G36*
G01*
X125143750Y-70362500D02*
X126056250Y-70362500D01*
G75*
G02*
X126300000Y-70606250I0J-243750D01*
G01*
X126300000Y-71093750D01*
G75*
G02*
X126056250Y-71337500I-243750J0D01*
G01*
X125143750Y-71337500D01*
G75*
G02*
X124900000Y-71093750I0J243750D01*
G01*
X124900000Y-70606250D01*
G75*
G02*
X125143750Y-70362500I243750J0D01*
G01*
G37*
G36*
G01*
X125143750Y-68487500D02*
X126056250Y-68487500D01*
G75*
G02*
X126300000Y-68731250I0J-243750D01*
G01*
X126300000Y-69218750D01*
G75*
G02*
X126056250Y-69462500I-243750J0D01*
G01*
X125143750Y-69462500D01*
G75*
G02*
X124900000Y-69218750I0J243750D01*
G01*
X124900000Y-68731250D01*
G75*
G02*
X125143750Y-68487500I243750J0D01*
G01*
G37*
X117900000Y-66312500D03*
X117900000Y-71312500D03*
D13*
X123800000Y-66412500D03*
X123800000Y-65462500D03*
X123800000Y-67362500D03*
X121600000Y-67362500D03*
X121600000Y-66412500D03*
X121600000Y-65462500D03*
G36*
G01*
X126056250Y-66062500D02*
X125143750Y-66062500D01*
G75*
G02*
X124900000Y-65818750I0J243750D01*
G01*
X124900000Y-65331250D01*
G75*
G02*
X125143750Y-65087500I243750J0D01*
G01*
X126056250Y-65087500D01*
G75*
G02*
X126300000Y-65331250I0J-243750D01*
G01*
X126300000Y-65818750D01*
G75*
G02*
X126056250Y-66062500I-243750J0D01*
G01*
G37*
G36*
G01*
X126056250Y-67937500D02*
X125143750Y-67937500D01*
G75*
G02*
X124900000Y-67693750I0J243750D01*
G01*
X124900000Y-67206250D01*
G75*
G02*
X125143750Y-66962500I243750J0D01*
G01*
X126056250Y-66962500D01*
G75*
G02*
X126300000Y-67206250I0J-243750D01*
G01*
X126300000Y-67693750D01*
G75*
G02*
X126056250Y-67937500I-243750J0D01*
G01*
G37*
M02*
