M48
; DRILL file {KiCad (5.99.0-2267-g4486b0b6d)} date Sun Jul 12 23:10:24 2020
; FORMAT={-:-/ absolute / metric / decimal}
; #@! TF.CreationDate,2020-07-12T23:10:24+02:00
; #@! TF.GenerationSoftware,Kicad,Pcbnew,(5.99.0-2267-g4486b0b6d)
FMAT,2
METRIC
T1C0.254
T2C0.300
T3C0.330
T4C0.381
T5C0.400
T6C0.600
T7C2.100
T8C0.600
T9C3.200
%
G90
G05
T1
X120.255Y-76.885
X120.255Y-78.085
X122.655Y-85.185
X122.8Y-83.763
X122.854Y-78.537
X122.855Y-80.985
X122.87Y-82.515
X123.255Y-85.185
X123.855Y-85.185
X124.455Y-79.185
X124.455Y-85.185
X125.355Y-89.137
X125.6Y-64.797
X130.055Y-72.895
X130.244Y-66.483
X137.855Y-85.285
X140.655Y-86.885
X141.655Y-68.785
X141.655Y-73.585
X141.655Y-79.185
X142.453Y-69.578
X142.455Y-68.785
X142.455Y-81.585
X143.255Y-68.785
X144.055Y-68.785
X144.055Y-72.785
X144.055Y-74.385
X144.055Y-79.185
X144.055Y-79.985
X144.055Y-80.785
X144.094Y-73.624
X144.855Y-71.185
X144.855Y-72.785
X144.855Y-73.585
X144.855Y-74.385
X144.855Y-75.185
X144.855Y-75.985
X144.855Y-77.585
X144.855Y-78.385
X144.855Y-79.185
X144.855Y-79.985
X144.855Y-80.785
X145.655Y-69.585
X145.655Y-72.785
X145.655Y-73.585
X145.655Y-74.385
X145.655Y-75.185
X145.655Y-75.985
X145.655Y-77.585
X145.655Y-78.385
X145.655Y-79.185
X145.655Y-79.985
X145.655Y-80.785
X145.655Y-81.585
X146.441Y-77.585
X146.455Y-72.785
X146.455Y-73.585
X146.455Y-74.385
X146.455Y-75.185
X146.455Y-75.985
X146.455Y-78.385
X146.455Y-79.185
X146.455Y-79.985
X146.455Y-80.785
X146.455Y-83.185
X147.255Y-72.785
X147.255Y-73.585
X147.255Y-74.385
X147.255Y-75.185
X147.255Y-75.985
X147.255Y-77.585
X147.255Y-78.385
X147.255Y-79.185
X147.255Y-79.985
X147.255Y-80.785
X147.255Y-83.185
X147.555Y-91.904
X147.555Y-92.742
X147.636Y-67.485
X148.055Y-71.985
X148.155Y-66.085
X148.482Y-91.975
X148.509Y-93.021
X148.655Y-67.485
X148.855Y-74.385
X148.855Y-75.185
X148.855Y-75.985
X148.855Y-77.585
X148.855Y-78.385
X148.855Y-79.185
X148.855Y-83.185
X149.155Y-65.285
X149.155Y-66.285
X149.455Y-88.285
X149.655Y-71.985
X149.655Y-73.585
X149.655Y-74.385
X149.655Y-75.185
X149.655Y-75.985
X149.655Y-77.585
X149.655Y-79.185
X149.655Y-79.985
X149.655Y-80.785
X149.669Y-78.385
X150.355Y-68.385
X150.455Y-72.785
X150.455Y-73.585
X150.455Y-74.385
X150.455Y-75.185
X150.455Y-75.985
X150.455Y-77.585
X150.455Y-78.385
X150.455Y-79.185
X150.455Y-79.985
X150.455Y-80.785
X151.248Y-75.214
X151.25Y-74.364
X151.253Y-79.978
X151.255Y-72.785
X151.255Y-73.585
X151.255Y-75.985
X151.255Y-77.585
X151.255Y-79.185
X151.255Y-83.185
X151.555Y-85.785
X151.655Y-64.685
X152.019Y-69.64
X152.053Y-81.594
X152.055Y-82.385
X152.355Y-65.585
X152.855Y-77.585
X152.855Y-79.985
X152.855Y-80.785
X153.655Y-73.585
X153.655Y-74.385
X153.655Y-75.185
X153.655Y-75.985
X153.655Y-77.585
X153.655Y-78.385
X153.655Y-79.185
X153.655Y-79.985
X153.681Y-81.559
X154.408Y-68.856
X154.455Y-69.585
X154.455Y-71.985
X154.455Y-72.785
X154.455Y-73.585
X154.455Y-74.385
X154.455Y-75.185
X154.455Y-75.985
X154.455Y-77.585
X154.455Y-78.385
X154.455Y-79.185
X154.455Y-79.985
X154.555Y-65.585
X155.104Y-80.015
X155.24Y-69.597
X155.255Y-71.985
X155.255Y-72.785
X155.255Y-75.185
X155.255Y-79.185
X155.255Y-81.585
X155.603Y-65.926
X155.655Y-64.135
X156.255Y-79.985
X156.486Y-65.505
X156.9Y-83.0
X156.911Y-80.011
X157.9Y-80.0
X157.9Y-83.0
X158.5Y-78.5
X158.5Y-84.5
X158.755Y-65.635
X158.805Y-75.985
X158.9Y-79.9
X158.9Y-83.1
X159.476Y-76.006
X159.5Y-77.5
X159.5Y-78.5
X159.5Y-84.5
X159.5Y-85.5
X159.7Y-80.0
X159.7Y-83.0
X160.5Y-76.5
X160.5Y-77.5
X160.5Y-78.5
X160.5Y-79.5
X160.5Y-83.5
X160.5Y-84.5
X160.5Y-85.5
X160.5Y-86.5
X161.5Y-76.5
X161.5Y-77.5
X161.5Y-78.5
X161.5Y-79.5
X161.5Y-83.5
X161.5Y-84.5
X161.5Y-85.5
X161.5Y-86.5
X161.5Y-87.5
X161.6Y-80.6
X161.6Y-82.4
T2
X162.25Y-75.0
X162.25Y-75.75
X162.25Y-76.5
X162.25Y-77.25
X162.25Y-78.0
X162.25Y-78.75
X162.25Y-79.5
X162.25Y-80.25
X162.25Y-82.75
X162.25Y-83.5
X162.25Y-84.25
X162.25Y-85.0
X162.25Y-85.75
X162.25Y-86.5
X162.25Y-87.25
X162.25Y-88.0
X163.0Y-75.0
X163.0Y-78.0
X163.0Y-78.75
X163.0Y-79.5
X163.0Y-80.25
X163.0Y-82.75
X163.0Y-83.5
X163.0Y-84.25
X163.0Y-85.0
X163.0Y-88.0
X163.75Y-75.0
X163.75Y-78.75
X163.75Y-79.5
X163.75Y-80.25
X163.75Y-82.75
X163.75Y-83.5
X163.75Y-84.25
X163.75Y-88.0
X164.5Y-75.0
X164.5Y-78.75
X164.5Y-79.5
X164.5Y-80.25
X164.5Y-82.75
X164.5Y-83.5
X164.5Y-84.25
X164.5Y-88.0
X165.25Y-75.0
X165.25Y-78.0
X165.25Y-78.75
X165.25Y-79.5
X165.25Y-80.25
X165.25Y-82.75
X165.25Y-83.5
X165.25Y-84.25
X165.25Y-85.0
X165.25Y-88.0
X166.0Y-75.0
X166.0Y-75.75
X166.0Y-76.5
X166.0Y-77.25
X166.0Y-78.0
X166.0Y-78.75
X166.0Y-79.5
X166.0Y-80.25
X166.0Y-82.75
X166.0Y-83.5
X166.0Y-84.25
X166.0Y-85.0
X166.0Y-85.75
X166.0Y-86.5
X166.0Y-87.25
X166.0Y-88.0
X166.6Y-75.0
X166.6Y-75.75
X166.6Y-76.5
X166.6Y-77.25
X166.6Y-78.0
X166.6Y-78.75
X166.6Y-79.5
X166.6Y-80.25
X166.6Y-82.75
X166.6Y-83.5
X166.6Y-84.25
X166.6Y-85.0
X166.6Y-85.75
X166.6Y-86.5
X166.6Y-87.25
X166.6Y-88.0
T3
X110.0Y-90.9
X111.555Y-80.585
X111.655Y-82.685
X111.855Y-74.385
X111.855Y-75.285
X111.9Y-89.1
X114.055Y-76.285
X114.555Y-71.585
X114.655Y-80.585
X114.655Y-82.485
X114.9Y-91.1
X115.695Y-79.285
X116.899Y-81.676
X117.055Y-84.785
X118.312Y-75.826
X119.34Y-81.54
X119.355Y-84.785
X119.805Y-82.207
X120.25Y-81.5
X120.325Y-73.625
X120.355Y-79.385
X120.455Y-83.085
X120.455Y-84.085
X120.655Y-72.785
X122.294Y-86.509
X122.355Y-98.585
X122.7Y-65.45
X122.815Y-74.555
X122.955Y-81.785
X123.055Y-77.085
X123.655Y-76.385
X124.655Y-76.385
X125.075Y-96.335
X125.155Y-82.485
X125.155Y-85.185
X125.327Y-79.505
X125.38Y-80.769
X125.455Y-78.485
X126.555Y-82.985
X127.655Y-73.685
X127.655Y-76.485
X127.655Y-85.185
X128.455Y-71.585
X128.455Y-82.985
X129.455Y-79.785
X129.555Y-77.585
X130.053Y-76.419
X130.655Y-85.185
X130.655Y-87.69
X131.251Y-76.417
X131.755Y-80.085
X131.755Y-82.585
X131.784Y-78.241
X134.299Y-82.508
X134.455Y-80.085
X134.455Y-83.585
X135.255Y-85.685
X137.755Y-79.985
X139.455Y-67.585
X139.655Y-75.485
X139.755Y-73.585
X142.055Y-66.385
X142.255Y-95.385
X143.655Y-86.785
X144.655Y-97.985
X149.455Y-89.185
X149.455Y-91.685
X150.455Y-92.785
X150.455Y-97.985
X156.125Y-68.72
X156.291Y-76.785
X156.955Y-87.185
X157.085Y-67.91
X157.355Y-71.685
X160.755Y-75.185
X162.325Y-71.35
T4
X120.255Y-69.285
X122.355Y-96.585
X122.555Y-87.385
X128.755Y-72.485
X133.655Y-76.085
X138.955Y-71.285
X144.255Y-64.485
X148.955Y-85.185
X151.383Y-68.155
X156.013Y-70.727
X156.955Y-84.985
T5
X114.75Y-81.5
X115.555Y-84.485
X115.655Y-77.285
X124.4Y-70.75
X124.5Y-69.75
X124.505Y-71.836
X125.6Y-71.85
X126.355Y-95.385
X126.555Y-69.885
X129.1Y-97.938
X130.223Y-90.356
X130.955Y-80.385
X130.968Y-72.768
X131.9Y-65.1
X132.9Y-90.537
X132.9Y-97.938
X134.527Y-73.149
X134.7Y-65.5
T7
X164.2Y-76.75
X164.2Y-86.25
T8
X112.055Y-78.485
X112.055Y-84.485
T9
X163.0Y-67.0
X111.0Y-67.0
X111.0Y-96.0
X163.0Y-96.0
T6
G00X109.605Y-77.165
M15
G01X108.305Y-77.165
M16
G05
G00X109.605Y-85.805
M15
G01X108.305Y-85.805
M16
G05
G00X113.28Y-77.165
M15
G01X112.28Y-77.165
M16
G05
G00X113.28Y-85.805
M15
G01X112.28Y-85.805
M16
G05
T0
M30
